<svg width="52" height="67" viewBox="0 0 52 67" fill="none" xmlns="http://www.w3.org/2000/svg">
<path opacity="0.2" d="M51.5098 67H0.137695V56.1895C4.06348 53.3477 7.98926 50.3301 11.915 47.1367C15.8701 43.9434 19.0342 41.1895 21.4072 38.875C24.9521 35.4473 27.4717 32.459 28.9658 29.9102C30.46 27.3613 31.207 24.8418 31.207 22.3516C31.207 19.3633 30.2402 17.0635 28.3066 15.4521C26.4023 13.8115 23.6484 12.9912 20.0449 12.9912C17.3496 12.9912 14.5078 13.5479 11.5195 14.6611C8.56055 15.7744 5.80664 17.1953 3.25781 18.9238H1.85156V4.37793C3.93164 3.46973 6.99316 2.56152 11.0361 1.65332C15.1084 0.745117 19.1807 0.291016 23.2529 0.291016C31.4561 0.291016 37.7109 2.01953 42.0176 5.47656C46.3242 8.9043 48.4775 13.7676 48.4775 20.0664C48.4775 24.1973 47.4375 28.123 45.3574 31.8438C43.3066 35.5645 40.1572 39.4023 35.9092 43.3574C33.2432 45.8184 30.5625 48.0889 27.8672 50.1689C25.1719 52.2197 23.2529 53.6553 22.1104 54.4756H51.5098V67Z" fill="#B4EC51"/>
</svg>
