<svg width="52" height="69" viewBox="0 0 52 69" fill="none" xmlns="http://www.w3.org/2000/svg">
<path opacity="0.2" d="M47.0938 36.3262C48.5293 37.5566 49.6719 38.9922 50.5215 40.6328C51.3711 42.2734 51.7959 44.4561 51.7959 47.1807C51.7959 50.2568 51.1807 53.1279 49.9502 55.7939C48.749 58.46 46.8887 60.7451 44.3691 62.6494C41.9082 64.4951 39.0078 65.916 35.668 66.9121C32.3574 67.8789 28.3291 68.3623 23.583 68.3623C18.1631 68.3623 13.5049 67.9375 9.6084 67.0879C5.74121 66.2383 2.5918 65.2861 0.160156 64.2314V49.8613H1.87402C4.39355 51.3848 7.39648 52.7031 10.8828 53.8164C14.3984 54.9297 17.6064 55.4863 20.5068 55.4863C22.2061 55.4863 24.0518 55.3545 26.0439 55.0908C28.0361 54.7979 29.7207 54.1826 31.0977 53.2451C32.1816 52.5127 33.0459 51.6338 33.6904 50.6084C34.335 49.5537 34.6572 48.0449 34.6572 46.082C34.6572 44.1777 34.2178 42.7129 33.3389 41.6875C32.46 40.6328 31.3027 39.8857 29.8672 39.4463C28.4316 38.9775 26.7031 38.7285 24.6816 38.6992C22.6602 38.6406 20.7852 38.6113 19.0566 38.6113H15.4531V26.9219H19.1885C21.4736 26.9219 23.4951 26.8486 25.2529 26.7021C27.0107 26.5557 28.5049 26.2188 29.7354 25.6914C31.0244 25.1348 31.9912 24.4023 32.6357 23.4941C33.2803 22.5566 33.6025 21.1943 33.6025 19.4072C33.6025 18.0889 33.2656 17.0342 32.5918 16.2432C31.918 15.4229 31.0684 14.7783 30.043 14.3096C28.9004 13.7822 27.5527 13.4307 26 13.2549C24.4473 13.0791 23.1143 12.9912 22.001 12.9912C19.2471 12.9912 16.2588 13.4746 13.0361 14.4414C9.81348 15.3789 6.69336 16.7412 3.67578 18.5283H2.0498V4.33398C4.45215 3.36719 7.71875 2.44434 11.8496 1.56543C15.9805 0.657227 20.1699 0.203125 24.418 0.203125C28.5488 0.203125 32.167 0.569336 35.2725 1.30176C38.3779 2.00488 40.9414 2.95703 42.9629 4.1582C45.3652 5.59375 47.1523 7.33691 48.3242 9.3877C49.4961 11.4385 50.082 13.8408 50.082 16.5947C50.082 20.2275 48.9541 23.4795 46.6982 26.3506C44.4424 29.1924 41.4688 31.0088 37.7773 31.7998V32.415C39.2715 32.6201 40.8535 33.0303 42.5234 33.6455C44.1934 34.2607 45.7168 35.1543 47.0938 36.3262Z" fill="#B4EC51"/>
</svg>
