<svg width="51" height="72" viewBox="0 0 51 72" fill="none" xmlns="http://www.w3.org/2000/svg">
<mask id="mask0" mask-type="alpha" maskUnits="userSpaceOnUse" x="0" y="0" width="51" height="72">
<path d="M46.3557 38.1586C47.7736 39.4584 48.9021 40.9749 49.7413 42.7079C50.5804 44.441 51 46.7466 51 49.6248C51 52.8743 50.3923 55.9072 49.177 58.7234C47.9906 61.5396 46.1532 63.9536 43.6647 65.9652C41.234 67.9149 38.3694 69.4159 35.0706 70.4681C31.8009 71.4894 27.8221 72 23.1345 72C17.7813 72 13.1804 71.5513 9.33191 70.6538C5.51234 69.7563 2.4017 68.7505 0 67.6364V52.4565H1.69277C4.18128 54.0658 7.14723 55.4584 10.5906 56.6344C14.063 57.8104 17.2315 58.3984 20.0962 58.3984C21.7745 58.3984 23.5974 58.2592 25.5651 57.9807C27.5328 57.6712 29.1966 57.0213 30.5566 56.0309C31.6272 55.2573 32.4809 54.3288 33.1174 53.2456C33.754 52.1315 34.0723 50.5377 34.0723 48.4642C34.0723 46.4526 33.6383 44.9052 32.7702 43.822C31.9021 42.7079 30.7591 41.9188 29.3413 41.4545C27.9234 40.9594 26.2162 40.6963 24.2196 40.6654C22.223 40.6035 20.3711 40.5725 18.6638 40.5725H15.1047V28.2244H18.794C21.0511 28.2244 23.0477 28.147 24.7838 27.9923C26.52 27.8375 27.9957 27.4816 29.2111 26.9246C30.4843 26.3366 31.4391 25.5629 32.0757 24.6035C32.7123 23.6132 33.0306 22.1741 33.0306 20.2863C33.0306 18.8936 32.6979 17.7795 32.0323 16.9439C31.3668 16.0774 30.5277 15.3965 29.5149 14.9014C28.3864 14.3443 27.0553 13.9729 25.5217 13.7872C23.9881 13.6015 22.6715 13.5087 21.5719 13.5087C18.8519 13.5087 15.9004 14.0193 12.7174 15.0406C9.53447 16.0309 6.45277 17.47 3.47234 19.3578H1.86638V4.36364C4.23915 3.34236 7.46553 2.3675 11.5455 1.43907C15.6255 0.47969 19.7634 0 23.9591 0C28.0391 0 31.6128 0.386847 34.68 1.16054C37.7472 1.90329 40.2791 2.90909 42.2757 4.17795C44.6485 5.69439 46.4136 7.53578 47.5711 9.70213C48.7285 11.8685 49.3072 14.4062 49.3072 17.3153C49.3072 21.1528 48.1932 24.588 45.9651 27.6209C43.737 30.6228 40.8 32.5416 37.154 33.3772V34.0271C38.6298 34.2437 40.1923 34.677 41.8417 35.3269C43.4911 35.9768 44.9957 36.9207 46.3557 38.1586Z" fill="#B4EC51"/>
</mask>
<g mask="url(#mask0)">
<path d="M46.1976 40.0567C47.6154 41.3565 48.7439 42.8729 49.5831 44.606C50.4222 46.3391 50.8418 48.6447 50.8418 51.5228C50.8418 54.7723 50.2342 57.8052 49.0188 60.6215C47.8325 63.4377 45.995 65.8516 43.5065 67.8633C41.0759 69.813 38.2112 71.3139 34.9124 72.3662C31.6427 73.3874 27.6639 73.8981 22.9763 73.8981C17.6231 73.8981 13.0222 73.4493 9.17373 72.5518C5.35415 71.6544 2.24351 70.6486 -0.158188 69.5344V54.3545H1.53458C4.02309 55.9638 6.98905 57.3565 10.4325 58.5325C13.9048 59.7085 17.0733 60.2965 19.938 60.2965C21.6163 60.2965 23.4393 60.1573 25.4069 59.8787C27.3746 59.5692 29.0384 58.9193 30.3984 57.929C31.469 57.1553 32.3227 56.2269 32.9593 55.1437C33.5959 54.0296 33.9142 52.4358 33.9142 50.3623C33.9142 48.3507 33.4801 46.8033 32.612 45.7201C31.7439 44.606 30.601 43.8168 29.1831 43.3526C27.7652 42.8575 26.058 42.5944 24.0614 42.5634C22.0648 42.5016 20.2129 42.4706 18.5056 42.4706H14.9465V30.1224H18.6359C20.8929 30.1224 22.8895 30.0451 24.6256 29.8903C26.3618 29.7356 27.8376 29.3797 29.0529 28.8226C30.3261 28.2346 31.281 27.4609 31.9176 26.5016C32.5542 25.5112 32.8725 24.0722 32.8725 22.1843C32.8725 20.7917 32.5397 19.6776 31.8742 18.842C31.2086 17.9754 30.3695 17.2946 29.3567 16.7994C28.2282 16.2424 26.8971 15.871 25.3635 15.6853C23.8299 15.4996 22.5133 15.4068 21.4137 15.4068C18.6937 15.4068 15.7422 15.9174 12.5593 16.9387C9.37628 17.929 6.29458 19.3681 3.31415 21.2559H1.7082V6.26171C4.08096 5.24043 7.30734 4.26558 11.3873 3.33714C15.4673 2.37776 19.6052 1.89807 23.801 1.89807C27.881 1.89807 31.4546 2.28492 34.5218 3.05861C37.589 3.80136 40.121 4.80716 42.1176 6.07602C44.4903 7.59246 46.2554 9.43385 47.4129 11.6002C48.5703 13.7665 49.149 16.3043 49.149 19.2134C49.149 23.0509 48.035 26.4861 45.8069 29.519C43.5788 32.5209 40.6418 34.4397 36.9959 35.2752V35.9251C38.4716 36.1418 40.0342 36.5751 41.6835 37.225C43.3329 37.8749 44.8376 38.8188 46.1976 40.0567Z" fill="#B4EC51"/>
<rect x="-29.7947" y="-2.30396" width="123.898" height="107.822" rx="25" fill="url(#paint0_linear)"/>
<path fill-rule="evenodd" clip-rule="evenodd" d="M-50.5303 65.0731C-50.5303 65.0731 -35.2144 -22.9999 0.320007 30.8456C29.1528 74.5362 32.5783 79.754 45.8355 71.0333C61.3818 60.8068 64.2492 30.8456 71.984 30.8456C79.7189 30.8456 91.1214 83.3017 97.4012 74.5362C103.681 65.7706 108.556 39.4352 121.345 39.4352C134.135 39.4352 132.273 71.9603 132.273 71.9603L126.988 109.944L51.0184 104.518L-48.6923 117.04" fill="url(#paint1_linear)"/>
</g>
<defs>
<linearGradient id="paint0_linear" x1="-29.7947" y1="51.6067" x2="93.3997" y2="51.7113" gradientUnits="userSpaceOnUse">
<stop stop-color="#459622"/>
<stop offset="1" stop-color="#B0E94F"/>
</linearGradient>
<linearGradient id="paint1_linear" x1="125.759" y1="43.3622" x2="-38.8418" y2="44.2228" gradientUnits="userSpaceOnUse">
<stop stop-color="#5CA82C"/>
<stop offset="0.0001" stop-color="#68B231"/>
<stop offset="1" stop-color="#A6E24B"/>
</linearGradient>
</defs>
</svg>
