<svg width="23" height="15" viewBox="0 0 23 15" fill="none" xmlns="http://www.w3.org/2000/svg"><path d="M8.9 13.694a4.705 4.705 0 0 0 1.54-.702 3.456 3.456 0 0 0 1.072-1.227c.263-.497.395-1.089.395-1.776 0-.847-.202-1.57-.613-2.174-.41-.6-1.027-1.022-1.86-1.262.611-.29 1.07-.662 1.382-1.117.31-.456.464-1.025.464-1.707 0-.63-.104-1.164-.31-1.59a2.621 2.621 0 0 0-.884-1.033 3.858 3.858 0 0 0-1.369-.56A8.337 8.337 0 0 0 6.95.376H.562v13.548H7.13c.607 0 1.2-.077 1.77-.229zM3.545 2.684h2.79c.264 0 .522.018.768.067.25.042.465.122.656.237.192.111.345.27.46.472.111.202.166.462.166.777 0 .568-.166.982-.51 1.233-.346.254-.784.38-1.312.38H3.546V2.682zm0 8.932v-3.73h3.242c.643 0 1.164.147 1.556.444.39.301.587.797.587 1.495 0 .357-.058.652-.178.878-.12.23-.285.41-.485.541-.2.136-.436.23-.703.287a3.836 3.836 0 0 1-.836.085H3.546zm10.59 1.134c.438.456.96.806 1.584 1.055.624.247 1.32.372 2.092.372 1.109 0 2.06-.254 2.84-.764.79-.507 1.369-1.35 1.75-2.531h-2.373c-.092.303-.33.596-.72.87-.394.273-.863.41-1.407.41-.755 0-1.339-.198-1.742-.592-.405-.394-.667-1.128-.667-1.903h7.078a6.947 6.947 0 0 0-.187-2.184 5.323 5.323 0 0 0-.862-1.862 4.35 4.35 0 0 0-1.53-1.3c-.623-.325-1.35-.485-2.18-.485-.751 0-1.43.134-2.046.4a4.86 4.86 0 0 0-1.59 1.093 4.817 4.817 0 0 0-1.026 1.644 5.753 5.753 0 0 0-.363 2.052c0 .758.119 1.458.353 2.09.236.637.568 1.178.996 1.636zm1.48-5.428a1.93 1.93 0 0 1 .361-.69c.175-.214.403-.396.682-.541.285-.148.642-.22 1.072-.22.662 0 1.205.191 1.524.545.322.358.557.865.621 1.553h-4.383c.012-.192.053-.408.123-.647zm-.675-6.038h5.492v1.337h-5.491V1.284z" fill="#B4EC50"/></svg>