<svg width="18" height="18" viewBox="0 0 18 18" fill="none" xmlns="http://www.w3.org/2000/svg"><path d="M9 1.895c1.525 0 2.956.582 4.03 1.639a5.471 5.471 0 0 1 1.655 3.922c0 1.48-.587 2.87-1.653 3.921L9 15.341l-4.03-3.965a5.465 5.465 0 0 1-1.653-3.922c0-1.48.587-2.872 1.653-3.923A5.718 5.718 0 0 1 9 1.895zM9 0C7.061 0 5.12.728 3.64 2.184a7.372 7.372 0 0 0 0 10.546L9 18l5.36-5.272a7.37 7.37 0 0 0 0-10.544A7.616 7.616 0 0 0 9 0z" fill="#B4EC50"/><path d="M9 5.21a2.37 2.37 0 0 1 1.675 4.044 2.354 2.354 0 0 1-1.674.692 2.358 2.358 0 0 1-1.676-.692 2.37 2.37 0 0 1 0-3.351 2.36 2.36 0 0 1 1.676-.693zm0-.947a3.317 3.317 0 1 0 2.345 5.66 3.319 3.319 0 0 0 0-4.69 3.305 3.305 0 0 0-2.344-.97z" fill="#B4EC50"/></svg>