<svg width="18" height="18" viewBox="0 0 18 18" fill="none" xmlns="http://www.w3.org/2000/svg"><g clip-path="url(#clip0)"><path d="M16.605 2.403l-1.61-1.61A2.673 2.673 0 0 0 13.09.006c-.72 0-1.396.28-1.904.789L9.762 2.217a2.694 2.694 0 0 0 0 3.808L11 7.262l-3.744 3.745-1.238-1.238a2.673 2.673 0 0 0-1.904-.789c-.719 0-1.395.28-1.903.79L.787 11.192a2.694 2.694 0 0 0 0 3.807l1.61 1.61c.418.417 1.612 1.386 3.695 1.386 2.48 0 5.11-1.372 7.818-4.08 5.606-5.605 4.331-9.874 2.695-11.513zm-5.573 1.083l1.424-1.423a.895.895 0 0 1 1.269 0l.972.971-2.693 2.693-.972-.971a.897.897 0 0 1 0-1.27zM2.057 13.731a.897.897 0 0 1 0-1.27l1.424-1.423a.895.895 0 0 1 1.269 0l.97.971-2.69 2.693-.973-.971zm10.585-1.083C9.875 15.414 7.66 16.2 6.092 16.2c-1.21 0-2.034-.47-2.425-.86a854.73 854.73 0 0 1 2.688-2.697l.267.267a.895.895 0 0 0 1.27 0l5.013-5.014a.897.897 0 0 0 0-1.27l-.268-.266 2.694-2.692c.9.9 2.215 4.073-2.69 8.979z" fill="#B4EC50"/></g><defs><clipPath id="clip0"><path fill="#fff" d="M0 0h18v18H0z"/></clipPath></defs></svg>