<svg width="210" height="210" viewBox="0 0 210 210" fill="none" xmlns="http://www.w3.org/2000/svg">
<g clip-path="url(#clip0)">
<path d="M105.103 63.2038C100.837 63.2038 0.205078 62.9588 0.205078 42.2061C0.205078 37.9016 3.49187 31.7073 31.8841 26.5629L33.1079 33.5621C9.26122 37.6566 7.19824 42.2061 7.19824 42.2061C8.7717 47.1056 42.8634 56.2046 105.103 56.2046C167.342 56.2046 201.433 47.1756 203.007 42.2061C202.447 40.5263 192.797 34.507 157.202 30.7624L157.901 23.7632C192.517 27.3678 210 33.5621 210 42.2061C210 62.9588 109.368 63.2038 105.103 63.2038Z" fill="#B4EC51"/>
<path d="M66.8848 29.5023L66.3953 22.5031C78.7032 21.6632 91.7105 21.2083 105.102 21.2083C108.599 21.2083 112.096 21.2083 115.592 21.2083V28.2075C112.096 28.2075 108.599 28.2075 105.102 28.2075C91.8853 28.2075 79.0179 28.6274 66.8848 29.5023Z" fill="#B4EC51"/>
<path d="M87.6197 136.696C86.6923 136.696 85.8029 136.327 85.1472 135.671C84.4915 135.014 84.1231 134.124 84.1231 133.196V114.158L7.19829 66.1784C6.42743 65.6943 5.87552 64.9285 5.65979 64.0437L0.414917 43.046L7.19829 41.3662L12.0935 60.964L89.4729 109.224C89.9768 109.539 90.3921 109.977 90.6796 110.498C90.9672 111.018 91.1174 111.604 91.1163 112.198V128.926L119.089 123.327V112.198C119.088 111.604 119.238 111.018 119.526 110.498C119.813 109.977 120.228 109.539 120.732 109.224L203.007 57.7794V42.2061H210V59.7042C210.001 60.2989 209.851 60.8841 209.563 61.4046C209.276 61.9251 208.861 62.3636 208.357 62.6788L126.082 114.123V126.197C126.099 127.015 125.828 127.814 125.317 128.453C124.805 129.093 124.086 129.533 123.285 129.696L88.319 136.696H87.6197Z" fill="#B4EC51"/>
<path d="M106.361 192.689H103.844C96.8506 192.689 91.1162 188.14 91.1162 182.191V181.246H98.1094V182.191C98.1094 183.765 100.557 185.69 103.844 185.69H106.361C109.648 185.69 112.096 183.94 112.096 182.191C112.096 180.441 110.452 179.356 107.655 178.936L101.606 178.201C98.9553 178.05 96.4449 176.96 94.5232 175.126C92.6016 173.293 91.394 170.835 91.1162 168.192C91.1162 162.418 96.7107 157.693 103.844 157.693H106.361C113.354 157.693 119.089 162.243 119.089 168.192V169.137H112.096V168.192C112.096 166.617 109.648 164.693 106.361 164.693H103.844C100.557 164.693 98.1094 166.442 98.1094 168.192C98.1094 169.942 99.7528 171.027 102.55 171.447L108.704 172.357C111.382 172.514 113.914 173.629 115.839 175.498C117.765 177.367 118.955 179.867 119.194 182.541C119.089 188.14 113.494 192.689 106.361 192.689Z" fill="#FFB321"/>
<path d="M108.599 154.194H101.606V161.193H108.599V154.194Z" fill="#FFB321"/>
<path d="M108.599 189.19H101.606V196.189H108.599V189.19Z" fill="#FFB321"/>
<path d="M105.103 210.188C98.187 210.188 91.4267 208.135 85.6766 204.29C79.9265 200.444 75.4448 194.979 72.7983 188.584C70.1519 182.189 69.4594 175.153 70.8086 168.364C72.1578 161.575 75.4879 155.34 80.378 150.445C85.268 145.551 91.4984 142.218 98.2811 140.868C105.064 139.517 112.094 140.21 118.483 142.859C124.873 145.508 130.333 149.994 134.176 155.749C138.018 161.504 140.068 168.27 140.068 175.191C140.068 184.473 136.384 193.374 129.827 199.937C123.27 206.5 114.376 210.188 105.103 210.188ZM105.103 147.195C99.5701 147.195 94.1619 148.837 89.5618 151.913C84.9617 154.989 81.3764 159.362 79.2592 164.477C77.142 169.593 76.5881 175.222 77.6674 180.653C78.7467 186.084 81.4109 191.073 85.3229 194.988C89.2349 198.904 94.2192 201.57 99.6454 202.65C105.072 203.731 110.696 203.176 115.807 201.057C120.919 198.938 125.287 195.35 128.361 190.746C131.435 186.142 133.075 180.729 133.075 175.191C133.075 167.766 130.128 160.645 124.882 155.395C119.636 150.144 112.521 147.195 105.103 147.195Z" fill="#FFB321"/>
<path d="M49.1572 45.7058C45.0079 45.7058 40.9517 44.4743 37.5017 42.167C34.0516 39.8598 31.3626 36.5804 29.7747 32.7436C28.1868 28.9067 27.7714 24.6848 28.5809 20.6117C29.3904 16.5385 31.3885 12.7971 34.3225 9.86053C37.2565 6.92396 40.9947 4.92412 45.0643 4.11392C49.134 3.30372 53.3522 3.71955 57.1857 5.30881C61.0192 6.89807 64.2958 9.5894 66.601 13.0424C68.9063 16.4955 70.1367 20.5552 70.1367 24.7081C70.1367 30.277 67.9264 35.6179 63.992 39.5557C60.0576 43.4935 54.7213 45.7058 49.1572 45.7058ZM49.1572 10.7097C46.391 10.7097 43.6869 11.5307 41.3868 13.0688C39.0868 14.607 37.2941 16.7933 36.2356 19.3511C35.177 21.909 34.9 24.7236 35.4396 27.4391C35.9793 30.1545 37.3114 32.6488 39.2674 34.6065C41.2234 36.5642 43.7156 37.8974 46.4286 38.4376C49.1417 38.9777 51.9539 38.7005 54.5096 37.641C57.0652 36.5815 59.2496 34.7873 60.7864 32.4852C62.3233 30.1832 63.1436 27.4767 63.1436 24.7081C63.1436 20.9955 61.67 17.4349 59.0471 14.8097C56.4241 12.1845 52.8666 10.7097 49.1572 10.7097Z" fill="#FFB321"/>
<path d="M92.8645 63.2036C90.444 63.2036 88.0779 62.4852 86.0654 61.1393C84.0529 59.7934 82.4843 57.8804 81.558 55.6423C80.6318 53.4041 80.3894 50.9413 80.8616 48.5653C81.3338 46.1893 82.4994 44.0068 84.2109 42.2938C85.9224 40.5808 88.103 39.4143 90.477 38.9417C92.8509 38.469 95.3116 38.7116 97.5478 39.6387C99.784 40.5657 101.695 42.1357 103.04 44.15C104.385 46.1642 105.103 48.5324 105.103 50.9549C105.103 54.2035 103.813 57.319 101.518 59.616C99.223 61.9131 96.1102 63.2036 92.8645 63.2036ZM92.8645 45.7055C91.8272 45.7055 90.8131 46.0134 89.9506 46.5902C89.0881 47.167 88.4158 47.9869 88.0189 48.9461C87.6219 49.9053 87.518 50.9608 87.7204 51.979C87.9228 52.9973 88.4223 53.9327 89.1558 54.6668C89.8893 55.401 90.8239 55.9009 91.8413 56.1035C92.8587 56.306 93.9132 56.2021 94.8716 55.8048C95.83 55.4074 96.6491 54.7346 97.2254 53.8714C97.8018 53.0081 98.1094 51.9932 98.1094 50.9549C98.1094 49.5627 97.5568 48.2275 96.5732 47.243C95.5896 46.2586 94.2555 45.7055 92.8645 45.7055Z" fill="#FFB321"/>
<path d="M136.572 49.2055C131.731 49.2055 126.999 47.7687 122.974 45.0769C118.949 42.3852 115.811 38.5592 113.959 34.0829C112.106 29.6066 111.622 24.681 112.566 19.929C113.51 15.177 115.842 10.812 119.265 7.38603C122.688 3.96003 127.049 1.62689 131.797 0.681657C136.545 -0.263576 141.466 0.221552 145.938 2.07569C150.411 3.92983 154.233 7.06971 156.923 11.0983C159.612 15.1268 161.048 19.8631 161.048 24.7082C161.048 31.2053 158.469 37.4363 153.879 42.0304C149.289 46.6245 143.063 49.2055 136.572 49.2055ZM136.572 7.21017C133.114 7.21017 129.734 8.23641 126.859 10.1591C123.984 12.0818 121.743 14.8147 120.42 18.012C119.096 21.2094 118.75 24.7276 119.425 28.1219C120.099 31.5162 121.764 34.6341 124.21 37.0812C126.655 39.5283 129.77 41.1949 133.161 41.87C136.552 42.5452 140.068 42.1987 143.262 40.8743C146.457 39.5499 149.187 37.3071 151.108 34.4296C153.029 31.5521 154.055 28.169 154.055 24.7082C154.055 20.0674 152.213 15.6167 148.934 12.3352C145.655 9.05371 141.209 7.21017 136.572 7.21017Z" fill="#FFB321"/>
<path d="M190.769 35.2069C187.657 35.2069 184.615 34.2833 182.027 32.5529C179.44 30.8224 177.423 28.3629 176.232 25.4853C175.041 22.6077 174.729 19.4412 175.337 16.3864C175.944 13.3315 177.442 10.5254 179.643 8.32301C181.843 6.12058 184.647 4.6207 187.699 4.01305C190.751 3.4054 193.915 3.71727 196.79 4.90922C199.665 6.10117 202.123 8.11966 203.852 10.7094C205.581 13.2992 206.503 16.344 206.503 19.4587C206.494 23.6326 204.833 27.6328 201.885 30.5842C198.936 33.5355 194.939 35.1977 190.769 35.2069ZM190.769 10.7097C189.04 10.7097 187.35 11.2228 185.912 12.1842C184.475 13.1455 183.354 14.5119 182.693 16.1106C182.031 17.7093 181.858 19.4684 182.195 21.1655C182.533 22.8627 183.365 24.4216 184.588 25.6452C185.81 26.8688 187.368 27.702 189.063 28.0396C190.759 28.3772 192.517 28.2039 194.114 27.5417C195.711 26.8796 197.077 25.7582 198.037 24.3194C198.998 22.8806 199.51 21.1891 199.51 19.4587C199.51 17.1383 198.589 14.913 196.95 13.2722C195.311 11.6314 193.087 10.7097 190.769 10.7097Z" fill="#FFB321"/>
<path d="M140.068 38.7065H129.579V31.7073H136.572V30.3074L131.467 27.7177C130.912 27.4305 130.445 26.9999 130.113 26.4706C129.781 25.9413 129.596 25.3328 129.579 24.7081V17.7088C129.579 16.7807 129.947 15.8905 130.603 15.2342C131.258 14.5779 132.148 14.2092 133.075 14.2092H143.565V21.2084H136.572V22.4683L141.677 25.058C142.252 25.3563 142.733 25.8088 143.067 26.365C143.4 26.9212 143.573 27.5591 143.565 28.2077V35.2069C143.565 36.135 143.197 37.0252 142.541 37.6815C141.885 38.3378 140.996 38.7065 140.068 38.7065Z" fill="#FFB321"/>
<path d="M52.6538 17.709H45.6606V31.7074H52.6538V17.709Z" fill="#FFB321"/>
</g>
<defs>
<clipPath id="clip0">
<rect width="210" height="210" fill="white"/>
</clipPath>
</defs>
</svg>
