<svg width="51" height="72" viewBox="0 0 51 72" fill="none" xmlns="http://www.w3.org/2000/svg">
<mask id="mask0" mask-type="alpha" maskUnits="userSpaceOnUse" x="0" y="0" width="51" height="72">
<path d="M46.3557 38.1586C47.7736 39.4584 48.9021 40.9749 49.7413 42.7079C50.5804 44.441 51 46.7466 51 49.6248C51 52.8743 50.3923 55.9072 49.177 58.7234C47.9906 61.5396 46.1532 63.9536 43.6647 65.9652C41.234 67.9149 38.3694 69.4159 35.0706 70.4681C31.8009 71.4894 27.8221 72 23.1345 72C17.7813 72 13.1804 71.5513 9.33191 70.6538C5.51234 69.7563 2.4017 68.7505 0 67.6364V52.4565H1.69277C4.18128 54.0658 7.14723 55.4584 10.5906 56.6344C14.063 57.8104 17.2315 58.3984 20.0962 58.3984C21.7745 58.3984 23.5974 58.2592 25.5651 57.9807C27.5328 57.6712 29.1966 57.0213 30.5566 56.0309C31.6272 55.2573 32.4809 54.3288 33.1174 53.2456C33.754 52.1315 34.0723 50.5377 34.0723 48.4642C34.0723 46.4526 33.6383 44.9052 32.7702 43.822C31.9021 42.7079 30.7591 41.9188 29.3413 41.4545C27.9234 40.9594 26.2162 40.6963 24.2196 40.6654C22.223 40.6035 20.3711 40.5725 18.6638 40.5725H15.1047V28.2244H18.794C21.0511 28.2244 23.0477 28.147 24.7838 27.9923C26.52 27.8375 27.9957 27.4816 29.2111 26.9246C30.4843 26.3366 31.4391 25.5629 32.0757 24.6035C32.7123 23.6132 33.0306 22.1741 33.0306 20.2863C33.0306 18.8936 32.6979 17.7795 32.0323 16.9439C31.3668 16.0774 30.5277 15.3965 29.5149 14.9014C28.3864 14.3443 27.0553 13.9729 25.5217 13.7872C23.9881 13.6015 22.6715 13.5087 21.5719 13.5087C18.8519 13.5087 15.9004 14.0193 12.7174 15.0406C9.53447 16.0309 6.45277 17.47 3.47234 19.3578H1.86638V4.36364C4.23915 3.34236 7.46553 2.3675 11.5455 1.43907C15.6255 0.47969 19.7634 0 23.9591 0C28.0391 0 31.6128 0.386847 34.68 1.16054C37.7472 1.90329 40.2791 2.90909 42.2757 4.17795C44.6485 5.69439 46.4136 7.53578 47.5711 9.70213C48.7285 11.8685 49.3072 14.4062 49.3072 17.3153C49.3072 21.1528 48.1932 24.588 45.9651 27.6209C43.737 30.6228 40.8 32.5416 37.154 33.3772V34.0271C38.6298 34.2437 40.1923 34.677 41.8417 35.3269C43.4911 35.9768 44.9957 36.9207 46.3557 38.1586Z" fill="#B4EC51"/>
</mask>
<g mask="url(#mask0)">
<path d="M46.1975 40.0568C47.6154 41.3566 48.7439 42.873 49.5831 44.6061C50.4222 46.3392 50.8418 48.6448 50.8418 51.5229C50.8418 54.7725 50.2341 57.8053 49.0188 60.6216C47.8324 63.4378 45.995 65.8518 43.5065 67.8634C41.0758 69.8131 38.2112 71.314 34.9124 72.3663C31.6426 73.3876 27.6639 73.8982 22.9763 73.8982C17.6231 73.8982 13.0222 73.4494 9.17371 72.552C5.35414 71.6545 2.2435 70.6487 -0.158203 69.5346V54.3547H1.53456C4.02307 55.964 6.98903 57.3566 10.4324 58.5326C13.9048 59.7086 17.0733 60.2966 19.938 60.2966C21.6163 60.2966 23.4392 60.1574 25.4069 59.8788C27.3746 59.5694 29.0384 58.9195 30.3984 57.9291C31.469 57.1554 32.3226 56.227 32.9592 55.1438C33.5958 54.0297 33.9141 52.4359 33.9141 50.3624C33.9141 48.3508 33.4801 46.8034 32.612 45.7202C31.7439 44.6061 30.6009 43.817 29.1831 43.3527C27.7652 42.8576 26.058 42.5945 24.0614 42.5636C22.0648 42.5017 20.2129 42.4707 18.5056 42.4707H14.9465V30.1226H18.6358C20.8929 30.1226 22.8895 30.0452 24.6256 29.8905C26.3618 29.7357 27.8375 29.3798 29.0529 28.8228C30.3261 28.2347 31.2809 27.4611 31.9175 26.5017C32.5541 25.5113 32.8724 24.0723 32.8724 22.1845C32.8724 20.7918 32.5397 19.6777 31.8741 18.8421C31.2086 17.9756 30.3695 17.2947 29.3567 16.7995C28.2282 16.2425 26.8971 15.8711 25.3635 15.6854C23.8299 15.4997 22.5133 15.4069 21.4137 15.4069C18.6937 15.4069 15.7422 15.9175 12.5592 16.9388C9.37626 17.9291 6.29456 19.3682 3.31414 21.256H1.70818V6.26183C4.08095 5.24055 7.30733 4.2657 11.3873 3.33726C15.4673 2.37788 19.6052 1.89819 23.8009 1.89819C27.8809 1.89819 31.4546 2.28504 34.5218 3.05873C37.589 3.80148 40.1209 4.80728 42.1175 6.07614C44.4903 7.59258 46.2554 9.43398 47.4129 11.6003C48.5703 13.7667 49.149 16.3044 49.149 19.2135C49.149 23.051 48.035 26.4862 45.8069 29.5191C43.5788 32.521 40.6418 34.4398 36.9958 35.2754V35.9253C38.4716 36.1419 40.0341 36.5752 41.6835 37.2251C43.3329 37.875 44.8375 38.8189 46.1975 40.0568Z" fill="#B4EC51"/>
<rect x="-29.7947" y="-2.30396" width="123.898" height="107.822" rx="25" fill="url(#paint0_linear)"/>
<path fill-rule="evenodd" clip-rule="evenodd" d="M-50.5303 65.0731C-50.5303 65.0731 -35.2144 -22.9999 0.320007 30.8456C29.1528 74.5362 32.5783 79.754 45.8355 71.0333C61.3818 60.8068 64.2492 30.8456 71.984 30.8456C79.7189 30.8456 91.1214 83.3017 97.4012 74.5362C103.681 65.7706 108.556 39.4352 121.345 39.4352C134.135 39.4352 132.273 71.9603 132.273 71.9603L126.988 109.944L51.0184 104.518L-48.6923 117.04" fill="url(#paint1_linear)"/>
</g>
<defs>
<linearGradient id="paint0_linear" x1="-29.7947" y1="51.6067" x2="93.3997" y2="51.7113" gradientUnits="userSpaceOnUse">
<stop stop-color="#459622"/>
<stop offset="1" stop-color="#B0E94F"/>
</linearGradient>
<linearGradient id="paint1_linear" x1="125.759" y1="43.3622" x2="-38.8418" y2="44.2228" gradientUnits="userSpaceOnUse">
<stop stop-color="#5CA82C"/>
<stop offset="0.0001" stop-color="#68B231"/>
<stop offset="1" stop-color="#A6E24B"/>
</linearGradient>
</defs>
</svg>
