<svg width="26" height="26" viewBox="0 0 26 26" fill="none" xmlns="http://www.w3.org/2000/svg">
<path d="M23.1111 3.61108H2.88889C1.29422 3.61108 0 4.90531 0 6.49997V19.5C0 21.0946 1.29422 22.3889 2.88889 22.3889H23.1111C24.7058 22.3889 26 21.0946 26 19.5V6.49997C26 4.90531 24.7058 3.61108 23.1111 3.61108ZM9.12311 14.1786L11.4371 16.2009C11.8777 16.5851 12.4352 16.7758 13 16.7758C13.5648 16.7758 14.1223 16.5836 14.5629 16.2009L16.8769 14.1786L16.8234 14.2321L22.0899 19.4985H3.91011L9.17656 14.2321L9.12311 14.1786ZM2.88889 18.4788V8.72442L8.09178 13.2759L2.88889 18.4788ZM17.9082 13.2759L23.1111 8.72442V18.4744L17.9082 13.2759ZM23.1111 6.49997V6.80331L13.6124 15.1146C13.2846 15.4006 12.7154 15.4006 12.3876 15.1146L2.88889 6.80331V6.49997H23.1111Z" fill="#97D644"/>
</svg>
