<svg width="26" height="26" viewBox="0 0 26 26" fill="none" xmlns="http://www.w3.org/2000/svg">
<path d="M18 7.5C18 6.2571 17.496 5.1321 16.6824 4.3185C15.8679 3.504 14.7429 3 13.5 3C12.2571 3 11.1321 3.504 10.3176 4.3185C9.504 5.1321 9 6.2571 9 7.5C9 8.7429 9.504 9.8679 10.3176 10.6815C11.1321 11.496 12.2571 12 13.5 12C14.7429 12 15.8679 11.496 16.6824 10.6815C17.496 9.8679 18 8.7429 18 7.5Z" fill="#A8E24B"/>
<path d="M6 19.3333C6 20.6667 8.8125 22 13.5 22C17.8975 22 21 20.6667 21 19.3333C21 16.6667 18.0575 14 13.5 14C8.8125 14 6 16.6667 6 19.3333Z" fill="#A8E24B"/>
</svg>
