<svg width="36" height="28" viewBox="0 0 36 28" fill="none" xmlns="http://www.w3.org/2000/svg">
<path d="M27.0619 20.4574H31.531V9.66539L26.4959 4.60143L23.3357 7.77975L27.0619 11.5273V20.4574ZM31.5427 22.7107H25.0337H15.9541L12.228 18.9631L13.8081 17.374L16.8857 20.4693H23.2178L16.98 14.1838L18.5719 12.5828L24.8097 18.8564V12.4879L21.7439 9.40448L23.3122 7.82718L15.565 0H7.92401H0L4.45726 4.48284V4.4947H4.48084H13.7019L16.9682 7.77975L12.1926 12.5828L8.9263 9.29774V6.74798H4.45726V11.1597L12.1926 18.9394L9.04422 22.1059L14.0793 27.1698H21.7203H36L31.5427 22.7107Z" fill="white"/>
</svg>
