<svg width="26" height="34" viewBox="0 0 26 34" fill="none" xmlns="http://www.w3.org/2000/svg">
<path d="M12.6726 6.29976C11.0721 7.4047 9.25809 8.65713 8.28617 10.7291C6.59798 14.3438 11.7407 18.2869 11.9605 18.453C12.0116 18.4917 12.0727 18.5109 12.1336 18.5109C12.1984 18.5109 12.2632 18.4892 12.3159 18.4459C12.418 18.3621 12.447 18.2197 12.3857 18.1038C12.367 18.0686 10.5211 14.5491 10.5897 12.024C10.614 11.1447 11.8678 10.1471 13.1952 9.09088C14.4109 8.1235 15.789 7.02702 16.5953 5.74439C18.3654 2.92105 16.398 0.144861 16.3779 0.117216C16.2998 0.00953019 16.1556 -0.0295977 16.0322 0.0235761C15.909 0.0768614 15.8407 0.207734 15.8689 0.336934C15.8729 0.355216 16.2555 2.19111 15.1909 4.08251C14.7522 4.86407 13.7886 5.52946 12.6726 6.29976Z" fill="white"/>
<path d="M19.4158 7.5448C19.5287 7.46131 19.5618 7.30903 19.4935 7.18752C19.4251 7.06601 19.2762 7.01239 19.144 7.06167C18.8721 7.16311 12.4858 9.57934 12.4858 12.499C12.4858 14.5115 13.3617 15.5747 14.0012 16.3511C14.2521 16.6556 14.4686 16.9186 14.54 17.1431C14.7409 17.7901 14.2649 18.9594 14.0648 19.3554C14.0071 19.4693 14.0354 19.6072 14.1335 19.6904C14.1865 19.7353 14.2527 19.7581 14.3191 19.7581C14.3755 19.7581 14.4322 19.7416 14.4811 19.7081C14.5909 19.6331 17.1647 17.8469 16.7031 15.6949C16.5311 14.877 16.1216 14.2793 15.7602 13.7519C15.2005 12.9349 14.7962 12.3446 15.4095 11.2545C16.1284 9.98322 19.383 7.56899 19.4158 7.5448Z" fill="white"/>
<path d="M2.7927 19.8046C2.68322 20.1262 2.73489 20.4456 2.94204 20.728C3.63436 21.6713 6.08652 22.1909 9.84722 22.1909C9.84745 22.1909 9.84756 22.1909 9.84768 22.1909C10.3573 22.1909 10.8952 22.1811 11.4463 22.1617C17.4589 21.9503 19.6891 20.1118 19.781 20.0336C19.8813 19.9484 19.9081 19.8065 19.8458 19.6917C19.7834 19.577 19.649 19.5194 19.5205 19.554C17.403 20.1216 13.4488 20.323 10.7061 20.323C7.63718 20.323 6.07426 20.1061 5.69165 19.9459C5.888 19.6812 7.09898 19.2087 8.59956 18.919C8.743 18.8913 8.84158 18.7613 8.82738 18.6185C8.81318 18.4757 8.69098 18.3668 8.54482 18.3668C7.66512 18.3669 3.25379 18.4363 2.7927 19.8046Z" fill="white"/>
<path d="M22.9121 17.911C21.6719 17.911 20.4959 18.521 20.4464 18.547C20.3317 18.6073 20.2736 18.7364 20.305 18.8603C20.3366 18.9842 20.45 19.0712 20.5802 19.0714C20.6065 19.0715 23.2255 19.0924 23.4628 20.5612C23.6729 21.8284 20.9847 23.8815 19.9311 24.5658C19.8174 24.6397 19.7732 24.7826 19.826 24.906C19.8708 25.0111 19.9752 25.0769 20.0876 25.0769C20.1073 25.0769 20.1272 25.0749 20.1469 25.0706C20.397 25.0182 26.2632 23.7494 25.643 20.3968C25.2645 18.3422 23.949 17.911 22.9121 17.911Z" fill="white"/>
<path d="M18.8894 24.1556C18.9098 24.0481 18.8643 23.9389 18.7732 23.8762L17.3667 22.9091C17.2981 22.862 17.2114 22.8472 17.1309 22.8681C17.1162 22.8719 15.6453 23.2514 13.5098 23.4841C12.6622 23.5774 11.7129 23.6267 10.7643 23.6267C8.62929 23.6267 7.23331 23.3805 7.03003 23.1999C7.00311 23.1492 7.01163 23.1261 7.0164 23.1133C7.05331 23.0124 7.25126 22.8925 7.37891 22.8452C7.51984 22.794 7.59582 22.6437 7.55198 22.5026C7.50826 22.3615 7.36005 22.2783 7.21378 22.3129C5.80281 22.6471 5.11288 23.1145 5.16308 23.702C5.25223 24.7435 7.71018 25.2781 9.78814 25.4196C10.0869 25.4397 10.4102 25.4499 10.7485 25.4499C10.7487 25.4499 10.7488 25.4499 10.749 25.4499C14.2044 25.4499 18.634 24.3858 18.6783 24.3749C18.7864 24.3487 18.8688 24.263 18.8894 24.1556Z" fill="white"/>
<path d="M8.28502 26.3912C8.39154 26.3231 8.43879 26.1939 8.40097 26.0748C8.36327 25.9558 8.24981 25.8776 8.12239 25.8792C7.9333 25.8841 6.27213 25.9577 6.15584 26.9958C6.12063 27.3061 6.21115 27.5894 6.425 27.8381C7.02146 28.532 8.6314 28.9443 11.3461 29.0989C11.6673 29.1178 11.9935 29.1272 12.3159 29.1272C15.7672 29.1272 18.0916 28.0666 18.189 28.0214C18.2833 27.9776 18.3456 27.8866 18.3511 27.7843C18.3567 27.6821 18.3047 27.585 18.2157 27.5316L16.4381 26.4664C16.3764 26.4295 16.3026 26.4173 16.2322 26.4314C16.2209 26.4338 15.0923 26.6635 13.389 26.8906C13.0667 26.9335 12.6631 26.9554 12.1895 26.9554C10.488 26.9554 8.59551 26.6825 8.23255 26.5039C8.22732 26.4703 8.23403 26.428 8.28502 26.3912Z" fill="white"/>
<path d="M10.7072 32.3298C18.6127 32.3232 22.8558 30.9433 23.6731 30.0749C23.9625 29.7675 23.9937 29.4767 23.9691 29.2867C23.9083 28.8192 23.4746 28.533 23.4253 28.5019C23.3066 28.427 23.1474 28.4467 23.0548 28.5514C22.9625 28.6563 22.9604 28.8094 23.053 28.9141C23.1029 28.9771 23.1317 29.0824 22.9859 29.2256C22.6592 29.5252 19.3634 30.4345 13.876 30.7076C13.1243 30.7461 12.3359 30.7655 11.5328 30.7656C6.61958 30.7656 3.02389 30.1051 2.5519 29.72C2.73395 29.4635 4.00569 29.0535 5.35829 28.8218C5.5107 28.7957 5.6137 28.6547 5.59008 28.5046C5.56646 28.3546 5.42552 28.2512 5.27152 28.271C5.23336 28.276 5.10401 28.2838 4.95399 28.2927C2.72225 28.4265 0.143231 28.7247 0.00865234 29.8533C-0.0322323 30.1973 0.0719097 30.5094 0.318239 30.7812C0.920946 31.4459 2.65343 32.3297 10.7069 32.3297C10.7071 32.3298 10.7071 32.3298 10.7072 32.3298Z" fill="white"/>
<path d="M25.2262 30.3196C25.1144 30.2689 24.9824 30.2945 24.899 30.3828C24.8873 30.3951 23.6988 31.6151 20.1251 32.3314C18.757 32.6005 16.1889 32.737 12.4921 32.737C8.78841 32.737 5.26427 32.5939 5.22907 32.5925C5.08188 32.5855 4.95593 32.6905 4.93595 32.8327C4.91584 32.975 5.0092 33.1088 5.15138 33.1421C5.18807 33.1506 8.88142 34 13.9313 34C16.3534 34 18.7103 33.8068 20.9367 33.4258C25.088 32.7114 25.3786 30.6909 25.3889 30.6053C25.4033 30.4856 25.3377 30.3703 25.2262 30.3196Z" fill="white"/>
</svg>
