<svg width="30" height="35" viewBox="0 0 30 35" fill="none" xmlns="http://www.w3.org/2000/svg">
<path d="M15 0L30 8.57V25.7157L15 34.2857L0 25.7157V8.57L15 0Z" fill="#313131"/>
<path d="M27.3228 25.1212L15.4982 31.8846V26.6248L22.868 22.5256L27.3228 25.1212ZM28.1322 24.3837V10.2509L23.8077 12.7722V21.8624L28.1322 24.3837ZM2.63219 25.1212L14.4567 31.8789V26.6191L7.0869 22.5256L2.63219 25.1212ZM1.82275 24.3837V10.2509L6.14728 12.7722V21.8624L1.82275 24.3837ZM2.32653 9.33616L14.4567 2.40698V7.49524L6.68502 11.8117L6.62275 11.846L2.32653 9.33616ZM27.6228 9.33616L15.4982 2.40698V7.49524L23.2643 11.8174L23.3265 11.8517L27.6228 9.33616Z" fill="white"/>
<path d="M14.4569 25.4241L7.18896 21.3821V13.3838L14.4569 17.6202V25.4241ZM15.4984 25.4241L22.7663 21.3878V13.3838L15.4984 17.6202V25.4241ZM7.67576 12.4576L14.9776 8.40417L22.2739 12.4576L14.9776 16.7112L7.67576 12.4576Z" fill="white"/>
</svg>
