<svg width="30" height="34" viewBox="0 0 30 34" fill="none" xmlns="http://www.w3.org/2000/svg">
<path d="M28.8881 0H1.11056C0.445184 0 -0.054012 0.561178 0.00469135 1.22428L2.54184 29.5616C2.60061 30.2242 3.17561 30.9177 3.82055 31.0968L13.8223 33.8658C14.4664 34.0438 15.5191 34.0449 16.1641 33.8682L26.1783 31.103C26.8234 30.9244 27.3984 30.2372 27.4571 29.5735L29.9953 1.22428C30.054 0.561178 29.5569 0 28.8881 0ZM24.0707 10.229C24.0703 10.2333 24.0669 10.2367 24.0626 10.2374C24.0583 10.2382 24.0541 10.2359 24.0522 10.2319L16.2161 13.4324C16.1045 13.478 16.0409 13.596 16.064 13.7139C16.0874 13.8319 16.1912 13.917 16.3118 13.917H22.407C22.7313 13.917 23.0402 14.0542 23.257 14.2945C23.4738 14.5349 23.578 14.8556 23.5436 15.1769L22.5912 24.0813C22.5445 24.5182 22.2499 24.8893 21.8341 25.0351L15.3645 27.304C15.1208 27.3895 14.8552 27.3902 14.611 27.3058L8.17156 25.0826C7.75317 24.9381 7.45618 24.5659 7.40914 24.1271L6.97742 20.0945C6.95473 19.8828 7.02337 19.6714 7.16614 19.5132C7.30898 19.3548 7.51249 19.2644 7.72614 19.2644H9.51804C9.90309 19.2644 10.226 19.5538 10.2668 19.9354L10.5317 22.4141L14.9903 23.9588L19.4693 22.4L20.0172 17.2592H7.35297C6.96908 17.2592 6.64665 16.9713 6.60454 16.591L6.36342 14.4122C6.32661 14.0799 6.51475 13.7634 6.82479 13.6361L14.93 10.3055C15.022 10.2677 15.0742 10.1705 15.0549 10.0733C15.0356 9.97616 14.9501 9.90617 14.8508 9.90617H6.31711C6.0602 9.90617 5.84473 9.7128 5.81792 9.45825L5.57107 7.11639C5.55622 6.97546 5.60209 6.83483 5.69725 6.72944C5.79241 6.62412 5.928 6.56395 6.0702 6.56395H23.9261C24.0691 6.56395 24.2053 6.62477 24.3005 6.73103C24.3957 6.83735 24.4409 6.97908 24.4248 7.12065L24.0707 10.229Z" fill="white"/>
</svg>
