<svg width="33" height="32" viewBox="0 0 33 32" fill="none" xmlns="http://www.w3.org/2000/svg">
<path d="M16.5 0C7.38357 0 0 7.26902 0 16.244C0 23.878 5.32072 30.2139 12.4993 32C12.4164 31.7968 12.3757 31.512 12.3757 31.2286V28.4664H10.3129C9.19928 28.4664 8.16715 27.9798 7.71357 27.0853C7.17715 26.1107 7.0943 24.6079 5.73357 23.6734C5.32072 23.3485 5.65072 23.0236 6.1043 23.0637C6.97072 23.307 7.67145 23.8766 8.33145 24.7282C8.99145 25.5812 9.28072 25.7844 10.5179 25.7844C11.095 25.7844 12.0022 25.7443 12.8279 25.6213C13.2814 24.4835 14.065 23.4688 15.0143 22.9822C9.48715 22.3324 6.84715 19.6518 6.84715 15.9965C6.84715 14.4122 7.54787 12.9095 8.70357 11.61C8.33285 10.3505 7.83715 7.7515 8.86928 6.73677C11.345 6.73677 12.8293 8.32108 13.2 8.72614C14.4371 8.3197 15.7993 8.07638 17.2007 8.07638C18.6443 8.07638 19.9643 8.3197 21.2014 8.72614C21.5722 8.3197 23.0579 6.73677 25.5322 6.73677C26.5222 7.71141 26.0686 10.3505 25.6557 11.61C26.8114 12.8694 27.4714 14.4122 27.4714 15.9965C27.4714 19.6518 24.8722 22.3324 19.3871 22.9006C20.9136 23.672 21.9864 25.8646 21.9864 27.489V31.1885C21.9864 31.3102 21.9457 31.4318 21.9457 31.5535C28.38 29.3609 33 23.3513 33 16.244C33 7.26902 25.6164 0 16.5 0Z" fill="white"/>
</svg>
