<svg width="34" height="17" viewBox="0 0 34 17" fill="none" xmlns="http://www.w3.org/2000/svg">
<path d="M6.80658 5.3793C7.86793 5.3793 8.57527 5.57324 8.92895 5.9612C9.28228 6.34916 9.36647 7.01508 9.18159 7.95871C8.98845 8.94139 8.61653 9.64278 8.06523 10.063C7.51392 10.4833 6.67496 10.6932 5.54867 10.6932H3.8494L4.89251 5.3793H6.80658ZM0 16.0726H2.79362L3.45622 12.697H5.84907C6.90492 12.697 7.77347 12.5874 8.45533 12.3675C9.13724 12.148 9.75691 11.7798 10.3147 11.263C10.7828 10.8369 11.1616 10.367 11.4517 9.85307C11.7414 9.33958 11.9473 8.77262 12.069 8.15266C12.3646 6.64758 12.1415 5.47527 11.4005 4.63539C10.6595 3.79552 9.48059 3.37561 7.86451 3.37561H2.49248L0 16.0726Z" fill="white"/>
<path d="M14.1206 0H16.8921L16.2295 3.37565H18.6986C20.2521 3.37565 21.3238 3.64412 21.9136 4.18046C22.5033 4.71713 22.68 5.58657 22.4442 6.7885L21.2846 12.697H18.469L19.5717 7.07909C19.6971 6.44 19.6511 6.00408 19.4332 5.77168C19.2153 5.53921 18.7517 5.42291 18.0426 5.42291H15.8274L14.3997 12.6969H11.6281L14.1206 0Z" fill="white"/>
<path d="M28.6112 5.3793C29.6725 5.3793 30.3799 5.57324 30.7336 5.9612C31.087 6.34916 31.1712 7.01508 30.9862 7.95871C30.7931 8.94139 30.4213 9.64278 29.8698 10.063C29.3185 10.4833 28.4796 10.6932 27.3533 10.6932H25.6541L26.6972 5.3793H28.6112ZM21.8047 16.0726H24.5983L25.2608 12.697H27.6537C28.7095 12.697 29.5781 12.5874 30.26 12.3675C30.9419 12.148 31.5615 11.7798 32.1194 11.263C32.5876 10.8369 32.9663 10.367 33.2564 9.85307C33.546 9.33958 33.752 8.77262 33.8736 8.15266C34.1692 6.64758 33.9462 5.47527 33.2051 4.63539C32.4641 3.79552 31.2852 3.37561 29.6691 3.37561H24.2972L21.8047 16.0726Z" fill="white"/>
</svg>
