<svg width="34" height="34" viewBox="0 0 34 34" fill="none" xmlns="http://www.w3.org/2000/svg">
<path d="M2.41638 16.9996C2.41638 22.7721 5.77096 27.7607 10.6354 30.1247L3.67896 11.0644C2.8698 12.8782 2.41638 14.8853 2.41638 16.9996ZM26.8444 16.2637C26.8444 14.4613 26.197 13.2131 25.6417 12.2416C24.9025 11.0403 24.2096 10.023 24.2096 8.82169C24.2096 7.48109 25.2263 6.23318 26.6584 6.23318C26.7231 6.23318 26.7844 6.24123 26.8474 6.24484C24.2529 3.86778 20.7962 2.41646 16.9996 2.41646C11.9049 2.41646 7.42258 5.0305 4.815 8.98985C5.15715 9.00012 5.47959 9.00734 5.75347 9.00734C7.27884 9.00734 9.64 8.82225 9.64 8.82225C10.4261 8.7759 10.5188 9.93058 9.73351 10.0235C9.73351 10.0235 8.9435 10.1165 8.06441 10.1626L13.375 25.9592L16.5664 16.3874L14.2943 10.162C13.509 10.1159 12.7651 10.023 12.7651 10.023C11.9792 9.97692 12.0714 8.77535 12.8572 8.82169C12.8572 8.82169 15.2655 9.00678 16.6985 9.00678C18.2236 9.00678 20.585 8.82169 20.585 8.82169C21.3717 8.77535 21.4641 9.93002 20.6785 10.023C20.6785 10.023 19.8869 10.1159 19.0094 10.162L24.2795 25.839L25.7341 20.9781C26.3646 18.9609 26.8444 17.5121 26.8444 16.2637ZM17.2554 18.2752L12.88 30.99C14.1864 31.374 15.568 31.5841 16.9996 31.5841C18.6978 31.5841 20.3264 31.2905 21.8423 30.7574C21.8032 30.695 21.7677 30.6287 21.7386 30.5565L17.2554 18.2752ZM29.7957 10.0027C29.8585 10.4673 29.894 10.9659 29.894 11.5023C29.894 12.9822 29.6176 14.6458 28.7851 16.726L24.3306 29.6055C28.6661 27.0772 31.5822 22.38 31.5822 16.9999C31.5825 14.4644 30.9348 12.0801 29.7957 10.0027ZM16.9996 0C7.62625 0 0 7.62595 0 16.9996C0 26.3743 7.62625 34 16.9996 34C26.3726 34 34 26.3743 34 16.9996C33.9997 7.62595 26.3726 0 16.9996 0ZM16.9996 33.2208C8.05609 33.2208 0.779469 25.9439 0.779469 16.9996C0.779469 8.05579 8.05581 0.779494 16.9996 0.779494C25.9428 0.779494 33.2189 8.05579 33.2189 16.9996C33.2189 25.9439 25.9428 33.2208 16.9996 33.2208Z" fill="white"/>
</svg>
