<svg width="208" height="208" viewBox="0 0 208 208" fill="none" xmlns="http://www.w3.org/2000/svg">
<g clip-path="url(#clip0)">
<path d="M17.3333 45.0666C17.3333 43.1522 18.8855 41.6 20.8 41.6H135.2V34.6666H20.8C15.0566 34.6666 10.4 39.3233 10.4 45.0666V145.6H3.46667C1.55221 145.6 0 147.152 0 149.067V159.467C0 163.296 3.10443 166.4 6.93333 166.4H69.3333V159.467H6.93333V152.533H69.3333V145.6H17.3333V45.0666Z" fill="#FFB321"/>
<path d="M156 104H162.933V110.933H156V104Z" fill="#FFB321"/>
<path d="M152.533 97.0667H194.133C199.877 97.0667 204.533 92.41 204.533 86.6667V10.4C204.533 4.65664 199.877 0 194.133 0H152.533C146.79 0 142.133 4.65664 142.133 10.4V86.6667C142.133 92.41 146.79 97.0667 152.533 97.0667ZM194.133 90.1333H152.533C150.619 90.1333 149.067 88.5811 149.067 86.6667V76.2667H197.6V86.6667C197.6 88.5811 196.048 90.1333 194.133 90.1333ZM152.533 6.93333H194.133C196.048 6.93333 197.6 8.48555 197.6 10.4V69.3333H149.067V10.4C149.067 8.48555 150.619 6.93333 152.533 6.93333Z" fill="#FFB321"/>
<path d="M169.867 79.7334H176.8V86.6667H169.867V79.7334Z" fill="#FFB321"/>
<path d="M93.6 79.7333C93.5831 64.4245 81.1755 52.0169 65.8667 52C63.9522 52 62.4 53.5522 62.4 55.4667V79.7333C62.4 81.6478 63.9522 83.2 65.8667 83.2H90.1334C92.0478 83.2 93.6 81.6478 93.6 79.7333ZM69.3334 76.2667V59.2211C78.0559 60.7124 84.8877 67.5441 86.3789 76.2667H69.3334Z" fill="#B4EC51"/>
<path d="M79.7334 86.6667H58.9334V65.8667C58.9334 63.9522 57.3812 62.4 55.4667 62.4C40.1494 62.4 27.7334 74.816 27.7334 90.1334C27.7334 105.451 40.1494 117.867 55.4667 117.867C70.784 117.867 83.2001 105.451 83.2001 90.1334C83.2001 88.2189 81.6479 86.6667 79.7334 86.6667ZM55.4667 110.933C44.6469 110.944 35.6248 102.656 34.7209 91.8735C33.8153 81.0892 41.3292 71.4154 52.0001 69.6211V90.1334C52.0001 92.0478 53.5523 93.6 55.4667 93.6H75.979C74.2744 103.602 65.6128 110.92 55.4667 110.933Z" fill="#B4EC51"/>
<path d="M107.467 52H100.533C99.6142 52 98.7323 52.3656 98.0823 53.0156L91.1489 59.949L96.051 64.851L101.969 58.9333H107.467V52Z" fill="#B4EC51"/>
<path d="M114.4 52H128.267V58.9333H114.4V52Z" fill="#B4EC51"/>
<path d="M114.4 65.8667H128.267V72.8H114.4V65.8667Z" fill="#B4EC51"/>
<path d="M24.2666 128.267H65.8666V135.2H24.2666V128.267Z" fill="#B4EC50"/>
<path d="M86.6666 97.0667H107.467V104H86.6666V97.0667Z" fill="#B4EC51"/>
<path d="M110.933 100.533C110.933 106.277 115.59 110.933 121.333 110.933C127.077 110.933 131.733 106.277 131.733 100.533C131.733 94.7899 127.077 90.1333 121.333 90.1333C115.59 90.1333 110.933 94.7899 110.933 100.533ZM121.333 97.0666C123.248 97.0666 124.8 98.6188 124.8 100.533C124.8 102.448 123.248 104 121.333 104C119.419 104 117.867 102.448 117.867 100.533C117.867 98.6188 119.419 97.0666 121.333 97.0666Z" fill="#B4EC51"/>
<path d="M169.867 17.3334H190.667V24.2667H169.867V17.3334Z" fill="#B4EC51"/>
<path d="M169.867 31.2H190.667V38.1333H169.867V31.2Z" fill="#B4EC51"/>
<path d="M169.867 45.0667H176.8V52H169.867V45.0667Z" fill="#B4EC51"/>
<path d="M183.733 45.0667H190.667V52H183.733V45.0667Z" fill="#B4EC51"/>
<path d="M197.6 117.867H86.6666C80.9232 117.867 76.2666 122.523 76.2666 128.267V197.6C76.2666 203.343 80.9232 208 86.6666 208H197.6C203.343 208 208 203.343 208 197.6V128.267C208 122.523 203.343 117.867 197.6 117.867ZM83.1999 197.6V128.267C83.1999 126.352 84.7521 124.8 86.6666 124.8H180.267V201.067H86.6666C84.7521 201.067 83.1999 199.514 83.1999 197.6ZM201.067 197.6C201.067 199.514 199.514 201.067 197.6 201.067H187.2V124.8H197.6C199.514 124.8 201.067 126.352 201.067 128.267V197.6Z" fill="#FFB321"/>
<path d="M190.667 159.467H197.6V166.4H190.667V159.467Z" fill="#FFB321"/>
<path d="M166.4 183.733V145.6H159.467V183.733H152.533V156H145.6V183.733H138.667V162.933H131.733V183.733H124.8V152.533H117.867V183.733H110.933V169.867H104V183.733H97.0666V138.667H90.1333V187.2C90.1333 189.114 91.6855 190.667 93.6 190.667H173.333V183.733H166.4Z" fill="#B4EC50"/>
</g>
<defs>
<clipPath id="clip0">
<rect width="208" height="208" fill="white"/>
</clipPath>
</defs>
</svg>
