<svg width="32" height="32" viewBox="0 0 32 32" fill="none" xmlns="http://www.w3.org/2000/svg">
<path fill-rule="evenodd" clip-rule="evenodd" d="M16 0C7.164 0 0 7.16 0 16C0 24.84 7.164 32 16 32C24.84 32 32 24.84 32 16C32 7.16 24.84 0 16 0ZM16 24.206C11.684 24.206 8.18 20.706 8.18 16.386C8.18 12.782 10.62 9.75 13.934 8.842V11.122C11.828 11.94 10.34 14 10.34 16.4C10.34 19.526 12.874 22.06 16 22.06C19.126 22.06 21.66 19.526 21.66 16.4C21.66 14 20.172 11.954 18.068 11.128V8.84C21.382 9.75 23.82 12.78 23.82 16.386C23.82 20.706 20.32 24.206 16 24.206ZM14.88 17.374H17.12V6.228H14.88V17.374Z" fill="white"/>
</svg>
