<svg width="47" height="31" viewBox="0 0 47 31" fill="none" xmlns="http://www.w3.org/2000/svg">
<path d="M45.8494 0.000815559C45.1249 0.0238685 45.354 0.231747 43.7886 0.615386C42.2077 1.00279 40.2767 0.883999 38.5744 1.59495C33.4927 3.71722 32.4732 10.9708 27.8534 13.5692C24.4003 15.5116 20.9164 15.6665 17.7842 16.6439C15.7257 17.2867 13.474 18.6049 11.609 20.2054C10.1614 21.4481 10.1236 22.5408 8.61102 24.0995C6.99316 25.7666 2.18096 24.1276 0 26.6793C0.702568 27.3867 1.01058 27.5848 2.39512 27.4013C2.10847 27.9423 0.418723 28.3983 0.749493 29.1942C1.09753 30.0317 5.18263 30.5994 8.89615 28.3667C10.6256 27.3269 12.0031 25.8282 14.6966 25.4705C18.182 25.0079 22.1972 25.7672 26.2322 26.3467C25.6339 28.1231 24.4327 29.3045 23.4705 30.7194C23.1726 31.039 24.069 31.0748 25.0917 30.8816C26.9314 30.4286 28.2572 30.0639 29.6457 29.2591C31.3514 28.2703 31.6099 25.7351 33.7027 25.1866C34.8688 26.9713 38.0403 27.3929 40.0082 25.9654C38.2814 25.4786 37.8041 21.8183 38.3871 20.2054C38.9392 18.6786 39.4848 16.2364 40.0408 14.2182C40.6378 12.0508 40.8581 9.31894 41.5805 8.21488C42.6675 6.5538 43.8686 5.98338 44.9114 5.04671C45.9542 4.11004 46.9086 3.19827 46.8773 1.05498C46.8672 0.364642 46.5088 -0.0201683 45.8494 0.000815559Z" fill="white"/>
<path d="M1.49973 29.0415C4.1442 29.4187 5.75242 29.0415 7.87602 28.1243C9.68289 27.3439 11.428 25.7352 13.5617 25.0532C16.6955 24.0519 20.132 25.0545 23.4819 25.2544C24.2976 25.3032 25.1081 25.3037 25.9082 25.217C27.1561 24.4532 27.1303 21.5963 28.3449 21.3346C28.3091 25.3429 26.659 27.7445 24.9332 30.0701C28.5704 29.4304 30.7469 27.3354 32.2169 24.5374C32.663 23.689 33.0438 22.7762 33.3807 21.8195C33.9013 22.2175 33.6062 23.4283 33.8679 24.0843C36.3732 22.6947 37.8078 19.5231 38.7577 16.3154C39.8568 12.6031 40.3068 8.84397 41.0156 7.74559C41.7075 6.67342 42.7841 6.01246 43.7669 5.32607C44.8837 4.5457 45.8799 3.73235 46.0519 2.24534C44.8741 2.13682 44.6017 1.86553 44.4275 1.27441C43.8378 1.60541 43.2956 1.67628 42.683 1.69445C42.1514 1.71055 41.5675 1.68693 40.8542 1.75988C34.9555 2.3632 34.206 8.83748 30.4252 12.5078C30.1502 12.7747 29.8527 13.0236 29.5383 13.2573C28.2142 14.2399 26.5899 14.9421 25.0961 15.5106C22.6782 16.4307 20.3794 16.4961 18.1108 17.2902C16.4455 17.873 14.7534 18.7186 13.3855 19.6508C13.0435 19.8837 12.7213 20.1222 12.4249 20.3637C11.6222 21.0176 11.0953 21.7432 10.5857 22.4896C10.0601 23.2588 9.55254 24.0501 8.7788 24.806C7.52539 26.0316 2.84178 25.1635 1.19289 26.3001C1.00911 26.4265 0.863118 26.5784 0.763794 26.7606C1.66345 27.1677 2.26434 26.9179 3.29929 27.0319C3.43512 28.0098 1.16396 28.5911 1.49973 29.0415Z" fill="#313131"/>
<path d="M37.2365 21.9958C37.3069 23.1179 37.961 25.344 38.5384 25.885C37.4075 26.1589 35.4593 25.7064 34.9596 24.912C35.2164 23.7651 36.5527 22.7165 37.2365 21.9958Z" fill="#313131"/>
<path d="M38.8939 4.18902C39.7289 4.91098 41.481 4.33154 41.1679 2.89515C39.8705 2.78819 39.1189 3.22666 38.8939 4.18902Z" fill="white"/>
<path d="M44.7151 2.51032C44.493 2.97424 44.0678 3.57237 44.0678 4.75331C44.066 4.95606 43.9133 5.09495 43.9106 4.78239C43.9221 3.62818 44.2289 3.12922 44.5548 2.47346C44.7063 2.20477 44.7975 2.31562 44.7151 2.51032Z" fill="white"/>
<path d="M44.4912 2.33563C44.2292 2.77826 43.5983 3.58563 43.494 4.76216C43.4747 4.96387 43.31 5.08874 43.335 4.77696C43.4486 3.62846 43.9528 2.90962 44.3355 2.28475C44.5091 2.03059 44.5907 2.14897 44.4912 2.33563Z" fill="white"/>
<path d="M44.2876 2.10418C43.9891 2.52319 43.018 3.49281 42.8149 4.65662C42.7784 4.85574 42.6038 4.96685 42.6551 4.65818C42.8652 3.52292 43.7023 2.63066 44.1364 2.04058C44.3309 1.80148 44.402 1.92635 44.2876 2.10418Z" fill="white"/>
<path d="M44.1054 1.84582C43.7509 2.21887 42.5931 3.45537 42.2282 4.57894C42.1635 4.77105 41.975 4.85672 42.0697 4.55817C42.4378 3.46368 43.4516 2.28481 43.9646 1.76145C44.1912 1.55195 44.2438 1.68565 44.1054 1.84582Z" fill="white"/>
</svg>
