<svg width="28" height="28" viewBox="0 0 28 28" fill="none" xmlns="http://www.w3.org/2000/svg">
<path d="M0 24.3897C0 26.3838 1.6164 28 3.61033 28H24.3897C26.3838 28 28 26.3836 28 24.3897V3.61033C28 1.61618 26.3836 0 24.3897 0H3.61033C1.61618 0 0 1.6164 0 3.61033V24.3897Z" fill="white"/>
<path d="M11.6113 12.3854V8.42019H15.1017C15.4341 8.42019 15.7546 8.44789 16.0633 8.50329C16.372 8.5587 16.645 8.65763 16.8825 8.80009C17.1199 8.94256 17.3099 9.14042 17.4523 9.39369C17.5948 9.64696 17.666 9.97145 17.666 10.3672C17.666 11.0795 17.4523 11.594 17.0249 11.9105C16.5975 12.2271 16.0514 12.3854 15.3866 12.3854H11.6113ZM7.88354 5.52344V22.4766H16.0989C16.8587 22.4766 17.5987 22.3816 18.319 22.1916C19.0392 22.0017 19.6803 21.7088 20.2422 21.3131C20.8042 20.9174 21.2513 20.4069 21.5838 19.7816C21.9162 19.1564 22.0824 18.4164 22.0824 17.5616C22.0824 16.501 21.8252 15.5948 21.3107 14.8429C20.7963 14.091 20.0167 13.5647 18.9719 13.2639C19.7317 12.8999 20.3055 12.4329 20.6934 11.8631C21.0812 11.2932 21.2751 10.5809 21.2751 9.7261C21.2751 8.93464 21.1445 8.26982 20.8833 7.73162C20.6221 7.19342 20.2541 6.76208 19.7792 6.43758C19.3043 6.11308 18.7345 5.8796 18.0697 5.73713C17.4048 5.59467 16.6688 5.52344 15.8615 5.52344H7.88354ZM11.6113 19.5798V14.926H15.6715C16.4788 14.926 17.1278 15.112 17.6185 15.484C18.1092 15.856 18.3546 16.4773 18.3546 17.3479C18.3546 17.7911 18.2794 18.1552 18.129 18.4401C17.9786 18.725 17.7768 18.9506 17.5236 19.1168C17.2703 19.283 16.9775 19.4017 16.645 19.473C16.3126 19.5442 15.9644 19.5798 15.6003 19.5798H11.6113Z" fill="#313131"/>
</svg>
