<svg width="33" height="32" viewBox="0 0 33 32" fill="none" xmlns="http://www.w3.org/2000/svg">
<path d="M30.0925 24.7498C28.3149 24.7055 26.9373 24.883 25.7818 25.3707C25.4485 25.5036 24.9152 25.5038 24.8707 25.925C25.0486 26.1024 25.0708 26.3906 25.2263 26.6345C25.4931 27.0778 25.9596 27.6766 26.3818 27.987C26.8484 28.3417 27.3151 28.6964 27.8038 29.0068C28.6704 29.539 29.6481 29.8493 30.4925 30.3815C30.9815 30.6917 31.47 31.091 31.9589 31.4236C32.2034 31.6008 32.3588 31.8891 32.67 32V31.9335C32.5144 31.7339 32.4699 31.4457 32.3145 31.224C32.0924 31.0023 31.8701 30.8027 31.6479 30.581C31.0035 29.7164 30.2036 28.9625 29.337 28.3417C28.6261 27.8539 27.0706 27.1888 26.7817 26.3684C26.7817 26.3684 26.7594 26.3463 26.7373 26.3241C27.2261 26.2798 27.8038 26.1024 28.2705 25.9693C29.026 25.7697 29.7148 25.8141 30.4925 25.6146C30.8479 25.5259 31.2035 25.415 31.559 25.3042V25.1047C31.1592 24.7055 30.8702 24.1735 30.448 23.7965C29.3148 22.8208 28.0704 21.8676 26.7817 21.0695C26.0928 20.626 25.204 20.3377 24.4708 19.9609C24.2043 19.8276 23.7598 19.7613 23.6043 19.5396C23.2043 19.0518 22.9821 18.4089 22.6932 17.8323C22.0491 16.6128 21.4267 15.2605 20.8712 13.9746C20.4714 13.1098 20.2269 12.2451 19.738 11.447C17.4494 7.67781 14.9608 5.39417 11.139 3.15476C10.3168 2.68921 9.33922 2.48962 8.29486 2.24579C7.73951 2.22353 7.18388 2.1793 6.62838 2.15704C6.27292 2.00181 5.91732 1.58064 5.60618 1.38104C4.33991 0.582782 1.07343 -1.14643 0.140176 1.13721C-0.459786 2.57836 1.02897 3.99725 1.53999 4.72902C1.91789 5.23894 2.40662 5.81534 2.67328 6.39189C2.82885 6.76855 2.87317 7.16789 3.02874 7.56695C3.38434 8.54227 3.7175 9.62887 4.1842 10.538C4.4287 11.0035 4.69522 11.4913 5.00636 11.9125C5.18409 12.1563 5.49508 12.2673 5.56185 12.6664C5.25086 13.1098 5.22855 13.775 5.05068 14.3293C4.25083 16.8346 4.56196 19.9386 5.69511 21.7788C6.05057 22.333 6.89503 23.5527 8.02819 23.087C9.02808 22.688 8.80588 21.4242 9.09471 20.3156C9.16149 20.0493 9.11702 19.8721 9.25028 19.6948C9.25039 19.7169 9.25028 19.7392 9.25028 19.7392C9.56141 20.3599 9.87241 20.9586 10.1612 21.5794C10.8501 22.6657 12.0499 23.7965 13.0498 24.5504C13.5833 24.9493 14.0054 25.6367 14.672 25.8807V25.8141H14.6275C14.4941 25.6145 14.2942 25.5259 14.1165 25.3707C13.7165 24.9716 13.272 24.4838 12.961 24.0404C12.0279 22.7987 11.2056 21.4242 10.4724 20.0051C10.1169 19.3179 9.80577 18.564 9.51694 17.8767C9.38354 17.6105 9.38354 17.2116 9.16134 17.0786C8.82805 17.5663 8.33932 17.9876 8.09482 18.5862C7.67287 19.5396 7.62826 20.7146 7.4727 21.9341C7.3839 21.9563 7.42823 21.9341 7.38376 21.9784C6.67284 21.801 6.42834 21.0695 6.16167 20.4485C5.49508 18.8744 5.38398 16.3468 5.96178 14.5289C6.11734 14.0632 6.78394 12.5999 6.51727 12.1565C6.38401 11.7352 5.93947 11.4913 5.69511 11.1588C5.40628 10.7375 5.09515 10.2054 4.89526 9.73974C4.36192 8.49819 4.09526 7.12353 3.5176 5.88183C3.25094 5.30529 2.78438 4.70677 2.40662 4.17474C1.98453 3.57608 1.51782 3.15476 1.18452 2.44524C1.07357 2.20141 0.917858 1.80235 1.09559 1.53627C1.14006 1.35892 1.22885 1.29244 1.40672 1.24806C1.69555 1.00409 2.51771 1.31455 2.80653 1.44752C3.62869 1.77995 4.31745 2.09055 5.00635 2.5561C5.31734 2.77781 5.65063 3.19913 6.05056 3.30999H6.51726C7.22832 3.46508 8.02818 3.35436 8.69477 3.55382C9.87253 3.93062 10.9389 4.48505 11.8945 5.08371C14.8054 6.92391 17.2049 9.54027 18.8271 12.6664C19.0937 13.1762 19.2047 13.642 19.4492 14.174C19.9159 15.2605 20.4936 16.3691 20.9601 17.4333C21.4267 18.4752 21.8711 19.5396 22.5377 20.4043C22.8711 20.8697 24.2041 21.1137 24.8041 21.3577C25.2485 21.5571 25.9374 21.7346 26.3373 21.9785C27.0927 22.4439 27.8482 22.9762 28.5593 23.4861C28.9149 23.752 30.0258 24.3065 30.0925 24.7498L30.0925 24.7498Z" fill="white"/>
<path d="M7.42817 5.49451C7.0504 5.49451 6.78388 5.53912 6.51721 5.60575C6.51721 5.60563 6.51721 5.62805 6.51721 5.65022H6.56168C6.73955 6.00568 7.0504 6.25018 7.2726 6.56117C7.45047 6.91663 7.6059 7.27223 7.78377 7.62783C7.80593 7.60553 7.82809 7.58336 7.82809 7.58336C8.13937 7.36102 8.29479 7.00556 8.29479 6.47237C8.16139 6.31681 8.13923 6.16124 8.02813 6.00567C7.89486 5.78333 7.60589 5.67238 7.42817 5.49451Z" fill="white"/>
</svg>
