<svg width="38" height="26" viewBox="0 0 38 26" fill="none" xmlns="http://www.w3.org/2000/svg">
<path d="M37.4852 12.1428C37.2383 11.8579 33.7931 7.50753 33.1875 6.77161C32.5821 6.03561 32.2822 6.1661 31.9117 6.21953C31.5355 6.27296 27.1789 7.01483 26.6735 7.09799C26.1678 7.18702 25.8503 7.38877 26.162 7.82796C26.4382 8.21966 29.3013 12.3208 29.9364 13.2229L18.5482 15.9768L9.48262 0.69392C9.1239 0.153895 9.04757 -0.0359679 8.22442 0.00548991C7.40136 0.0410841 1.11648 0.569299 0.669569 0.610922C0.222817 0.646517 -0.271055 0.848354 0.175778 1.91659C0.622611 2.985 7.75992 18.5112 7.95986 18.9621C8.15971 19.4132 8.67706 20.1493 9.88814 19.8525C11.1287 19.5498 15.4322 18.416 17.784 17.7929C19.0244 20.0659 21.5586 24.6716 22.0287 25.3305C22.652 26.2148 23.0871 26.0666 24.0454 25.7698C24.7979 25.5382 35.7801 21.5497 36.2741 21.3481C36.7678 21.1402 37.0736 20.9977 36.7385 20.4933C36.4916 20.1254 33.5932 16.208 32.0764 14.1546C33.1171 13.8758 36.815 12.8846 37.2089 12.7718C37.6735 12.6532 37.7382 12.4276 37.4852 12.1428ZM16.7788 16.416C16.6435 16.4456 10.2645 17.9888 9.92357 18.066C9.58251 18.1433 9.58251 18.1076 9.54136 17.9888C9.50029 17.8701 1.95722 2.15997 1.85136 1.96408C1.74558 1.76811 1.75139 1.61384 1.85136 1.61384C1.95141 1.61384 7.87764 1.07976 8.08339 1.06778C8.29502 1.05597 8.27146 1.10346 8.34795 1.23395C8.34795 1.23395 16.708 15.7986 16.8492 16.054C17.0021 16.3092 16.9139 16.3863 16.7788 16.416ZM34.7691 19.8229C34.869 19.983 34.9749 20.0897 34.6515 20.2027C34.3339 20.3215 23.8513 23.8885 23.6515 23.9773C23.4456 24.0663 23.2869 24.096 23.0283 23.7103C22.7697 23.3245 19.3596 17.3717 19.3596 17.3717L30.4597 14.4575C30.736 14.3685 30.8242 14.309 31.0005 14.588C31.171 14.8729 34.6691 19.6626 34.7691 19.8229ZM35.4805 11.8639C35.2335 11.9173 31.1533 12.9381 31.1533 12.9381L27.8198 8.3205C27.7259 8.18407 27.6493 8.05342 27.8845 8.02369C28.1196 7.99412 31.9058 7.29975 32.0764 7.26407C32.2467 7.22245 32.3937 7.17504 32.6055 7.46583C32.8172 7.75661 35.698 11.4423 35.8096 11.5848C35.9155 11.7214 35.7274 11.8044 35.4805 11.8639Z" fill="white"/>
</svg>
