<svg width="17" height="39" viewBox="0 0 17 39" fill="none" xmlns="http://www.w3.org/2000/svg">
<path d="M13.1158 37.3941L13.478 31.3585L14.4782 29.6512C14.4782 29.6512 12.2018 30.5824 8.39088 30.5824C4.57985 30.5824 2.33801 29.6685 2.33801 29.6685L3.4589 31.5309L3.85542 37.3941C3.85542 38.0227 5.92839 38.5322 8.48565 38.5322C11.0428 38.5322 13.1158 38.0227 13.1158 37.3941Z" fill="white"/>
<path d="M11.9732 9.20877L12.7334 6.20366L16.9437 1.77352L15.834 0.828369L11.3766 5.54757L10.4939 9.13789C9.85428 9.11626 9.18679 9.10471 8.50007 9.10471C3.80562 9.10471 0 9.63973 0 10.2995C0 10.9594 3.80562 11.4944 8.50007 11.4944C13.1944 11.4944 17 10.9594 17 10.2995C17 9.81366 14.936 9.39545 11.9732 9.20877Z" fill="white"/>
<path d="M11.5308 10.8917C11.5308 10.8917 11.3662 10.9286 10.8818 10.9307C10.3973 10.9327 10.0533 10.9275 9.9163 10.8027C9.87945 10.7692 9.8593 10.7027 9.8595 10.6576C9.8599 10.5718 9.92077 10.5213 9.99832 10.4897L10.0717 10.6048C10.0398 10.6158 10.0216 10.6288 10.0215 10.6427C10.0212 10.7078 10.5169 10.7524 10.896 10.7476C11.2751 10.7429 11.7332 10.7117 11.7336 10.6475C11.7336 10.628 11.699 10.6098 11.6387 10.5953L11.7118 10.4811C11.81 10.5116 11.8958 10.5705 11.8956 10.6725C11.8946 10.8459 11.674 10.8723 11.5308 10.8917Z" fill="white"/>
<path d="M16.9354 1.7822C17.0412 1.65993 16.8806 1.34717 16.5766 1.08373C16.2724 0.820433 15.94 0.706035 15.834 0.828309C15.7281 0.950582 15.8888 1.26334 16.1929 1.52664C16.4969 1.79001 16.8295 1.90454 16.9354 1.7822Z" fill="white"/>
<path d="M12.9132 22.6514C12.8134 21.6913 15.0131 20.301 14.4485 20.2564C13.2333 20.3259 12.6285 21.6806 12.017 23.0994C11.793 23.6194 11.0263 25.8368 10.5234 25.5638C10.0207 25.2909 11.1752 23.4676 11.4988 22.3847C11.1254 22.6585 9.75616 23.7223 9.40329 22.7261C8.83598 23.2079 7.62372 23.4689 7.76048 22.2033C7.45867 22.7379 6.78129 23.4843 5.96823 23.1741C4.90047 22.7669 6.58694 19.3656 7.00628 19.5372C7.4257 19.7087 6.92165 20.4836 6.78963 20.7844C6.4993 21.4466 6.16392 22.279 6.38797 22.4494C6.77181 22.7414 7.81634 21.345 7.83957 21.3143C8.03493 21.0562 8.5915 19.3677 9.04008 19.5616C9.48866 19.7555 7.9212 21.9849 8.50727 22.4273C8.62547 22.5166 9.10909 22.3723 9.40329 22.054C9.59365 21.8481 9.52817 21.392 10.1627 19.8788C10.7972 18.3657 11.3627 16.4813 11.7979 16.6248C12.2331 16.7683 11.8744 17.7355 11.7183 18.096C10.9857 19.7882 9.71892 22.5839 10.3163 22.3723C10.9138 22.1607 11.2248 22.1483 11.8098 21.4637C12.3949 20.7791 12.3679 19.6515 12.7578 19.6754C13.1478 19.6995 13.0824 20.061 12.9878 20.3363C13.3716 19.8972 14.8069 18.9722 15.1535 19.8883C15.5639 20.9728 13.0999 22.5393 13.7142 22.4594C14.3132 22.3815 15.2837 21.7669 15.698 21.2081L16.8385 10.9546C16.8385 10.9546 15.6909 11.9043 8.3896 11.9043C1.08824 11.9043 0.0593262 10.9743 0.0593262 10.9743L1.0303 20.3333C1.54569 18.8685 2.76956 15.9057 4.69871 16.0051C5.57624 16.0504 6.74772 17.7401 5.74424 17.7974C5.31948 17.8215 5.27637 16.9539 4.77339 16.8265C4.41044 16.7345 3.90513 17.0296 3.57856 17.3493C2.92728 17.9867 1.52654 20.5015 1.71162 21.7553C1.94742 23.3537 3.91734 21.1999 4.25066 20.5604C4.48539 20.1099 4.64398 18.7753 5.15736 18.9154C5.67082 19.0554 5.11258 20.4327 4.74042 21.6504C4.32234 23.0178 4.10256 24.4602 3.57856 24.2943C3.05449 24.1285 3.90813 22.3633 3.87723 22.054C3.38467 22.5084 2.47723 23.6589 1.3163 23.0895L1.91932 28.9013C1.91932 28.9013 3.52203 30.1677 8.35002 30.1677C13.178 30.1677 14.8401 28.9211 14.8401 28.9211L15.5888 22.1896C14.9762 22.7861 13.0373 23.8455 12.9132 22.6514Z" fill="white"/>
</svg>
