<svg width="489" height="174" viewBox="0 0 489 174" fill="none" xmlns="http://www.w3.org/2000/svg">
<g clip-path="url(#clip0)">
<path d="M135.017 18.5074C135.017 17.9552 134.569 17.5074 134.017 17.5074H78.3424C78.0158 17.5074 77.7098 17.6669 77.5227 17.9346L38.6733 73.5259C38.2101 74.1887 38.6843 75.0987 39.493 75.0987H78.9299C79.2717 75.0987 79.5899 74.924 79.7735 74.6357L95.039 50.6534C95.5762 49.8095 96.8826 50.19 96.8826 51.1904V106.275C96.8826 106.828 96.4349 107.275 95.8826 107.275H60.8043C60.015 107.275 59.5368 106.404 59.9609 105.738L66.8036 94.996C67.2276 94.3303 66.7495 93.4587 65.9602 93.4587H25.2672C24.9405 93.4587 24.6345 93.6182 24.4474 93.886L13.5921 109.423C13.4748 109.591 13.4119 109.791 13.4119 109.996V141.804C13.4119 142.357 13.8596 142.804 14.4119 142.804H92.9995C93.5517 142.804 93.9995 143.252 93.9995 143.804V151.72C93.9995 152.272 94.4472 152.72 94.9995 152.72H134.017C134.569 152.72 135.017 152.272 135.017 151.72V143.804C135.017 143.252 135.465 142.804 136.017 142.804H153.685C154.238 142.804 154.685 142.357 154.685 141.804V108.275C154.685 107.723 154.238 107.275 153.685 107.275H136.017C135.465 107.275 135.017 106.828 135.017 106.275V18.5074Z" fill="#B4EC51"/>
<path d="M134.017 164.4H94.9995C94.4472 164.4 93.9995 164.847 93.9995 165.4V173C93.9995 173.552 94.4472 174 94.9995 174H134.017C134.569 174 135.017 173.552 135.017 173V165.4C135.017 164.847 134.569 164.4 134.017 164.4Z" fill="#B4EC51"/>
<path d="M242.241 134.886C238.035 134.988 233.87 134.037 230.125 132.118C226.963 130.529 224.244 128.182 222.211 125.285C220.115 121.97 218.614 118.314 217.776 114.482C216.691 110.229 215.968 105.892 215.616 101.517C215.289 97.3596 215.126 92.3998 215.126 86.6379C215.126 80.8761 215.281 75.9863 215.593 71.9686H175.416C175.027 76.6403 174.832 81.5301 174.832 86.6379C174.703 98.2189 175.91 109.776 178.427 121.081C180.62 130.736 184.432 139.949 189.703 148.329C194.834 156.342 202.115 162.749 210.714 166.817C219.6 171.123 230.106 173.28 242.23 173.288C254.354 173.295 264.859 171.139 273.746 166.817C282.342 162.746 289.622 156.34 294.756 148.329C297.786 143.595 300.321 138.562 302.32 133.309H251.696C248.665 134.398 245.462 134.932 242.241 134.886Z" fill="#B4EC51"/>
<path d="M222.211 48.0024C224.247 45.1049 226.965 42.7542 230.125 41.1583C233.905 39.3451 238.044 38.4038 242.235 38.4038C246.427 38.4038 250.566 39.3451 254.346 41.1583C257.506 42.7542 260.224 45.1049 262.26 48.0024C264.354 51.3143 265.855 54.9663 266.695 58.7942C267.777 63.0478 268.504 67.3842 268.866 71.7584C269.186 75.9318 269.341 80.8917 269.333 86.6379C269.326 92.3842 269.17 97.3441 268.866 101.518C268.503 105.884 267.777 110.213 266.695 114.458C266.474 115.346 266.24 116.187 265.983 117.016H306.907C308.808 107.008 309.722 96.8368 309.639 86.6496C309.77 75.0679 308.56 63.51 306.032 52.207C303.846 42.5555 300.037 33.3457 294.768 24.9706C289.633 16.9632 282.353 10.5608 273.757 6.49376C264.894 2.16459 254.389 0 242.241 0C230.094 0 219.589 2.16069 210.725 6.48208C202.127 10.5459 194.846 16.949 189.715 24.9589C184.447 33.3359 180.634 42.5448 178.439 52.1953L178.229 53.1881H219.561C220.254 51.3685 221.143 49.6298 222.211 48.0024Z" fill="#B4EC51"/>
<path d="M68.1447 75.0987H26.24L13.4119 93.4587H56.4487L68.1447 75.0987Z" fill="#B4EC51"/>
<path d="M143.363 152.72H102.345V164.399H143.363V152.72Z" fill="#B4EC51"/>
<path d="M148.791 2.203C148.791 1.65072 148.343 1.203 147.791 1.203H103.497C103.17 1.203 102.864 1.36251 102.677 1.63024L92.6822 15.9347C92.219 16.5976 92.6933 17.5075 93.5019 17.5075H147.791C148.343 17.5075 148.791 17.0598 148.791 16.5075V2.203Z" fill="#B4EC51"/>
<path d="M458.675 18.5074C458.675 17.9552 458.227 17.5074 457.675 17.5074H401.989C401.662 17.5074 401.356 17.667 401.169 17.9347L362.331 73.526C361.868 74.1888 362.342 75.0987 363.15 75.0987H402.588C402.929 75.0987 403.248 74.924 403.431 74.6357L418.697 50.6534C419.234 49.8095 420.54 50.19 420.54 51.1904V106.275C420.54 106.828 420.093 107.275 419.54 107.275H384.462C383.673 107.275 383.195 106.404 383.619 105.738L390.461 94.996C390.885 94.3303 390.407 93.4587 389.618 93.4587H348.925C348.598 93.4587 348.292 93.6182 348.105 93.886L337.25 109.423C337.133 109.591 337.07 109.791 337.07 109.996V141.804C337.07 142.357 337.517 142.804 338.07 142.804H416.657C417.209 142.804 417.657 143.252 417.657 143.804V151.72C417.657 152.272 418.105 152.72 418.657 152.72H457.675C458.227 152.72 458.675 152.272 458.675 151.72V143.804C458.675 143.252 459.122 142.804 459.675 142.804H477.343C477.895 142.804 478.343 142.357 478.343 141.804V108.275C478.343 107.723 477.895 107.275 477.343 107.275H459.675C459.122 107.275 458.675 106.828 458.675 106.275V18.5074Z" fill="#B4EC51"/>
<path d="M458.675 164.4H417.657V174H458.675V164.4Z" fill="#B4EC51"/>
<path d="M391.802 75.0987H349.898L337.07 93.4587H380.106L391.802 75.0987Z" fill="#B4EC51"/>
<path d="M466.02 152.72H427.003C426.451 152.72 426.003 153.168 426.003 153.72V163.399C426.003 163.952 426.451 164.399 427.003 164.399H466.02C466.573 164.399 467.02 163.952 467.02 163.399V153.72C467.02 153.168 466.573 152.72 466.02 152.72Z" fill="#B4EC51"/>
<path d="M472.437 2.203C472.437 1.65072 471.989 1.203 471.437 1.203H427.143C426.816 1.203 426.51 1.36267 426.323 1.63063L416.339 15.9351C415.876 16.598 416.35 17.5075 417.159 17.5075H471.437C471.989 17.5075 472.437 17.0598 472.437 16.5075V2.203Z" fill="#B4EC51"/>
<path d="M206.698 71.7584C207.051 67.3838 207.774 63.0469 208.858 58.7942C209.326 56.8886 209.918 55.0159 210.632 53.1881H169.253C167.88 59.3748 166.944 65.6504 166.451 71.9686H206.64C206.653 71.897 206.673 71.8267 206.698 71.7584Z" fill="#B4EC51"/>
<path d="M314.487 118.231C314.616 117.615 314.142 117.039 313.513 117.039H274.56C274.113 117.039 273.721 117.337 273.589 117.764C272.765 120.417 271.585 122.947 270.081 125.285C268.044 128.179 265.326 130.526 262.167 132.118C261.669 132.381 261.852 133.286 262.415 133.286H309.407C309.821 133.286 310.193 133.031 310.338 132.643C311.758 128.861 312.932 124.991 313.853 121.057C314.076 120.139 314.288 119.191 314.487 118.231Z" fill="#B4EC51"/>
<path d="M121.605 18.5074C121.605 17.9552 121.157 17.5074 120.605 17.5074H64.9189C64.5923 17.5074 64.2863 17.667 64.0992 17.9347L25.261 73.526C24.7979 74.1888 25.2722 75.0987 26.0808 75.0987H65.518C65.8599 75.0987 66.178 74.924 66.3616 74.6357L81.6271 50.6534C82.1643 49.8095 83.4707 50.19 83.4707 51.1904V106.275C83.4707 106.828 83.023 107.275 82.4707 107.275H47.3924C46.6032 107.275 46.125 106.404 46.549 105.738L53.3917 94.996C53.8158 94.3303 53.3376 93.4587 52.5483 93.4587H11.8553C11.5287 93.4587 11.2226 93.6182 11.0356 93.886L0.180251 109.423C0.0629206 109.591 0 109.791 0 109.996V141.804C0 142.357 0.447715 142.804 1 142.804H79.5993C80.1516 142.804 80.5993 143.252 80.5993 143.804V151.72C80.5993 152.272 81.047 152.72 81.5993 152.72H120.605C121.157 152.72 121.605 152.272 121.605 151.72V143.804C121.605 143.252 122.053 142.804 122.605 142.804H140.273C140.826 142.804 141.273 142.357 141.273 141.804V108.275C141.273 107.723 140.826 107.275 140.273 107.275H122.605C122.053 107.275 121.605 106.828 121.605 106.275V18.5074Z" fill="#FFB321"/>
<path d="M120.617 164.4H81.5994C81.0471 164.4 80.5994 164.847 80.5994 165.4V173C80.5994 173.552 81.0471 174 81.5994 174H120.617C121.169 174 121.617 173.552 121.617 173V165.4C121.617 164.847 121.169 164.4 120.617 164.4Z" fill="#FFB321"/>
<path d="M228.783 134.886C224.577 134.988 220.411 134.037 216.667 132.118C213.505 130.529 210.786 128.182 208.753 125.285C206.656 121.97 205.155 118.314 204.317 114.482C203.232 110.229 202.51 105.892 202.158 101.517C201.831 97.3596 201.667 92.3998 201.667 86.6379C201.667 80.8761 201.823 75.9863 202.134 71.9686H162.004C161.623 76.6403 161.428 81.5301 161.42 86.6379C161.289 98.2196 162.499 109.778 165.027 121.081C167.199 130.735 170.996 139.949 176.256 148.329C181.39 156.34 188.67 162.746 197.267 166.817C206.154 171.123 216.659 173.28 228.783 173.288C240.907 173.295 251.412 171.139 260.299 166.817C268.895 162.746 276.176 156.34 281.31 148.329C284.318 143.596 286.833 138.567 288.815 133.321H238.284C235.237 134.411 232.018 134.941 228.783 134.886Z" fill="#FFB321"/>
<path d="M208.799 48.0024C210.835 45.1049 213.553 42.7542 216.713 41.1583C220.493 39.3451 224.632 38.4038 228.824 38.4038C233.016 38.4038 237.154 39.3451 240.934 41.1583C244.094 42.7542 246.812 45.1049 248.848 48.0024C250.942 51.3143 252.443 54.9663 253.284 58.7942C254.371 63.0466 255.098 67.3835 255.455 71.7584C255.774 75.9318 255.929 80.8917 255.922 86.6379C255.914 92.3842 255.758 97.3441 255.455 101.518C255.101 105.884 254.379 110.213 253.295 114.458C253.073 115.346 252.84 116.187 252.583 117.016H293.507C295.407 107.008 296.322 96.8368 296.239 86.6496C296.37 75.0679 295.16 63.51 292.632 52.207C290.429 42.5478 286.6 33.3337 281.309 24.9589C276.175 16.9515 268.895 10.5491 260.299 6.48208C251.467 2.16069 240.961 0 228.783 0C216.604 0 206.099 2.16069 197.267 6.48208C188.671 10.5491 181.391 16.9515 176.256 24.9589C170.987 33.334 167.178 42.5438 164.992 52.1953C164.91 52.5224 164.84 52.8611 164.77 53.1881H206.138C206.834 51.368 207.727 49.6293 208.799 48.0024Z" fill="#FFB321"/>
<path d="M53.7535 76.636C54.1776 75.9703 53.6994 75.0987 52.9101 75.0987H13.3494C13.0228 75.0987 12.7167 75.2582 12.5297 75.5259L1.09888 91.886C0.63574 92.5488 1.10999 93.4587 1.91861 93.4587H42.4882C42.8299 93.4587 43.148 93.2842 43.3316 92.996L53.7535 76.636Z" fill="#FFB321"/>
<path d="M129.951 152.72H88.9336V164.399H129.951V152.72Z" fill="#FFB321"/>
<path d="M135.379 2.203C135.379 1.65072 134.931 1.203 134.379 1.203H90.085C89.7584 1.203 89.4524 1.36251 89.2653 1.63024L79.2703 15.9347C78.8072 16.5976 79.2814 17.5075 80.09 17.5075H134.379C134.931 17.5075 135.379 17.0598 135.379 16.5075V2.203Z" fill="#FFB321"/>
<path d="M445.263 18.5074C445.263 17.9552 444.815 17.5074 444.263 17.5074H388.577C388.25 17.5074 387.944 17.667 387.757 17.9347L348.919 73.526C348.456 74.1888 348.93 75.0987 349.739 75.0987H389.176C389.518 75.0987 389.836 74.924 390.019 74.6357L405.285 50.6534C405.822 49.8095 407.128 50.19 407.128 51.1904V106.275C407.128 106.828 406.681 107.275 406.128 107.275H371.05C370.261 107.275 369.783 106.404 370.207 105.738L377.049 94.996C377.473 94.3303 376.995 93.4587 376.206 93.4587H335.513C335.186 93.4587 334.88 93.6182 334.693 93.886L323.838 109.423C323.721 109.591 323.658 109.791 323.658 109.996V141.804C323.658 142.357 324.105 142.804 324.658 142.804H403.245C403.798 142.804 404.245 143.252 404.245 143.804V151.72C404.245 152.272 404.693 152.72 405.245 152.72H444.263C444.815 152.72 445.263 152.272 445.263 151.72V143.804C445.263 143.252 445.711 142.804 446.263 142.804H463.931C464.483 142.804 464.931 142.357 464.931 141.804V108.275C464.931 107.723 464.483 107.275 463.931 107.275H446.263C445.711 107.275 445.263 106.828 445.263 106.275V18.5074Z" fill="#FFB321"/>
<path d="M444.263 164.4H405.245C404.693 164.4 404.245 164.847 404.245 165.4V173C404.245 173.552 404.693 174 405.245 174H444.263C444.815 174 445.263 173.552 445.263 173V165.4C445.263 164.847 444.815 164.4 444.263 164.4Z" fill="#FFB321"/>
<path d="M377.411 76.636C377.835 75.9703 377.357 75.0987 376.568 75.0987H337.007C336.68 75.0987 336.374 75.2582 336.187 75.5259L324.757 91.886C324.293 92.5488 324.768 93.4587 325.576 93.4587H366.146C366.488 93.4587 366.806 93.2842 366.989 92.996L377.411 76.636Z" fill="#FFB321"/>
<path d="M453.609 152.72H412.591V164.399H453.609V152.72Z" fill="#FFB321"/>
<path d="M459.025 2.203C459.025 1.65072 458.577 1.203 458.025 1.203H413.731C413.405 1.203 413.098 1.36267 412.911 1.63063L402.927 15.9351C402.464 16.598 402.938 17.5075 403.747 17.5075H458.025C458.577 17.5075 459.025 17.0598 459.025 16.5075V2.203Z" fill="#FFB321"/>
<path d="M193.286 71.7584C193.639 67.3838 194.362 63.0469 195.446 58.7942C195.914 56.8886 196.506 55.0159 197.22 53.1881H156.69C156.221 53.1881 155.815 53.5137 155.716 53.972C154.512 59.5524 153.663 65.2035 153.174 70.8913C153.124 71.472 153.584 71.9686 154.167 71.9686H193.275C193.273 71.8983 193.277 71.828 193.286 71.7584Z" fill="#FFB321"/>
<path d="M301.316 117.039H260.392C259.564 119.957 258.309 122.735 256.669 125.285C254.635 128.182 251.916 130.529 248.755 132.118C247.901 132.57 247.015 132.96 246.105 133.286H296.682C298.212 129.3 299.468 125.214 300.441 121.057C300.756 119.761 301.048 118.406 301.316 117.039Z" fill="#FFB321"/>
<path d="M127.511 17.5074H70.304L30.0685 75.0987H71.9731L89.377 47.7571V107.275H51.4761L60.2772 93.4587H17.2403L5.90625 109.681V142.804H86.4939V152.72H127.511V142.804H147.18V107.275H127.511V17.5074Z" fill="white"/>
<path d="M127.511 164.4H86.4939V174H127.511V164.4Z" fill="white"/>
<path d="M234.724 134.886C230.522 134.987 226.361 134.035 222.62 132.118C219.458 130.529 216.739 128.182 214.706 125.285C212.607 121.962 211.102 118.298 210.258 114.458C209.179 110.205 208.457 105.868 208.099 101.494C207.78 97.3363 207.62 92.3764 207.62 86.6145C207.62 80.8527 207.776 75.9629 208.087 71.9452H167.91C167.529 76.617 167.334 81.5067 167.327 86.6145C167.198 98.1955 168.404 109.753 170.922 121.057C173.112 130.72 176.925 139.942 182.198 148.329C187.329 156.342 194.61 162.749 203.208 166.817C212.095 171.123 222.6 173.28 234.724 173.288C246.848 173.295 257.353 171.139 266.24 166.817C274.837 162.746 282.117 156.34 287.251 148.329C290.255 143.594 292.77 138.565 294.756 133.321H244.191C241.155 134.407 237.948 134.937 234.724 134.886Z" fill="white"/>
<path d="M214.706 48.0024C216.741 45.1049 219.46 42.7542 222.62 41.1583C226.4 39.3451 230.538 38.4038 234.73 38.4038C238.922 38.4038 243.06 39.3451 246.84 41.1583C249.996 42.7606 252.713 45.1101 254.754 48.0024C256.844 51.3168 258.344 54.9679 259.19 58.7942C260.274 63.0469 260.996 67.3838 261.349 71.7584C261.676 75.9318 261.836 80.8917 261.828 86.6379C261.82 92.3842 261.661 97.3441 261.349 101.518C260.996 105.884 260.274 110.213 259.19 114.458C258.968 115.346 258.735 116.187 258.478 117.016H299.402C301.302 107.008 302.217 96.8368 302.133 86.6496C302.265 75.0679 301.054 63.51 298.527 52.207C296.34 42.5555 292.531 33.3457 287.263 24.9706C282.128 16.9632 274.848 10.5608 266.252 6.49376C257.388 2.16459 246.879 0 234.724 0C222.569 0 212.064 2.16069 203.208 6.48208C194.61 10.5459 187.329 16.949 182.198 24.9589C176.929 33.3359 173.117 42.5448 170.922 52.1953L170.712 53.1881H212.044C212.736 51.366 213.629 49.6267 214.706 48.0024Z" fill="white"/>
<path d="M60.639 75.0987H18.7344L5.90625 93.4587H48.9431L60.639 75.0987Z" fill="white"/>
<path d="M135.857 152.72H94.8398V164.399H135.857V152.72Z" fill="white"/>
<path d="M141.273 1.203H95.4584L84.0776 17.5075H141.273V1.203Z" fill="white"/>
<path d="M451.169 17.5074H393.962L353.726 75.0987H395.631L413.035 47.7571V107.275H375.134L383.935 93.4587H340.898L329.564 109.681V142.804H410.152V152.72H451.169V142.804H470.837V107.275H451.169V17.5074Z" fill="white"/>
<path d="M451.169 164.4H410.152V174H451.169V164.4Z" fill="white"/>
<path d="M384.297 75.0987H342.392L329.564 93.4587H372.601L384.297 75.0987Z" fill="white"/>
<path d="M459.515 152.72H418.498V164.399H459.515V152.72Z" fill="white"/>
<path d="M464.931 1.203H419.116L407.724 17.5075H464.931V1.203Z" fill="white"/>
<path d="M199.193 71.7584C199.546 67.3838 200.268 63.0469 201.352 58.7942C201.82 56.8886 202.413 55.0159 203.127 53.1881H161.794C160.421 59.3748 159.485 65.6504 158.992 71.9686H199.169C199.181 71.8985 199.181 71.8285 199.193 71.7584Z" fill="white"/>
<path d="M307.223 117.039H266.298C265.465 119.955 264.211 122.733 262.575 125.285C260.536 128.177 257.818 130.523 254.661 132.118C253.806 132.568 252.92 132.958 252.011 133.286H302.589C304.118 129.3 305.374 125.214 306.347 121.057C306.662 119.761 306.989 118.406 307.223 117.039Z" fill="white"/>
<path d="M68.1329 51.5646H21.1624V53.1881H68.1329V51.5646Z" fill="white"/>
<path d="M68.1329 53.1881H21.1624V54.8115H68.1329V53.1881Z" fill="#313131"/>
<path d="M15.3845 52.3764C15.3845 52.8244 15.7477 53.1881 16.1958 53.1881C16.6438 53.1881 17.007 52.8244 17.007 52.3764C17.007 51.9283 16.6438 51.5646 16.1958 51.5646C15.7477 51.5646 15.3845 51.9283 15.3845 52.3764Z" fill="#FFB321"/>
<path d="M10.7737 52.3764C10.7737 52.8244 11.1369 53.1881 11.5849 53.1881C12.033 53.1881 12.3962 52.8244 12.3962 52.3764C12.3962 51.9283 12.033 51.5646 11.5849 51.5646C11.1369 51.5646 10.7737 51.9283 10.7737 52.3764Z" fill="#FFB321"/>
<path d="M6.01677 51.5646H1.12691C0.678605 51.5646 0.315186 51.9281 0.315186 52.3764C0.315186 52.8247 0.678605 53.1881 1.12691 53.1881H6.01677C6.46507 53.1881 6.82849 52.8247 6.82849 52.3764C6.82849 51.9281 6.46507 51.5646 6.01677 51.5646Z" fill="#FFB321"/>
<path d="M370.167 102.627H324.82C324.371 102.627 324.008 102.99 324.008 103.439C324.008 103.887 324.371 104.251 324.82 104.251H370.167C370.615 104.251 370.978 103.887 370.978 103.439C370.978 102.99 370.615 102.627 370.167 102.627Z" fill="white"/>
<path d="M370.978 104.25H324.008V105.874H370.978V104.25Z" fill="#313131"/>
<path d="M318.218 103.439C318.218 103.887 318.581 104.251 319.03 104.251C319.478 104.251 319.841 103.887 319.841 103.439C319.841 102.991 319.478 102.627 319.03 102.627C318.581 102.627 318.218 102.991 318.218 103.439Z" fill="#FFB321"/>
<path d="M313.608 103.439C313.608 103.887 313.971 104.251 314.419 104.251C314.867 104.251 315.23 103.887 315.23 103.439C315.23 102.991 314.867 102.627 314.419 102.627C313.971 102.627 313.608 102.991 313.608 103.439Z" fill="#FFB321"/>
<path d="M111.438 166.023H158.409V164.4H111.438V166.023Z" fill="white"/>
<path d="M111.438 167.646H158.409V166.023H111.438V167.646Z" fill="#313131"/>
<path d="M164.187 165.211C164.187 164.763 163.824 164.4 163.376 164.4C162.927 164.4 162.564 164.763 162.564 165.211C162.564 165.659 162.927 166.023 163.376 166.023C163.824 166.023 164.187 165.659 164.187 165.211Z" fill="#B4EC51"/>
<path d="M168.809 165.211C168.809 164.763 168.446 164.4 167.998 164.4C167.55 164.4 167.187 164.763 167.187 165.211C167.187 165.659 167.55 166.023 167.998 166.023C168.446 166.023 168.809 165.659 168.809 165.211Z" fill="#B4EC51"/>
<path d="M173.555 166.023H178.444C178.893 166.023 179.256 165.66 179.256 165.211C179.256 164.763 178.893 164.4 178.444 164.4H173.555C173.106 164.4 172.743 164.763 172.743 165.211C172.743 165.66 173.106 166.023 173.555 166.023Z" fill="#B4EC51"/>
<path d="M260.34 12.824L305.687 12.824C306.136 12.824 306.499 12.4606 306.499 12.0123C306.499 11.564 306.136 11.2005 305.687 11.2005L260.34 11.2005C259.892 11.2005 259.528 11.564 259.528 12.0123C259.528 12.4606 259.892 12.824 260.34 12.824Z" fill="white"/>
<path d="M430.935 53.1764L476.282 53.1764C476.731 53.1764 477.094 52.813 477.094 52.3647C477.094 51.9164 476.731 51.553 476.282 51.553L430.935 51.553C430.487 51.553 430.123 51.9164 430.123 52.3647C430.123 52.813 430.487 53.1764 430.935 53.1764Z" fill="white"/>
<path d="M439.818 126.803H485.165C485.613 126.803 485.977 126.44 485.977 125.992C485.977 125.543 485.613 125.18 485.165 125.18H439.818C439.37 125.18 439.006 125.543 439.006 125.992C439.006 126.44 439.37 126.803 439.818 126.803Z" fill="white"/>
<path d="M165.085 151.038H212.056V149.415H165.085V151.038Z" fill="white"/>
<path d="M312.958 60.5695H312.915C312.363 60.5695 311.915 61.0172 311.915 61.5695V61.6134C311.915 62.1656 312.363 62.6134 312.915 62.6134H312.958C313.51 62.6134 313.958 62.1656 313.958 61.6134V61.5695C313.958 61.0172 313.51 60.5695 312.958 60.5695Z" fill="#B4EC51"/>
<path d="M319.156 60.5695H319.113C318.561 60.5695 318.113 61.0172 318.113 61.5695V61.6134C318.113 62.1656 318.561 62.6134 319.113 62.6134H319.156C319.708 62.6134 320.156 62.1656 320.156 61.6134V61.5695C320.156 61.0172 319.708 60.5695 319.156 60.5695Z" fill="#B4EC51"/>
<path d="M394.619 7.31134H394.577C394.024 7.31134 393.577 7.75906 393.577 8.31134V8.35524C393.577 8.90752 394.024 9.35524 394.577 9.35524H394.619C395.172 9.35524 395.619 8.90752 395.619 8.35524V8.31134C395.619 7.75906 395.172 7.31134 394.619 7.31134Z" fill="#FFB321"/>
<path d="M482.012 51.3544H481.969C481.417 51.3544 480.969 51.8021 480.969 52.3544V52.3983C480.969 52.9506 481.417 53.3983 481.969 53.3983H482.012C482.564 53.3983 483.012 52.9506 483.012 52.3983V52.3544C483.012 51.8021 482.564 51.3544 482.012 51.3544Z" fill="white"/>
<path d="M488 51.3544H487.957C487.405 51.3544 486.957 51.8021 486.957 52.3544V52.3983C486.957 52.9506 487.405 53.3983 487.957 53.3983H488C488.552 53.3983 489 52.9506 489 52.3983V52.3544C489 51.8021 488.552 51.3544 488 51.3544Z" fill="white"/>
<path d="M400.829 7.31134H400.786C400.234 7.31134 399.786 7.75906 399.786 8.31134V8.35524C399.786 8.90752 400.234 9.35524 400.786 9.35524H400.829C401.381 9.35524 401.829 8.90752 401.829 8.35524V8.31134C401.829 7.75906 401.381 7.31134 400.829 7.31134Z" fill="#FFB321"/>
</g>
<defs>
<clipPath id="clip0">
<rect width="489" height="174" fill="white"/>
</clipPath>
</defs>
</svg>
