<svg width="351" height="351" viewBox="0 0 351 351" fill="none" xmlns="http://www.w3.org/2000/svg">
<path d="M41.9793 133.449C58.714 80.2358 67.0813 53.6293 85.7954 38.4607C94.1277 31.707 103.733 26.6977 114.04 23.7308C137.19 17.0672 163.796 25.4346 217.009 42.1693C270.222 58.904 296.829 67.2713 311.997 85.9854C318.751 94.3177 323.76 103.923 326.727 114.23C333.391 137.38 325.023 163.986 308.289 217.199C291.554 270.412 283.187 297.019 264.473 312.187C256.14 318.941 246.535 323.95 236.228 326.917C213.078 333.581 186.472 325.213 133.259 308.479C80.0458 291.744 53.4394 283.377 38.2707 264.663C31.517 256.33 26.5077 246.725 23.5408 236.418C16.8772 213.268 25.2446 186.662 41.9793 133.449Z" fill="#B2EB50" fill-opacity="0.3"/>
</svg>
