<svg width="473" height="498" viewBox="0 0 473 498" fill="none" xmlns="http://www.w3.org/2000/svg">
<path d="M109.963 133.354C151.641 70.4902 172.481 39.0584 204.957 32.4769C237.434 25.8955 268.866 46.7345 331.73 88.4127L364.235 109.963C427.098 151.641 458.53 172.48 465.111 204.957C471.693 237.434 450.854 268.866 409.176 331.73L387.625 364.235C345.947 427.098 325.108 458.53 292.631 465.111C260.154 471.693 228.722 450.854 165.859 409.176L133.354 387.625C70.4902 345.947 39.0585 325.108 32.477 292.631C25.8955 260.154 46.7346 228.722 88.4127 165.859L109.963 133.354Z" fill="#B2EB50" fill-opacity="0.2"/>
</svg>
