<svg width="253" height="276" viewBox="0 0 253 276" fill="none" xmlns="http://www.w3.org/2000/svg">
<path d="M31.9351 82.8591C41.9049 67.8215 46.8898 60.3028 52.2468 54.8448C75.1464 31.5139 109.938 24.4634 140.114 37.0386C147.173 39.9804 154.692 44.9653 169.729 54.935C184.767 64.9048 192.285 69.8897 197.743 75.2468C221.074 98.1464 228.125 132.938 215.55 163.114C212.608 170.173 207.623 177.692 197.653 192.729C187.683 207.767 182.699 215.285 177.341 220.743C154.442 244.074 119.651 251.125 89.4746 238.55C82.4154 235.608 74.8966 230.623 59.8591 220.653C44.8216 210.683 37.3028 205.698 31.8449 200.341C8.51393 177.442 1.46348 142.651 14.0386 112.475C16.9804 105.415 21.9653 97.8966 31.9351 82.8591Z" fill="#B2EB50" fill-opacity="0.2"/>
</svg>
