<svg width="280" height="280" viewBox="0 0 280 280" fill="none" xmlns="http://www.w3.org/2000/svg">
<path d="M19.1612 159.177C13.0183 120.574 9.94678 101.272 14.1414 85.1043C19.2064 65.5825 31.4578 48.6941 48.4431 37.8198C62.5101 28.814 81.812 25.7425 120.416 19.5995C159.019 13.4565 178.321 10.3851 194.489 14.5797C214.01 19.6446 230.899 31.896 241.773 48.8814C250.779 62.9484 253.851 82.2502 259.993 120.854C266.136 159.458 269.208 178.759 265.013 194.927C259.948 214.449 247.697 231.337 230.712 242.211C216.645 251.217 197.343 254.289 158.739 260.432C120.135 266.575 100.834 269.646 84.666 265.452C65.1442 260.387 48.2558 248.135 37.3816 231.15C28.3757 217.083 25.3042 197.781 19.1612 159.177Z" fill="#B2EB50" fill-opacity="0.3"/>
</svg>
