<svg width="96" height="96" viewBox="0 0 96 96" fill="none" xmlns="http://www.w3.org/2000/svg">
<mask id="mask0" mask-type="alpha" maskUnits="userSpaceOnUse" x="0" y="0" width="96" height="96">
<path d="M26.657 52.7998C22.2388 52.7998 18.657 56.3816 18.657 60.7998C18.657 65.218 22.2388 68.7998 26.657 68.7998C31.073 68.7946 34.6518 65.2158 34.657 60.7998C34.657 56.3816 31.0752 52.7998 26.657 52.7998ZM26.657 65.5998C24.006 65.5998 21.857 63.4508 21.857 60.7998C21.857 58.1488 24.006 55.9998 26.657 55.9998C29.308 55.9998 31.457 58.1488 31.457 60.7998C31.457 63.4508 29.308 65.5998 26.657 65.5998Z" fill="#313131"/>
<path d="M51.8298 71.8014L44.0042 60.619C42.571 58.5772 39.754 58.0838 37.7122 59.517C35.7072 60.9242 35.1894 63.6732 36.545 65.7134L39.6682 70.3998H13.6458L16.769 65.7134C18.1494 63.6356 17.584 60.8322 15.5062 59.4518C13.466 58.0964 10.717 58.6142 9.30981 60.619L1.48421 71.8014C-0.16559 74.1596 0.40881 77.4088 2.76701 79.0586C3.64241 79.671 4.68481 79.9996 5.75301 79.9998H17.057V94.3998C17.057 95.2834 17.7734 95.9998 18.657 95.9998H34.657C35.5406 95.9998 36.257 95.2834 36.257 94.3998V79.9998H47.561C50.439 79.9992 52.7716 77.6654 52.771 74.7874C52.7708 73.719 52.4422 72.6768 51.8298 71.8014ZM48.7232 76.436C48.3826 76.6744 47.9766 76.8016 47.561 76.7998H34.657C33.7734 76.7998 33.057 77.5162 33.057 78.3998V92.7998H20.257V78.3998C20.257 77.5162 19.5406 76.7998 18.657 76.7998H5.75301C4.64221 76.8 3.74161 75.8998 3.74121 74.7892C3.74101 74.3762 3.86801 73.9734 4.10501 73.635L11.937 62.4526C12.3474 61.8522 13.167 61.6982 13.7674 62.1086C14.3678 62.519 14.5218 63.3386 14.1114 63.939L9.32581 71.1118C8.83541 71.8468 9.03361 72.8404 9.76881 73.3308C10.0318 73.5062 10.3408 73.5998 10.657 73.5998H42.657C43.5406 73.6 44.2572 72.8836 44.2572 72C44.2572 71.6838 44.1636 71.3748 43.9882 71.1118L39.2074 63.939C38.797 63.3386 38.951 62.519 39.5514 62.1086C40.1518 61.6982 40.9714 61.8522 41.3818 62.4526L49.217 73.635C49.8542 74.5448 49.633 75.799 48.7232 76.436Z" fill="#313131"/>
<path d="M29.857 24H25.057C22.406 24 20.257 26.149 20.257 28.8H23.457C23.457 27.9164 24.1734 27.2 25.057 27.2H29.857C30.7406 27.2 31.457 27.9164 31.457 28.8C31.457 29.6836 30.7406 30.4 29.857 30.4C27.206 30.4 25.057 32.549 25.057 35.2H28.257C28.257 34.3164 28.9734 33.6 29.857 33.6C32.508 33.6 34.657 31.451 34.657 28.8C34.657 26.149 32.508 24 29.857 24Z" fill="#313131"/>
<path d="M28.257 36.7998H25.057V39.9998H28.257V36.7998Z" fill="#313131"/>
<path d="M26.657 17.6001C16.953 17.6001 9.05701 24.0593 9.05701 32.0001C9.05701 38.4705 14.281 44.0897 21.8362 45.8385L25.377 50.5601C25.9072 51.2671 26.91 51.4103 27.617 50.8801C27.7382 50.7891 27.846 50.6813 27.937 50.5601L31.4778 45.8385C39.033 44.0897 44.257 38.4705 44.257 32.0001C44.257 24.0593 36.361 17.6001 26.657 17.6001ZM30.2394 42.8337C29.8558 42.9121 29.5142 43.1285 29.2794 43.4417L26.657 46.9329L24.0378 43.4417C23.803 43.1283 23.4614 42.9121 23.0778 42.8337C16.705 41.5553 12.257 37.1009 12.257 32.0001C12.257 25.8257 18.7162 20.8001 26.657 20.8001C34.5978 20.8001 41.057 25.8257 41.057 32.0001C41.057 37.1009 36.609 41.5553 30.2394 42.8337Z" fill="#313131"/>
<path d="M73.057 32C68.641 32.0052 65.0622 35.584 65.057 40C65.057 44.4182 68.6388 48 73.057 48C77.4752 48 81.057 44.4182 81.057 40C81.057 35.5818 77.4752 32 73.057 32ZM73.057 44.8C70.406 44.8 68.257 42.651 68.257 40C68.257 37.349 70.406 35.2 73.057 35.2C75.708 35.2 77.857 37.349 77.857 40C77.857 42.651 75.708 44.8 73.057 44.8Z" fill="#313131"/>
<path d="M82.657 0H63.457C59.041 0.0052 55.4622 3.584 55.457 8V17.6C55.4622 22.016 59.041 25.5948 63.457 25.6H67.5946L71.9258 29.9312C72.5506 30.5558 73.5634 30.5558 74.1882 29.9312L78.5194 25.6H82.657C87.073 25.5948 90.6518 22.016 90.657 17.6V8C90.6518 3.584 87.073 0.0052 82.657 0ZM87.457 17.6C87.457 20.251 85.308 22.4 82.657 22.4H77.857C77.4326 22.4 77.0258 22.5688 76.7258 22.8688L73.057 26.5376L69.3882 22.8688C69.0882 22.5688 68.6814 22.4 68.257 22.4H63.457C60.806 22.4 58.657 20.251 58.657 17.6V8C58.657 5.349 60.806 3.2 63.457 3.2H82.657C85.308 3.2 87.457 5.349 87.457 8V17.6Z" fill="#313131"/>
<path d="M91.457 43.2643C88.8432 42.8225 86.366 44.5833 85.9242 47.1971C85.8794 47.4625 85.8568 47.7311 85.857 48.0003V49.6003H60.257V41.7715C60.287 39.3833 58.6022 37.3163 56.257 36.8643C53.6432 36.4225 51.166 38.1833 50.7242 40.7971C50.6794 41.0625 50.6568 41.3311 50.657 41.6003V49.6003C50.6622 54.9001 54.9572 59.1951 60.257 59.2003H63.457V67.0595L59.657 88.5955C59.068 92.0307 61.3754 95.2929 64.8106 95.8819C68.2458 96.4709 71.508 94.1635 72.097 90.7283L73.057 84.9347L74.017 90.7299C74.6064 94.1633 77.8676 96.4689 81.301 95.8795C84.7344 95.2901 87.04 92.0289 86.4506 88.5955L82.657 67.0595V59.2003H85.857C91.1568 59.1951 95.4518 54.9001 95.457 49.6003V48.1715C95.487 45.7833 93.8022 43.7163 91.457 43.2643ZM92.257 49.6003C92.257 53.1349 89.3916 56.0003 85.857 56.0003H81.057C80.1734 56.0003 79.457 56.7167 79.457 57.6003V67.2003C79.4568 67.2937 79.4652 67.3869 79.4826 67.4787L83.3066 89.1523C83.606 90.8429 82.478 92.4561 80.7874 92.7555C79.0968 93.0549 77.4836 91.9269 77.1842 90.2363C77.1822 90.2255 77.1804 90.2145 77.1786 90.2035L74.6346 74.9379C74.4872 74.0667 73.6614 73.4797 72.7902 73.6271C72.1188 73.7407 71.593 74.2665 71.4794 74.9379L68.9354 90.2019C68.6638 91.8973 67.0692 93.0513 65.374 92.7797C63.6786 92.5081 62.5246 90.9135 62.7962 89.2183C62.7998 89.1963 62.8034 89.1743 62.8074 89.1523L66.6314 67.4787C66.6488 67.3869 66.6574 67.2937 66.657 67.2003V57.6003C66.657 56.7167 65.9406 56.0003 65.057 56.0003H60.257C56.7224 56.0003 53.857 53.1349 53.857 49.6003V41.6003C53.8566 40.7167 54.5726 39.9999 55.4564 39.9997C55.5506 39.9997 55.6444 40.0079 55.737 40.0243C56.5358 40.2197 57.0874 40.9497 57.057 41.7715V49.6003C57.057 51.3677 58.4896 52.8003 60.257 52.8003H85.857C87.6244 52.8003 89.057 51.3677 89.057 49.6003V48.0003C89.0568 47.5301 89.2634 47.0837 89.6218 46.7795C89.9846 46.4695 90.4674 46.3389 90.937 46.4243C91.7358 46.6197 92.2874 47.3497 92.257 48.1715V49.6003Z" fill="#313131"/>
<path d="M80.6274 6.86881C80.0134 6.23321 79.0006 6.21561 78.365 6.82961C78.3516 6.84241 78.3386 6.85561 78.3258 6.86881L69.857 15.3376L67.7882 13.2688C67.1526 12.6548 66.1398 12.6724 65.5258 13.308C64.9268 13.928 64.9268 14.9112 65.5258 15.5312L68.7258 18.7312C69.3506 19.3558 70.3634 19.3558 70.9882 18.7312L80.5882 9.13121C81.2238 8.51721 81.2414 7.50441 80.6274 6.86881Z" fill="#313131"/>
</mask>
<g mask="url(#mask0)">
<path d="M26.657 52.7998C22.2388 52.7998 18.657 56.3816 18.657 60.7998C18.657 65.218 22.2388 68.7998 26.657 68.7998C31.073 68.7946 34.6518 65.2158 34.657 60.7998C34.657 56.3816 31.0752 52.7998 26.657 52.7998ZM26.657 65.5998C24.006 65.5998 21.857 63.4508 21.857 60.7998C21.857 58.1488 24.006 55.9998 26.657 55.9998C29.308 55.9998 31.457 58.1488 31.457 60.7998C31.457 63.4508 29.308 65.5998 26.657 65.5998Z" fill="#313131"/>
<path d="M51.8298 71.8014L44.0042 60.619C42.571 58.5772 39.754 58.0838 37.7122 59.517C35.7072 60.9242 35.1894 63.6732 36.545 65.7134L39.6682 70.3998H13.6458L16.769 65.7134C18.1494 63.6356 17.584 60.8322 15.5062 59.4518C13.466 58.0964 10.717 58.6142 9.30981 60.619L1.48421 71.8014C-0.16559 74.1596 0.40881 77.4088 2.76701 79.0586C3.64241 79.671 4.68481 79.9996 5.75301 79.9998H17.057V94.3998C17.057 95.2834 17.7734 95.9998 18.657 95.9998H34.657C35.5406 95.9998 36.257 95.2834 36.257 94.3998V79.9998H47.561C50.439 79.9992 52.7716 77.6654 52.771 74.7874C52.7708 73.719 52.4422 72.6768 51.8298 71.8014ZM48.7232 76.436C48.3826 76.6744 47.9766 76.8016 47.561 76.7998H34.657C33.7734 76.7998 33.057 77.5162 33.057 78.3998V92.7998H20.257V78.3998C20.257 77.5162 19.5406 76.7998 18.657 76.7998H5.75301C4.64221 76.8 3.74161 75.8998 3.74121 74.7892C3.74101 74.3762 3.86801 73.9734 4.10501 73.635L11.937 62.4526C12.3474 61.8522 13.167 61.6982 13.7674 62.1086C14.3678 62.519 14.5218 63.3386 14.1114 63.939L9.32581 71.1118C8.83541 71.8468 9.03361 72.8404 9.76881 73.3308C10.0318 73.5062 10.3408 73.5998 10.657 73.5998H42.657C43.5406 73.6 44.2572 72.8836 44.2572 72C44.2572 71.6838 44.1636 71.3748 43.9882 71.1118L39.2074 63.939C38.797 63.3386 38.951 62.519 39.5514 62.1086C40.1518 61.6982 40.9714 61.8522 41.3818 62.4526L49.217 73.635C49.8542 74.5448 49.633 75.799 48.7232 76.436Z" fill="#313131"/>
<path d="M29.857 24H25.057C22.406 24 20.257 26.149 20.257 28.8H23.457C23.457 27.9164 24.1734 27.2 25.057 27.2H29.857C30.7406 27.2 31.457 27.9164 31.457 28.8C31.457 29.6836 30.7406 30.4 29.857 30.4C27.206 30.4 25.057 32.549 25.057 35.2H28.257C28.257 34.3164 28.9734 33.6 29.857 33.6C32.508 33.6 34.657 31.451 34.657 28.8C34.657 26.149 32.508 24 29.857 24Z" fill="#313131"/>
<path d="M28.257 36.7998H25.057V39.9998H28.257V36.7998Z" fill="#313131"/>
<path d="M26.657 17.6001C16.953 17.6001 9.05701 24.0593 9.05701 32.0001C9.05701 38.4705 14.281 44.0897 21.8362 45.8385L25.377 50.5601C25.9072 51.2671 26.91 51.4103 27.617 50.8801C27.7382 50.7891 27.846 50.6813 27.937 50.5601L31.4778 45.8385C39.033 44.0897 44.257 38.4705 44.257 32.0001C44.257 24.0593 36.361 17.6001 26.657 17.6001ZM30.2394 42.8337C29.8558 42.9121 29.5142 43.1285 29.2794 43.4417L26.657 46.9329L24.0378 43.4417C23.803 43.1283 23.4614 42.9121 23.0778 42.8337C16.705 41.5553 12.257 37.1009 12.257 32.0001C12.257 25.8257 18.7162 20.8001 26.657 20.8001C34.5978 20.8001 41.057 25.8257 41.057 32.0001C41.057 37.1009 36.609 41.5553 30.2394 42.8337Z" fill="#313131"/>
<path d="M73.057 32C68.641 32.0052 65.0622 35.584 65.057 40C65.057 44.4182 68.6388 48 73.057 48C77.4752 48 81.057 44.4182 81.057 40C81.057 35.5818 77.4752 32 73.057 32ZM73.057 44.8C70.406 44.8 68.257 42.651 68.257 40C68.257 37.349 70.406 35.2 73.057 35.2C75.708 35.2 77.857 37.349 77.857 40C77.857 42.651 75.708 44.8 73.057 44.8Z" fill="#313131"/>
<path d="M82.657 0H63.457C59.041 0.0052 55.4622 3.584 55.457 8V17.6C55.4622 22.016 59.041 25.5948 63.457 25.6H67.5946L71.9258 29.9312C72.5506 30.5558 73.5634 30.5558 74.1882 29.9312L78.5194 25.6H82.657C87.073 25.5948 90.6518 22.016 90.657 17.6V8C90.6518 3.584 87.073 0.0052 82.657 0ZM87.457 17.6C87.457 20.251 85.308 22.4 82.657 22.4H77.857C77.4326 22.4 77.0258 22.5688 76.7258 22.8688L73.057 26.5376L69.3882 22.8688C69.0882 22.5688 68.6814 22.4 68.257 22.4H63.457C60.806 22.4 58.657 20.251 58.657 17.6V8C58.657 5.349 60.806 3.2 63.457 3.2H82.657C85.308 3.2 87.457 5.349 87.457 8V17.6Z" fill="#313131"/>
<path d="M91.457 43.2643C88.8432 42.8225 86.366 44.5833 85.9242 47.1971C85.8794 47.4625 85.8568 47.7311 85.857 48.0003V49.6003H60.257V41.7715C60.287 39.3833 58.6022 37.3163 56.257 36.8643C53.6432 36.4225 51.166 38.1833 50.7242 40.7971C50.6794 41.0625 50.6568 41.3311 50.657 41.6003V49.6003C50.6622 54.9001 54.9572 59.1951 60.257 59.2003H63.457V67.0595L59.657 88.5955C59.068 92.0307 61.3754 95.2929 64.8106 95.8819C68.2458 96.4709 71.508 94.1635 72.097 90.7283L73.057 84.9347L74.017 90.7299C74.6064 94.1633 77.8676 96.4689 81.301 95.8795C84.7344 95.2901 87.04 92.0289 86.4506 88.5955L82.657 67.0595V59.2003H85.857C91.1568 59.1951 95.4518 54.9001 95.457 49.6003V48.1715C95.487 45.7833 93.8022 43.7163 91.457 43.2643ZM92.257 49.6003C92.257 53.1349 89.3916 56.0003 85.857 56.0003H81.057C80.1734 56.0003 79.457 56.7167 79.457 57.6003V67.2003C79.4568 67.2937 79.4652 67.3869 79.4826 67.4787L83.3066 89.1523C83.606 90.8429 82.478 92.4561 80.7874 92.7555C79.0968 93.0549 77.4836 91.9269 77.1842 90.2363C77.1822 90.2255 77.1804 90.2145 77.1786 90.2035L74.6346 74.9379C74.4872 74.0667 73.6614 73.4797 72.7902 73.6271C72.1188 73.7407 71.593 74.2665 71.4794 74.9379L68.9354 90.2019C68.6638 91.8973 67.0692 93.0513 65.374 92.7797C63.6786 92.5081 62.5246 90.9135 62.7962 89.2183C62.7998 89.1963 62.8034 89.1743 62.8074 89.1523L66.6314 67.4787C66.6488 67.3869 66.6574 67.2937 66.657 67.2003V57.6003C66.657 56.7167 65.9406 56.0003 65.057 56.0003H60.257C56.7224 56.0003 53.857 53.1349 53.857 49.6003V41.6003C53.8566 40.7167 54.5726 39.9999 55.4564 39.9997C55.5506 39.9997 55.6444 40.0079 55.737 40.0243C56.5358 40.2197 57.0874 40.9497 57.057 41.7715V49.6003C57.057 51.3677 58.4896 52.8003 60.257 52.8003H85.857C87.6244 52.8003 89.057 51.3677 89.057 49.6003V48.0003C89.0568 47.5301 89.2634 47.0837 89.6218 46.7795C89.9846 46.4695 90.4674 46.3389 90.937 46.4243C91.7358 46.6197 92.2874 47.3497 92.257 48.1715V49.6003Z" fill="#313131"/>
<path d="M80.6274 6.86881C80.0134 6.23321 79.0006 6.21561 78.365 6.82961C78.3516 6.84241 78.3386 6.85561 78.3258 6.86881L69.857 15.3376L67.7882 13.2688C67.1526 12.6548 66.1398 12.6724 65.5258 13.308C64.9268 13.928 64.9268 14.9112 65.5258 15.5312L68.7258 18.7312C69.3506 19.3558 70.3634 19.3558 70.9882 18.7312L80.5882 9.13121C81.2238 8.51721 81.2414 7.50441 80.6274 6.86881Z" fill="#313131"/>
<rect x="-16.2152" y="-14" width="172.792" height="140.597" rx="25" fill="url(#paint0_linear)"/>
<path fill-rule="evenodd" clip-rule="evenodd" d="M-53.3984 75.2358C-53.3984 75.2358 -32.0384 -39.6096 17.5189 30.6039C57.73 87.5755 62.5074 94.3794 80.9962 83.0078C102.678 69.6727 106.677 30.6039 117.464 30.6039C128.251 30.6039 144.153 99.0056 152.911 87.5755C161.669 76.1454 168.468 41.8044 186.304 41.8044C204.141 41.8044 201.544 84.2166 201.544 84.2166L194.175 133.747L88.2244 126.671L-50.8351 143" fill="url(#paint1_linear)"/>
</g>
<defs>
<linearGradient id="paint0_linear" x1="-16.2152" y1="56.2984" x2="155.595" y2="56.4545" gradientUnits="userSpaceOnUse">
<stop stop-color="#459622"/>
<stop offset="1" stop-color="#B0E94F"/>
</linearGradient>
<linearGradient id="paint1_linear" x1="192.461" y1="46.9252" x2="-37.0964" y2="48.2089" gradientUnits="userSpaceOnUse">
<stop stop-color="#5CA82C"/>
<stop offset="0.0001" stop-color="#68B231"/>
<stop offset="1" stop-color="#A6E24B"/>
</linearGradient>
</defs>
</svg>
