<svg width="351" height="351" viewBox="0 0 351 351" fill="none" xmlns="http://www.w3.org/2000/svg">
<path d="M41.8752 133.155C58.6099 79.9417 66.9772 53.3353 85.6913 38.1666C94.0236 31.4129 103.629 26.4036 113.936 23.4367C137.086 16.7732 163.692 25.1405 216.905 41.8752C270.118 58.6099 296.725 66.9772 311.893 85.6913C318.647 94.0236 323.656 103.629 326.623 113.936C333.287 137.086 324.919 163.692 308.185 216.905C291.45 270.118 283.083 296.725 264.369 311.893C256.036 318.647 246.431 323.656 236.124 326.623C212.974 333.287 186.368 324.919 133.155 308.185C79.9417 291.45 53.3352 283.083 38.1666 264.369C31.4129 256.036 26.4036 246.431 23.4367 236.124C16.7731 212.974 25.1405 186.368 41.8752 133.155Z" fill="#B2EB50" fill-opacity="0.3"/>
</svg>
