<svg width="268" height="268" viewBox="0 0 268 268" fill="none" xmlns="http://www.w3.org/2000/svg">
<g opacity="0.3">
<path d="M115.735 247.108C109.964 247.108 105.296 251.796 105.296 257.533C105.296 263.308 109.963 268 115.735 268C121.504 268 126.175 263.308 126.175 257.533C126.175 251.796 121.505 247.108 115.735 247.108Z" fill="#FFB321"/>
<path d="M134.001 0C88.0672 0 50.6971 37.3701 50.6971 83.3036C50.6971 88.7874 55.1429 93.2333 60.6268 93.2333C66.1106 93.2333 70.5565 88.7874 70.5565 83.3036C70.5565 48.3206 99.0177 19.8594 134.001 19.8594C168.982 19.8594 197.442 48.3206 197.442 83.3036C197.442 118.289 168.982 146.752 134.001 146.752C133.658 146.752 133.318 146.769 132.983 146.803C118.25 147.333 106.387 159.196 105.857 173.927C105.823 174.262 105.806 174.601 105.806 174.945V215.885C105.806 221.369 110.251 225.815 115.735 225.815C121.219 225.815 125.665 221.369 125.665 215.885V174.945C125.665 170.35 129.404 166.611 134.001 166.611C179.933 166.611 217.302 129.24 217.302 83.3036C217.302 37.3701 179.934 0 134.001 0Z" fill="#FFB321"/>
</g>
</svg>
