<svg width="128" height="128" viewBox="0 0 128 128" fill="none" xmlns="http://www.w3.org/2000/svg">
<path d="M42.667 123.732H6.40068C5.22256 123.732 4.26736 122.777 4.26736 121.599V19.1998C4.26736 18.0216 5.22256 17.0664 6.40068 17.0664H23.4672C24.6453 17.0664 25.6005 16.1112 25.6005 14.9331C25.6005 13.755 24.6453 12.7998 23.4672 12.7998H6.40068C2.86604 12.7998 0.000732422 15.6651 0.000732422 19.1998V121.599C0.000732422 125.134 2.86604 127.999 6.40068 127.999H42.667C43.8452 127.999 44.8004 127.044 44.8004 125.866C44.8004 124.687 43.8452 123.732 42.667 123.732Z" fill="#FFB321"/>
<path d="M100.267 91.7327C99.0885 91.7327 98.1333 92.6879 98.1333 93.866V121.599C98.1333 122.777 97.1781 123.732 96 123.732H64.0003C62.8221 123.732 61.8669 124.688 61.8669 125.866C61.8669 127.044 62.8221 127.999 64.0003 127.999H96C99.5346 127.999 102.4 125.134 102.4 121.599V93.866C102.4 92.6879 101.445 91.7327 100.267 91.7327Z" fill="#FFB321"/>
<path d="M96.0002 12.8H78.9336C77.7555 12.8 76.8003 13.7552 76.8003 14.9334C76.8003 16.1115 77.7555 17.0667 78.9336 17.0667H96.0002C97.1783 17.0667 98.1335 18.0219 98.1335 19.2V59.733C98.1335 60.9111 99.0887 61.8663 100.267 61.8663C101.445 61.8663 102.4 60.9111 102.4 59.733V19.2C102.4 15.6654 99.5345 12.8 96.0002 12.8Z" fill="#FFB321"/>
<path d="M70.4002 7.5498H66.1336V2.13332C66.1336 0.955192 65.1784 0 64.0002 0H38.4005C37.2223 0 36.2671 0.955192 36.2671 2.13332V7.5498H32.0005C30.8224 7.5498 29.8672 8.505 29.8672 9.68312V27.7331C29.8672 28.9112 30.8224 29.8664 32.0005 29.8664H70.4002C71.5783 29.8664 72.5335 28.9112 72.5335 27.7331V9.68312C72.5335 8.505 71.5783 7.5498 70.4002 7.5498ZM68.2669 25.5998H34.1338V11.8164H38.4005C39.5786 11.8164 40.5338 10.8612 40.5338 9.68312V4.26663H61.8669V9.68312C61.8669 10.8612 62.8221 11.8164 64.0002 11.8164H68.2669V25.5998Z" fill="#FFB321"/>
<path d="M57.6002 34.1331H44.8003C43.6222 34.1331 42.667 35.0882 42.667 36.2664V44.7996C42.667 45.9777 43.6222 46.9329 44.8003 46.9329H57.6002C58.7783 46.9329 59.7335 45.9777 59.7335 44.7996V36.2664C59.7335 35.0882 58.7783 34.1331 57.6002 34.1331ZM55.4669 42.6663H46.9336V38.3997H55.4669V42.6663Z" fill="#FFB321"/>
<path d="M46.9337 95.9993H34.1338C32.9557 95.9993 32.0005 96.9545 32.0005 98.1326V106.666C32.0005 107.844 32.9557 108.799 34.1338 108.799H46.9337C48.1118 108.799 49.067 107.844 49.067 106.666V98.1326C49.067 96.9545 48.1118 95.9993 46.9337 95.9993ZM44.8004 104.533H36.2671V100.266H44.8004V104.533Z" fill="#FFB321"/>
<path d="M57.6002 66.1328H44.8003C43.6222 66.1328 42.667 67.088 42.667 68.2661V76.7994C42.667 77.9775 43.6222 78.9327 44.8003 78.9327H57.6002C58.7783 78.9327 59.7335 77.9775 59.7335 76.7994V68.2661C59.7335 67.088 58.7783 66.1328 57.6002 66.1328ZM55.4669 74.6661H46.9336V70.3994H55.4669V74.6661Z" fill="#FFB321"/>
<path d="M78.9334 66.1328H66.1336C64.9554 66.1328 64.0002 67.088 64.0002 68.2661V76.7994C64.0002 77.9775 64.9554 78.9327 66.1336 78.9327H78.9334C80.1116 78.9327 81.0668 77.9775 81.0668 76.7994V68.2661C81.0668 67.088 80.1116 66.1328 78.9334 66.1328ZM76.8001 74.6661H68.2669V70.3994H76.8001V74.6661Z" fill="#FFB321"/>
<path d="M36.2672 66.1328H23.4673C22.2892 66.1328 21.334 67.088 21.334 68.2661V76.7994C21.334 77.9775 22.2892 78.9327 23.4673 78.9327H36.2672C37.4453 78.9327 38.4005 77.9775 38.4005 76.7994V68.2661C38.4005 67.088 37.4453 66.1328 36.2672 66.1328ZM34.1339 74.6661H25.6006V70.3994H34.1339V74.6661Z" fill="#FFB321"/>
<path d="M72.5338 55.4663H53.3339V53.333C53.3339 52.1549 52.3787 51.1997 51.2006 51.1997C50.0225 51.1997 49.0673 52.1549 49.0673 53.333V55.4663H29.8674C28.6893 55.4663 27.7341 56.4215 27.7341 57.5996V59.733C27.7341 60.9111 28.6893 61.8663 29.8674 61.8663C31.0456 61.8663 32.0008 60.9111 32.0008 59.733H49.0673C49.0673 60.9111 50.0225 61.8663 51.2006 61.8663C52.3787 61.8663 53.3339 60.9111 53.3339 59.733H70.4005C70.4005 60.9111 71.3556 61.8663 72.5338 61.8663C73.7119 61.8663 74.6671 60.9111 74.6671 59.733V57.5996C74.6671 56.4215 73.7119 55.4663 72.5338 55.4663Z" fill="#FFB321"/>
<path d="M72.5337 83.1992C71.3555 83.1992 70.4003 84.1544 70.4003 85.3325H40.5339C39.3558 85.3325 38.4006 86.2877 38.4006 87.4659V89.5992C38.4006 90.7773 39.3558 91.7325 40.5339 91.7325C41.7121 91.7325 42.6673 90.7773 42.6673 89.5992H72.5337C73.7118 89.5992 74.667 88.644 74.667 87.4659V85.3325C74.667 84.1544 73.7118 83.1992 72.5337 83.1992Z" fill="#FFB321"/>
<path d="M112.441 71.0245L106.042 64.6246C105.208 63.7918 103.858 63.7918 103.025 64.6246L62.492 105.158C62.4454 105.219 62.4027 105.283 62.364 105.35C62.3235 105.401 62.2616 105.429 62.2254 105.482L49.4255 124.682C48.7711 125.661 49.0348 126.986 50.0145 127.641C50.7319 128.12 51.667 128.12 52.3844 127.641L71.5842 114.841C71.6376 114.804 71.6653 114.743 71.7165 114.702C71.7826 114.663 71.8469 114.62 71.9085 114.574L112.441 74.0411C113.274 73.208 113.274 71.8576 112.441 71.0245ZM58.891 118.186L64.3309 110.026L67.0531 112.746L58.891 118.186ZM70.4002 110.049L67.0168 106.666L104.533 69.1494L107.917 72.5328L70.4002 110.049Z" fill="#FFB321"/>
<path d="M116.708 66.758L110.308 60.358C109.461 59.5394 108.11 59.5628 107.292 60.4103C106.493 61.2369 106.493 62.5476 107.292 63.3745L113.692 69.7745C114.092 70.1745 114.634 70.3995 115.2 70.3995C116.378 70.3993 117.333 69.4441 117.333 68.2657C117.333 67.7004 117.108 67.158 116.708 66.758Z" fill="#FFB321"/>
<path d="M127.375 56.0912L120.975 49.6912C120.142 48.8585 118.791 48.8585 117.958 49.6912L111.558 56.0912C110.726 56.9242 110.726 58.2746 111.558 59.1077L117.958 65.5076C118.791 66.3404 120.142 66.3404 120.975 65.5076L127.375 59.1077C128.208 58.2746 128.208 56.9242 127.375 56.0912ZM119.467 60.9829L116.083 57.5994L119.467 54.216L122.85 57.5994L119.467 60.9829Z" fill="#FFB321"/>
</svg>
