<svg width="208" height="208" viewBox="0 0 208 208" fill="none" xmlns="http://www.w3.org/2000/svg">
<path d="M140.325 43.5369L120.514 16.0245C119.751 14.9642 118.524 14.3357 117.218 14.3357C115.911 14.3357 114.684 14.9642 113.921 16.0245L94.1104 43.5369C93.6124 44.2283 93.3447 45.0587 93.3447 45.9106V46.5594V178.393C93.3447 186.775 100.164 193.595 108.547 193.595H125.888C134.271 193.595 141.09 186.775 141.09 178.393V46.5594V45.9106C141.09 45.0587 140.823 44.2279 140.325 43.5369ZM117.218 25.3507L129.564 42.4969H104.872L117.218 25.3507ZM101.47 50.6219H120.758V155.847H113.675V78.2493C113.676 76.0051 111.857 74.1864 109.613 74.1864C107.37 74.1864 105.551 76.0051 105.551 78.2489V155.847H101.47V50.6219ZM132.965 178.393C132.965 182.295 129.791 185.47 125.888 185.47H108.547C104.645 185.47 101.47 182.295 101.47 178.393V163.971H132.965V178.393ZM132.965 155.847H128.884V50.6219H132.965V155.847Z" fill="#B4EC50"/>
<path d="M113.595 61.1405C113.543 60.8845 113.465 60.6286 113.364 60.3808C113.262 60.137 113.136 59.9014 112.99 59.682C112.844 59.4586 112.673 59.2514 112.486 59.0645C112.299 58.8777 112.092 58.707 111.869 58.5567C111.649 58.4105 111.414 58.2886 111.166 58.187C110.922 58.0855 110.667 58.0042 110.406 57.9514C109.882 57.8499 109.342 57.8499 108.818 57.9514C108.562 58.0042 108.306 58.0855 108.059 58.187C107.814 58.2886 107.579 58.4105 107.359 58.5567C107.136 58.707 106.929 58.8777 106.742 59.0645C106.555 59.2514 106.384 59.4586 106.234 59.682C106.088 59.9014 105.962 60.137 105.86 60.3808C105.759 60.6286 105.682 60.8845 105.629 61.1405C105.576 61.4045 105.552 61.6727 105.552 61.9367C105.552 63.0052 105.986 64.0533 106.742 64.8089C107.498 65.5645 108.546 65.9992 109.614 65.9992C109.878 65.9992 110.147 65.9708 110.406 65.918C110.667 65.8652 110.923 65.788 111.166 65.6864C111.414 65.5848 111.649 65.4589 111.869 65.3127C112.092 65.1664 112.299 64.9958 112.486 64.8089C112.673 64.622 112.844 64.4148 112.99 64.1914C113.136 63.972 113.262 63.7364 113.364 63.4886C113.465 63.2449 113.543 62.9889 113.595 62.7289C113.648 62.4689 113.676 62.2008 113.676 61.9367C113.676 61.6727 113.648 61.4045 113.595 61.1405Z" fill="#FFB321"/>
<path d="M39.5138 90.4202L39.5126 89.8011C39.513 86.5995 42.1179 83.9946 45.3195 83.9946C45.3768 83.9946 45.4341 83.9934 45.4914 83.9909L57.8657 83.4673C65.0917 83.4165 70.9551 77.5222 70.9551 70.2841C70.9551 63.0147 65.0409 57.1009 57.7719 57.1009H30.1238C27.3349 57.1009 25.0656 54.8316 25.0656 52.0423C25.0656 50.6927 25.5978 49.4256 26.5638 48.4746C27.4905 47.5618 28.7019 47.0621 29.9816 47.0621C30.0287 47.0621 30.0767 47.0633 30.1238 47.0633L54.3147 47.0625C63.3375 47.0625 70.6776 39.7216 70.6776 30.6988C70.6776 21.676 63.3371 14.3354 54.3143 14.3354H26.7958C24.5525 14.3354 22.7333 16.1542 22.7333 18.3979C22.7333 20.6417 24.5525 22.4604 26.7958 22.4604H54.3143C58.857 22.4604 62.5526 26.1561 62.5526 30.6988C62.5526 35.2414 58.857 38.9371 54.3147 38.9375L30.1526 38.9383C26.6727 38.8904 23.365 40.2216 20.8641 42.6839C18.334 45.175 16.9406 48.4982 16.9406 52.0427C16.9406 59.3121 22.8548 65.2263 30.1238 65.2263H57.7715C60.5604 65.2263 62.8297 67.4952 62.8297 70.2845C62.8297 73.0738 60.5604 75.3431 57.7715 75.3431C57.7142 75.3431 57.6569 75.3443 57.5996 75.3468L45.2265 75.8704C37.587 75.9204 31.388 82.1506 31.388 89.8096L31.3892 90.4227C13.7471 92.4478 0 107.471 0 125.647V158.205C0 177.757 15.9071 193.664 35.4595 193.664C55.0118 193.664 70.9189 177.757 70.9189 158.205V125.647C70.9189 107.465 57.1637 92.4385 39.5138 90.4202ZM8.12498 125.647C8.12498 111.954 18.2438 100.581 31.397 98.6131V131.748H8.12498V125.647ZM62.7939 158.205C62.7939 173.277 50.5317 185.539 35.4595 185.539C20.3872 185.539 8.12498 173.277 8.12498 158.205V139.873H62.7939V158.205ZM62.7939 131.748H39.522V98.6131C52.6751 100.581 62.7939 111.954 62.7939 125.647V131.748Z" fill="#FFB321"/>
<path d="M15.1364 17.6027C15.0836 17.3467 15.0064 17.0908 14.9049 16.843C14.8033 16.5992 14.6774 16.3636 14.5311 16.1442C14.3853 15.9208 14.2146 15.7136 14.0278 15.5267C13.2721 14.7711 12.224 14.3364 11.1556 14.3364C10.0872 14.3364 9.03903 14.7711 8.28341 15.5267C8.09653 15.7136 7.92591 15.9208 7.77966 16.1442C7.62975 16.3636 7.50747 16.5992 7.40591 16.843C7.30029 17.0908 7.22351 17.3467 7.17029 17.6027C7.11747 17.8667 7.09351 18.1349 7.09351 18.3989C7.09351 18.663 7.11788 18.9311 7.17029 19.1911C7.2231 19.4511 7.30029 19.707 7.40551 19.9508C7.50707 20.1986 7.62935 20.4342 7.77925 20.6536C7.9255 20.877 8.09613 21.0842 8.283 21.2711C8.46988 21.458 8.67706 21.6286 8.90091 21.7749C9.12028 21.9211 9.35591 22.047 9.59966 22.1486C9.84747 22.2502 10.1034 22.3274 10.3634 22.3802C10.6234 22.433 10.8915 22.4614 11.1556 22.4614C12.224 22.4614 13.2721 22.0267 14.0278 21.2711C14.2146 21.0842 14.3853 20.877 14.5311 20.6536C14.6774 20.4342 14.8033 20.1986 14.9049 19.9508C15.0064 19.707 15.0836 19.4511 15.1364 19.1911C15.1892 18.9311 15.2177 18.663 15.2177 18.3989C15.2177 18.1349 15.1892 17.8667 15.1364 17.6027Z" fill="#B4EC50"/>
<path d="M207.969 54.8714C207.52 45.2851 202.691 40.5406 198.811 36.7283C194.613 32.6033 192.078 30.1134 194.471 21.953C195.555 18.2586 194.062 16.3188 193.076 15.4912C191.849 14.4618 189.659 13.5949 186.189 15.3121C181.694 17.5375 174.871 24.0802 169.597 31.2216C164.755 37.7789 159.077 47.5979 159.524 57.1399C159.858 64.2753 162.884 70.8179 167.822 75.4199C165.382 78.7138 163.935 82.7864 163.935 87.1914C163.935 89.986 164.505 92.6497 165.541 95.0677V174.458C165.541 184.121 173.402 191.982 183.064 191.982C192.726 191.982 200.588 184.121 200.588 174.458V97.6913C202.482 94.6408 203.563 91.0406 203.563 87.1914C203.564 82.8392 202.15 78.8133 199.763 75.541C205.272 70.4275 208.344 62.8839 207.969 54.8714ZM192.463 174.458C192.463 179.64 188.247 183.856 183.064 183.856C177.882 183.856 173.666 179.64 173.666 174.458V104.275C175.776 105.51 178.148 106.376 180.707 106.772C180.913 106.803 181.12 106.819 181.327 106.819H186.172C186.379 106.819 186.587 106.803 186.791 106.772C187.059 106.73 187.326 106.682 187.591 106.63C187.76 106.597 187.927 106.559 188.095 106.522C188.167 106.506 188.24 106.49 188.312 106.473C189.771 106.133 191.159 105.638 192.463 105.007V174.458ZM189.241 97.5036C189.223 97.5121 189.207 97.5211 189.19 97.53C189.073 97.5922 188.955 97.6515 188.835 97.71C188.779 97.7376 188.722 97.7644 188.665 97.7912C188.574 97.8339 188.482 97.8753 188.39 97.9155C188.304 97.9533 188.217 97.9895 188.129 98.0252C188.058 98.0541 187.987 98.0833 187.916 98.1109C187.807 98.1528 187.698 98.1918 187.588 98.2304C187.531 98.2503 187.475 98.271 187.417 98.2901C187.294 98.3311 187.169 98.3693 187.044 98.4063C186.996 98.4205 186.949 98.4355 186.901 98.4494C186.765 98.4879 186.627 98.5225 186.489 98.5558C186.45 98.5651 186.412 98.5761 186.373 98.585C186.195 98.6261 186.017 98.663 185.837 98.6955H181.664C181.66 98.6947 181.656 98.6939 181.652 98.6931C181.455 98.6578 181.262 98.6155 181.069 98.57C180.991 98.5517 180.915 98.5318 180.838 98.5119C180.723 98.4823 180.609 98.451 180.495 98.4177C180.399 98.3896 180.303 98.362 180.208 98.3315C180.136 98.3088 180.065 98.2832 179.993 98.2588C175.358 96.6728 172.061 92.224 172.061 87.1918C172.061 83.4242 173.855 80.0694 176.631 77.9301C176.738 77.8476 176.846 77.7676 176.955 77.6892C177.142 77.5551 177.333 77.4264 177.528 77.3033C177.613 77.2492 177.699 77.1956 177.786 77.144C178.055 76.9836 178.331 76.8332 178.614 76.6943C178.641 76.6805 178.669 76.6659 178.696 76.6525C178.86 76.5736 179.026 76.4985 179.194 76.427C179.222 76.4152 179.25 76.4051 179.277 76.3937C179.569 76.2722 179.867 76.1633 180.17 76.0654C180.264 76.0354 180.358 76.0069 180.452 75.9793C180.657 75.9188 180.865 75.8643 181.075 75.8148C181.235 75.7774 181.396 75.7421 181.558 75.7116C181.668 75.6905 181.778 75.6701 181.889 75.6523C182.144 75.6121 182.4 75.5787 182.659 75.5552C182.729 75.5487 182.799 75.5442 182.869 75.5389C183.162 75.5174 183.455 75.5024 183.751 75.5024C184.052 75.5024 184.349 75.5182 184.644 75.5401C184.714 75.5454 184.785 75.5495 184.854 75.556C185.113 75.58 185.37 75.6141 185.625 75.6547C185.74 75.6734 185.854 75.6941 185.968 75.7161C186.131 75.7469 186.293 75.7835 186.455 75.8217C186.667 75.8721 186.877 75.9277 187.084 75.9895C187.17 76.0151 187.256 76.0419 187.342 76.0695C187.633 76.1637 187.92 76.269 188.2 76.3847C188.242 76.4018 188.284 76.4181 188.325 76.4355C188.817 76.6456 189.291 76.8893 189.746 77.1623C189.847 77.2228 189.946 77.2862 190.045 77.35C190.229 77.4678 190.409 77.5901 190.585 77.7176C190.708 77.807 190.83 77.8988 190.951 77.9935C193.681 80.1352 195.44 83.4608 195.44 87.1918C195.44 91.5712 192.944 95.5101 189.241 97.5036ZM193.706 70.0607C193.618 70.0095 193.525 69.966 193.437 69.916C193.225 69.7966 193.009 69.6816 192.793 69.5699C192.682 69.513 192.572 69.4541 192.459 69.3993C191.736 69.0438 190.987 68.7334 190.218 68.4669C190.175 68.4523 190.133 68.4381 190.09 68.4235C189.705 68.2931 189.315 68.1724 188.92 68.0656C188.918 68.0652 188.917 68.0648 188.914 68.0639C188.114 67.8474 187.294 67.6813 186.456 67.5663C186.38 67.5557 186.303 67.5468 186.227 67.537C185.903 67.4964 185.578 67.4639 185.25 67.4395C185.152 67.4322 185.055 67.4233 184.957 67.4172C184.557 67.3932 184.155 67.377 183.75 67.377C183.348 67.377 182.951 67.3928 182.555 67.4164C182.46 67.4221 182.366 67.431 182.271 67.4379C181.947 67.4619 181.624 67.4936 181.304 67.5334C181.229 67.5427 181.154 67.5517 181.079 67.5622C179.839 67.73 178.636 68.0132 177.479 68.4003C177.446 68.4113 177.414 68.4223 177.381 68.4336C177.015 68.5583 176.652 68.6924 176.296 68.8379C176.266 68.85 176.236 68.861 176.206 68.8732C175.834 69.0272 175.467 69.1901 175.106 69.3656C175.028 69.4038 174.951 69.446 174.873 69.485C174.627 69.6089 174.383 69.7369 174.142 69.8709C174.072 69.9099 173.999 69.9437 173.929 69.9835C170.193 66.8046 167.887 62.0271 167.64 56.7601C167.367 50.9361 170.782 42.9651 177.007 34.8909C180.127 30.8438 183.134 27.7884 185.513 25.7121C184.839 34.3908 189.358 38.8307 193.117 42.5239C196.571 45.9173 199.553 48.8475 199.853 55.2513C200.127 61.1053 197.814 66.5661 193.706 70.0607Z" fill="#FFB321"/>
</svg>
