<svg width="128" height="128" viewBox="0 0 128 128" fill="none" xmlns="http://www.w3.org/2000/svg">
<g clip-path="url(#clip0)">
<path d="M127.375 60.3743L94.2348 27.2403L108.227 12.1346C109.044 11.285 109.017 9.93465 108.167 9.1184C107.317 8.30189 105.967 8.32882 105.151 9.1784C105.133 9.19653 105.116 9.21493 105.1 9.2336L89.74 25.8177L74.8348 40.7207C74.0021 41.5538 74.0021 42.9042 74.8348 43.7372L75.8503 44.7548L69.971 50.3397C69.5739 50.7157 69.0478 50.925 68.5011 50.9242H59.7547C59.5297 50.9338 59.3054 50.9551 59.0827 50.9882L51.9811 42.7879L53.165 41.6039C53.9978 40.7709 53.9978 39.4205 53.165 38.5875L38.2598 23.6972L25.0335 9.25493C24.2383 8.38536 22.8888 8.32536 22.0192 9.12054C21.1496 9.91571 21.0896 11.2653 21.8848 12.1349L33.7629 25.1094L0.624583 58.2411C-0.208194 59.0741 -0.208194 60.4245 0.624583 61.2575L15.5575 76.1904C16.3906 77.0232 17.7409 77.0232 18.574 76.1904L19.199 75.5654L28.6473 85.0137L27.2116 86.3747C24.4258 88.9794 24.2789 93.3492 26.8836 96.135C26.9892 96.248 27.0985 96.3574 27.2116 96.463C28.6065 97.7733 30.4515 98.4981 32.3656 98.4875H32.3955C32.4141 100.374 33.2032 102.172 34.5799 103.462C35.9748 104.772 37.8188 105.495 39.7318 105.485H39.7638C39.7809 107.371 40.5694 109.168 41.9461 110.457C43.341 111.767 45.185 112.49 47.098 112.48H47.1279C47.1457 114.367 47.935 116.164 49.3123 117.454C52.2181 120.15 56.7103 120.15 59.616 117.454L61.4507 115.714L63.1744 117.478C64.5615 118.776 66.3945 119.491 68.2942 119.477C72.312 119.484 75.6519 116.384 75.9441 112.377C77.8961 112.346 79.76 111.56 81.1451 110.184C82.5269 108.89 83.3167 107.085 83.3295 105.192C85.3164 105.184 87.2246 104.415 88.6627 103.044C90.0358 101.756 90.8237 99.9642 90.8451 98.0821C90.8643 98.0821 90.8813 98.0821 90.9005 98.0821C92.7826 98.0949 94.5978 97.3848 95.9713 96.0982C97.3457 94.8153 98.1273 93.0204 98.1302 91.1404C98.1283 89.2178 97.3289 87.3824 95.9223 86.0718L95.8775 86.027L106.779 75.6763L109.426 78.3237C110.259 79.1565 111.609 79.1565 112.442 78.3237L127.375 63.3908C128.208 62.5578 128.208 61.2074 127.375 60.3743ZM17.0657 71.6658L5.14926 59.7493L36.7217 28.1768L48.6382 40.0954L17.0657 71.6658ZM34.5757 93.374C33.3269 94.5318 31.3965 94.531 30.1491 93.3719C29.0729 92.3927 28.9942 90.7263 29.9734 89.6501C30.0291 89.5888 30.0878 89.5301 30.1491 89.4744L38.7419 81.3146C39.9899 80.1535 41.9227 80.1535 43.1706 81.3146C44.2474 82.2948 44.3258 83.9625 43.3456 85.0393C43.2901 85.1003 43.2317 85.1587 43.1706 85.2142L34.5757 93.374ZM41.944 100.367C40.6872 101.506 38.7721 101.506 37.5153 100.367C36.4385 99.3866 36.3601 97.7189 37.3404 96.6422C37.3959 96.5811 37.4543 96.523 37.5153 96.4672L46.1082 88.3096C47.3561 87.1486 49.2889 87.1486 50.5368 88.3096C51.6131 89.2888 51.6917 90.9551 50.7126 92.0314C50.6568 92.0927 50.5982 92.1514 50.5368 92.2071L41.944 100.367ZM49.3102 107.36C48.0622 108.521 46.1295 108.521 44.8815 107.36C43.8047 106.38 43.7263 104.712 44.7066 103.635C44.7621 103.574 44.8204 103.516 44.8815 103.46L53.4743 95.3003C54.7234 94.1401 56.6561 94.1401 57.9052 95.3003C58.9819 96.284 59.0574 97.9547 58.0737 99.0314C58.0201 99.0901 57.9638 99.1464 57.9052 99.2L49.3102 107.36ZM56.6764 114.361C55.4292 115.524 53.4949 115.524 52.2477 114.361C51.1715 113.382 51.0928 111.716 52.072 110.639C52.1277 110.578 52.1864 110.519 52.2477 110.464L60.8427 102.3C62.0984 101.16 64.0135 101.16 65.2692 102.3C66.346 103.28 66.4244 104.948 65.4442 106.024C65.3887 106.085 65.3303 106.144 65.2692 106.199L56.6764 114.361ZM70.611 114.299L70.6152 114.308C69.3904 115.497 67.4596 115.554 66.1673 114.438L64.5418 112.776L68.2067 109.297C68.5091 109.003 68.7854 108.683 69.0323 108.341L71.0632 110.372C71.4987 110.774 71.7416 111.343 71.7309 111.936C71.689 112.841 71.2856 113.693 70.611 114.299ZM93.0381 93.0113C91.7933 94.1441 89.8838 94.119 88.6691 92.9537L82.088 86.7075C81.2331 85.8945 79.8814 85.9283 79.0683 86.7832C78.2553 87.6379 78.2894 88.9898 79.1441 89.8029L85.7231 96.0512C86.2641 96.5547 86.5729 97.2598 86.5764 97.9989C86.5535 98.8104 86.1839 99.573 85.5609 100.094C84.3138 101.257 82.3794 101.257 81.1323 100.094L75.1036 94.3702C74.2487 93.5591 72.8984 93.5945 72.0872 94.4492C71.276 95.3038 71.3115 96.6544 72.1661 97.4656L78.1947 103.189C78.7361 103.694 79.0449 104.399 79.048 105.139C79.0249 105.95 78.6553 106.713 78.0326 107.234C76.9772 108.363 75.206 108.423 74.0767 107.367C74.0554 107.347 74.0343 107.327 74.0135 107.306L71.8803 105.173L70.3059 103.599C70.1574 101.921 69.3982 100.356 68.1726 99.2C66.7708 97.8832 64.914 97.1595 62.9909 97.1797C62.9738 95.2929 62.1853 93.4953 60.8085 92.205C59.4054 90.889 57.5484 90.1653 55.6247 90.1847C55.6068 88.2984 54.8175 86.5014 53.4402 85.2121C52.0376 83.8964 50.1814 83.1729 48.2585 83.1919C48.2406 81.3047 47.4513 79.5072 46.074 78.2171C43.168 75.5227 38.6763 75.5227 35.7703 78.2171L31.7171 82.074L22.2155 72.549L48.9518 45.8126L55.102 52.9228L47.0297 60.5898C44.8106 62.674 44.7013 66.1625 46.7855 68.3816C46.8644 68.4656 46.9457 68.5469 47.0297 68.6259C49.2499 70.6906 52.6632 70.7695 54.9762 68.8093L64.3903 63.2628C65.2228 62.7724 66.2809 62.9028 66.9695 63.5807L85.7871 82.1402C85.8921 82.3658 86.0367 82.5711 86.2137 82.746L91.2867 87.5651L92.7458 89.0029L92.7736 88.9752L92.9805 89.1672C93.5346 89.6744 93.853 90.3893 93.8594 91.1404C93.8573 91.8508 93.5597 92.5287 93.0381 93.0113ZM92.797 83.0596L69.971 60.5343C67.9049 58.4971 64.7266 58.1048 62.2272 59.5786L52.6274 65.2318L52.2413 65.5241C51.5941 66.1014 50.6166 66.1014 49.9694 65.5241C49.4582 65.0585 49.4211 64.2665 49.8867 63.7551C49.9128 63.7263 49.9406 63.6985 49.9694 63.6724L58.2892 55.7793C58.6841 55.4011 59.2099 55.1902 59.7568 55.1905H68.5033C70.1435 55.1934 71.7219 54.5646 72.9106 53.4348L78.839 47.803L103.613 72.7943L92.797 83.0596ZM110.93 73.799L79.3574 42.2266L91.276 30.3101L122.846 61.8826L110.93 73.799Z" fill="#B4EC51"/>
<path d="M17.0656 64.0158C19.422 64.0158 21.3322 62.1056 21.3322 59.7492C21.3322 57.3929 19.422 55.4827 17.0656 55.4827C14.7093 55.4827 12.7991 57.3929 12.7991 59.7492C12.7991 62.1056 14.7093 64.0158 17.0656 64.0158Z" fill="#B4EC51"/>
<path d="M110.93 66.1491C113.286 66.1491 115.196 64.2389 115.196 61.8825C115.196 59.5262 113.286 57.616 110.93 57.616C108.574 57.616 106.663 59.5262 106.663 61.8825C106.663 64.2389 108.574 66.1491 110.93 66.1491Z" fill="#B4EC51"/>
</g>
<defs>
<clipPath id="clip0">
<rect width="128" height="128" fill="white"/>
</clipPath>
</defs>
</svg>
