<svg width="104" height="128" viewBox="0 0 104 128" fill="none" xmlns="http://www.w3.org/2000/svg"><path d="M92.533 0H11.467C5.579.007.807 4.779.8 10.667v57.6c.007 5.888 4.779 10.66 10.667 10.666h29.17L37.593 89.6h-6.925v4.267h42.666V89.6H66.41l-3.047-10.667h29.171c5.888-.007 10.66-4.778 10.667-10.666v-57.6C103.193 4.779 98.421.007 92.533 0zM42.03 89.6l3.046-10.667h13.85L61.97 89.6H42.03zm56.904-21.333a6.4 6.4 0 0 1-6.4 6.4H11.467a6.4 6.4 0 0 1-6.4-6.4V64h93.866v4.267zm0-8.534H5.067V10.667a6.4 6.4 0 0 1 6.4-6.4h81.066a6.4 6.4 0 0 1 6.4 6.4v49.066zm-29.867 38.4H9.333a2.134 2.134 0 0 0-2.133 2.134v25.6c0 1.178.955 2.133 2.133 2.133h59.734a2.133 2.133 0 0 0 2.133-2.133v-25.6a2.133 2.133 0 0 0-2.133-2.134zm-2.134 25.6H11.467V102.4h55.466v21.333z" fill="#97D644"/><path d="M20 115.2h-4.267v4.267H20V115.2zm0-8.533h-4.267v4.266H20v-4.266zm8.533 0h-4.266v4.266h4.266v-4.266zm8.534 0H32.8v4.266h4.267v-4.266zm17.066 0h-4.266v4.266h4.266v-4.266zm-8.533 0h-4.267v4.266H45.6v-4.266zm17.067 8.533H58.4v4.267h4.267V115.2zm0-8.533H58.4v4.266h4.267v-4.266zm-8.534 8.533H24.267v4.267h29.866V115.2zm32-17.067c-5.89 0-10.666 4.776-10.666 10.667v8.533c0 5.891 4.775 10.667 10.666 10.667S96.8 123.224 96.8 117.333V108.8c0-5.891-4.776-10.667-10.667-10.667zm6.4 19.2a6.4 6.4 0 1 1-12.8 0V108.8a6.4 6.4 0 1 1 12.8 0v8.533z" fill="#97D644"/><path d="M88.267 106.667H84v4.266h4.267v-4.266zM54.206 18.658l-8.541 29.85 4.1 1.173 8.541-29.85-4.1-1.173zm-13.641 6.447l-2.73-3.277-12.8 10.667a2.133 2.133 0 0 0 0 3.277l12.8 10.666 2.73-3.276-10.833-9.029 10.833-9.028zm38.672 7.662a2.131 2.131 0 0 0-.272-.272l-12.8-10.667-2.73 3.277 10.833 9.028-10.833 9.029 2.73 3.276 12.8-10.666a2.133 2.133 0 0 0 .272-3.005z" fill="#97D644"/></svg>