<svg width="20" height="17" viewBox="0 0 20 17" fill="none" xmlns="http://www.w3.org/2000/svg"><path d="M.125 5.277h4.222V16.89H.125V5.277zM2.2 4.222h.024c1.31 0 2.123-.938 2.123-2.111C4.322.91 3.533 0 2.25 0 .965 0 .125.912.125 2.11c0 1.174.816 2.112 2.075 2.112zm9.118 12.667v-6.336c0-.34.026-.677.126-.92.275-.678.9-1.379 1.951-1.379 1.377 0 1.927 1.04 1.927 2.565v6.07h3.803v-6.506c0-3.485-1.876-5.106-4.379-5.106-2.02 0-2.923 1.103-3.428 1.874v.037h-.025c.007-.012.018-.024.025-.037V5.544H7.514c.051 1.064 0 11.344 0 11.344h3.804z" fill="#B4EC50"/></svg>