<svg width="127" height="69" viewBox="0 0 127 69" fill="none" xmlns="http://www.w3.org/2000/svg"><path d="M18.22 28.83c0 1.934-.822 3.507-2.466 4.72-1.634 1.204-3.858 1.806-6.67 1.806-1.626 0-3.046-.14-4.259-.422a22.493 22.493 0 0 1-3.388-1.094v-4.707h.554a11.745 11.745 0 0 0 3.507 1.925c1.3.448 2.548.672 3.744.672.307 0 .712-.026 1.213-.079.5-.052.91-.14 1.226-.263.386-.159.703-.356.949-.594.255-.237.382-.588.382-1.054 0-.43-.184-.8-.553-1.108-.36-.316-.893-.558-1.596-.725a43.77 43.77 0 0 0-2.346-.488 18.797 18.797 0 0 1-2.308-.593c-1.652-.536-2.843-1.261-3.572-2.175-.721-.923-1.081-2.066-1.081-3.428 0-1.828.817-3.318 2.452-4.47 1.643-1.16 3.753-1.74 6.328-1.74 1.292 0 2.566.128 3.823.383 1.266.246 2.36.558 3.283.936v4.522h-.54c-.792-.633-1.763-1.16-2.914-1.582a9.866 9.866 0 0 0-3.507-.646c-.422 0-.844.03-1.266.092a4.74 4.74 0 0 0-1.2.317 2.275 2.275 0 0 0-.883.606 1.296 1.296 0 0 0-.369.91c0 .518.198.918.593 1.2.396.272 1.143.522 2.242.751.72.15 1.41.294 2.07.435.667.14 1.384.334 2.148.58 1.503.492 2.61 1.165 3.323 2.017.72.844 1.08 1.943 1.08 3.296zm17.798-.356H25.154c.07 1.16.51 2.048 1.319 2.663.817.615 2.017.923 3.599.923 1.002 0 1.973-.18 2.913-.54.94-.36 1.684-.747 2.228-1.16h.528v3.81c-1.072.43-2.083.742-3.032.935-.95.194-2 .29-3.151.29-2.971 0-5.247-.668-6.83-2.003-1.582-1.336-2.373-3.24-2.373-5.709 0-2.443.747-4.377 2.242-5.8 1.503-1.433 3.56-2.15 6.17-2.15 2.408 0 4.218.611 5.431 1.833 1.213 1.213 1.82 2.962 1.82 5.247v1.661zm-4.72-2.782c-.026-.993-.273-1.74-.738-2.24-.466-.502-1.191-.752-2.176-.752-.914 0-1.665.237-2.254.712-.589.474-.919 1.235-.989 2.28h6.157zm17.033 5.445v-3.085a46.34 46.34 0 0 0-2.083.224c-.747.088-1.314.194-1.7.317-.475.15-.84.369-1.095.659-.246.281-.369.655-.369 1.12 0 .308.026.559.08.752.052.193.184.378.395.554.202.175.443.307.725.395.28.08.72.119 1.318.119.475 0 .954-.097 1.437-.29a4.49 4.49 0 0 0 1.292-.765zm0 2.294c-.255.194-.571.426-.95.699a6.919 6.919 0 0 1-1.067.646 6.51 6.51 0 0 1-1.45.461 8.006 8.006 0 0 1-1.648.158c-1.406 0-2.584-.435-3.533-1.305-.95-.87-1.424-1.982-1.424-3.335 0-1.081.242-1.964.725-2.65.483-.686 1.169-1.226 2.056-1.622.88-.395 1.97-.676 3.27-.843 1.3-.167 2.65-.29 4.047-.37v-.079c0-.817-.334-1.38-1.002-1.687-.667-.317-1.652-.475-2.953-.475-.782 0-1.617.14-2.505.422a32.05 32.05 0 0 0-1.911.633h-.435v-3.573c.5-.132 1.314-.285 2.439-.461a21.133 21.133 0 0 1 3.401-.277c2.698 0 4.645.417 5.84 1.252 1.204.827 1.807 2.127 1.807 3.903V35H48.33v-1.569zm19.802-8.714h-.422c-.202-.07-.527-.123-.976-.158a14.762 14.762 0 0 0-1.12-.053c-.677 0-1.275.044-1.793.132a10.18 10.18 0 0 0-1.675.448V35h-4.746V20.195h4.746v2.175c1.046-.896 1.956-1.49 2.73-1.78.773-.299 1.485-.448 2.135-.448.167 0 .356.005.567.013.211.01.396.022.554.04v4.522zm10.402 10.678c-1.292 0-2.474-.153-3.547-.46-1.063-.309-1.99-.783-2.781-1.425a6.453 6.453 0 0 1-1.82-2.425c-.43-.976-.646-2.119-.646-3.428 0-1.38.229-2.571.686-3.573a6.804 6.804 0 0 1 1.938-2.492 7.863 7.863 0 0 1 2.768-1.37 12.13 12.13 0 0 1 3.257-.436c1.01 0 1.942.11 2.795.33.852.22 1.647.505 2.386.857v4.047h-.673a26.147 26.147 0 0 0-.672-.554 5.73 5.73 0 0 0-.95-.62 5.966 5.966 0 0 0-1.186-.474c-.43-.132-.931-.198-1.503-.198-1.265 0-2.24.405-2.926 1.213-.677.8-1.016 1.89-1.016 3.27 0 1.424.348 2.505 1.042 3.243.703.738 1.696 1.107 2.98 1.107.597 0 1.133-.066 1.608-.197a5.45 5.45 0 0 0 1.2-.488c.298-.176.562-.36.79-.554.23-.193.44-.382.633-.567h.673v4.047c-.747.352-1.53.629-2.347.831-.809.211-1.705.316-2.69.316zM101.593 35H96.82v-7.343c0-.598-.03-1.191-.092-1.78-.061-.598-.167-1.037-.316-1.318a1.574 1.574 0 0 0-.778-.712c-.334-.15-.804-.224-1.41-.224-.431 0-.871.07-1.32.21a7.113 7.113 0 0 0-1.436.673V35h-4.746V14.486h4.746v7.344c.843-.66 1.652-1.165 2.426-1.516.782-.352 1.647-.528 2.597-.528 1.6 0 2.847.466 3.744 1.398.905.931 1.358 2.324 1.358 4.179V35zM17.864 52.166h-6.13V68H6.67V52.166H.54V48.37h17.323v3.797zm17.363 9.308H24.363c.07 1.16.51 2.048 1.319 2.663.817.615 2.017.923 3.599.923 1.002 0 1.973-.18 2.913-.54.94-.36 1.683-.747 2.228-1.16h.528v3.81c-1.073.43-2.083.742-3.033.936-.949.193-1.999.29-3.15.29-2.971 0-5.247-.668-6.83-2.004-1.582-1.336-2.373-3.24-2.373-5.709 0-2.443.747-4.377 2.242-5.8 1.503-1.433 3.56-2.15 6.17-2.15 2.408 0 4.218.611 5.431 1.833 1.213 1.213 1.82 2.962 1.82 5.247v1.661zm-4.72-2.782c-.027-.993-.273-1.74-.738-2.24-.466-.502-1.191-.752-2.176-.752-.914 0-1.665.237-2.254.712-.589.474-.919 1.235-.989 2.28h6.157zm17.033 5.445v-3.085a46.34 46.34 0 0 0-2.083.224c-.747.088-1.314.194-1.7.317-.475.15-.84.369-1.095.659-.246.281-.369.655-.369 1.12 0 .308.026.559.08.752.052.193.184.378.395.554.202.175.443.307.725.395.28.08.72.119 1.318.119.475 0 .954-.097 1.437-.29a4.487 4.487 0 0 0 1.292-.765zm0 2.294c-.255.194-.571.426-.95.699a6.915 6.915 0 0 1-1.067.646 6.51 6.51 0 0 1-1.45.461 8.006 8.006 0 0 1-1.648.159c-1.406 0-2.584-.436-3.533-1.306-.95-.87-1.424-1.982-1.424-3.335 0-1.081.241-1.965.725-2.65.483-.686 1.169-1.226 2.056-1.622.88-.395 1.97-.676 3.27-.843 1.3-.167 2.65-.29 4.047-.37v-.079c0-.817-.334-1.38-1.002-1.687-.667-.316-1.652-.475-2.953-.475-.782 0-1.617.14-2.505.422-.887.273-1.525.484-1.911.633h-.435v-3.573c.5-.132 1.314-.285 2.439-.461a21.133 21.133 0 0 1 3.401-.277c2.698 0 4.645.417 5.84 1.252 1.205.827 1.807 2.127 1.807 3.903V68H47.54v-1.569zm23.546-8.925V68h-4.772v-7.396c0-.72-.018-1.331-.053-1.832-.035-.51-.132-.923-.29-1.24a1.414 1.414 0 0 0-.725-.685c-.317-.15-.765-.224-1.345-.224-.466 0-.919.096-1.358.29-.44.184-.835.382-1.187.593V68H56.61V53.195h4.746v1.635c.818-.642 1.6-1.143 2.347-1.503.747-.36 1.573-.54 2.479-.54.975 0 1.837.219 2.584.658.747.431 1.331 1.068 1.753 1.912.95-.8 1.872-1.428 2.769-1.885.896-.457 1.775-.686 2.636-.686 1.6 0 2.813.48 3.639 1.437.835.958 1.252 2.338 1.252 4.14V68h-4.772v-7.396c0-.73-.018-1.345-.053-1.846-.026-.5-.118-.91-.277-1.226a1.356 1.356 0 0 0-.712-.685c-.325-.15-.782-.224-1.37-.224-.396 0-.783.07-1.16.21-.379.132-.84.357-1.385.673z" fill="#fff"/><path d="M126.216.1v2.328L96.34 68h-3.589l29.682-64.893H81.596v13.386h-3.201V.1h47.821z" fill="#B4EC51"/></svg>