<svg width="50" height="50" viewBox="0 0 50 50" fill="none" xmlns="http://www.w3.org/2000/svg">
<path d="M40.2453 16.6744C39.5972 16.6744 39.0715 17.1999 39.0715 17.8482V25.1826C39.0715 32.9416 32.7591 39.2539 25.0001 39.2539C17.241 39.2539 10.9287 32.9414 10.9287 25.1825V17.8481C10.9287 17.1998 10.403 16.6743 9.75488 16.6743C9.10654 16.6743 8.58105 17.1998 8.58105 17.8481V25.1825C8.58105 33.8413 15.3186 40.9552 23.8262 41.5591V47.6523H17.7546C17.1064 47.6523 16.5807 48.1778 16.5807 48.8261C16.5807 49.4745 17.1063 50 17.7546 50H32.2454C32.8935 50 33.4192 49.4745 33.4192 48.8261C33.4192 48.1778 32.8936 47.6523 32.2454 47.6523H26.1738V41.5591C34.6815 40.9552 41.419 33.8412 41.419 25.1825V17.8481C41.4192 17.1999 40.8935 16.6744 40.2453 16.6744Z" fill="white"/>
<path d="M25.7822 0H24.2178C18.8517 0 14.4861 4.36562 14.4861 9.73172V25.9648C14.4861 31.3309 18.8517 35.6965 24.2178 35.6965H25.7822C31.1483 35.6965 35.514 31.3309 35.514 25.9648V9.73172C35.514 4.36562 31.1483 0 25.7822 0ZM33.1664 12.7786H28.9113C28.263 12.7786 27.7375 13.3041 27.7375 13.9524C27.7375 14.6008 28.263 15.1262 28.9113 15.1262H33.1664V18.3936H28.9113C28.263 18.3936 27.7375 18.9191 27.7375 19.5674C27.7375 20.2158 28.263 20.7413 28.9113 20.7413H33.1664V24.0088H28.9113C28.263 24.0088 27.7375 24.5343 27.7375 25.1827C27.7375 25.831 28.263 26.3565 28.9113 26.3565H33.1559C32.9517 30.2467 29.7226 33.349 25.7823 33.349H24.2179C20.2777 33.349 17.0486 30.2467 16.8444 26.3565H21.0889C21.7372 26.3565 22.2627 25.831 22.2627 25.1827C22.2627 24.5343 21.7372 24.0088 21.0889 24.0088H16.8338V20.7413H21.0889C21.7372 20.7413 22.2627 20.2158 22.2627 19.5674C22.2627 18.9191 21.7372 18.3936 21.0889 18.3936H16.8338V15.1262H21.0889C21.7372 15.1262 22.2627 14.6008 22.2627 13.9524C22.2627 13.3041 21.7372 12.7786 21.0889 12.7786H16.8338V9.73172C16.8338 6.80555 18.5448 4.27138 21.0188 3.07714V6.39579C21.0188 7.04413 21.5444 7.56961 22.1926 7.56961C22.8408 7.56961 23.3664 7.04413 23.3664 6.39579V2.39824C23.646 2.36591 26.3542 2.36591 26.6338 2.39824V6.39579C26.6338 7.04413 27.1593 7.56961 27.8076 7.56961C28.4558 7.56961 28.9815 7.04413 28.9815 6.39579V3.07714C31.4555 4.27138 33.1664 6.80536 33.1664 9.73162V12.7786Z" fill="white"/>
</svg>
