<svg width="18" height="18" viewBox="0 0 18 18" fill="none" xmlns="http://www.w3.org/2000/svg">
<path d="M16 2.5H2C0.896 2.5 0 3.396 0 4.5V13.5C0 14.604 0.896 15.5 2 15.5H16C17.104 15.5 18 14.604 18 13.5V4.5C18 3.396 17.104 2.5 16 2.5ZM6.316 9.816L7.918 11.216C8.223 11.482 8.609 11.614 9 11.614C9.391 11.614 9.777 11.481 10.082 11.216L11.684 9.816L11.647 9.853L15.293 13.499H2.707L6.353 9.853L6.316 9.816ZM2 12.793V6.04L5.602 9.191L2 12.793ZM12.398 9.191L16 6.04V12.79L12.398 9.191ZM16 4.5V4.71L9.424 10.464C9.197 10.662 8.803 10.662 8.576 10.464L2 4.71V4.5H16Z" fill="#B4EC50"/>
</svg>
