<svg width="210" height="210" viewBox="0 0 210 210" fill="none" xmlns="http://www.w3.org/2000/svg">
<g clip-path="url(#clip0)">
<path d="M98.6363 150.203C98.6363 151.61 99.195 152.958 100.19 153.953C101.184 154.947 102.533 155.506 103.939 155.506C105.346 155.506 106.695 154.947 107.689 153.953C108.684 152.958 109.242 151.61 109.242 150.203V144.561C114.372 143.716 119.034 141.077 122.399 137.114C125.763 133.152 127.611 128.123 127.612 122.924C127.612 116.561 124.706 105.446 105.297 100.949H105.106C90.8515 97.5758 90.8515 91.2122 90.8515 89.1971C90.8515 81.2637 97.6394 77.6364 103.939 77.6364C106.52 77.6347 109.044 78.3973 111.192 79.828C113.34 81.2588 115.016 83.2936 116.009 85.6758C116.263 86.3387 116.648 86.9438 117.14 87.4553C117.633 87.9667 118.223 88.3741 118.876 88.6532C119.528 88.9323 120.23 89.0775 120.94 89.0802C121.65 89.0829 122.354 88.9431 123.008 88.6689C123.663 88.3947 124.257 87.9919 124.753 87.4842C125.249 86.9765 125.638 86.3743 125.898 85.7134C126.157 85.0525 126.281 84.3462 126.262 83.6365C126.243 82.9268 126.082 82.2282 125.788 81.5819C124.337 78.1104 122.079 75.0351 119.202 72.6112C116.324 70.1874 112.91 68.4851 109.242 67.6455V61.9183C109.242 60.5118 108.684 59.163 107.689 58.1685C106.695 57.1739 105.346 56.6152 103.939 56.6152C102.533 56.6152 101.184 57.1739 100.19 58.1685C99.195 59.163 98.6363 60.5118 98.6363 61.9183V67.5607C93.5032 68.4008 88.8356 71.0378 85.4669 75.001C82.0982 78.9642 80.2476 83.9956 80.2454 89.1971C80.2454 95.5607 83.1515 106.676 102.561 111.173H102.751C117.027 114.546 117.027 120.909 117.027 122.924C117.027 130.858 110.239 134.485 103.939 134.485C101.358 134.487 98.8349 133.724 96.6868 132.293C94.5388 130.863 92.8626 128.828 91.8697 126.446C91.5995 125.803 91.2054 125.221 90.7101 124.731C90.2147 124.241 89.6277 123.854 88.9827 123.591C88.3376 123.328 87.647 123.195 86.9504 123.199C86.2538 123.202 85.5648 123.344 84.9227 123.614C84.2806 123.884 83.698 124.278 83.2082 124.773C82.7184 125.269 82.331 125.856 82.068 126.501C81.8051 127.146 81.6717 127.836 81.6757 128.533C81.6796 129.23 81.8207 129.919 82.0909 130.561C83.5435 134.035 85.8046 137.112 88.6861 139.536C91.5676 141.96 94.9862 143.661 98.6575 144.497L98.6363 150.203Z" fill="#B4EC51"/>
<path d="M67.0727 180.536C66.3606 181.748 65.1964 182.628 63.8362 182.982C62.4758 183.336 61.0307 183.135 59.8181 182.424C43.3654 172.917 30.4229 158.351 22.9176 140.894C15.4123 123.436 13.7456 104.022 18.1656 85.5414C22.5855 67.0605 32.8558 50.5013 47.4474 38.3289C62.039 26.1566 80.1715 19.0222 99.1454 17.9879L92.3363 11.1788C91.8433 10.6857 91.4522 10.1004 91.1853 9.45618C90.9185 8.81197 90.7811 8.12152 90.7811 7.42423C90.7811 6.72695 90.9185 6.03649 91.1853 5.39229C91.4522 4.74808 91.8433 4.16274 92.3363 3.66969C92.8294 3.17663 93.4147 2.78552 94.0589 2.51868C94.7031 2.25184 95.3936 2.1145 96.0909 2.1145C96.7881 2.1145 97.4786 2.25184 98.1228 2.51868C98.767 2.78552 99.3524 3.17663 99.8454 3.66969L115.564 19.3879C116.057 19.8805 116.449 20.4657 116.717 21.1099C116.984 21.7542 117.122 22.4449 117.122 23.1424C117.122 23.8399 116.984 24.5306 116.717 25.1749C116.449 25.8192 116.057 26.4044 115.564 26.897L99.8454 42.6151C99.3524 43.1082 98.767 43.4993 98.1228 43.7661C97.4786 44.033 96.7881 44.1703 96.0909 44.1703C95.3936 44.1703 94.7031 44.033 94.0589 43.7661C93.4147 43.4993 92.8294 43.1082 92.3363 42.6151C91.8433 42.1221 91.4522 41.5368 91.1853 40.8925C90.9185 40.2483 90.7811 39.5579 90.7811 38.8606C90.7811 38.1633 90.9185 37.4729 91.1853 36.8287C91.4522 36.1844 91.8433 35.5991 92.3363 35.106L98.8272 28.6151C82.2134 29.7086 66.3915 36.1156 53.698 46.8901C41.0045 57.6646 32.1121 72.2353 28.3341 88.4508C24.556 104.666 26.0925 121.667 32.7167 136.942C39.3408 152.217 50.7015 164.958 65.1212 173.282C65.7265 173.629 66.2574 174.093 66.6833 174.645C67.1092 175.198 67.4217 175.83 67.603 176.504C67.7843 177.178 67.8308 177.881 67.7398 178.573C67.6488 179.265 67.4221 179.932 67.0727 180.536ZM148.061 29.697C147.457 29.3433 146.79 29.1124 146.097 29.0176C145.404 28.9229 144.699 28.9662 144.023 29.1449C143.347 29.3237 142.713 29.6344 142.157 30.0592C141.602 30.484 141.136 31.0146 140.786 31.6202C140.436 32.2259 140.21 32.8947 140.12 33.5883C140.03 34.2818 140.078 34.9863 140.261 35.6612C140.444 36.3362 140.759 36.9682 141.187 37.5209C141.616 38.0736 142.15 38.5361 142.758 38.8818C157.176 47.2046 168.537 59.9431 175.162 75.2166C181.786 90.4901 183.325 107.489 179.549 123.704C175.774 139.918 166.885 154.489 154.194 165.265C141.504 176.041 125.685 182.451 109.073 183.548L115.564 177.058C116.559 176.062 117.119 174.711 117.119 173.303C117.119 171.895 116.559 170.544 115.564 169.548C114.568 168.553 113.217 167.993 111.809 167.993C110.401 167.993 109.05 168.553 108.054 169.548L92.3363 185.267C91.8425 185.759 91.4507 186.344 91.1833 186.989C90.916 187.633 90.7784 188.324 90.7784 189.021C90.7784 189.719 90.916 190.409 91.1833 191.054C91.4507 191.698 91.8425 192.283 92.3363 192.776L108.054 208.494C109.05 209.49 110.401 210.049 111.809 210.049C113.217 210.049 114.568 209.49 115.564 208.494C116.559 207.498 117.119 206.148 117.119 204.739C117.119 203.331 116.559 201.981 115.564 200.985L108.755 194.176C127.731 193.136 145.865 185.996 160.457 173.818C175.048 161.641 185.317 145.077 189.734 126.592C194.151 108.107 192.481 88.6897 184.972 71.2306C177.463 53.7716 164.517 39.2042 148.061 29.697Z" fill="#FFB321"/>
</g>
<defs>
<clipPath id="clip0">
<rect width="210" height="210" fill="white"/>
</clipPath>
</defs>
</svg>
