<svg width="50" height="50" viewBox="0 0 50 50" fill="none" xmlns="http://www.w3.org/2000/svg">
<path d="M45.8333 0H4.16667C1.86917 0 0 1.86917 0 4.16667V30V33.3333C0 35.6308 1.86917 37.5 4.16667 37.5H18.1683L16.805 45H13.5308C12.5775 45 11.7208 45.5292 11.2942 46.3817C10.9042 47.1625 10.945 48.0717 11.4033 48.8142C11.8617 49.5567 12.6575 50 13.53 50H36.4692C37.3417 50 38.1367 49.5567 38.5958 48.8142C39.055 48.0717 39.0958 47.1625 38.705 46.3817C38.28 45.5292 37.4233 45 36.47 45H33.1958L31.8325 37.5H45.8333C48.1308 37.5 50 35.6308 50 33.3333V30V4.16667C50 1.86917 48.1308 0 45.8333 0ZM32.5 46.6667H36.47C36.7875 46.6667 37.0733 46.8433 37.2158 47.1275C37.4033 47.5025 37.2525 47.8192 37.18 47.9383C37.105 48.0567 36.8892 48.3333 36.47 48.3333H13.53C13.1108 48.3333 12.8942 48.0567 12.8208 47.9375C12.7475 47.8183 12.5967 47.5025 12.785 47.1267C12.9267 46.8433 13.2125 46.6667 13.53 46.6667H17.5H24.1667C24.6267 46.6667 25 46.2933 25 45.8333C25 45.3733 24.6267 45 24.1667 45H18.4983L19.8617 37.5H30.1375L31.5017 45H29.1667C28.7067 45 28.3333 45.3733 28.3333 45.8333C28.3333 46.2933 28.7067 46.6667 29.1667 46.6667H32.5ZM48.3333 33.3333C48.3333 34.7117 47.2117 35.8333 45.8333 35.8333H30.8333H19.1667H4.16667C2.78833 35.8333 1.66667 34.7117 1.66667 33.3333V30.8333H48.3333V33.3333ZM48.3333 29.1667H1.66667V4.16667C1.66667 2.78833 2.78833 1.66667 4.16667 1.66667H45.8333C47.2117 1.66667 48.3333 2.78833 48.3333 4.16667V29.1667Z" fill="white"/>
<path d="M22.4999 16.6667H14.1666V8.33333C14.1666 7.87333 13.7933 7.5 13.3333 7.5C7.81909 7.5 3.33325 11.9858 3.33325 17.5C3.33325 23.0142 7.81909 27.5 13.3333 27.5C18.8474 27.5 23.3333 23.0142 23.3333 17.5C23.3333 17.04 22.9599 16.6667 22.4999 16.6667ZM13.3333 25.8333C8.73825 25.8333 4.99992 22.095 4.99992 17.5C4.99992 13.1867 8.29492 9.6275 12.4999 9.20833V17.5C12.4999 17.96 12.8733 18.3333 13.3333 18.3333H21.6249C21.2058 22.5383 17.6466 25.8333 13.3333 25.8333Z" fill="white"/>
<path d="M16.6666 4.16675C16.2066 4.16675 15.8333 4.54008 15.8333 5.00008V14.1667C15.8333 14.6267 16.2066 15.0001 16.6666 15.0001H25.8333C26.2933 15.0001 26.6666 14.6267 26.6666 14.1667C26.6666 8.65258 22.1808 4.16675 16.6666 4.16675ZM17.4999 13.3334V5.87508C21.4308 6.26675 24.5666 9.40258 24.9583 13.3334H17.4999Z" fill="white"/>
<path d="M45.8333 3.33325H29.1666C28.7066 3.33325 28.3333 3.70659 28.3333 4.16659V26.6666C28.3333 27.1266 28.7066 27.4999 29.1666 27.4999H45.8333C46.2933 27.4999 46.6666 27.1266 46.6666 26.6666V4.16659C46.6666 3.70659 46.2933 3.33325 45.8333 3.33325ZM44.9999 25.8333H29.9999V4.99992H44.9999V25.8333Z" fill="white"/>
<path d="M37.5001 7.5H32.5001C32.0401 7.5 31.6667 7.87333 31.6667 8.33333C31.6667 8.79333 32.0401 9.16667 32.5001 9.16667H37.5001C37.9601 9.16667 38.3334 8.79333 38.3334 8.33333C38.3334 7.87333 37.9601 7.5 37.5001 7.5Z" fill="white"/>
<path d="M42.5001 10.8333H32.5001C32.0401 10.8333 31.6667 11.2066 31.6667 11.6666C31.6667 12.1266 32.0401 12.4999 32.5001 12.4999H42.5001C42.9601 12.4999 43.3334 12.1266 43.3334 11.6666C43.3334 11.2066 42.9601 10.8333 42.5001 10.8333Z" fill="white"/>
<path d="M37.5001 14.1667H32.5001C32.0401 14.1667 31.6667 14.5401 31.6667 15.0001C31.6667 15.4601 32.0401 15.8334 32.5001 15.8334H37.5001C37.9601 15.8334 38.3334 15.4601 38.3334 15.0001C38.3334 14.5401 37.9601 14.1667 37.5001 14.1667Z" fill="white"/>
<path d="M42.5001 17.5H32.5001C32.0401 17.5 31.6667 17.8733 31.6667 18.3333C31.6667 18.7933 32.0401 19.1667 32.5001 19.1667H42.5001C42.9601 19.1667 43.3334 18.7933 43.3334 18.3333C43.3334 17.8733 42.9601 17.5 42.5001 17.5Z" fill="white"/>
<path d="M37.5001 20.8333H32.5001C32.0401 20.8333 31.6667 21.2066 31.6667 21.6666C31.6667 22.1266 32.0401 22.4999 32.5001 22.4999H37.5001C37.9601 22.4999 38.3334 22.1266 38.3334 21.6666C38.3334 21.2066 37.9601 20.8333 37.5001 20.8333Z" fill="white"/>
<path d="M26.6667 32.5H23.3333C22.8733 32.5 22.5 32.8733 22.5 33.3333C22.5 33.7933 22.8733 34.1667 23.3333 34.1667H26.6667C27.1267 34.1667 27.5 33.7933 27.5 33.3333C27.5 32.8733 27.1267 32.5 26.6667 32.5Z" fill="white"/>
</svg>
