<svg width="235" height="235" viewBox="0 0 235 235" fill="none" xmlns="http://www.w3.org/2000/svg">
<g clip-path="url(#clip0)">
<path d="M147.498 29.2814C121.649 16.2196 90.5105 21.2138 70.0164 41.7084C46.1973 65.527 43.8134 103.506 64.4714 130.051C65.2016 130.989 66.2931 131.48 67.3965 131.48C68.1915 131.48 68.9924 131.226 69.6685 130.699C71.2827 129.443 71.5728 127.116 70.317 125.502C51.9489 101.9 54.0717 68.1281 75.2543 46.9454C93.4806 28.7182 121.17 24.2762 144.158 35.8917C145.983 36.8152 148.211 36.0817 149.134 34.2563C150.056 32.431 149.324 30.2035 147.498 29.2814Z" fill="#B4EC51"/>
<path d="M177.071 58.8598C176.148 57.0344 173.921 56.3019 172.095 57.2235C170.269 58.1456 169.536 60.3726 170.458 62.1989C182.066 85.1831 177.621 112.869 159.399 131.091C138.216 152.273 104.444 154.395 80.8424 136.028C79.2277 134.772 76.9016 135.062 75.6453 136.676C74.3891 138.29 74.6796 140.617 76.2939 141.873C88.3854 151.283 102.848 155.912 117.266 155.912C134.499 155.912 151.668 149.297 164.637 136.328C185.127 115.839 190.123 84.7066 177.071 58.8598Z" fill="#B4EC51"/>
<path d="M167.502 44.7547C166.585 43.7165 165.621 42.6911 164.637 41.708C163.654 40.7244 162.629 39.7605 161.59 38.843C160.058 37.4881 157.717 37.6331 156.363 39.1657C155.008 40.6978 155.152 43.0381 156.685 44.3926C157.61 45.2096 158.523 46.0688 159.4 46.945C160.275 47.8217 161.135 48.7346 161.952 49.6594C162.684 50.4875 163.704 50.9102 164.728 50.9102C165.6 50.9102 166.475 50.604 167.179 49.9817C168.712 48.6276 168.857 46.2873 167.502 44.7547Z" fill="#B4EC51"/>
<path d="M204.738 95.6572C207.207 91.6057 207.207 86.5734 204.737 82.5229L199.865 74.5333C199.223 73.4804 198.975 72.2301 199.167 71.0129L200.619 61.7859C201.359 57.0836 199.427 52.4235 195.578 49.6232L188.028 44.131C187.029 43.4045 186.32 42.3447 186.029 41.1449L183.83 32.0574C182.714 27.4414 179.153 23.8806 174.537 22.7634L165.449 20.564C164.249 20.2734 163.189 19.5638 162.463 18.5656L156.97 11.013C154.17 7.1639 149.51 5.23111 144.809 5.97191L135.578 7.42414C134.361 7.61554 133.11 7.36769 132.058 6.72603L124.067 1.85252C120.016 -0.617737 114.984 -0.617278 110.933 1.85252L102.943 6.72465C101.891 7.36677 100.641 7.61371 99.4227 7.42277L90.1953 5.97054C85.4944 5.23065 80.8334 7.16252 78.0335 11.0116L72.5413 18.5623C71.8148 19.5606 70.7545 20.2702 69.5542 20.5608L60.4668 22.7598C55.8517 23.876 52.29 27.4373 51.1728 32.0528L48.9733 41.1407C48.6828 42.3405 47.9737 43.4012 46.9749 44.1269L39.4223 49.62C35.5733 52.4194 33.6419 57.079 34.3813 61.7813L35.8335 71.012C36.0249 72.2297 35.7771 73.4799 35.1354 74.5319L30.2623 82.5233C27.793 86.5743 27.793 91.6066 30.2628 95.6572L35.1349 103.647C35.7766 104.7 36.0249 105.95 35.8331 107.168L34.3808 116.395C33.6405 121.097 35.5724 125.757 39.4214 128.557L46.9722 134.049C47.9705 134.775 48.6801 135.836 48.9706 137.036L51.1696 146.123C52.2858 150.739 55.8471 154.3 60.4627 155.417L64.2576 156.335L38.5755 213.623C38.0298 214.841 38.1808 216.257 38.9716 217.332C39.762 218.407 41.0687 218.974 42.3942 218.815L63.0587 216.345L74.9629 233.415C75.6597 234.413 76.7966 235 77.9996 235C78.1148 235 78.2314 234.994 78.347 234.984C79.6753 234.859 80.8343 234.028 81.38 232.812L107.609 174.301L110.932 176.327C112.958 177.562 115.228 178.18 117.499 178.18C119.77 178.18 122.041 177.562 124.067 176.327L127.51 174.228L153.772 232.812C154.317 234.029 155.476 234.859 156.805 234.984C156.921 234.995 157.037 235 157.152 235C158.355 235 159.492 234.413 160.189 233.415L172.093 216.345L192.757 218.816C194.082 218.973 195.39 218.408 196.18 217.333C196.97 216.258 197.122 214.841 196.576 213.624L170.881 156.304L174.533 155.421C179.148 154.304 182.71 150.743 183.827 146.128L186.026 137.04C186.317 135.84 187.027 134.779 188.025 134.054L195.577 128.56C199.426 125.761 201.358 121.101 200.618 116.399L199.166 107.169C198.975 105.951 199.223 104.701 199.864 103.649L204.738 95.6572ZM77.2969 223.814L67.8629 210.286C67.0808 209.164 65.7433 208.563 64.3856 208.727L48.0095 210.685L71.4081 158.488C71.8359 158.802 72.2196 159.179 72.5358 159.614L78.029 167.167C78.5508 167.884 79.1374 168.535 79.7768 169.114L67.4608 196.588C66.6245 198.454 67.459 200.645 69.3252 201.482C69.8172 201.703 70.3318 201.807 70.8376 201.807C72.2522 201.807 73.6034 200.992 74.2189 199.617L86.4913 172.242C87.6989 172.407 88.9422 172.405 90.1902 172.208L99.4204 170.756C99.973 170.669 100.532 170.677 101.076 170.767L77.2969 223.814ZM187.143 210.684L170.766 208.727C169.407 208.564 168.071 209.164 167.289 210.286L157.855 223.814L134.066 170.746C134.565 170.678 135.074 170.678 135.578 170.757L144.805 172.21C146.103 172.414 147.397 172.407 148.651 172.221L160.932 199.618C161.549 200.993 162.899 201.808 164.314 201.808C164.82 201.808 165.334 201.703 165.826 201.483C167.692 200.646 168.527 198.455 167.69 196.589L155.328 169.01C155.924 168.457 156.475 167.844 156.967 167.168L162.459 159.618C162.805 159.142 163.229 158.734 163.705 158.404L187.143 210.684ZM198.413 91.8008L193.54 99.7922C191.987 102.341 191.385 105.37 191.85 108.319L193.302 117.549C193.607 119.49 192.809 121.414 191.221 122.57L183.668 128.063C181.25 129.822 179.531 132.391 178.828 135.297L176.628 144.385C176.167 146.29 174.697 147.76 172.792 148.222L163.704 150.421C160.797 151.124 158.228 152.843 156.469 155.261L150.977 162.812C149.821 164.401 147.898 165.198 145.956 164.892L136.729 163.44C133.779 162.976 130.75 163.576 128.2 165.131L120.211 170.003C118.539 171.022 116.46 171.022 114.789 170.003L106.798 165.131C104.81 163.918 102.532 163.287 100.226 163.287C99.5747 163.287 98.9197 163.337 98.2702 163.44L89.0396 164.892C87.0981 165.198 85.1749 164.399 84.0192 162.811L78.5256 155.258C76.7668 152.841 74.1978 151.121 71.292 150.418L62.2041 148.219C60.2988 147.758 58.8287 146.288 58.3674 144.382L56.1684 135.295C55.4652 132.388 53.7463 129.819 51.3279 128.06L43.7776 122.567C42.1886 121.411 41.3914 119.487 41.6971 117.546L43.1493 108.319C43.6133 105.369 43.013 102.34 41.4584 99.7908L36.5862 91.8003C35.5668 90.1283 35.5668 88.0504 36.5862 86.3788L41.4593 78.3874C43.0134 75.8382 43.6142 72.8098 43.1502 69.8604L41.698 60.6302C41.3927 58.6891 42.1905 56.7655 43.779 55.6098L51.3321 50.1162C53.7495 48.3574 55.4689 45.7884 56.1721 42.8826L58.3715 33.7947C58.8328 31.8894 60.3025 30.4193 62.2082 29.958L71.2961 27.759C74.2024 27.0559 76.7718 25.3365 78.5302 22.9186L84.0224 15.3678C85.1781 13.7788 87.1013 12.9806 89.0432 13.2868L98.2707 14.739C101.221 15.2039 104.25 14.6027 106.799 13.0481L114.789 8.17596C116.461 7.15702 118.539 7.15702 120.21 8.17596L128.202 13.0486C130.751 14.6036 133.78 15.2044 136.729 14.7399L145.96 13.2877C147.9 12.9834 149.824 13.7802 150.98 15.3687L156.474 22.9213C158.233 25.3388 160.801 27.0582 163.707 27.7613L172.795 29.9608C174.7 30.4221 176.171 31.8917 176.632 33.7974L178.831 42.8849C179.534 45.7912 181.253 48.361 183.671 50.1199L191.222 55.6121C192.811 56.7678 193.608 58.6919 193.303 60.6329L191.85 69.8604C191.386 72.8103 191.987 75.8387 193.541 78.3883L198.413 86.3788C199.433 88.0509 199.433 90.1287 198.413 91.8008Z" fill="#FFB321"/>
<path d="M160.836 77.5671C160.02 75.0546 157.883 73.3004 155.26 72.9892L132.975 70.3468L123.576 49.9702C122.47 47.5715 120.141 46.0812 117.499 46.0812C114.858 46.0812 112.529 47.5715 111.422 49.9702L102.023 70.3473L79.7391 72.9896C77.1156 73.3008 74.9785 75.0551 74.1629 77.5676C73.3468 80.0787 74.0445 82.7541 75.9832 84.5474L92.4585 99.7834L88.0853 121.794C87.5708 124.385 88.5787 126.959 90.7162 128.511C91.8953 129.368 93.2636 129.801 94.6405 129.801C95.76 129.801 96.8845 129.515 97.9177 128.937L117.499 117.977L137.08 128.937C139.386 130.227 142.145 130.064 144.282 128.512C146.42 126.959 147.428 124.385 146.913 121.794L142.539 99.7838L159.015 84.5478C160.954 82.7546 161.652 80.0796 160.836 77.5671ZM135.989 95.7535C135.044 96.6278 134.62 97.9309 134.871 99.194L139.346 121.717L119.308 110.501C118.746 110.186 118.123 110.029 117.499 110.029C116.875 110.029 116.252 110.186 115.69 110.501L95.6517 121.717L100.127 99.194C100.378 97.9304 99.9547 96.6278 99.0087 95.7535L82.1492 80.1617L104.954 77.4579C106.233 77.3064 107.342 76.5009 107.881 75.3318L117.499 54.4797L127.117 75.3318C127.657 76.5009 128.765 77.3064 130.044 77.4579L152.849 80.1617L135.989 95.7535Z" fill="#FFB321"/>
</g>
<defs>
<clipPath id="clip0">
<rect width="235" height="235" fill="white"/>
</clipPath>
</defs>
</svg>
