<svg width="51" height="72" viewBox="0 0 51 72" fill="none" xmlns="http://www.w3.org/2000/svg">
<mask id="mask0" mask-type="alpha" maskUnits="userSpaceOnUse" x="0" y="0" width="51" height="73">
<path d="M51 72H0V60.332C3.89735 57.2648 7.7947 54.0079 11.692 50.5613C15.6185 47.1146 18.7596 44.1423 21.1155 41.6443C24.6347 37.9447 27.136 34.7194 28.6193 31.9684C30.1027 29.2174 30.8443 26.498 30.8443 23.8103C30.8443 20.585 29.8845 18.1028 27.9649 16.3636C26.0744 14.5929 23.3405 13.7075 19.763 13.7075C17.0873 13.7075 14.266 14.3083 11.2994 15.5099C8.36185 16.7115 5.62789 18.2451 3.09752 20.1107H1.70145V4.41107C3.76647 3.43083 6.80582 2.45059 10.8195 1.47036C14.8623 0.490119 18.905 0 22.9478 0C31.0915 0 37.3011 1.86561 41.5766 5.59684C45.852 9.29644 47.9897 14.5455 47.9897 21.3439C47.9897 25.8024 46.9572 30.0395 44.8922 34.0553C42.8563 38.0711 39.7297 42.2134 35.5124 46.4822C32.8657 49.1383 30.2044 51.5889 27.5287 53.834C24.8529 56.0474 22.9478 57.5968 21.8135 58.4822H51V72Z" fill="#B4EC51"/>
</mask>
<g mask="url(#mask0)">
<path d="M50.8623 72.7653H-0.137695V61.0973C3.75965 58.0301 7.657 54.7732 11.5543 51.3265C15.4808 47.8799 18.6219 44.9076 20.9778 42.4095C24.497 38.7099 26.9983 35.4846 28.4816 32.7336C29.965 29.9827 30.7066 27.2633 30.7066 24.5755C30.7066 21.3502 29.7468 18.868 27.8272 17.1289C25.9367 15.3581 23.2028 14.4728 19.6253 14.4728C16.9496 14.4728 14.1283 15.0736 11.1617 16.2751C8.22415 17.4767 5.49019 19.0103 2.95982 20.8759H1.56376V5.17633C3.62877 4.19609 6.66812 3.21585 10.6818 2.23561C14.7246 1.25538 18.7674 0.765259 22.8101 0.765259C30.9538 0.765259 37.1634 2.63087 41.4389 6.3621C45.7143 10.0617 47.852 15.3107 47.852 22.1091C47.852 26.5676 46.8195 30.8048 44.7545 34.8206C42.7186 38.8364 39.592 42.9787 35.3747 47.2475C32.728 49.9036 30.0668 52.3542 27.391 54.5993C24.7152 56.8127 22.8101 58.3621 21.6758 59.2475H50.8623V72.7653Z" fill="#B4EC51"/>
<rect x="-35.8818" y="-25.1145" width="124.534" height="110.165" rx="25" fill="url(#paint0_linear)"/>
<path fill-rule="evenodd" clip-rule="evenodd" d="M-56.7239 43.7273C-56.7239 43.7273 -41.3294 -46.2604 -5.6126 8.75577C23.3681 53.3961 26.8113 58.7273 40.1365 49.8171C55.7626 39.3683 58.6447 8.75577 66.4193 8.75577C74.1938 8.75577 85.6548 62.3522 91.9669 53.3961C98.2789 44.44 103.179 17.532 116.034 17.532C128.889 17.532 127.017 50.7642 127.017 50.7642L121.706 89.574L45.346 84.0298L-54.8765 96.8242" fill="url(#paint1_linear)"/>
</g>
<defs>
<linearGradient id="paint0_linear" x1="-35.8818" y1="29.9682" x2="87.9448" y2="30.0716" gradientUnits="userSpaceOnUse">
<stop stop-color="#459622"/>
<stop offset="1" stop-color="#B0E94F"/>
</linearGradient>
<linearGradient id="paint1_linear" x1="120.471" y1="21.5444" x2="-44.9756" y2="22.3954" gradientUnits="userSpaceOnUse">
<stop stop-color="#5CA82C"/>
<stop offset="0.0001" stop-color="#68B231"/>
<stop offset="1" stop-color="#A6E24B"/>
</linearGradient>
</defs>
</svg>
