<svg width="239" height="239" viewBox="0 0 239 239" fill="none" xmlns="http://www.w3.org/2000/svg">
<g clip-path="url(#clip0)">
<mask id="mask0" mask-type="alpha" maskUnits="userSpaceOnUse" x="0" y="0" width="240" height="239">
<path d="M180.96 216.602C179.667 214.373 176.812 213.614 174.581 214.907L174.401 215.011C172.171 216.304 171.413 219.161 172.706 221.391C173.572 222.883 175.138 223.717 176.747 223.717C177.542 223.717 178.349 223.513 179.086 223.085L179.265 222.981C181.495 221.688 182.253 218.832 180.96 216.602Z" fill="#B4EC51"/>
<path d="M222.986 59.7878C207.03 32.1511 181.267 12.3827 150.443 4.12323C119.619 -4.13628 87.4233 0.102707 59.7866 16.0583C32.1504 32.0139 12.3815 57.7773 4.12247 88.6013C-4.13657 119.425 0.101949 151.622 16.0575 179.258C30.37 204.048 53.1179 222.889 80.1109 232.308C92.9063 236.772 106.264 239 119.601 239C134.102 239 148.577 236.364 162.259 231.106C164.665 230.181 165.866 227.481 164.941 225.075C164.015 222.668 161.314 221.466 158.909 222.393C122.49 236.391 83.063 230.031 53.6067 207.92L57.7887 186.09L59.8039 185.436C67.4187 182.962 71.6012 174.754 69.1281 167.138L67.6493 162.588C67.3072 161.535 67.309 160.421 67.654 159.369C68.9512 155.414 68.4877 151.088 66.382 147.497C64.2763 143.907 60.7263 141.39 56.6413 140.591L46.1057 138.532L25.7776 123.077C24.5598 122.15 22.9657 121.88 21.5102 122.353L9.60873 126.219C9.3562 121.962 9.35246 117.707 9.5924 113.474C10.062 113.911 10.3677 114.208 10.5559 114.404C10.7888 114.791 11.0773 115.147 11.4152 115.455C12.3871 116.34 13.2675 116.742 15.116 116.742C16.8147 116.741 19.3293 116.403 23.4815 115.789C27.4194 115.207 31.3367 114.552 31.3755 114.545C32.9453 114.282 34.2724 113.237 34.897 111.773C35.5216 110.309 35.3568 108.628 34.4601 107.313L28.7367 98.918L36.9346 93.056C37.4807 92.6653 37.9363 92.1616 38.2701 91.579L50.9777 69.3945L56.0998 63.9059C61.334 58.2959 62.8278 50.0883 59.9047 42.9948C58.1803 38.8109 55.1686 35.3277 51.4015 32.9801C55.4813 29.7728 59.8314 26.8114 64.4546 24.1427C81.417 14.3493 99.9283 9.60342 118.245 9.42184L109.91 19.8776L79.0009 30.7134C77.7457 31.1531 76.7374 32.1082 76.2304 33.3377L67.5984 54.2633C66.9855 55.75 67.1802 57.4464 68.1143 58.7553L80.7215 76.4151C78.9159 78.0625 77.1584 80.4618 75.0593 83.4409C74.1387 84.7475 73.2696 85.9812 72.6688 86.673C72.1464 87.2752 71.6236 87.8633 71.1055 88.4459C68.3939 91.4964 65.5903 94.6515 63.5985 98.8657C59.219 108.136 60.1036 118.91 65.9068 126.985C71.5181 134.792 80.7691 138.761 90.6428 137.6C92.2514 137.411 93.7512 137.04 95.2025 136.68C99.2043 135.69 100.472 135.591 101.756 136.793C102.38 137.378 102.438 137.488 102.425 139.472C102.416 140.734 102.407 142.304 102.842 144.097C103.539 146.966 105.34 148.948 106.787 150.541C107.506 151.332 108.25 152.151 108.48 152.7C109.936 156.189 109.302 158.121 107.912 162.355C107.793 162.717 107.672 163.087 107.55 163.466C105.44 169.999 108.382 176.479 110.977 182.195C111.82 184.052 112.616 185.804 113.137 187.353C117.334 199.807 120.48 202.659 123.005 203.807C124.328 204.408 125.696 204.672 127.079 204.672C133.808 204.671 140.83 198.424 144.055 194.463C146.081 191.976 146.58 189.485 146.944 187.666C147.126 186.762 147.269 186.048 147.541 185.581C147.958 184.867 148.45 184.313 149.072 183.612C150.324 182.202 151.881 180.449 152.89 177.271C153.657 174.857 154.214 174.265 156.058 172.3C156.379 171.959 156.721 171.594 157.089 171.194C163.306 164.429 161.705 159.261 160.009 153.79C158.582 149.185 161.078 146.241 167.113 140.621C169.728 138.185 172.433 135.666 174.524 132.639C175.439 131.315 178.222 127.285 176.5 123.29C174.811 119.374 170.52 118.716 167.072 118.187C165.711 117.978 163.653 117.663 162.998 117.235C160.11 115.346 158.343 111.406 156.634 107.594C156.294 106.836 155.958 106.087 155.618 105.36C155.011 104.064 154.405 102.495 153.763 100.834C152.065 96.4384 150.14 91.4563 146.864 87.9833C143.919 84.8628 138.367 83.3597 133.469 82.033C131.822 81.5872 130.267 81.1662 129.241 80.7876C128.382 80.4702 127.449 80.4128 126.56 80.6219C124.176 81.1807 122.688 81.7964 121.584 82.6814C121.292 82.9153 120.428 83.6832 119.922 84.9174C118.213 84.0972 115.863 82.5311 114.417 81.5672C114.387 81.5471 114.357 81.527 114.327 81.507C114.814 79.5567 114.373 77.9915 113.911 77.014C111.304 71.4984 102.648 71.9301 100.94 72.0753C99.9703 72.1565 98.7431 72.2 97.445 72.2457C95.406 72.3181 93.1523 72.3993 90.9224 72.6495L91.0372 72.3293C92.7299 67.6132 97.2335 64.4446 102.244 64.4446H104.898C107.475 64.4446 109.565 62.3543 109.565 59.7771C109.565 57.1999 107.475 55.1096 104.898 55.1096H102.244C94.8052 55.1096 87.9933 59.0246 84.1753 65.1868L77.2131 55.434L84.0628 38.8305L114.266 28.2417C115.094 27.9513 115.824 27.4332 116.372 26.7465L129.798 9.90497C164.105 13.1684 196.398 32.4032 214.903 64.4544C219.832 72.9916 223.478 81.9793 225.902 91.172L223.923 92.9365C221.34 95.241 219.827 98.5464 219.769 102.006C219.769 102.044 219.768 102.081 219.766 102.118L216.543 93.253C216.062 91.9301 215.355 90.7169 214.441 89.6474L208.69 82.9148C206.461 80.3049 203.215 78.8089 199.783 78.8089H192.744C190.246 78.8089 187.962 80.1775 186.783 82.3794C185.605 84.5817 185.734 87.2415 187.119 89.3197L187.832 90.3892C183.283 94.3005 178.023 97.4303 172.421 99.5412L162.772 81.0593V76.9361C162.772 75.6608 162.25 74.4401 161.328 73.5602L152.639 65.2657C152.16 64.8082 151.588 64.4581 150.963 64.2383L143.142 61.4898C140.709 60.6337 138.045 61.9141 137.191 64.3456C136.336 66.7781 137.615 69.4421 140.047 70.2968L146.92 72.7125L153.437 78.9335V82.2048C153.437 82.9568 153.619 83.6981 153.968 84.3651L166.047 107.503C167.133 109.585 169.599 110.536 171.799 109.722L175.316 108.425C183.488 105.412 191.062 100.564 197.22 94.4069C198.793 92.8333 199.037 90.3691 197.803 88.5173L197.554 88.1443H199.783C200.48 88.1443 201.14 88.4482 201.592 88.9785L207.343 95.7111C207.528 95.9282 207.672 96.1737 207.77 96.443L214.116 113.893C214.661 115.393 215.934 116.509 217.491 116.855C217.827 116.929 218.165 116.965 218.502 116.965C219.726 116.965 220.918 116.483 221.802 115.598L224.823 112.577C226.736 110.664 228.052 108.243 228.682 105.56C233.353 142.999 218.673 181.728 187.643 206.083C185.615 207.674 185.261 210.608 186.853 212.636C188.445 214.664 191.378 215.018 193.407 213.426C215.809 195.843 231.2 170.695 236.743 142.613C242.338 114.26 237.453 84.8445 222.986 59.7878ZM22.0713 131.986L41.3187 146.62C41.8877 147.053 42.5478 147.349 43.2489 147.486L54.8498 149.753C56.3304 150.042 57.5656 150.918 58.3288 152.219C59.092 153.52 59.2526 155.026 58.783 156.459C57.8167 159.406 57.812 162.523 58.7704 165.472L60.2492 170.022C61.1328 172.741 59.6382 175.673 56.9191 176.557L52.2805 178.064C50.6621 178.59 49.4587 179.955 49.139 181.625L45.4055 201.113C37.1978 193.601 29.9914 184.723 24.142 174.591C17.0056 162.232 12.5468 149.049 10.5815 135.719L22.0713 131.986ZM49.2748 57.5369L43.7839 63.42C43.5388 63.6828 43.3245 63.9731 43.1458 64.2849L30.6767 86.0545L19.5945 93.9788C17.5303 95.4548 17.0233 98.3084 18.4527 100.405L22.5974 106.485C20.2083 106.84 18.0643 107.134 16.6387 107.289C16.3647 107.026 16.0781 106.76 15.7817 106.484C14.6721 105.454 13.1303 104.077 10.8317 102.066C14.6226 78.603 25.9284 56.4992 43.7096 39.6269C47.1145 40.6991 49.9087 43.2389 51.2736 46.5518C52.8094 50.2778 52.0242 54.59 49.2748 57.5369ZM87.3328 83.0441C89.4147 81.8725 94.2469 81.7011 97.775 81.576C99.1889 81.5261 100.525 81.4785 101.718 81.3786C102.348 81.3258 103.047 81.3356 103.707 81.387C103.412 82.1432 103.316 82.9732 103.444 83.7966C103.669 85.2451 104.562 86.5031 105.854 87.1944C106.73 87.6631 107.948 88.4758 109.239 89.3361C112.887 91.7681 117.022 94.5245 120.907 94.7719C124.439 95.0011 126.405 92.9878 127.247 92.1303C127.314 92.0622 127.378 91.994 127.445 91.9319C127.919 91.5454 128.364 91.0273 128.694 90.4022C129.441 90.6156 130.225 90.8279 131.029 91.0459C133.793 91.7942 138.937 93.1871 140.074 94.3915C142.093 96.5317 143.666 100.605 145.055 104.199C145.757 106.016 146.419 107.73 147.163 109.319C147.482 110.001 147.796 110.704 148.116 111.415C150.27 116.219 152.711 121.665 157.89 125.05C160.238 126.586 163.117 127.027 165.658 127.416C165.965 127.464 166.317 127.518 166.674 127.577C165.166 129.68 163.02 131.679 160.752 133.791C154.973 139.172 147.782 145.87 151.093 156.554C152.657 161.599 152.73 162.145 150.216 164.879C149.873 165.252 149.554 165.592 149.255 165.91C147.102 168.202 145.401 170.013 143.993 174.447C143.585 175.735 143.055 176.332 142.093 177.415C141.323 178.281 140.365 179.36 139.481 180.873C138.423 182.685 138.073 184.43 137.792 185.831C137.515 187.211 137.358 187.903 136.817 188.568C135.584 190.081 133.285 192.279 130.924 193.779C128.73 195.172 127.449 195.362 127.013 195.336C126.515 194.802 124.711 192.464 121.984 184.373C121.312 182.377 120.38 180.323 119.478 178.336C117.49 173.958 115.434 169.43 116.434 166.336C116.552 165.971 116.669 165.614 116.784 165.265C118.381 160.397 119.889 155.799 117.096 149.105C116.245 147.067 114.891 145.577 113.697 144.263C112.925 143.413 112.05 142.449 111.915 141.895C111.75 141.218 111.756 140.437 111.762 139.533C111.777 137.094 111.802 133.409 108.138 129.978C102.972 125.143 96.9488 126.632 92.9623 127.618C91.7379 127.921 90.5812 128.207 89.5561 128.328C82.9985 129.096 77.144 126.622 73.489 121.536C69.6654 116.216 69.1104 109.056 72.041 102.853C73.4595 99.8507 75.6026 97.4387 78.0841 94.6473C78.6261 94.0372 79.1731 93.4219 79.7202 92.7918C80.6305 91.7424 81.6322 90.3215 82.6914 88.817C83.9559 87.0222 86.3105 83.6799 87.3328 83.0441Z" fill="#B4EC51"/>
<path d="M191.397 160.708L189.151 152.243C188.661 150.395 187.092 149.032 185.194 148.806C183.293 148.583 181.45 149.534 180.537 151.215C180.025 152.158 179.565 153.157 179.119 154.122C178.37 155.747 177.595 157.428 176.789 158.355C176.336 158.876 175.173 159.438 174.049 159.98C171.362 161.277 167.681 163.053 166.275 167.535C165.402 170.316 165.728 172.515 165.966 174.121C166.172 175.513 166.219 175.996 165.846 176.872L165.8 176.98C164.314 180.467 161.55 186.958 165.426 192.476C168.192 196.414 171.1 197.426 173.36 197.426C173.801 197.428 174.218 197.389 174.604 197.326C179.365 196.548 182.945 191.595 185.87 181.738L191.36 163.234C191.604 162.411 191.617 161.537 191.397 160.708ZM176.921 179.082C175.43 184.108 174.111 186.454 173.349 187.494C173.262 187.382 173.166 187.255 173.065 187.11C172.173 185.839 173.506 182.71 174.388 180.639L174.435 180.529C175.858 177.19 175.477 174.625 175.201 172.753C175.023 171.553 174.959 171.038 175.182 170.33C175.365 169.748 176.459 169.183 178.106 168.388C178.837 168.035 179.641 167.647 180.453 167.177L176.921 179.082Z" fill="#B4EC51"/>
<path d="M126.049 55.4835L125.734 55.3733C123.303 54.5219 120.638 55.8004 119.785 58.2329C118.931 60.6659 120.212 63.3289 122.644 64.1822L122.959 64.2924C123.47 64.4717 123.991 64.5566 124.504 64.5566C126.431 64.5566 128.235 63.3537 128.909 61.4328C129.762 58.9999 128.482 56.3363 126.049 55.4835Z" fill="#B4EC51"/>
</mask>
<g mask="url(#mask0)">
<path d="M126.049 55.4835L125.734 55.3733C123.303 54.5219 120.638 55.8004 119.785 58.2329C118.931 60.6659 120.212 63.3289 122.644 64.1822L122.959 64.2924C123.47 64.4717 123.991 64.5566 124.504 64.5566C126.431 64.5566 128.235 63.3537 128.909 61.4328C129.762 58.9999 128.482 56.3363 126.049 55.4835Z" fill="#B4EC51"/>
<path d="M180.96 216.602C179.667 214.373 176.812 213.614 174.581 214.907L174.401 215.011C172.171 216.304 171.413 219.161 172.706 221.391C173.572 222.883 175.138 223.717 176.747 223.717C177.542 223.717 178.349 223.513 179.086 223.085L179.265 222.981C181.495 221.688 182.253 218.832 180.96 216.602Z" fill="#B4EC51"/>
<path d="M222.986 59.7878C207.03 32.1511 181.267 12.3827 150.443 4.12323C119.619 -4.13628 87.4233 0.102707 59.7866 16.0583C32.1504 32.0139 12.3815 57.7773 4.12247 88.6013C-4.13657 119.425 0.101949 151.622 16.0575 179.258C30.37 204.048 53.1179 222.889 80.1109 232.308C92.9063 236.772 106.264 239 119.601 239C134.102 239 148.577 236.364 162.259 231.106C164.665 230.181 165.866 227.481 164.941 225.075C164.015 222.668 161.314 221.466 158.909 222.393C122.49 236.391 83.063 230.031 53.6067 207.92L57.7887 186.09L59.8039 185.436C67.4187 182.962 71.6012 174.754 69.1281 167.138L67.6493 162.588C67.3072 161.535 67.309 160.421 67.654 159.369C68.9512 155.414 68.4877 151.088 66.382 147.497C64.2763 143.907 60.7263 141.39 56.6413 140.591L46.1057 138.532L25.7776 123.077C24.5598 122.15 22.9657 121.88 21.5102 122.353L9.60873 126.219C9.3562 121.962 9.35246 117.707 9.5924 113.474C10.062 113.911 10.3677 114.208 10.5559 114.404C10.7888 114.791 11.0773 115.147 11.4152 115.455C12.3871 116.34 13.2675 116.742 15.116 116.742C16.8147 116.741 19.3293 116.403 23.4815 115.789C27.4194 115.207 31.3367 114.552 31.3755 114.545C32.9453 114.282 34.2724 113.237 34.897 111.773C35.5216 110.309 35.3568 108.628 34.4601 107.313L28.7367 98.918L36.9346 93.056C37.4807 92.6653 37.9363 92.1616 38.2701 91.579L50.9777 69.3945L56.0998 63.9059C61.334 58.2959 62.8278 50.0883 59.9047 42.9948C58.1803 38.8109 55.1686 35.3277 51.4015 32.9801C55.4813 29.7728 59.8314 26.8114 64.4546 24.1427C81.417 14.3493 99.9283 9.60342 118.245 9.42184L109.91 19.8776L79.0009 30.7134C77.7457 31.1531 76.7374 32.1082 76.2304 33.3377L67.5984 54.2633C66.9855 55.75 67.1802 57.4464 68.1143 58.7553L80.7215 76.4151C78.9159 78.0625 77.1584 80.4618 75.0593 83.4409C74.1387 84.7475 73.2696 85.9812 72.6688 86.673C72.1464 87.2752 71.6236 87.8633 71.1055 88.4459C68.3939 91.4964 65.5903 94.6515 63.5985 98.8657C59.219 108.136 60.1036 118.91 65.9068 126.985C71.5181 134.792 80.7691 138.761 90.6428 137.6C92.2514 137.411 93.7512 137.04 95.2025 136.68C99.2043 135.69 100.472 135.591 101.756 136.793C102.38 137.378 102.438 137.488 102.425 139.472C102.416 140.734 102.407 142.304 102.842 144.097C103.539 146.966 105.34 148.948 106.787 150.541C107.506 151.332 108.25 152.151 108.48 152.7C109.936 156.189 109.302 158.121 107.912 162.355C107.793 162.717 107.672 163.087 107.55 163.466C105.44 169.999 108.382 176.479 110.977 182.195C111.82 184.052 112.616 185.804 113.137 187.353C117.334 199.807 120.48 202.659 123.005 203.807C124.328 204.408 125.696 204.672 127.079 204.672C133.808 204.671 140.83 198.424 144.055 194.463C146.081 191.976 146.58 189.485 146.944 187.666C147.126 186.762 147.269 186.048 147.541 185.581C147.958 184.867 148.45 184.313 149.072 183.612C150.324 182.202 151.881 180.449 152.89 177.271C153.657 174.857 154.214 174.265 156.058 172.3C156.379 171.959 156.721 171.594 157.089 171.194C163.306 164.429 161.705 159.261 160.009 153.79C158.582 149.185 161.078 146.241 167.113 140.621C169.728 138.185 172.433 135.666 174.524 132.639C175.439 131.315 178.222 127.285 176.5 123.29C174.811 119.374 170.52 118.716 167.072 118.187C165.711 117.978 163.653 117.663 162.998 117.235C160.11 115.346 158.343 111.406 156.634 107.594C156.294 106.836 155.958 106.087 155.618 105.36C155.011 104.064 154.405 102.495 153.763 100.834C152.065 96.4384 150.14 91.4563 146.864 87.9833C143.919 84.8628 138.367 83.3597 133.469 82.033C131.822 81.5872 130.267 81.1662 129.241 80.7876C128.382 80.4702 127.449 80.4128 126.56 80.6219C124.176 81.1807 122.688 81.7964 121.584 82.6814C121.292 82.9153 120.428 83.6832 119.922 84.9174C118.213 84.0972 115.863 82.5311 114.417 81.5672C114.387 81.5471 114.357 81.527 114.327 81.507C114.814 79.5567 114.373 77.9915 113.911 77.014C111.304 71.4984 102.648 71.9301 100.94 72.0753C99.9703 72.1565 98.7431 72.2 97.445 72.2457C95.406 72.3181 93.1523 72.3993 90.9224 72.6495L91.0372 72.3293C92.7299 67.6132 97.2335 64.4446 102.244 64.4446H104.898C107.475 64.4446 109.565 62.3543 109.565 59.7771C109.565 57.1999 107.475 55.1096 104.898 55.1096H102.244C94.8052 55.1096 87.9933 59.0246 84.1753 65.1868L77.2131 55.434L84.0628 38.8305L114.266 28.2417C115.094 27.9513 115.824 27.4332 116.372 26.7465L129.798 9.90497C164.105 13.1684 196.398 32.4032 214.903 64.4544C219.832 72.9916 223.478 81.9793 225.902 91.172L223.923 92.9365C221.34 95.241 219.827 98.5464 219.769 102.006C219.769 102.044 219.768 102.081 219.766 102.118L216.543 93.253C216.062 91.9301 215.355 90.7169 214.441 89.6474L208.69 82.9148C206.461 80.3049 203.215 78.8089 199.783 78.8089H192.744C190.246 78.8089 187.962 80.1775 186.783 82.3794C185.605 84.5817 185.734 87.2415 187.119 89.3197L187.832 90.3892C183.283 94.3005 178.023 97.4303 172.421 99.5412L162.772 81.0593V76.9361C162.772 75.6608 162.25 74.4401 161.328 73.5602L152.639 65.2657C152.16 64.8082 151.588 64.4581 150.963 64.2383L143.142 61.4898C140.709 60.6337 138.045 61.9141 137.191 64.3456C136.336 66.7781 137.615 69.4421 140.047 70.2968L146.92 72.7125L153.437 78.9335V82.2048C153.437 82.9568 153.619 83.6981 153.968 84.3651L166.047 107.503C167.133 109.585 169.599 110.536 171.799 109.722L175.316 108.425C183.488 105.412 191.062 100.564 197.22 94.4069C198.793 92.8333 199.037 90.3691 197.803 88.5173L197.554 88.1443H199.783C200.48 88.1443 201.14 88.4482 201.592 88.9785L207.343 95.7111C207.528 95.9282 207.672 96.1737 207.77 96.443L214.116 113.893C214.661 115.393 215.934 116.509 217.491 116.855C217.827 116.929 218.165 116.965 218.502 116.965C219.726 116.965 220.918 116.483 221.802 115.598L224.823 112.577C226.736 110.664 228.052 108.243 228.682 105.56C233.353 142.999 218.673 181.728 187.643 206.083C185.615 207.674 185.261 210.608 186.853 212.636C188.445 214.664 191.378 215.018 193.407 213.426C215.809 195.843 231.2 170.695 236.743 142.613C242.338 114.26 237.453 84.8445 222.986 59.7878ZM22.0713 131.986L41.3187 146.62C41.8877 147.053 42.5478 147.349 43.2489 147.486L54.8498 149.753C56.3304 150.042 57.5656 150.918 58.3288 152.219C59.092 153.52 59.2526 155.026 58.783 156.459C57.8167 159.406 57.812 162.523 58.7704 165.472L60.2492 170.022C61.1328 172.741 59.6382 175.673 56.9191 176.557L52.2805 178.064C50.6621 178.59 49.4587 179.955 49.139 181.625L45.4055 201.113C37.1978 193.601 29.9914 184.723 24.142 174.591C17.0056 162.232 12.5468 149.049 10.5815 135.719L22.0713 131.986ZM49.2748 57.5369L43.7839 63.42C43.5388 63.6828 43.3245 63.9731 43.1458 64.2849L30.6767 86.0545L19.5945 93.9788C17.5303 95.4548 17.0233 98.3084 18.4527 100.405L22.5974 106.485C20.2083 106.84 18.0643 107.134 16.6387 107.289C16.3647 107.026 16.0781 106.76 15.7817 106.484C14.6721 105.454 13.1303 104.077 10.8317 102.066C14.6226 78.603 25.9284 56.4992 43.7096 39.6269C47.1145 40.6991 49.9087 43.2389 51.2736 46.5518C52.8094 50.2778 52.0242 54.59 49.2748 57.5369ZM87.3328 83.0441C89.4147 81.8725 94.2469 81.7011 97.775 81.576C99.1889 81.5261 100.525 81.4785 101.718 81.3786C102.348 81.3258 103.047 81.3356 103.707 81.387C103.412 82.1432 103.316 82.9732 103.444 83.7966C103.669 85.2451 104.562 86.5031 105.854 87.1944C106.73 87.6631 107.948 88.4758 109.239 89.3361C112.887 91.7681 117.022 94.5245 120.907 94.7719C124.439 95.0011 126.405 92.9878 127.247 92.1303C127.314 92.0622 127.378 91.994 127.445 91.9319C127.919 91.5454 128.364 91.0273 128.694 90.4022C129.441 90.6156 130.225 90.8279 131.029 91.0459C133.793 91.7942 138.937 93.1871 140.074 94.3915C142.093 96.5317 143.666 100.605 145.055 104.199C145.757 106.016 146.419 107.73 147.163 109.319C147.482 110.001 147.796 110.704 148.116 111.415C150.27 116.219 152.711 121.665 157.89 125.05C160.238 126.586 163.117 127.027 165.658 127.416C165.965 127.464 166.317 127.518 166.674 127.577C165.166 129.68 163.02 131.679 160.752 133.791C154.973 139.172 147.782 145.87 151.093 156.554C152.657 161.599 152.73 162.145 150.216 164.879C149.873 165.252 149.554 165.592 149.255 165.91C147.102 168.202 145.401 170.013 143.993 174.447C143.585 175.735 143.055 176.332 142.093 177.415C141.323 178.281 140.365 179.36 139.481 180.873C138.423 182.685 138.073 184.43 137.792 185.831C137.515 187.211 137.358 187.903 136.817 188.568C135.584 190.081 133.285 192.279 130.924 193.779C128.73 195.172 127.449 195.362 127.013 195.336C126.515 194.802 124.711 192.464 121.984 184.373C121.312 182.377 120.38 180.323 119.478 178.336C117.49 173.958 115.434 169.43 116.434 166.336C116.552 165.971 116.669 165.614 116.784 165.265C118.381 160.397 119.889 155.799 117.096 149.105C116.245 147.067 114.891 145.577 113.697 144.263C112.925 143.413 112.05 142.449 111.915 141.895C111.75 141.218 111.756 140.437 111.762 139.533C111.777 137.094 111.802 133.409 108.138 129.978C102.972 125.143 96.9488 126.632 92.9623 127.618C91.7379 127.921 90.5812 128.207 89.5561 128.328C82.9985 129.096 77.144 126.622 73.489 121.536C69.6654 116.216 69.1104 109.056 72.041 102.853C73.4595 99.8507 75.6026 97.4387 78.0841 94.6473C78.6261 94.0372 79.1731 93.4219 79.7202 92.7918C80.6305 91.7424 81.6322 90.3215 82.6914 88.817C83.9559 87.0222 86.3105 83.6799 87.3328 83.0441Z" fill="#B4EC51"/>
<path d="M191.397 160.708L189.151 152.243C188.661 150.395 187.092 149.032 185.194 148.806C183.293 148.583 181.45 149.534 180.537 151.215C180.025 152.158 179.565 153.157 179.119 154.122C178.37 155.747 177.595 157.428 176.789 158.355C176.336 158.876 175.173 159.438 174.049 159.98C171.362 161.277 167.681 163.053 166.275 167.535C165.402 170.316 165.728 172.515 165.966 174.121C166.172 175.513 166.219 175.996 165.846 176.872L165.8 176.98C164.314 180.467 161.55 186.958 165.426 192.476C168.192 196.414 171.1 197.426 173.36 197.426C173.801 197.428 174.218 197.389 174.604 197.326C179.365 196.548 182.945 191.595 185.87 181.738L191.36 163.234C191.604 162.411 191.617 161.537 191.397 160.708ZM176.921 179.082C175.43 184.108 174.111 186.454 173.349 187.494C173.262 187.382 173.166 187.255 173.065 187.11C172.173 185.839 173.506 182.71 174.388 180.639L174.435 180.529C175.858 177.19 175.477 174.625 175.201 172.753C175.023 171.553 174.959 171.038 175.182 170.33C175.365 169.748 176.459 169.183 178.106 168.388C178.837 168.035 179.641 167.647 180.453 167.177L176.921 179.082Z" fill="#B4EC51"/>
<rect x="-3.479" y="-14" width="278.449" height="226.567" rx="25" fill="url(#paint0_linear)"/>
<path fill-rule="evenodd" clip-rule="evenodd" d="M-63.3984 129.8C-63.3984 129.8 -28.9775 -55.2691 50.8824 57.8776C115.681 149.685 123.38 160.65 153.174 142.325C188.113 120.836 194.557 57.8776 211.94 57.8776C229.323 57.8776 254.949 168.105 269.063 149.685C283.176 131.266 294.132 75.9269 322.874 75.9269C351.617 75.9269 347.433 144.273 347.433 144.273L335.557 224.089L164.822 212.687L-59.2678 239" fill="url(#paint1_linear)"/>
</g>
</g>
<defs>
<linearGradient id="paint0_linear" x1="-3.479" y1="99.2835" x2="273.388" y2="99.5349" gradientUnits="userSpaceOnUse">
<stop stop-color="#459622"/>
<stop offset="1" stop-color="#B0E94F"/>
</linearGradient>
<linearGradient id="paint1_linear" x1="332.795" y1="84.1788" x2="-37.1283" y2="86.2474" gradientUnits="userSpaceOnUse">
<stop stop-color="#5CA82C"/>
<stop offset="0.0001" stop-color="#68B231"/>
<stop offset="1" stop-color="#A6E24B"/>
</linearGradient>
<clipPath id="clip0">
<rect width="239" height="239" fill="white"/>
</clipPath>
</defs>
</svg>
