<svg width="128" height="128" viewBox="0 0 128 128" fill="none" xmlns="http://www.w3.org/2000/svg">
<path d="M32.9556 27.3343C30.5551 24.8533 27.2473 23.4567 23.7951 23.4666H23.138C19.6892 23.4597 16.3863 24.8559 13.9882 27.3343C11.7322 29.6538 10.5343 32.8018 10.6772 36.0341L10.9268 41.777C11.305 48.3487 16.8039 53.4495 23.3855 53.3332H23.5476C30.1292 53.4495 35.6281 48.3487 36.0063 41.777L36.2665 36.0341C36.4094 32.8018 35.2116 29.6538 32.9556 27.3343ZM31.7439 41.5999C31.4548 45.8834 27.8393 49.177 23.5476 49.0666H23.3855C19.0938 49.177 15.4783 45.8834 15.1892 41.5999L15.1146 39.857C19.1812 39.6759 23.086 38.2106 26.2676 35.6714C27.5796 37.6116 29.5601 39.0007 31.8313 39.5732L31.7439 41.5999ZM29.0687 31.5157C28.95 30.6058 28.2625 29.8738 27.362 29.6981C26.4647 29.5125 25.55 29.9258 25.0964 30.7221C25.0687 30.7669 22.4212 34.9546 14.9503 35.5946C14.9319 33.6181 15.6922 31.7138 17.0666 30.2933C18.6594 28.6519 20.8508 27.7279 23.138 27.7333H23.7951C26.0823 27.7279 28.2737 28.6519 29.8665 30.2933C31.1111 31.5901 31.8497 33.2901 31.9487 35.0847C30.4724 34.425 29.4015 33.0981 29.0687 31.5157Z" fill="#FF5C00"/>
<path d="M116.156 78.5343C113.755 76.0532 110.447 74.6567 106.995 74.6666H106.338C102.889 74.6596 99.5863 76.0559 97.1882 78.5343C94.9322 80.8537 93.734 84.0017 93.8772 87.234L94.1268 92.9769C94.505 99.5486 100.004 104.649 106.585 104.533H106.748C113.329 104.649 118.828 99.5486 119.206 92.9769L119.466 87.234C119.609 84.0017 118.412 80.8537 116.156 78.5343ZM115.2 87.0612L114.944 92.7999C114.655 97.0833 111.039 100.377 106.748 100.267H106.585C102.294 100.377 98.6783 97.0833 98.3892 92.7999L98.1332 87.0505C98.0508 84.9836 98.8223 82.974 100.267 81.4932C101.859 79.8519 104.051 78.9279 106.338 78.9332H106.995C109.282 78.9279 111.474 79.8519 113.067 81.4932C114.513 82.9767 115.285 84.9908 115.2 87.0612Z" fill="#FF5C00"/>
<path d="M65.9023 31.0251C63.6132 28.811 59.9807 28.811 57.6916 31.0251L33.8751 54.8416C33.4746 55.2421 32.9311 55.4672 32.3647 55.4667H10.6666C4.77866 55.4736 0.00693332 60.2453 0 66.1333V95.9999C0 99.5346 2.86533 102.4 6.39999 102.4C7.12665 102.4 7.84798 102.276 8.53331 102.035V104.533C8.53331 105.711 9.48851 106.667 10.6666 106.667H36.2666C37.4447 106.667 38.3999 105.711 38.3999 104.533V69.9434C38.3996 69.4037 38.6039 68.8837 38.9716 68.4885L66.0415 39.375C68.3089 37.031 68.2465 33.2926 65.9023 31.0251ZM62.9948 36.3918C62.9871 36.3992 62.9793 36.4067 62.9716 36.4139L35.8399 65.585C34.7413 66.7704 34.1314 68.3272 34.1333 69.9434V102.4H12.8V70.4C12.8 69.2218 11.8448 68.2666 10.6666 68.2666C9.48851 68.2666 8.53331 69.2218 8.53331 70.4V95.9999C8.53331 97.178 7.57812 98.1332 6.39999 98.1332C5.22185 98.1332 4.26666 97.178 4.26666 95.9999V66.1333C4.26666 62.5986 7.13198 59.7333 10.6666 59.7333H32.3647C34.0637 59.7386 35.694 59.0634 36.8916 57.8581L60.7081 34.0416C61.3575 33.4256 62.3756 33.4256 63.0249 34.0416C63.6655 34.699 63.6521 35.7512 62.9948 36.3918Z" fill="#FF5C00"/>
<path d="M23.4666 61.8665C22.2885 61.8665 21.3333 62.8217 21.3333 63.9998V89.5997C21.3333 90.7779 22.2885 91.733 23.4666 91.733C24.6447 91.733 25.5999 90.7779 25.5999 89.5997V63.9998C25.5999 62.8217 24.6447 61.8665 23.4666 61.8665Z" fill="#FF5C00"/>
<path d="M69.2116 78.5343C66.8134 76.0559 63.5105 74.6596 60.0617 74.6665H59.4047C55.9559 74.6596 52.6529 76.0559 50.2548 78.5343C47.9988 80.8537 46.8007 84.0017 46.9439 87.234L47.1935 92.9769C47.5716 99.5486 53.0705 104.649 59.6521 104.533H59.8143C66.3958 104.649 71.8948 99.5486 72.2729 92.9769L72.5225 87.234C72.6657 84.0017 71.4676 80.8537 69.2116 78.5343ZM68.2665 87.0612L68.0105 92.7998C67.7214 97.0833 64.106 100.377 59.8143 100.266H59.6521C55.3604 100.377 51.7449 97.0833 51.4559 92.7998L51.1999 87.0505C51.1175 84.9836 51.8889 82.974 53.3332 81.4932C54.926 79.8519 57.1175 78.9279 59.4047 78.9332H60.0617C62.3489 78.9279 64.5404 79.8519 66.1332 81.4932C67.5801 82.9766 68.3518 84.9908 68.2665 87.0612Z" fill="#FF5C00"/>
<path d="M70.7561 106.667H48.7103C43.0186 106.672 38.4058 111.285 38.3999 116.977V125.866C38.3999 127.045 39.3551 128 40.5332 128C41.7114 128 42.6666 127.045 42.6666 125.866V116.977C42.67 113.64 45.374 110.937 48.7103 110.933H70.7561C74.0926 110.937 76.7964 113.64 76.7998 116.977V125.866C76.7998 127.045 77.755 128 78.9332 128C80.1113 128 81.0665 127.045 81.0665 125.866V116.977C81.0606 111.285 76.4478 106.672 70.7561 106.667Z" fill="#FF5C00"/>
<path d="M117.689 106.667H95.6434C89.9517 106.672 85.3389 111.285 85.333 116.977V125.866C85.333 127.045 86.2882 128 87.4663 128C88.6445 128 89.5997 127.045 89.5997 125.866V116.977C89.6031 113.64 92.3071 110.937 95.6434 110.933H117.689C121.026 110.937 123.729 113.64 123.733 116.977V125.866C123.733 127.045 124.688 128 125.866 128C127.044 128 128 127.045 128 125.866V116.977C127.994 111.285 123.381 106.672 117.689 106.667Z" fill="#FF5C00"/>
<path d="M121.706 0H46.8264C43.3232 0.0341333 40.5083 2.89679 40.5331 6.39999V38.3999C40.5331 39.578 41.4883 40.5332 42.6664 40.5332C43.8446 40.5332 44.7998 39.578 44.7998 38.3999V12.8H123.733V63.9999C123.76 65.1479 122.854 66.1017 121.706 66.1332H48.9064C47.7283 66.1332 46.7731 67.0884 46.7731 68.2665C46.7731 69.4446 47.7283 70.3998 48.9064 70.3998H121.706C125.209 70.3657 128.024 67.5031 128 63.9999V6.39999C128.024 2.89679 125.209 0.0341333 121.706 0ZM123.733 8.53331H44.7998V6.39999C44.7723 5.25199 45.6784 4.29812 46.8264 4.26666H121.706C122.854 4.29812 123.76 5.25199 123.733 6.39999V8.53331Z" fill="#FF5C00"/>
<path d="M111.333 27.2C110.155 27.2 109.2 28.1551 109.2 29.3333V59.7332C109.2 60.9113 110.155 61.8665 111.333 61.8665C112.511 61.8665 113.466 60.9113 113.466 59.7332V29.3333C113.466 28.1551 112.511 27.2 111.333 27.2Z" fill="#FF5C00"/>
<path d="M100.8 40.5332C99.6217 40.5332 98.6665 41.4884 98.6665 42.6665V59.7332C98.6665 60.9113 99.6217 61.8665 100.8 61.8665C101.978 61.8665 102.933 60.9113 102.933 59.7332V42.6665C102.933 41.4884 101.978 40.5332 100.8 40.5332Z" fill="#FF5C00"/>
<path d="M90.7332 49.0667C89.5551 49.0667 88.5999 50.0218 88.5999 51.2V59.7333C88.5999 60.9114 89.5551 61.8666 90.7332 61.8666C91.9113 61.8666 92.8665 60.9114 92.8665 59.7333V51.2C92.8665 50.0218 91.9113 49.0667 90.7332 49.0667Z" fill="#FF5C00"/>
<path d="M81.1333 55.3667C79.9552 55.3667 79 56.3219 79 57.5L79 59.6668C79 60.8449 79.9552 61.8001 81.1334 61.8001C82.3115 61.8001 83.2667 60.8449 83.2667 59.6668L83.2666 57.5C83.2666 56.3219 82.3115 55.3667 81.1333 55.3667Z" fill="#FF5C00"/>
<path d="M109.517 19.425C108.537 18.7712 107.212 19.0357 106.558 20.016L99.275 30.9386L92.5465 25.8933C91.6076 25.1816 90.2695 25.3661 89.5577 26.305C89.4767 26.412 89.406 26.5261 89.3465 26.6464L81.0393 43.2628L72.9199 49.3599C71.9772 50.0668 71.7863 51.4039 72.4932 52.3466C73.2002 53.2892 74.5372 53.4802 75.4799 52.7732L84.0132 46.3732C84.282 46.1754 84.5012 45.9175 84.6532 45.6202L92.0409 30.8405L98.5198 35.7066C99.4622 36.4135 100.8 36.2229 101.506 35.2802C101.53 35.2487 101.553 35.2165 101.575 35.1839L110.108 22.384C110.762 21.4037 110.497 20.0789 109.517 19.425Z" fill="#FF5C00"/>
</svg>
