<svg width="268" height="268" viewBox="0 0 268 268" fill="none" xmlns="http://www.w3.org/2000/svg">
<g opacity="0.3">
<path d="M244.843 46.1148C243.864 45.136 242.519 44.5806 241.142 44.5806C239.76 44.5806 238.415 45.136 237.435 46.1148C236.462 47.0879 235.907 48.4337 235.907 49.8155C235.907 51.1922 236.462 52.5432 237.435 53.5168C238.414 54.4903 239.759 55.0504 241.142 55.0504C242.519 55.0504 243.864 54.4909 244.843 53.5168C245.817 52.5432 246.372 51.1927 246.372 49.8155C246.372 48.4337 245.817 47.0879 244.843 46.1148Z" fill="#FFB321"/>
<path d="M124.615 169.398C123.637 168.419 122.291 167.864 120.914 167.864C119.532 167.864 118.186 168.419 117.208 169.398C116.235 170.371 115.679 171.717 115.679 173.099C115.679 174.475 116.235 175.826 117.208 176.8C118.186 177.773 119.532 178.334 120.914 178.334C122.291 178.334 123.636 177.774 124.615 176.8C125.589 175.826 126.144 174.476 126.144 173.099C126.144 171.717 125.589 170.371 124.615 169.398Z" fill="#FFB321"/>
<path d="M257.522 63.4998C256.093 60.9862 252.896 60.1079 250.384 61.5369C247.871 62.9658 246.992 66.162 248.422 68.675C263.971 96.0183 259.277 130.67 237.006 152.941L233.036 156.91C232.078 154.394 230.592 152.033 228.568 150.01L174.782 96.224C178.299 94.4935 181.549 92.1846 184.402 89.3314L194.718 79.015C196.762 76.9709 196.762 73.656 194.718 71.612C192.674 69.568 189.36 69.568 187.315 71.612L176.999 81.9284C172.152 86.7744 165.709 89.4434 158.856 89.4434H138.234C136.846 89.4434 135.515 89.9951 134.532 90.9766L118.745 106.763C114.058 111.452 106.429 111.452 101.742 106.763C97.0532 102.076 97.0532 94.4475 101.742 89.7596L137.783 53.7183C159.809 31.692 194.195 26.8481 221.401 41.9388C223.929 43.3401 227.116 42.4288 228.518 39.9C229.92 37.3718 229.008 34.1852 226.479 32.7829C211.473 24.4607 193.794 21.1301 176.694 23.4076C160.692 25.5385 146.044 32.239 134.038 42.8711C119.288 29.7951 100.51 22.6444 80.6303 22.6444C59.0929 22.6444 38.8453 31.0314 23.6159 46.2603C8.38652 61.4892 0 81.7384 0 103.275C0 124.813 8.38704 145.06 23.6159 160.29L25.5888 162.262C25.9321 162.605 26.3132 162.886 26.7157 163.114C27.0659 167.642 28.9634 172.073 32.4196 175.528C36.2664 179.375 41.3165 181.297 46.3682 181.297C46.6304 181.297 46.8932 181.288 47.1554 181.278C47.145 181.543 47.1361 181.808 47.1361 182.074C47.1361 187.343 49.1879 192.297 52.9138 196.023C56.7605 199.869 61.8106 201.791 66.8623 201.791C67.1246 201.791 67.3873 201.783 67.6496 201.772C67.6391 202.037 67.6302 202.302 67.6302 202.568C67.6302 207.837 69.6821 212.791 73.4084 216.517C77.2547 220.362 82.3058 222.285 87.357 222.285C87.6224 222.285 87.8878 222.277 88.1532 222.266C87.9406 227.58 89.8549 232.964 93.9026 237.012C97.6289 240.738 102.583 242.79 107.851 242.79C113.121 242.79 118.074 240.738 121.8 237.012L129.116 229.695L138.998 239.576C142.724 243.303 147.677 245.355 152.946 245.355C158.215 245.355 163.169 243.303 166.895 239.577C170.991 235.48 172.905 230.015 172.638 224.639C172.967 224.656 173.297 224.665 173.626 224.665C178.677 224.665 183.73 222.743 187.575 218.896C191.621 214.851 193.535 209.471 193.325 204.16C193.59 204.17 193.855 204.179 194.121 204.179C199.39 204.179 204.344 202.127 208.07 198.402C212.115 194.356 214.029 188.976 213.819 183.665C214.084 183.676 214.349 183.685 214.615 183.685C219.884 183.685 224.838 181.633 228.564 177.907C230.456 176.015 231.881 173.829 232.842 171.496C233.351 171.248 233.83 170.918 234.253 170.495L244.405 160.343C270.002 134.752 275.394 94.9275 257.522 63.4998ZM46.3687 170.836C43.896 170.836 41.5714 169.874 39.8226 168.125C38.0743 166.377 37.1112 164.052 37.1112 161.579C37.1112 159.107 38.0738 156.782 39.8226 155.034L48.8435 146.013C50.5918 144.264 52.9169 143.301 55.3896 143.301C57.8618 143.301 60.1869 144.264 61.9352 146.013C65.5448 149.622 65.5448 155.495 61.9352 159.104L52.9143 168.126C51.166 169.873 48.842 170.836 46.3687 170.836ZM60.3183 188.62C58.5695 186.872 57.6069 184.547 57.6069 182.075C57.6069 179.602 58.5695 177.277 60.3183 175.529L69.3398 166.508C69.3398 166.508 69.3398 166.508 69.3398 166.507C71.0881 164.759 73.4126 163.796 75.8854 163.796C78.3576 163.796 80.6827 164.758 82.4309 166.507C86.0406 170.117 86.0406 175.989 82.4309 179.598L73.41 188.62C69.7999 192.229 63.9259 192.229 60.3183 188.62ZM80.8125 209.114C79.0637 207.366 78.1011 205.041 78.1011 202.569C78.1011 200.096 79.0637 197.771 80.8125 196.023L89.8339 187.002C89.8339 187.002 89.8339 187.002 89.8339 187.001C91.5822 185.253 93.9068 184.29 96.3795 184.29C98.8522 184.29 101.177 185.252 102.925 187.001C106.535 190.611 106.535 196.484 102.925 200.093L93.9036 209.114C90.2945 212.724 84.4221 212.724 80.8125 209.114ZM123.42 220.588L114.398 229.61C112.65 231.358 110.325 232.321 107.853 232.321C105.381 232.321 103.055 231.359 101.307 229.61C97.6975 226 97.6975 220.127 101.307 216.518L110.329 207.497C110.329 207.497 110.329 207.497 110.329 207.496C112.077 205.748 114.401 204.785 116.874 204.785C119.346 204.785 121.671 205.748 123.42 207.496C125.169 209.245 126.131 211.57 126.131 214.042C126.132 216.516 125.169 218.84 123.42 220.588ZM221.164 170.504C219.416 172.253 217.091 173.215 214.619 173.215C212.146 173.215 209.821 172.253 208.073 170.504L186.284 148.715C186.283 148.714 186.283 148.713 186.281 148.712L165.789 128.22C163.744 126.176 160.43 126.176 158.385 128.22C156.341 130.264 156.341 133.579 158.385 135.623L200.67 177.906C204.279 181.516 204.279 187.389 200.67 190.998C198.921 192.746 196.596 193.709 194.124 193.709C191.651 193.709 189.327 192.746 187.579 190.998L145.294 148.714C143.25 146.67 139.936 146.67 137.891 148.714C135.847 150.758 135.847 154.073 137.891 156.117L158.381 176.607C158.383 176.609 158.384 176.611 158.386 176.613L180.176 198.401C183.785 202.011 183.785 207.884 180.176 211.493C176.566 215.103 170.692 215.103 167.084 211.493L145.295 189.704C144.892 189.301 144.439 188.981 143.957 188.737L137.742 182.522C135.697 180.479 132.384 180.479 130.339 182.522C128.295 184.566 128.295 187.881 130.339 189.926L159.495 219.081C163.105 222.691 163.105 228.564 159.495 232.173C157.747 233.922 155.422 234.884 152.949 234.884C150.477 234.884 148.152 233.922 146.404 232.173L135.309 221.079C136.154 218.861 136.601 216.486 136.601 214.041C136.601 208.772 134.55 203.819 130.824 200.093C127.097 196.367 122.144 194.315 116.875 194.315C116.609 194.315 116.344 194.324 116.079 194.335C116.289 189.024 114.375 183.644 110.33 179.598C106.603 175.872 101.649 173.82 96.3811 173.82C96.1146 173.82 95.8498 173.829 95.5849 173.84C95.7953 168.529 93.8811 163.149 89.8355 159.104C86.1091 155.378 81.1553 153.326 75.8869 153.326C75.6205 153.326 75.3556 153.335 75.0908 153.345C75.3012 148.034 73.387 142.654 69.3413 138.609C61.6499 130.917 49.134 130.918 41.4426 138.609L32.4217 147.63C31.2838 148.768 30.3191 150.013 29.5172 151.331C17.2211 138.271 10.4719 121.292 10.4719 103.274C10.4719 84.5336 17.7697 66.9141 31.022 53.6628C44.2734 40.4114 61.8933 33.1132 80.6335 33.1132C97.664 33.1132 113.768 39.1411 126.51 50.1866L94.3407 82.3555C90.0925 86.6043 87.7527 92.2527 87.7527 98.2607C87.7527 104.269 90.0925 109.918 94.3407 114.166C98.7261 118.551 104.486 120.744 110.246 120.744C116.006 120.744 121.767 118.552 126.152 114.166L140.406 99.9122H158.859C160.383 99.9122 161.89 99.808 163.378 99.6232L221.168 157.411C224.773 161.022 224.773 166.895 221.164 170.504Z" fill="#FFB321"/>
</g>
</svg>
