<svg width="29" height="32" viewBox="0 0 29 32" fill="none" xmlns="http://www.w3.org/2000/svg">
<path d="M14.1818 32C13.7414 32 13.3303 31.8824 12.9486 31.6766L9.04348 29.3542C8.45624 29.0308 8.74986 28.9132 8.92603 28.8544C9.7188 28.5898 9.86561 28.531 10.6877 28.0606C10.7758 28.0018 10.8933 28.0312 10.9814 28.09L13.9763 29.8833C14.0937 29.9421 14.2405 29.9421 14.3286 29.8833L26.044 23.0923C26.1615 23.0335 26.2202 22.9159 26.2202 22.7689V9.21635C26.2202 9.06936 26.1615 8.95177 26.044 8.89297L14.3286 2.13137C14.2112 2.07258 14.0644 2.07258 13.9763 2.13137L2.26087 8.89297C2.14342 8.95177 2.0847 9.09876 2.0847 9.21635V22.7689C2.0847 22.8865 2.14342 23.0335 2.26087 23.0923L5.46132 24.9444C7.19368 25.8264 8.28007 24.7974 8.28007 23.7685V10.3923C8.28007 10.2159 8.42688 10.0395 8.63241 10.0395H10.1299C10.306 10.0395 10.4822 10.1865 10.4822 10.3923V23.7685C10.4822 26.0909 9.21965 27.4433 7.0175 27.4433C6.34218 27.4433 5.81366 27.4433 4.31621 26.7083L1.2332 24.9444C0.469791 24.5034 0 23.6803 0 22.7983V9.24575C0 8.3638 0.469791 7.54065 1.2332 7.09968L12.9486 0.308682C13.6827 -0.102894 14.681 -0.102894 15.415 0.308682L27.1304 7.09968C27.8938 7.54065 28.3636 8.3638 28.3636 9.24575V22.7983C28.3636 23.6803 27.8938 24.5034 27.1304 24.9444L15.415 31.7354C15.0333 31.9118 14.5929 32 14.1818 32ZM17.7933 22.6808C12.655 22.6808 11.598 20.3289 11.598 18.3298C11.598 18.1534 11.7448 17.977 11.9503 17.977H13.4771C13.6533 17.977 13.8001 18.0946 13.8001 18.271C14.035 19.8291 14.7103 20.5935 17.8227 20.5935C20.2891 20.5935 21.3461 20.0349 21.3461 18.712C21.3461 17.9476 21.0525 17.3891 17.2061 17.0069C14.0056 16.6835 12.009 15.978 12.009 13.4203C12.009 11.039 14.0056 9.62793 17.3529 9.62793C21.1112 9.62793 22.961 10.9215 23.1959 13.7437C23.1959 13.8319 23.1666 13.9201 23.1078 14.0083C23.0491 14.0671 22.961 14.1259 22.873 14.1259H21.3461C21.1993 14.1259 21.0525 14.0083 21.0231 13.8613C20.6708 12.2444 19.7606 11.7152 17.3529 11.7152C14.6516 11.7152 14.3286 12.6559 14.3286 13.3615C14.3286 14.2141 14.7103 14.4786 18.3512 14.949C21.9627 15.4194 23.6657 16.0955 23.6657 18.6238C23.6364 21.2108 21.5223 22.6808 17.7933 22.6808Z" fill="white"/>
</svg>
