<svg width="30" height="34" viewBox="0 0 30 34" fill="none" xmlns="http://www.w3.org/2000/svg">
<path d="M0.520506 0C0.207614 0 -0.0255183 0.254648 0.0022437 0.565884L2.64009 30.1154C2.66785 30.4266 2.93717 30.7497 3.23879 30.8333L14.4325 33.9372C14.734 34.0209 15.2273 34.0209 15.5289 33.9375L26.7566 30.8284C27.0581 30.7449 27.3278 30.4218 27.3556 30.1107L29.9977 0.565884C30.0257 0.254648 29.7924 0 29.4795 0H0.520506ZM24.3801 6.77709C24.3552 7.05469 24.3121 7.5366 24.2843 7.84783L24.2148 8.62314C24.1868 8.93426 24.147 9.37924 24.1259 9.61185C24.105 9.84456 24.0851 10.0349 24.0815 10.0349C24.0779 10.0349 23.819 10.0349 23.5061 10.0349H15.5689C15.256 10.0349 14.9974 10.0349 14.994 10.0349C14.9905 10.0349 14.7317 10.0349 14.4188 10.0349H10.2386C9.92568 10.0349 9.69255 10.2895 9.72031 10.6008L9.96414 13.3228C9.9919 13.6339 10.2708 13.8887 10.5837 13.8887H14.4189C14.7318 13.8887 14.9907 13.8887 14.9941 13.8887C14.9975 13.8887 15.2561 13.8887 15.569 13.8887H22.1612C22.4741 13.8887 22.9583 13.8887 23.2372 13.8887C23.5159 13.8887 23.7234 14.1159 23.6981 14.3935C23.6728 14.6711 23.6294 15.1531 23.6017 15.4642L22.8176 24.2397C22.7896 24.551 22.7542 24.9486 22.739 25.1233C22.7234 25.298 22.4641 25.5092 22.1626 25.5927L15.5483 27.4244C15.2468 27.5078 14.9962 27.5768 14.9916 27.5779C14.9869 27.5789 14.7365 27.5113 14.4348 27.4278L7.81349 25.5928C7.51198 25.5093 7.24255 25.1863 7.21479 24.875L6.78857 20.0974C6.76081 19.7862 6.99417 19.5315 7.30706 19.5315H7.91134C8.22423 19.5315 8.73624 19.5315 9.04913 19.5315H9.95026C10.2631 19.5315 10.5418 19.7862 10.5698 20.0974L10.7369 21.9677C10.7647 22.2789 11.0345 22.6001 11.3367 22.6816L14.4338 23.5169C14.7358 23.5984 14.9841 23.6651 14.9854 23.6651C14.9868 23.6651 15.2349 23.5983 15.537 23.5168L18.6398 22.6794C18.9417 22.598 19.2117 22.2766 19.2397 21.9655L19.5762 18.2184C19.6042 17.9072 19.371 17.6525 19.0581 17.6525H15.569C15.2561 17.6525 14.9975 17.6525 14.9941 17.6525C14.9907 17.6525 14.7318 17.6525 14.4189 17.6525H7.13833C6.82544 17.6525 6.54679 17.3978 6.51903 17.0866L5.69345 7.84772C5.66569 7.53648 5.62257 7.05469 5.59765 6.77697C5.57296 6.49937 5.8086 6.27222 6.12149 6.27222H14.4189C14.7318 6.27222 14.9907 6.27222 14.9941 6.27222C14.9975 6.27222 15.2561 6.27222 15.569 6.27222H23.8564C24.1692 6.27222 24.4049 6.49937 24.3801 6.77709Z" fill="white"/>
</svg>
