<svg width="210" height="210" viewBox="0 0 210 210" fill="none" xmlns="http://www.w3.org/2000/svg">
<g clip-path="url(#clip0)">
<path d="M203 168V52.5C202.994 47.8604 201.149 43.4125 197.868 40.1318C194.588 36.8511 190.14 35.0056 185.5 35H112V42H185.5C188.285 42 190.955 43.1062 192.925 45.0754C194.894 47.0445 196 49.7152 196 52.5V168C196 170.785 194.894 173.455 192.925 175.425C190.955 177.394 188.285 178.5 185.5 178.5H171.5V185.5H185.5C190.14 185.494 194.588 183.649 197.868 180.368C201.149 177.088 202.994 172.64 203 168Z" fill="#FFB321"/>
<path d="M21 91V168C21.0056 172.64 22.8511 177.088 26.1318 180.368C29.4125 183.649 33.8604 185.494 38.5 185.5H70V178.5H38.5C35.7152 178.5 33.0445 177.394 31.0754 175.425C29.1062 173.455 28 170.785 28 168V91H21Z" fill="#FFB321"/>
<path d="M157.5 49H150.5V56H157.5V49Z" fill="#B4EC51"/>
<path d="M171.5 49H164.5V56H171.5V49Z" fill="#B4EC51"/>
<path d="M185.5 49H178.5V56H185.5V49Z" fill="#B4EC51"/>
<path d="M185.5 63H112V70H185.5V63Z" fill="#FFB321"/>
<path d="M24.5 84H47.9955L75.145 100.968C75.7256 101.331 76.3999 101.516 77.0845 101.5C77.7691 101.483 78.4339 101.266 78.9964 100.876C79.559 100.485 79.9947 99.9385 80.2495 99.3029C80.5043 98.6673 80.5671 97.9709 80.43 97.3L77.77 84H87.5C92.1396 83.9944 96.5876 82.1489 99.8682 78.8682C103.149 75.5876 104.994 71.1396 105 66.5V17.5C104.994 12.8604 103.149 8.41245 99.8682 5.13177C96.5876 1.85109 92.1396 0.0055575 87.5 0H24.5C19.8604 0.0055575 15.4125 1.85109 12.1318 5.13177C8.85109 8.41245 7.00556 12.8604 7 17.5V66.5C7.00556 71.1396 8.85109 75.5876 12.1318 78.8682C15.4125 82.1489 19.8604 83.9944 24.5 84ZM14 17.5C14 14.7152 15.1062 12.0445 17.0754 10.0754C19.0445 8.10625 21.7152 7 24.5 7H87.5C90.2848 7 92.9555 8.10625 94.9246 10.0754C96.8938 12.0445 98 14.7152 98 17.5V66.5C98 69.2848 96.8938 71.9555 94.9246 73.9246C92.9555 75.8938 90.2848 77 87.5 77H73.5C72.9809 76.9999 72.4684 77.1152 71.9994 77.3377C71.5304 77.5601 71.1168 77.8841 70.7884 78.2861C70.4601 78.6882 70.2253 79.1582 70.1011 79.6622C69.9768 80.1661 69.9662 80.6914 70.07 81.2L71.9775 90.748L50.855 77.532C50.2987 77.1843 49.656 77 49 77H24.5C21.7152 77 19.0445 75.8938 17.0754 73.9246C15.1062 71.9555 14 69.2848 14 66.5V17.5Z" fill="#B4EC51"/>
<path d="M49.861 63H52.5V70H59.5V63H62.139C64.924 63.0171 67.6182 62.0106 69.7099 60.1718C71.8015 58.333 73.1449 55.79 73.4848 53.0258C73.8247 50.2616 73.1375 47.4689 71.5536 45.1781C69.9698 42.8873 67.5996 41.2581 64.8935 40.6L48.7935 36.582C47.7633 36.3217 46.8634 35.6945 46.2626 34.8181C45.6619 33.9416 45.4015 32.876 45.5303 31.8213C45.6592 30.7665 46.1684 29.795 46.9624 29.0889C47.7565 28.3828 48.7809 27.9906 49.8435 27.986H62.1215C62.6967 27.9842 63.2666 28.096 63.7985 28.3152C64.3303 28.5344 64.8136 28.8565 65.2205 29.2631C65.6274 29.6697 65.9499 30.1527 66.1695 30.6843C66.3891 31.216 66.5014 31.7858 66.5 32.361V35H73.5V32.361C73.4972 29.3487 72.2994 26.4606 70.1694 24.3306C68.0394 22.2006 65.1513 21.0028 62.139 21H59.5V14H52.5V21H49.861C47.0761 20.9829 44.3819 21.9894 42.2902 23.8282C40.1986 25.667 38.8552 28.21 38.5153 30.9742C38.1754 33.7384 38.8626 36.5311 40.4465 38.8219C42.0303 41.1127 44.4004 42.7419 47.1065 43.4L63.2065 47.418C64.2368 47.6783 65.1367 48.3055 65.7374 49.1819C66.3382 50.0584 66.5986 51.124 66.4698 52.1787C66.3409 53.2335 65.8317 54.205 65.0376 54.9111C64.2435 55.6172 63.2191 56.0094 62.1565 56.014H49.861C49.2873 56.0135 48.7193 55.9 48.1895 55.6798C47.6597 55.4596 47.1785 55.1371 46.7734 54.7307C46.3684 54.3244 46.0474 53.8422 45.8289 53.3116C45.6104 52.7811 45.4987 52.2127 45.5 51.639V49H38.5V51.639C38.5028 54.6513 39.7007 57.5394 41.8307 59.6694C43.9607 61.7994 46.8488 62.9972 49.861 63Z" fill="#B4EC51"/>
<path d="M75.103 113.638C72.6585 116.087 70.995 119.207 70.323 122.601C69.6509 125.996 70.0003 129.514 71.3272 132.71C72.654 135.906 74.8986 138.637 77.7773 140.557C80.656 142.478 84.0395 143.502 87.5 143.5H94.5V136.5H87.5C84.7153 136.5 82.0445 135.394 80.0754 133.425C78.1063 131.455 77 128.785 77 126C77 123.215 78.1063 120.545 80.0754 118.575C82.0445 116.606 84.7153 115.5 87.5 115.5H136.5C139.285 115.5 141.956 116.606 143.925 118.575C145.894 120.545 147 123.215 147 126C147 128.785 145.894 131.455 143.925 133.425C141.956 135.394 139.285 136.5 136.5 136.5H129.5V143.5H136.5C141.141 143.5 145.593 141.656 148.874 138.374C152.156 135.092 154 130.641 154 126C154 121.359 152.156 116.908 148.874 113.626C145.593 110.344 141.141 108.5 136.5 108.5H87.5C82.8505 108.504 78.3924 110.352 75.103 113.638Z" fill="#B4EC51"/>
<path d="M143.5 87.5H136.5V101.5H143.5V87.5Z" fill="#FFB321"/>
<path d="M162.027 92.0245L151.526 102.525L156.476 107.475L166.977 96.9742L162.027 92.0245Z" fill="#FFB321"/>
<path d="M175 115.5H161V122.5H175V115.5Z" fill="#FFB321"/>
<path d="M81.0531 193.697L102.967 209.346C103.56 209.77 104.271 209.999 105 210H161C161.928 210 162.819 209.631 163.475 208.975C164.131 208.319 164.5 207.428 164.5 206.5V168.375C164.532 165.843 163.673 163.381 162.074 161.419C160.474 159.457 158.236 158.119 155.75 157.64C154.241 157.39 152.696 157.471 151.222 157.879C149.748 158.286 148.38 159.01 147.214 159.999C147.144 160.055 147.077 160.115 147.007 160.178C145.084 158.451 142.591 157.497 140.007 157.497C137.423 157.497 134.93 158.451 133.007 160.178C131.584 158.956 129.87 158.123 128.03 157.758C126.191 157.394 124.289 157.51 122.507 158.095V136.5C122.54 133.969 121.681 131.506 120.081 129.544C118.482 127.581 116.243 126.244 113.757 125.766C112.251 125.511 110.707 125.588 109.234 125.991C107.761 126.395 106.393 127.115 105.227 128.101C104.06 129.088 103.123 130.317 102.481 131.703C101.838 133.089 101.506 134.598 101.507 136.126V182.819L92.2181 177.247C90.8233 176.404 89.237 175.93 87.6084 175.869C85.9798 175.807 84.3623 176.161 82.9081 176.897L82.3551 177.17C80.8629 177.917 79.5891 179.038 78.6574 180.423C77.7256 181.807 77.1675 183.409 77.0372 185.073C76.907 186.737 77.2089 188.406 77.9137 189.919C78.6186 191.432 79.7024 192.737 81.0601 193.708L81.0531 193.697ZM85.4841 183.421L86.0336 183.148C86.4354 182.944 86.8825 182.846 87.3326 182.864C87.7827 182.881 88.221 183.012 88.6061 183.246L103.198 191.996C103.728 192.315 104.334 192.487 104.953 192.496C105.573 192.504 106.183 192.348 106.722 192.043C107.261 191.738 107.71 191.296 108.022 190.762C108.334 190.227 108.499 189.619 108.5 189V136.126C108.5 135.618 108.611 135.117 108.824 134.656C109.038 134.196 109.349 133.787 109.736 133.459C110.126 133.121 110.587 132.876 111.085 132.74C111.583 132.605 112.105 132.582 112.613 132.675C113.461 132.883 114.211 133.377 114.737 134.074C115.263 134.77 115.533 135.627 115.5 136.5V168C115.5 168.928 115.869 169.819 116.525 170.475C117.182 171.131 118.072 171.5 119 171.5C119.928 171.5 120.819 171.131 121.475 170.475C122.131 169.819 122.5 168.928 122.5 168C122.5 167.072 122.869 166.182 123.525 165.525C124.182 164.869 125.072 164.5 126 164.5C126.928 164.5 127.819 164.869 128.475 165.525C129.131 166.182 129.5 167.072 129.5 168C129.5 168.928 129.869 169.819 130.525 170.475C131.182 171.131 132.072 171.5 133 171.5C133.928 171.5 134.819 171.131 135.475 170.475C136.131 169.819 136.5 168.928 136.5 168C136.5 167.072 136.869 166.182 137.525 165.525C138.182 164.869 139.072 164.5 140 164.5C140.928 164.5 141.819 164.869 142.475 165.525C143.131 166.182 143.5 167.072 143.5 168C143.5 168.928 143.869 169.819 144.525 170.475C145.182 171.131 146.072 171.5 147 171.5C147.928 171.5 148.819 171.131 149.475 170.475C150.131 169.819 150.5 168.928 150.5 168C150.5 167.492 150.61 166.99 150.824 166.529C151.037 166.067 151.348 165.658 151.736 165.33C152.127 164.994 152.589 164.75 153.086 164.616C153.584 164.481 154.105 164.46 154.613 164.553C155.46 164.76 156.211 165.253 156.737 165.95C157.263 166.646 157.532 167.502 157.5 168.375V203H106.12L85.1201 188.003C84.7431 187.735 84.4419 187.374 84.2455 186.955C84.0492 186.536 83.9646 186.074 83.9998 185.613C84.035 185.152 84.1889 184.708 84.4466 184.323C84.7042 183.939 85.0568 183.629 85.4701 183.421H85.4841Z" fill="#FFB321"/>
</g>
<defs>
<clipPath id="clip0">
<rect width="210" height="210" fill="white"/>
</clipPath>
</defs>
</svg>
