<svg width="31" height="30" viewBox="0 0 31 30" fill="none" xmlns="http://www.w3.org/2000/svg">
<path d="M1.5 1.5H29.25V28.5H1.5V1.5Z" fill="#313131"/>
<path d="M1.28123 1.28203H29.4688V28.7179H1.28123V1.28203ZM0 30H30.75V0H0V30ZM20.7306 12.3077C19.7184 12.3077 19.3725 12.8205 19.3725 13.2435C19.3725 13.7051 19.6031 14.0256 20.9613 14.7307C22.9728 15.7051 23.6007 16.641 23.6007 18.0128C23.6007 20.0641 22.0375 21.1666 19.9234 21.1666C18.8088 21.1666 17.8478 20.9358 17.2969 20.6154C17.2072 20.5769 17.1944 20.5128 17.1944 20.4102V18.5256C17.1944 18.3974 17.2584 18.3589 17.3482 18.423C18.1554 18.9487 19.0778 19.1795 19.9234 19.1795C20.9357 19.1795 21.3585 18.7564 21.3585 18.1794C21.3585 17.7179 21.0638 17.3077 19.7697 16.641C17.9503 15.7692 17.1944 14.8846 17.1944 13.4102C17.1944 11.7564 18.4885 10.3846 20.7306 10.3846C21.8325 10.3846 22.6013 10.5513 23.0241 10.7436C23.1266 10.8077 23.1522 10.9102 23.1522 10.9999V12.7563C23.1522 12.8589 23.0881 12.923 22.96 12.8845C22.3962 12.5256 21.5634 12.3077 20.7306 12.3077ZM9.71186 13.8333C10.0066 13.8589 10.2372 13.8589 10.7497 13.8589C12.2488 13.8589 13.6581 13.3333 13.6581 11.2949C13.6581 9.66669 12.6459 8.84614 10.9419 8.84614C10.4294 8.84614 9.94251 8.87177 9.71186 8.88459V13.8333ZM7.43128 7.02561C7.43128 6.93588 7.61069 6.87174 7.71312 6.87174C8.53317 6.83328 9.75035 6.80764 11.0188 6.80764C14.5678 6.80764 15.9515 8.75635 15.9515 11.2436C15.9515 14.4999 13.594 15.8974 10.6984 15.8974C10.2116 15.8974 10.045 15.8718 9.69905 15.8718V20.7948C9.69905 20.8974 9.66062 20.9487 9.54532 20.9487H7.58501C7.48253 20.9487 7.43123 20.9102 7.43123 20.7948V7.02561H7.43128Z" fill="white"/>
</svg>
