<svg width="38" height="30" viewBox="0 0 38 30" fill="none" xmlns="http://www.w3.org/2000/svg">
<path d="M20.1479 26.7019C20.0449 26.3928 19.9418 26.0322 19.8388 25.7231C19.0143 23.0445 18.3959 19.3872 18.0352 15.5238C17.4684 8.4151 18.0352 0.739812 20.251 0.533764C21.4877 0.43074 22.4668 2.80029 23.0851 4.75775C23.9096 7.43637 24.528 11.0937 24.8887 14.9571C25.4555 22.0658 24.8887 29.7411 22.6729 29.9471C21.5908 29.9986 20.7148 28.4018 20.1479 26.7019ZM22.2607 3.93356C21.4877 1.77005 20.7148 0.997372 20.251 1.04888C18.8597 1.15191 17.8291 7.1273 18.5505 15.4722C18.8597 19.3356 19.478 22.89 20.3025 25.5686C21.1785 28.5048 22.1061 29.4835 22.6214 29.432C24.0127 29.329 25.0433 23.3536 24.3219 15.0086C24.0127 11.1452 23.3943 7.59091 22.5698 4.91228C22.4668 4.5517 22.3637 4.19112 22.2607 3.93356Z" fill="#DDDDDD"/>
<path d="M13.1398 7.17883C12.5214 5.47893 12.1607 3.67601 13.0367 3.05787C14.8402 1.77007 20.1994 7.33337 24.2702 13.2057C26.486 16.3995 28.2896 19.5932 29.3717 22.2203C30.1446 24.1263 30.9176 26.5989 29.887 27.2685C28.0834 28.5563 22.7243 22.993 18.6535 17.1206C16.3861 13.9784 14.5826 10.7847 13.5005 8.15756C13.3459 7.84849 13.2428 7.53941 13.1398 7.17883ZM29.2686 23.4051C29.1656 23.096 29.0625 22.787 28.9079 22.4264C27.8258 19.8508 26.0223 16.7086 23.858 13.5148C19.0657 6.6122 14.4795 2.69728 13.3459 3.46996C12.9336 3.77904 12.8821 5.11835 14.0158 7.9C15.0979 10.4756 16.9014 13.6178 19.0657 16.8116C23.858 23.7142 28.4442 27.6291 29.5778 26.8564C29.9385 26.6504 30.0416 25.5686 29.2686 23.4051Z" fill="#DDDDDD"/>
<path d="M12.9338 18.3569L3.86455 21.6022L3.70996 27.4746L9.22367 25.4656L14.7889 23.4566L12.9338 18.3569Z" fill="white"/>
<path d="M11.0789 13.2057L5.51371 15.1631L0 17.1721L3.86475 21.6021L12.934 18.3569L11.0789 13.2057Z" fill="#DDDDDD"/>
<path d="M37.6677 9.44543C38.9044 12.7937 32.7208 18.0995 23.9092 21.2932C15.0976 24.4354 6.95584 24.2809 5.71912 20.9326C7.47114 25.8778 16.0766 27.3201 24.8883 24.1264C33.7514 20.9326 39.4713 14.3906 37.6677 9.44543Z" fill="#9F9F9F"/>
<path d="M23.9092 21.2932C32.7208 18.0995 38.9044 12.8452 37.6677 9.44543L5.71912 20.9326C6.95584 24.2809 15.0976 24.4354 23.9092 21.2932Z" fill="#BBBBBB"/>
<path d="M19.5298 9.08477C28.3414 5.89103 36.4831 6.09708 37.7198 9.44536C35.9678 4.5002 27.3623 3.05787 18.5507 6.25161C9.73907 9.44536 3.96771 15.9874 5.71973 20.9325C4.53454 17.5327 10.6666 12.227 19.5298 9.08477Z" fill="white"/>
<path d="M19.5299 9.08475C10.7182 12.2785 4.53465 17.5327 5.77137 20.9325L37.72 9.44534C36.4832 6.04554 28.3415 5.89101 19.5299 9.08475Z" fill="#DDDDDD"/>
<path d="M20.3025 25.5171C19.6326 23.3021 19.0657 20.4175 18.705 17.2752C22.7759 23.0961 28.0319 28.5563 29.8355 27.3201L29.5263 26.908C28.3927 27.6806 23.8065 23.7657 19.0142 16.8631C18.8596 16.6571 18.705 16.451 18.5504 16.245C18.5504 15.9874 18.4989 15.7299 18.4989 15.4723C17.829 7.12735 18.8596 1.15196 20.1994 1.04893L20.1479 0.533813C17.9321 0.739862 17.3652 8.26062 17.9321 15.3693C16.1801 12.7422 14.7887 10.1666 13.9127 8.00306C12.7275 5.16989 12.7791 3.83058 13.2428 3.57302L12.9337 3.16093C12.0577 3.77907 12.4699 5.58199 13.0367 7.28189C13.1398 7.59096 13.2944 7.95154 13.3974 8.26062C14.3765 10.6817 16.0255 13.5664 17.9836 16.5025C18.3443 20.0569 18.9111 23.3021 19.6841 25.7747C19.7872 26.0838 19.8902 26.4444 19.9933 26.7534C20.6116 28.4533 21.4876 30.0502 22.5182 29.9987L22.4667 29.4836C22.0545 29.4321 21.1785 28.4533 20.3025 25.5171Z" fill="white"/>
</svg>
