<svg width="32" height="32" viewBox="0 0 32 32" fill="none" xmlns="http://www.w3.org/2000/svg">
<path d="M29.0991 0H2.90088C1.29875 0 0 1.29875 0 2.90088V29.0991C0 30.7013 1.29875 32 2.90088 32H29.0991C30.7013 32 32 30.7013 32 29.0991V2.90088C32 1.29875 30.7013 0 29.0991 0Z" fill="white"/>
<path d="M10.7423 10.1426C11.8038 10.1426 12.693 9.31427 12.693 8.22868C12.693 7.14384 11.8038 6.31567 10.7423 6.31567C9.68088 6.31567 8.79192 7.14384 8.79192 8.22868C8.79192 9.31414 9.68088 10.1426 10.7423 10.1426ZM6.6978 20.3899C6.58317 20.8755 6.52567 21.3998 6.52567 21.8275C6.52567 23.5127 7.44357 24.6315 9.39425 24.6315C11.012 24.6315 12.3236 23.675 13.2679 22.1306L12.6913 24.4345H15.9037L17.7398 17.103C18.1988 15.2468 19.088 14.2832 20.4364 14.2832C21.4977 14.2832 22.1574 14.9404 22.1574 16.0252C22.1574 16.3395 22.1287 16.6819 22.014 17.0533L21.0673 20.4232C20.9238 20.9088 20.8667 21.3946 20.8667 21.8512C20.8667 23.451 21.813 24.6212 23.7924 24.6212C25.4849 24.6212 26.833 23.5364 27.5789 20.9375L26.3168 20.4524C25.6857 22.1935 25.1406 22.5083 24.7103 22.5083C24.28 22.5083 24.0505 22.223 24.0505 21.6521C24.0505 21.3951 24.1081 21.1098 24.1939 20.7663L25.112 17.4832C25.3414 16.7123 25.4276 16.0287 25.4276 15.4006C25.4276 12.9446 23.9358 11.6628 22.1287 11.6628C20.4364 11.6628 18.7151 13.1826 17.8547 14.7822L18.4856 11.9111H13.5806L12.8921 14.44H15.187L13.7738 20.0728C12.6641 22.5288 10.6256 22.5687 10.3698 22.5117C9.94968 22.4173 9.681 22.2585 9.681 21.7151C9.681 21.4015 9.73838 20.9511 9.88182 20.4081L12.0334 11.9111H6.58317L5.89465 14.44H8.16065L6.69792 20.3899" fill="#313131"/>
</svg>
