<svg width="32" height="32" viewBox="0 0 32 32" fill="none" xmlns="http://www.w3.org/2000/svg">
<path d="M28.875 0H3.125C1.39911 0 0 1.39911 0 3.125V28.875C0 30.6009 1.39911 32 3.125 32H28.875C30.6009 32 32 30.6009 32 28.875V3.125C32 1.39911 30.6009 0 28.875 0Z" fill="url(#paint0_linear)"/>
<path d="M26.34 4.15991H19.58C18.7515 4.15991 18.08 4.83148 18.08 5.65991V16.6599C18.08 17.4883 18.7515 18.1599 19.58 18.1599H26.34C27.1684 18.1599 27.84 17.4883 27.84 16.6599V5.65991C27.84 4.83148 27.1684 4.15991 26.34 4.15991Z" fill="#313131"/>
<path d="M12.4199 4.15991H5.65991C4.83148 4.15991 4.15991 4.83148 4.15991 5.65991V24.6599C4.15991 25.4883 4.83148 26.1599 5.65991 26.1599H12.4199C13.2483 26.1599 13.9199 25.4883 13.9199 24.6599V5.65991C13.9199 4.83148 13.2483 4.15991 12.4199 4.15991Z" fill="#313131"/>
<defs>
<linearGradient id="paint0_linear" x1="16" y1="0" x2="16" y2="32" gradientUnits="userSpaceOnUse">
<stop stop-color="white"/>
<stop offset="1" stop-color="#F3F3F3"/>
</linearGradient>
</defs>
</svg>
