<svg width="41" height="30" viewBox="0 0 41 30" fill="none" xmlns="http://www.w3.org/2000/svg">
<path d="M35.3042 17.2458C33.8738 17.2531 32.6307 17.5892 31.5898 18.0861C31.2078 17.3481 30.8259 16.6905 30.7585 16.2083C30.6836 15.6457 30.5938 15.3022 30.6836 14.63C30.7735 13.9578 31.1779 13.0006 31.1704 12.9275C31.1629 12.8545 31.0805 12.5111 30.2568 12.5038C29.433 12.4964 28.7215 12.6572 28.6392 12.8691C28.5568 13.081 28.3995 13.5632 28.2947 14.0601C28.1524 14.7908 26.6471 17.3993 25.7859 18.7656C25.5088 18.2322 25.2692 17.7646 25.2168 17.392C25.1419 16.8293 25.052 16.4859 25.1419 15.8137C25.2318 15.1415 25.6362 14.1843 25.6287 14.1112C25.6212 14.0382 25.5388 13.6948 24.715 13.6874C23.8913 13.6801 23.1798 13.8409 23.0975 14.0528C23.0151 14.2647 22.9252 14.7615 22.753 15.2438C22.5807 15.726 20.5812 20.0808 20.057 21.2061C19.7874 21.7833 19.5552 22.2436 19.3905 22.5578C19.3905 22.5578 19.383 22.5797 19.3605 22.6163C19.2182 22.8866 19.1359 23.0328 19.1359 23.0328C19.1359 23.0328 19.1359 23.0328 19.1359 23.0401C19.0235 23.2374 18.9037 23.42 18.8438 23.42C18.7989 23.42 18.7165 22.8939 18.8588 22.1779C19.1583 20.6654 19.8698 18.3126 19.8623 18.2322C19.8623 18.1884 19.9971 17.7792 19.398 17.5673C18.8139 17.3554 18.6042 17.7062 18.5517 17.7062C18.4993 17.7062 18.4619 17.8304 18.4619 17.8304C18.4619 17.8304 19.1134 15.1853 17.2187 15.1853C16.0355 15.1853 14.4029 16.4494 13.5942 17.5892C13.0849 17.8596 11.999 18.4368 10.8383 19.0579C10.3964 19.299 9.93961 19.5401 9.51275 19.7667C9.4828 19.7374 9.45284 19.7009 9.42289 19.6717C7.13131 17.2824 2.89264 15.5945 3.07238 12.3868C3.13977 11.2178 3.55166 8.14894 11.2127 4.4225C17.5183 1.39021 22.5358 2.23048 23.4045 4.0937C24.6476 6.75335 20.716 11.6927 14.2007 12.4088C11.7145 12.6791 10.4114 11.7439 10.0819 11.3931C9.73742 11.0278 9.68499 11.0059 9.55768 11.0789C9.348 11.1885 9.4828 11.5173 9.55768 11.7073C9.75239 12.2042 10.5537 13.081 11.9092 13.5121C13.1074 13.892 16.0205 14.1039 19.5478 12.7741C23.4944 11.2835 26.5798 7.14061 25.6736 3.66991C24.7675 0.148062 18.7764 -1.01371 13.1074 0.951803C9.73742 2.12088 6.08288 3.96218 3.4543 6.35879C0.331471 9.20842 -0.16279 11.6854 0.0394076 12.723C0.765822 16.4056 5.97054 18.8022 8.05243 20.5777C7.94759 20.6362 7.85024 20.6873 7.76786 20.7311C6.72691 21.2353 2.75785 23.2593 1.76932 25.4001C0.646001 27.826 1.94905 29.565 2.81027 29.7988C5.48377 30.5222 8.23217 29.2216 9.70746 27.0734C11.1828 24.9252 11.003 22.134 10.3215 20.8554C10.3141 20.8407 10.3066 20.8261 10.2916 20.8115C10.5612 20.6581 10.8383 20.4973 11.1079 20.3439C11.6396 20.037 12.1638 19.752 12.6131 19.5182C12.3585 20.1978 12.1713 21.0088 12.0814 22.1779C11.9691 23.5515 12.5457 25.3344 13.3021 26.0358C13.6391 26.3427 14.036 26.35 14.2906 26.35C15.1743 26.35 15.5712 25.634 16.013 24.7864C16.5522 23.7488 17.039 22.5432 17.039 22.5432C17.039 22.5432 16.4324 25.802 18.0799 25.802C18.6791 25.802 19.2856 25.0421 19.5552 24.6549V24.6622C19.5552 24.6622 19.5702 24.6402 19.6002 24.5891C19.6601 24.4941 19.6975 24.4357 19.6975 24.4357V24.421C19.9372 24.0119 20.4764 23.0839 21.2777 21.5422C22.3111 19.5548 23.3071 17.0705 23.3071 17.0705C23.3071 17.0705 23.397 17.6769 23.704 18.6853C23.8838 19.2771 24.2582 19.9274 24.5578 20.5558C24.3181 20.8846 24.1684 21.0673 24.1684 21.0673C24.1684 21.0673 24.1684 21.0673 24.1758 21.0746C23.9811 21.323 23.7714 21.5933 23.5393 21.8564C22.723 22.8063 21.7495 23.895 21.6147 24.2091C21.4574 24.5818 21.4948 24.8521 21.7944 25.0713C22.0116 25.2321 22.401 25.254 22.7979 25.2321C23.5318 25.1809 24.0485 25.0056 24.3032 24.896C24.7001 24.7572 25.1644 24.5453 25.5987 24.2311C26.4 23.6538 26.8868 22.8282 26.8419 21.7395C26.8194 21.1403 26.6172 20.5412 26.3701 19.9785C26.445 19.8763 26.5124 19.774 26.5872 19.6717C27.8528 17.8669 28.8339 15.8868 28.8339 15.8868C28.8339 15.8868 28.9237 16.4932 29.2308 17.5016C29.3806 18.013 29.6876 18.5683 29.9572 19.109C28.7665 20.0516 28.0326 21.1476 27.7705 21.8637C27.2987 23.1935 27.6656 23.7927 28.3621 23.9315C28.6766 23.9973 29.1259 23.8511 29.4555 23.7123C29.8748 23.5808 30.3691 23.3543 30.8409 23.0182C31.6422 22.4409 32.4135 21.6372 32.3686 20.5485C32.3461 20.0516 32.2113 19.5621 32.0241 19.0871C33.0351 18.6779 34.3382 18.4514 36.0007 18.6414C39.5653 19.0506 40.2693 21.2207 40.1345 22.134C39.9997 23.0474 39.2508 23.5442 39.0037 23.6977C38.7566 23.8511 38.6742 23.9023 38.6966 24.0119C38.7266 24.1726 38.8464 24.1653 39.0561 24.1361C39.3482 24.0849 40.9283 23.3981 40.9957 21.7176C41.108 19.5694 39.0112 17.2239 35.3042 17.2458ZM7.8053 26.2916C6.62207 27.5483 4.97453 28.0233 4.2631 27.6214C3.49924 27.1903 3.79879 25.3344 5.25162 24.0046C6.1353 23.1935 7.2736 22.4409 8.02997 21.9806C8.20221 21.8783 8.45683 21.7322 8.76387 21.5495C8.81629 21.5203 8.84625 21.5057 8.84625 21.5057C8.90616 21.4691 8.96607 21.4326 9.02598 21.3961C9.55768 23.2958 9.04845 24.969 7.8053 26.2916ZM16.4174 20.5777C16.0055 21.5568 15.1443 24.063 14.6201 23.9242C14.1708 23.8073 13.8937 21.9075 14.5303 20.0297C14.8523 19.0871 15.5338 17.9619 15.9307 17.5235C16.5747 16.822 17.2861 16.5882 17.4584 16.8732C17.6756 17.2458 16.6721 19.9639 16.4174 20.5777ZM23.5243 23.895C23.3521 23.9826 23.1873 24.0411 23.1124 23.9973C23.06 23.968 23.1873 23.8511 23.1873 23.8511C23.1873 23.8511 24.0785 22.9159 24.4305 22.4921C24.6327 22.2436 24.8723 21.9514 25.1269 21.6226V21.7176C25.1269 22.8355 24.0186 23.5881 23.5243 23.895ZM29.0061 22.6747C28.8788 22.5871 28.9013 22.2948 29.3281 21.3814C29.4929 21.0234 29.8823 20.4243 30.5488 19.847C30.6237 20.0808 30.6761 20.3074 30.6686 20.5192C30.6612 21.9294 29.6277 22.4555 29.0061 22.6747Z" fill="white"/>
</svg>
