<svg width="36" height="32" viewBox="0 0 36 32" fill="none" xmlns="http://www.w3.org/2000/svg">
<path d="M14.0658 21.2075H21.4892L23.281 10.7373H12.0919L14.0658 21.2075Z" fill="#313131"/>
<path d="M1.15389 9.53202e-05C0.987621 -0.00205658 0.822895 0.0322505 0.671282 0.100607C0.51967 0.168964 0.384848 0.269713 0.276285 0.395778C0.167721 0.521843 0.0880495 0.670168 0.0428641 0.830336C-0.00232132 0.990503 -0.0119244 1.15863 0.0147292 1.32291L4.85069 30.7057C4.91092 31.0653 5.09583 31.3921 5.37292 31.6288C5.65 31.8655 6.00156 31.9969 6.36582 31.9999H29.5657C29.8388 32.0034 30.104 31.9086 30.313 31.7328C30.5221 31.557 30.6611 31.3119 30.7048 31.0421L35.5409 1.32861C35.5675 1.16434 35.5578 0.99623 35.5126 0.836087C35.4674 0.675944 35.3877 0.527648 35.2791 0.401612C35.1706 0.275577 35.0357 0.174857 34.8841 0.106526C34.7325 0.0381941 34.5678 0.00390729 34.4016 0.00607272L1.15389 9.53202e-05ZM21.5172 21.2363H14.1123L12.1073 10.7522H23.3115L21.5172 21.2363Z" fill="white"/>
<path d="M33.9734 10.7374H23.2907L21.4978 21.2132H14.0989L5.36255 31.592C5.63945 31.8316 5.99248 31.9649 6.35852 31.9679H29.5457C29.8185 31.9714 30.0835 31.8767 30.2925 31.7011C30.5014 31.5255 30.6403 31.2805 30.684 31.011L33.9734 10.7374Z" fill="url(#paint0_linear)"/>
<defs>
<linearGradient id="paint0_linear" x1="11.9997" y1="32" x2="31.7433" y2="4.69638" gradientUnits="userSpaceOnUse">
<stop offset="0.18" stop-color="white"/>
<stop offset="1" stop-color="#8A8A8A"/>
</linearGradient>
</defs>
</svg>
