<svg width="21" height="32" viewBox="0 0 21 32" fill="none" xmlns="http://www.w3.org/2000/svg">
<path d="M5.25 32C8.1495 32 10.5 29.6495 10.5 26.75V21.5H5.25C2.3505 21.5 0 23.8505 0 26.75C0 29.6495 2.3505 32 5.25 32Z" fill="#B6B6B6"/>
<path d="M0 16.25C0 13.3505 2.3505 11 5.25 11H10.5V21.5H5.25C2.3505 21.5 0 19.1495 0 16.25Z" fill="#E0E0E0"/>
<path d="M0 5.75C0 2.8505 2.3505 0.5 5.25 0.5H10.5V11H5.25C2.3505 11 0 8.6495 0 5.75Z" fill="white"/>
<path d="M10.5 0.5H15.75C18.6495 0.5 21 2.8505 21 5.75C21 8.6495 18.6495 11 15.75 11H10.5V0.5Z" fill="#EAEAEA"/>
<path d="M21 16.25C21 19.1495 18.6495 21.5 15.75 21.5C12.8505 21.5 10.5 19.1495 10.5 16.25C10.5 13.3505 12.8505 11 15.75 11C18.6495 11 21 13.3505 21 16.25Z" fill="white"/>
</svg>
