<svg width="210" height="210" viewBox="0 0 210 210" fill="none" xmlns="http://www.w3.org/2000/svg">
<path d="M209.965 42.0274C209.953 32.3698 202.127 24.5422 192.468 24.5303H188.968V31.5291H192.468C198.266 31.5291 202.966 36.2297 202.966 42.0274V140.011H160.973V147.01H202.966L202.99 154.009C202.993 156.579 202.05 159.06 200.342 160.98L205.57 165.635C208.425 162.436 210.003 158.298 209.999 154.009L209.965 143.51V42.0274Z" fill="#FFB321"/>
<path d="M17.4971 171.506H82.4926L71.0375 203.001H59.4901V209.999H111.981V203.001H78.4857L89.9357 171.506H125.979V164.507H17.4971C11.6995 164.507 6.99883 159.806 6.99883 154.009V147.01H125.979V140.011H6.99883V42.0274C6.99883 36.2297 11.6995 31.5291 17.4971 31.5291H20.9965V24.5303H17.4971C7.83781 24.5422 0.0119609 32.3698 0 42.0274V154.009C0.0119609 163.668 7.83781 171.494 17.4971 171.506Z" fill="#FFB321"/>
<path d="M181.994 133.012V17.5318C181.983 7.87418 174.156 0.0466288 164.497 0.034668H45.5164C35.8588 0.0466288 28.0312 7.87418 28.0193 17.5318V133.012H35.0181V17.5318C35.0181 11.7341 39.7188 7.0335 45.5164 7.0335H164.497C170.296 7.0335 174.995 11.7341 174.995 17.5318V133.012H181.994Z" fill="#B4EC51"/>
<path d="M41.9998 14.0322H48.9986V21.0311H41.9998V14.0322Z" fill="#FFB321"/>
<path d="M55.9975 14.0322H62.9963V21.0311H55.9975V14.0322Z" fill="#FFB321"/>
<path d="M69.9952 14.0322H76.994V21.0311H69.9952V14.0322Z" fill="#FFB321"/>
<path d="M125.979 122.514C131.777 122.514 136.477 117.813 136.477 112.016V90.2503L147.823 87.4156C149.381 87.026 150.475 85.6266 150.475 84.0204V70.0228C150.475 68.4166 149.381 67.0172 147.823 66.6293L136.477 63.7945V42.0274C136.438 36.7082 132.424 32.2588 127.137 31.671C121.849 31.0849 116.959 34.5467 115.754 39.7292L76.1618 59.5245H59.49C50.3263 59.5074 42.7072 66.578 42.0442 75.7196C41.3795 84.8594 47.8965 92.9569 56.9663 94.2641L66.7093 120.247C67.2236 121.612 68.5291 122.516 69.9883 122.514H83.986C85.1342 122.516 86.2107 121.952 86.8651 121.009C87.5196 120.064 87.6699 118.859 87.265 117.783L79.0871 95.9813L115.754 114.316C116.827 119.102 121.073 122.505 125.979 122.514ZM143.476 72.7567V81.2882L136.477 83.0379V71.007L143.476 72.7567ZM125.979 38.528C127.911 38.528 129.478 40.0949 129.478 42.0274V112.016C129.478 113.948 127.911 115.515 125.979 115.515C124.046 115.515 122.48 113.948 122.48 112.016V42.0274C122.48 40.0949 124.046 38.528 125.979 38.528ZM48.9918 77.0216C48.9918 71.224 53.6924 66.5233 59.49 66.5233H73.4877V87.5198H59.49C53.6924 87.5198 48.9918 82.8192 48.9918 77.0216ZM72.4129 115.515L64.5393 94.5187H71.0631L78.9368 115.515H72.4129ZM80.4865 65.1871L115.481 47.6901V106.355L80.4865 88.8578V65.1871Z" fill="#B4EC50"/>
<path d="M144.875 114.818L149.072 109.222L163.071 119.717L158.875 125.315L144.875 114.818Z" fill="#FFB321"/>
<path d="M144.877 39.2251L158.877 28.7285L163.073 34.3262L149.072 44.8211L144.877 39.2251Z" fill="#FFB321"/>
<path d="M153.123 97.9122L154.82 91.127L168.818 94.6264L167.121 101.412L153.123 97.9122Z" fill="#FFB321"/>
<path d="M153.123 56.1313L167.121 52.6318L168.818 59.4188L154.82 62.9182L153.123 56.1313Z" fill="#FFB321"/>
<path d="M187.219 157.649C184.165 157.143 181.044 158.006 178.684 160.008C178.614 160.063 178.547 160.123 178.477 160.186C174.496 156.611 168.461 156.611 164.479 160.186C161.585 157.703 157.604 156.914 153.981 158.103V140.011C153.981 134.214 149.281 129.513 143.483 129.513C137.685 129.513 132.985 134.214 132.985 140.011V182.823L123.698 177.253C120.861 175.539 117.345 175.407 114.389 176.902L113.835 177.176C110.801 178.696 108.784 181.693 108.519 185.077C108.255 188.462 109.78 191.737 112.542 193.711L134.451 209.356C135.044 209.776 135.751 210.001 136.477 210H192.468C194.4 210 195.967 208.433 195.967 206.5V168.381C196.032 163.157 192.348 158.638 187.219 157.649ZM188.968 203.001H137.596L116.6 188.007C115.834 187.462 115.409 186.555 115.481 185.617C115.552 184.679 116.11 183.848 116.95 183.426L117.5 183.153C118.317 182.739 119.289 182.775 120.072 183.25L134.661 191.999C135.742 192.656 137.094 192.677 138.194 192.057C139.297 191.436 139.978 190.268 139.977 189.003V140.011C139.977 138.079 141.544 136.512 143.476 136.512C145.409 136.512 146.975 138.079 146.975 140.011V168.007C146.975 169.939 148.542 171.506 150.475 171.506C152.407 171.506 153.974 169.939 153.974 168.007C153.974 166.074 155.541 164.507 157.474 164.507C159.406 164.507 160.973 166.074 160.973 168.007C160.973 169.939 162.54 171.506 164.473 171.506C166.405 171.506 167.972 169.939 167.972 168.007C167.972 166.074 169.539 164.507 171.471 164.507C173.404 164.507 174.971 166.074 174.971 168.007C174.971 169.939 176.538 171.506 178.47 171.506C180.403 171.506 181.97 169.939 181.97 168.007C181.97 166.971 182.428 165.989 183.22 165.324C184.015 164.659 185.062 164.379 186.081 164.56C187.829 164.987 189.035 166.583 188.968 168.381V203.001Z" fill="#FFB321"/>
</svg>
