<svg width="210" height="210" viewBox="0 0 210 210" fill="none" xmlns="http://www.w3.org/2000/svg">
<path d="M192.5 0H17.5C7.8505 0 0 7.8505 0 17.5V126V140C0 149.65 7.8505 157.5 17.5 157.5H76.307L70.581 189H56.8295C52.8255 189 49.2275 191.223 47.4355 194.803C45.7975 198.083 45.969 201.901 47.894 205.02C49.819 208.138 53.1615 210 56.826 210H153.171C156.835 210 160.174 208.138 162.102 205.02C164.031 201.901 164.202 198.083 162.561 194.803C160.776 191.223 157.178 189 153.174 189H139.423L133.697 157.5H192.5C202.15 157.5 210 149.65 210 140V126V17.5C210 7.8505 202.15 0 192.5 0ZM136.5 196H153.174C154.508 196 155.708 196.742 156.307 197.936C157.094 199.51 156.461 200.84 156.156 201.341C155.841 201.838 154.934 203 153.174 203H56.826C55.0655 203 54.1555 201.838 53.8475 201.338C53.5395 200.837 52.906 199.51 53.697 197.932C54.292 196.742 55.4925 196 56.826 196H73.5H101.5C103.432 196 105 194.432 105 192.5C105 190.568 103.432 189 101.5 189H77.693L83.419 157.5H126.577L132.307 189H122.5C120.568 189 119 190.568 119 192.5C119 194.432 120.568 196 122.5 196H136.5ZM203 140C203 145.789 198.289 150.5 192.5 150.5H129.5H80.5H17.5C11.711 150.5 7 145.789 7 140V129.5H203V140ZM203 122.5H7V17.5C7 11.711 11.711 7 17.5 7H192.5C198.289 7 203 11.711 203 17.5V122.5Z" fill="#FFB321"/>
<path d="M94.5 70H59.5V35C59.5 33.068 57.932 31.5 56 31.5C32.8405 31.5 14 50.3405 14 73.5C14 96.6595 32.8405 115.5 56 115.5C79.1595 115.5 98 96.6595 98 73.5C98 71.568 96.432 70 94.5 70ZM56 108.5C36.701 108.5 21 92.799 21 73.5C21 55.384 34.839 40.4355 52.5 38.675V73.5C52.5 75.432 54.068 77 56 77H90.825C89.0645 94.661 74.116 108.5 56 108.5Z" fill="#B4EC51"/>
<path d="M70 17.5C68.068 17.5 66.5 19.068 66.5 21V59.5C66.5 61.432 68.068 63 70 63H108.5C110.432 63 112 61.432 112 59.5C112 36.3405 93.1595 17.5 70 17.5ZM73.5 56V24.675C90.0095 26.32 103.18 39.4905 104.825 56H73.5Z" fill="#B4EC51"/>
<path d="M192.5 14H122.5C120.568 14 119 15.568 119 17.5V112C119 113.932 120.568 115.5 122.5 115.5H192.5C194.432 115.5 196 113.932 196 112V17.5C196 15.568 194.432 14 192.5 14ZM189 108.5H126V21H189V108.5Z" fill="#FFB321"/>
<path d="M157.5 31.5H136.5C134.568 31.5 133 33.068 133 35C133 36.932 134.568 38.5 136.5 38.5H157.5C159.432 38.5 161 36.932 161 35C161 33.068 159.432 31.5 157.5 31.5Z" fill="#B4EC51"/>
<path d="M178.5 45.5H136.5C134.568 45.5 133 47.068 133 49C133 50.932 134.568 52.5 136.5 52.5H178.5C180.432 52.5 182 50.932 182 49C182 47.068 180.432 45.5 178.5 45.5Z" fill="#B4EC51"/>
<path d="M157.5 59.5H136.5C134.568 59.5 133 61.068 133 63C133 64.932 134.568 66.5 136.5 66.5H157.5C159.432 66.5 161 64.932 161 63C161 61.068 159.432 59.5 157.5 59.5Z" fill="#B4EC51"/>
<path d="M178.5 73.5H136.5C134.568 73.5 133 75.068 133 77C133 78.932 134.568 80.5 136.5 80.5H178.5C180.432 80.5 182 78.932 182 77C182 75.068 180.432 73.5 178.5 73.5Z" fill="#B4EC51"/>
<path d="M157.5 87.5H136.5C134.568 87.5 133 89.068 133 91C133 92.932 134.568 94.5 136.5 94.5H157.5C159.432 94.5 161 92.932 161 91C161 89.068 159.432 87.5 157.5 87.5Z" fill="#B4EC51"/>
<path d="M112 136.5H98C96.068 136.5 94.5 138.068 94.5 140C94.5 141.932 96.068 143.5 98 143.5H112C113.932 143.5 115.5 141.932 115.5 140C115.5 138.068 113.932 136.5 112 136.5Z" fill="#B4EC51"/>
</svg>
