<svg width="50" height="50" viewBox="0 0 50 50" fill="none" xmlns="http://www.w3.org/2000/svg">
<path fill-rule="evenodd" clip-rule="evenodd" d="M46.0537 20.1832H12.7361L44.738 10.9127C44.9867 10.8406 45.1965 10.6724 45.3216 10.4458C45.4468 10.2188 45.4765 9.95178 45.4044 9.70306L43.7298 3.92189C43.0607 1.61285 40.9107 0 38.5013 0C37.9936 0 37.4878 0.0720978 36.9972 0.214004L6.95074 8.918C5.56105 9.32045 4.40939 10.2444 3.70711 11.5189C3.0052 12.7934 2.84041 14.2609 3.24286 15.6502L4.87898 21.2982V44.5652C4.87898 47.562 7.31695 50 10.3134 50H22.0482C22.5876 50 23.0247 49.5628 23.0247 49.0234C23.0247 48.484 22.5876 48.0469 22.0482 48.0469H10.3138C8.39384 48.0469 6.83211 46.4851 6.83211 44.5652V31.2756H11.8351H11.8374H11.8393H19.487H19.4893H19.4916H27.1393H27.1416H27.1438H34.7915H34.7938H34.7957H45.0771V44.5652C45.0771 46.4851 43.5154 48.0469 41.5954 48.0469H29.8607C29.3217 48.0469 28.8841 48.484 28.8841 49.0234C28.8841 49.5628 29.3217 50 29.8607 50H41.5954C44.5923 50 47.0302 47.562 47.0302 44.5652V21.1597C47.0302 20.6203 46.5931 20.1832 46.0537 20.1832ZM28.8338 29.3224L32.983 22.1363H38.3797L34.2308 29.3224H28.8338ZM21.1815 29.3224L25.3307 22.1363H30.7274L26.5785 29.3224H21.1815ZM13.5296 29.3224L17.6784 22.1363H23.0755L18.9262 29.3224H13.5296ZM17.1604 16.6801L10.2123 10.0067L15.4182 8.49876C15.4548 8.55217 15.4976 8.60252 15.5464 8.64944L22.4945 15.3229L17.2886 16.8308C17.252 16.7774 17.2088 16.7267 17.1604 16.6801ZM30.2463 4.3911L37.1944 11.0645L31.9885 12.5725C31.9519 12.5191 31.9092 12.4683 31.8603 12.4218L24.9122 5.74837L30.1182 4.24042C30.1548 4.29382 30.1975 4.34418 30.2463 4.3911ZM22.8962 6.52046L29.8443 13.1935L24.6384 14.7018C24.6017 14.6484 24.559 14.5977 24.5102 14.5512L17.5621 7.87773L22.768 6.36978C22.805 6.42281 22.8477 6.47354 22.8962 6.52046ZM37.5408 2.09007C37.8544 1.99928 38.1775 1.95312 38.5013 1.95312C40.0467 1.95312 41.4249 2.98615 41.8537 4.46548L43.2567 9.30824L39.3387 10.4431C39.3017 10.3897 39.2589 10.3394 39.2101 10.2924L32.2624 3.61938L37.5408 2.09007ZM5.418 12.4611C5.86813 11.6436 6.60551 11.0516 7.49434 10.7941L8.06807 10.6277C8.10507 10.6812 8.1478 10.7319 8.19624 10.7784L15.1443 17.4519L6.52197 19.9497L5.11893 15.107C4.86143 14.2185 4.96786 13.279 5.418 12.4611ZM6.83211 22.1363H15.4232L11.2743 29.3224H6.83211V22.1363ZM36.486 29.3224L40.6349 22.1363H45.0771V29.3224H36.486Z" fill="white"/>
<path fill-rule="evenodd" clip-rule="evenodd" d="M32.7073 39.5619C32.7073 39.2129 32.5212 38.8905 32.219 38.7162L23.6394 33.7628C23.3373 33.5885 22.965 33.5885 22.6628 33.7628C22.3607 33.9372 22.1746 34.2595 22.1746 34.6085V44.5153C22.1746 44.864 22.3607 45.1863 22.6628 45.3607C22.8139 45.448 22.9825 45.4919 23.1511 45.4919C23.3197 45.4919 23.4883 45.448 23.6394 45.3607L32.219 40.4076C32.5212 40.2333 32.7073 39.911 32.7073 39.5619ZM24.1277 42.8239V36.3L29.7776 39.5619L24.1277 42.8239Z" fill="white"/>
<path fill-rule="evenodd" clip-rule="evenodd" d="M25.9545 48.0469C25.4166 48.0469 24.9779 48.4856 24.9779 49.0234C24.9779 49.5613 25.4166 50 25.9545 50C26.4927 50 26.931 49.5613 26.931 49.0234C26.931 48.4856 26.4927 48.0469 25.9545 48.0469Z" fill="white"/>
</svg>
