<svg width="128" height="128" viewBox="0 0 128 128" fill="none" xmlns="http://www.w3.org/2000/svg"><mask id="a" maskUnits="userSpaceOnUse" x="12" y="0" width="104" height="128"><path d="M104.533 0H23.467C17.579.007 12.807 4.779 12.8 10.667v57.6c.007 5.888 4.779 10.66 10.667 10.666h29.17L49.593 89.6h-6.925v4.267h42.666V89.6H78.41l-3.047-10.667h29.171c5.888-.007 10.66-4.778 10.667-10.666v-57.6C115.193 4.779 110.421.007 104.533 0zM54.029 89.6l3.046-10.667h13.85L73.97 89.6H54.03zm56.904-21.333a6.4 6.4 0 0 1-6.4 6.4H23.467a6.4 6.4 0 0 1-6.4-6.4V64h93.866v4.267zm0-8.534H17.067V10.667a6.4 6.4 0 0 1 6.4-6.4h81.066a6.4 6.4 0 0 1 6.4 6.4v49.066zm-29.866 38.4H21.333a2.133 2.133 0 0 0-2.133 2.134v25.6c0 1.178.955 2.133 2.133 2.133h59.734a2.133 2.133 0 0 0 2.133-2.133v-25.6a2.133 2.133 0 0 0-2.133-2.134zm-2.134 25.6H23.467V102.4h55.466v21.333z" fill="#97D644"/><path d="M32 115.2h-4.267v4.267H32V115.2zm0-8.533h-4.267v4.266H32v-4.266zm8.533 0h-4.266v4.266h4.266v-4.266zm8.534 0H44.8v4.266h4.267v-4.266zm17.066 0h-4.266v4.266h4.266v-4.266zm-8.533 0h-4.267v4.266H57.6v-4.266zm17.067 8.533H70.4v4.267h4.267V115.2zm0-8.533H70.4v4.266h4.267v-4.266zm-8.534 8.533H36.267v4.267h29.866V115.2zm32-17.067c-5.89 0-10.666 4.776-10.666 10.667v8.533c0 5.891 4.775 10.667 10.666 10.667s10.667-4.776 10.667-10.667V108.8c0-5.891-4.776-10.667-10.667-10.667zm6.4 19.2a6.4 6.4 0 1 1-12.8 0V108.8a6.4 6.4 0 1 1 12.8 0v8.533z" fill="#97D644"/><path d="M100.267 106.667H96v4.266h4.267v-4.266zM66.206 18.658l-8.541 29.85 4.1 1.173 8.541-29.85-4.1-1.173zm-13.641 6.447l-2.73-3.277-12.8 10.667a2.133 2.133 0 0 0 0 3.277l12.8 10.666 2.73-3.276-10.833-9.029 10.833-9.028zm38.672 7.662a2.131 2.131 0 0 0-.272-.272l-12.8-10.667-2.73 3.277 10.833 9.028-10.833 9.029 2.73 3.276 12.8-10.666a2.133 2.133 0 0 0 .272-3.005z" fill="#97D644"/></mask><g mask="url(#a)"><path d="M104.533 0H23.467C17.579.007 12.807 4.779 12.8 10.667v57.6c.007 5.888 4.779 10.66 10.667 10.666h29.17L49.593 89.6h-6.925v4.267h42.666V89.6H78.41l-3.047-10.667h29.171c5.888-.007 10.66-4.778 10.667-10.666v-57.6C115.193 4.779 110.421.007 104.533 0zM54.029 89.6l3.046-10.667h13.85L73.97 89.6H54.03zm56.904-21.333a6.4 6.4 0 0 1-6.4 6.4H23.467a6.4 6.4 0 0 1-6.4-6.4V64h93.866v4.267zm0-8.534H17.067V10.667a6.4 6.4 0 0 1 6.4-6.4h81.066a6.4 6.4 0 0 1 6.4 6.4v49.066zm-29.866 38.4H21.333a2.133 2.133 0 0 0-2.133 2.134v25.6c0 1.178.955 2.133 2.133 2.133h59.734a2.133 2.133 0 0 0 2.133-2.133v-25.6a2.133 2.133 0 0 0-2.133-2.134zm-2.134 25.6H23.467V102.4h55.466v21.333z" fill="#97D644"/><path d="M32 115.2h-4.267v4.267H32V115.2zm0-8.533h-4.267v4.266H32v-4.266zm8.533 0h-4.266v4.266h4.266v-4.266zm8.534 0H44.8v4.266h4.267v-4.266zm17.066 0h-4.266v4.266h4.266v-4.266zm-8.533 0h-4.267v4.266H57.6v-4.266zm17.067 8.533H70.4v4.267h4.267V115.2zm0-8.533H70.4v4.266h4.267v-4.266zm-8.534 8.533H36.267v4.267h29.866V115.2zm32-17.067c-5.89 0-10.666 4.776-10.666 10.667v8.533c0 5.891 4.775 10.667 10.666 10.667s10.667-4.776 10.667-10.667V108.8c0-5.891-4.776-10.667-10.667-10.667zm6.4 19.2a6.4 6.4 0 1 1-12.8 0V108.8a6.4 6.4 0 1 1 12.8 0v8.533z" fill="#97D644"/><path d="M100.267 106.667H96v4.266h4.267v-4.266zM66.206 18.658l-8.541 29.85 4.1 1.173 8.541-29.85-4.1-1.173zm-13.641 6.447l-2.73-3.277-12.8 10.667a2.133 2.133 0 0 0 0 3.277l12.8 10.666 2.73-3.276-10.833-9.029 10.833-9.028zm38.672 7.662a2.131 2.131 0 0 0-.272-.272l-12.8-10.667-2.73 3.277 10.833 9.028-10.833 9.029 2.73 3.276 12.8-10.666a2.133 2.133 0 0 0 .272-3.005z" fill="#97D644"/><rect x="-26.215" y="-14" width="172.792" height="140.597" rx="25" fill="url(#paint0_linear)"/><path fill-rule="evenodd" clip-rule="evenodd" d="M-63.398 75.236S-42.038-39.61 7.519 30.604C47.73 87.576 52.507 94.379 70.996 83.008c21.681-13.335 25.68-52.404 36.468-52.404 10.787 0 26.689 68.402 35.447 56.972 8.758-11.43 15.557-45.772 33.393-45.772 17.837 0 15.24 42.413 15.24 42.413l-7.369 49.53-105.95-7.076L-60.836 143" fill="url(#paint1_linear)"/></g><defs><linearGradient id="paint0_linear" x1="-26.215" y1="56.298" x2="145.596" y2="56.455" gradientUnits="userSpaceOnUse"><stop stop-color="#459622"/><stop offset="1" stop-color="#B0E94F"/></linearGradient><linearGradient id="paint1_linear" x1="182.461" y1="46.925" x2="-47.096" y2="48.209" gradientUnits="userSpaceOnUse"><stop stop-color="#5CA82C"/><stop offset="0" stop-color="#68B231"/><stop offset="1" stop-color="#A6E24B"/></linearGradient></defs></svg>