<svg width="96" height="96" viewBox="0 0 96 96" fill="none" xmlns="http://www.w3.org/2000/svg">
<g clip-path="url(#clip0)">
<path d="M95.5313 45.2809L70.676 20.4304L81.1701 9.10112C81.7825 8.46394 81.7623 7.45117 81.1251 6.83899C80.488 6.2266 79.4752 6.2468 78.863 6.88398C78.85 6.89758 78.8372 6.91138 78.8246 6.92538L67.3049 19.3634L56.126 30.5407C55.5014 31.1655 55.5014 32.1783 56.126 32.8031L56.8876 33.5663L52.4781 37.755C52.1803 38.0369 51.7857 38.1939 51.3757 38.1933H44.8159C44.6471 38.2005 44.4789 38.2165 44.3119 38.2413L38.9857 32.0911L39.8736 31.2031C40.4982 30.5783 40.4982 29.5656 39.8736 28.9408L28.6947 17.7731L18.775 6.94138C18.1786 6.2892 17.1665 6.2442 16.5143 6.84058C15.8621 7.43697 15.8171 8.44914 16.4135 9.10132L25.322 18.8323L0.468315 43.681C-0.156268 44.3058 -0.156268 45.3185 0.468315 45.9433L11.668 57.143C12.2928 57.7676 13.3056 57.7676 13.9304 57.143L14.3991 56.6742L21.4853 63.7604L20.4086 64.7812C18.3192 66.7348 18.209 70.0121 20.1626 72.1014C20.2418 72.1862 20.3238 72.2682 20.4086 72.3474C21.4547 73.3302 22.8385 73.8738 24.2741 73.8658H24.2965C24.3105 75.2809 24.9023 76.6289 25.9348 77.5969C26.981 78.5788 28.364 79.1216 29.7987 79.1136H29.8227C29.8355 80.5282 30.4269 81.876 31.4595 82.8431C32.5056 83.8251 33.8886 84.3679 35.3234 84.3599H35.3458C35.3592 85.7753 35.9512 87.1234 36.9841 88.091C39.1635 90.1125 42.5326 90.1125 44.7119 88.091L46.0879 86.7854L47.3806 88.1086C48.421 89.0822 49.7958 89.6188 51.2205 89.6077C54.2339 89.6132 56.7388 87.2884 56.958 84.2831C58.4219 84.2595 59.8199 83.6701 60.8587 82.6383C61.8951 81.6678 62.4874 80.3142 62.497 78.8944C63.9872 78.8882 65.4184 78.3117 66.4969 77.2833C67.5267 76.3175 68.1177 74.9733 68.1337 73.5618C68.1481 73.5618 68.1609 73.5618 68.1753 73.5618C69.5868 73.5714 70.9482 73.0388 71.9784 72.0738C73.0092 71.1116 73.5953 69.7655 73.5975 68.3555C73.5961 66.9136 72.9966 65.537 71.9416 64.554L71.908 64.5204L80.0838 56.7574L82.0693 58.743C82.6941 59.3676 83.7069 59.3676 84.3316 58.743L95.5313 47.5433C96.1559 46.9185 96.1559 45.9057 95.5313 45.2809ZM12.7992 53.7495L3.86182 44.8122L27.5412 21.1328L36.4785 30.0718L12.7992 53.7495ZM25.9316 70.0307C24.9951 70.8991 23.5473 70.8985 22.6117 70.0291C21.8045 69.2947 21.7455 68.0449 22.4799 67.2378C22.5217 67.1918 22.5657 67.1478 22.6117 67.106L29.0563 60.9861C29.9923 60.1153 31.4419 60.1153 32.3778 60.9861C33.1854 61.7213 33.2442 62.9721 32.509 63.7797C32.4674 63.8254 32.4236 63.8692 32.3778 63.9108L25.9316 70.0307ZM31.4579 75.2753C30.5153 76.1293 29.0789 76.1293 28.1364 75.2753C27.3288 74.5402 27.27 73.2894 28.0052 72.4818C28.0468 72.436 28.0906 72.3924 28.1364 72.3506L34.581 66.2324C35.517 65.3616 36.9665 65.3616 37.9025 66.2324C38.7097 66.9668 38.7687 68.2165 38.0343 69.0237C37.9925 69.0697 37.9485 69.1137 37.9025 69.1555L31.4579 75.2753ZM36.9825 80.52C36.0466 81.3908 34.597 81.3908 33.661 80.52C32.8534 79.7848 32.7946 78.534 33.5298 77.7265C33.5714 77.6807 33.6152 77.6371 33.661 77.5953L40.1056 71.4754C41.0424 70.6053 42.492 70.6053 43.4288 71.4754C44.2363 72.2132 44.2929 73.4662 43.5551 74.2738C43.5149 74.3178 43.4728 74.36 43.4288 74.4002L36.9825 80.52ZM42.5072 85.7711C41.5718 86.6432 40.121 86.6432 39.1857 85.7711C38.3785 85.0367 38.3195 83.7869 39.0539 82.9797C39.0957 82.9337 39.1397 82.8897 39.1857 82.8479L45.6319 76.7249C46.5737 75.8705 48.01 75.8705 48.9518 76.7249C49.7594 77.4601 49.8182 78.7108 49.083 79.5184C49.0414 79.5642 48.9976 79.608 48.9518 79.6496L42.5072 85.7711ZM52.9581 85.7247L52.9613 85.731C52.0427 86.6232 50.5946 86.6656 49.6254 85.8287L48.4062 84.5823L51.1549 81.9728C51.3817 81.7524 51.5889 81.5124 51.7741 81.256L53.2973 82.7791C53.6239 83.0807 53.8061 83.5075 53.7981 83.9519C53.7667 84.6313 53.4641 85.2699 52.9581 85.7247ZM69.7784 69.7587C68.8449 70.6083 67.4127 70.5895 66.5017 69.7155L61.5659 65.0308C60.9247 64.421 59.9109 64.4464 59.3011 65.0876C58.6913 65.7286 58.7169 66.7426 59.3579 67.3523L64.2922 72.0386C64.698 72.4162 64.9296 72.945 64.9322 73.4994C64.915 74.108 64.6378 74.68 64.1706 75.0705C63.2352 75.9427 61.7845 75.9427 60.8491 75.0705L56.3276 70.7779C55.6864 70.1695 54.6737 70.1961 54.0653 70.8371C53.4569 71.478 53.4835 72.491 54.1245 73.0994L58.6459 77.3921C59.0519 77.7705 59.2835 78.2997 59.2859 78.8544C59.2685 79.463 58.9913 80.035 58.5243 80.4256C57.7328 81.2726 56.4044 81.3174 55.5574 80.5256C55.5414 80.5106 55.5256 80.4954 55.51 80.48L53.9101 78.88L52.7293 77.6993C52.6179 76.4407 52.0485 75.2669 51.1293 74.4002C50.078 73.4126 48.6854 72.8698 47.243 72.885C47.2303 71.4698 46.6389 70.1217 45.6063 69.1539C44.5539 68.1669 43.1612 67.6241 41.7184 67.6387C41.705 66.224 41.113 64.8762 40.08 63.9092C39.0281 62.9225 37.6359 62.3799 36.1937 62.3941C36.1803 60.9787 35.5884 59.6306 34.5554 58.663C32.3759 56.6422 29.0071 56.6422 26.8276 58.663L23.7877 61.5557L16.6615 54.4119L36.7137 34.3596L41.3264 39.6923L35.2722 45.4425C33.6078 47.0057 33.5258 49.622 35.089 51.2864C35.1482 51.3494 35.2092 51.4104 35.2722 51.4696C36.9373 53.0181 39.4973 53.0773 41.232 51.6072L48.2926 47.4473C48.917 47.0795 49.7106 47.1773 50.227 47.6857L64.3402 61.6053C64.419 61.7745 64.5274 61.9285 64.6602 62.0597L68.4649 65.674L69.5592 66.7524L69.58 66.7316L69.7352 66.8756C70.1508 67.256 70.3896 67.7921 70.3944 68.3555C70.3928 68.8883 70.1696 69.3967 69.7784 69.7587ZM69.5976 62.2949L52.4781 45.4009C50.9286 43.873 48.5448 43.5788 46.6703 44.6842L39.4705 48.924L39.1809 49.1432C38.6955 49.5762 37.9623 49.5762 37.4769 49.1432C37.0935 48.7941 37.0657 48.2001 37.4149 47.8165C37.4345 47.7949 37.4553 47.7741 37.4769 47.7545L43.7167 41.8346C44.0129 41.551 44.4073 41.3929 44.8175 41.3931H51.3773C52.6075 41.3953 53.7913 40.9237 54.6828 40.0763L59.1291 35.8524L77.7094 54.5959L69.5976 62.2949ZM83.1973 55.3495L59.5179 31.6701L68.4569 22.7328L92.1346 46.4121L83.1973 55.3495Z" fill="#FFB321"/>
<path d="M12.7993 48.0116C14.5665 48.0116 15.9992 46.579 15.9992 44.8117C15.9992 43.0445 14.5665 41.6118 12.7993 41.6118C11.032 41.6118 9.59937 43.0445 9.59937 44.8117C9.59937 46.579 11.032 48.0116 12.7993 48.0116Z" fill="#B4EC51"/>
<path d="M83.1974 49.6117C84.9646 49.6117 86.3973 48.1791 86.3973 46.4118C86.3973 44.6446 84.9646 43.2119 83.1974 43.2119C81.4301 43.2119 79.9974 44.6446 79.9974 46.4118C79.9974 48.1791 81.4301 49.6117 83.1974 49.6117Z" fill="#B4EC51"/>
</g>
<defs>
<clipPath id="clip0">
<rect width="96" height="96" fill="white"/>
</clipPath>
</defs>
</svg>
