<svg width="384" height="96" viewBox="0 0 384 96" fill="none" xmlns="http://www.w3.org/2000/svg">
<mask id="mask0" mask-type="alpha" maskUnits="userSpaceOnUse" x="0" y="0" width="96" height="96">
<path d="M95.4774 20.6992C95.4688 20.5594 95.4415 20.4203 95.3954 20.2883C95.3782 20.2367 95.3649 20.1875 95.3431 20.1375C95.2649 19.9633 95.1563 19.8047 95.0228 19.6688L75.8228 0.46875C75.6868 0.334375 75.5274 0.225781 75.3524 0.148438C75.3048 0.126562 75.2563 0.113281 75.2071 0.0960938C75.0712 0.0492188 74.9306 0.0210938 74.7876 0.0125C74.7603 0.0179688 74.7313 0 74.6978 0H26.6978C22.2821 0.00546876 18.7032 3.58359 18.6978 8V19.7758C7.69854 24.6266 0.600098 35.5141 0.600098 47.5359C0.600098 59.5578 7.69854 70.4453 18.6978 75.2961V88C18.7032 92.4164 22.2821 95.9945 26.6978 96H87.4978C91.9142 95.9945 95.4931 92.4164 95.4978 88V20.8C95.4978 20.7648 95.4806 20.7344 95.4774 20.6992ZM90.0353 19.2H77.8978C77.0142 19.2 76.2978 18.4836 76.2978 17.6V5.4625L90.0353 19.2ZM3.83369 47.5359C3.82432 40.3188 6.68682 33.3953 11.7899 28.2922C16.8931 23.1891 23.8173 20.3266 31.0337 20.3359C31.9431 20.3359 32.8454 20.3805 33.736 20.4672C46.1079 21.6898 56.0649 31.1664 57.8978 43.4625C58.1103 44.8102 58.222 46.1719 58.2321 47.5359C58.2438 52.6602 56.7954 57.6813 54.0579 62.0125C51.8868 65.4734 48.961 68.3984 45.4993 70.568C37.1173 75.832 26.5376 76.1273 17.8751 71.3383C9.2126 66.55 3.83525 57.4336 3.83369 47.5359V47.5359ZM49.6165 71.5711C49.8353 71.4016 50.0517 71.2336 50.2657 71.0594C51.0556 70.4234 51.8118 69.7477 52.5329 69.0352C53.2454 68.3141 53.9212 67.5586 54.5571 66.7695C54.7313 66.5555 54.8993 66.3375 55.0688 66.1188C55.2626 65.8656 55.4728 65.6258 55.6579 65.368L69.2978 79.0242C70.2009 79.9188 70.7095 81.1375 70.7095 82.4086C70.7095 83.6805 70.2009 84.8984 69.2978 85.7938C67.4087 87.6195 64.4126 87.6195 62.5235 85.7938L48.8657 72.1602C49.1235 71.9727 49.3649 71.7648 49.6165 71.5711V71.5711ZM87.4978 92.8H26.6978C24.047 92.8 21.8978 90.6508 21.8978 88V76.5453C21.997 76.5773 22.1009 76.5984 22.2017 76.6289C22.4579 76.707 22.7173 76.7695 22.9767 76.8414C23.5751 77.0016 24.1782 77.1617 24.7876 77.2813C25.0868 77.3438 25.386 77.4016 25.6884 77.4547C26.2978 77.5617 26.9126 77.6461 27.5298 77.7172C27.8056 77.7484 28.0774 77.7875 28.354 77.8109C29.2407 77.8867 30.1329 77.9359 31.0337 77.9359C36.3228 77.9398 41.5196 76.5555 46.1048 73.9203L60.2517 88.0531C62.2368 90.2258 65.2556 91.1336 68.1095 90.4148C70.9642 89.6969 73.1938 87.4695 73.9142 84.6156C74.6353 81.7617 73.7306 78.7422 71.5587 76.7555L57.4181 62.6063C60.0532 58.0211 61.4384 52.8242 61.4337 47.5359C61.4337 46.5227 61.3853 45.5172 61.2868 44.5203C60.604 37.5297 57.5095 30.9953 52.5345 26.0383C46.8446 20.318 39.1024 17.1125 31.0337 17.1359C30.1329 17.1359 29.2407 17.1859 28.354 17.2609C28.0774 17.2852 27.8032 17.3234 27.5282 17.3555C26.9126 17.4242 26.3009 17.5117 25.6915 17.618C25.3876 17.6711 25.0845 17.7289 24.7829 17.7922C24.1813 17.9172 23.5845 18.0641 22.9923 18.2273C22.7267 18.2992 22.461 18.3633 22.1923 18.443C22.0931 18.4734 21.9923 18.4945 21.8931 18.5266V8C21.8931 5.34922 24.0423 3.2 26.6931 3.2H73.0978V17.6C73.0978 20.2508 75.247 22.4 77.8978 22.4H92.2978V88C92.2978 90.6508 90.1493 92.8 87.4978 92.8V92.8Z" fill="#313131"/>
<path d="M66.6976 11.2001C66.6976 10.3165 65.9812 9.6001 65.0976 9.6001H29.8976C29.014 9.6001 28.2976 10.3165 28.2976 11.2001C28.2976 12.0837 29.014 12.8001 29.8976 12.8001H65.0976C65.9812 12.8001 66.6976 12.0837 66.6976 11.2001Z" fill="#313131"/>
<path d="M84.2976 38.3999H65.0976C64.214 38.3999 63.4976 39.1163 63.4976 39.9999C63.4976 40.8835 64.214 41.5999 65.0976 41.5999H84.2976C85.1811 41.5999 85.8976 40.8835 85.8976 39.9999C85.8976 39.1163 85.1811 38.3999 84.2976 38.3999Z" fill="#313131"/>
<path d="M84.2976 48H65.0976C64.214 48 63.4976 48.7164 63.4976 49.6C63.4976 50.4836 64.214 51.2 65.0976 51.2H84.2976C85.1811 51.2 85.8976 50.4836 85.8976 49.6C85.8976 48.7164 85.1811 48 84.2976 48Z" fill="#313131"/>
<path d="M85.8977 59.2001C85.8977 58.3165 85.1813 57.6001 84.2977 57.6001H63.4977C62.6141 57.6001 61.8977 58.3165 61.8977 59.2001C61.8977 60.0837 62.6141 60.8001 63.4977 60.8001H84.2977C85.1813 60.8001 85.8977 60.0837 85.8977 59.2001Z" fill="#313131"/>
<path d="M85.8976 68.8002C85.8976 67.9166 85.1812 67.2002 84.2976 67.2002H69.8976C69.014 67.2002 68.2976 67.9166 68.2976 68.8002C68.2976 69.6838 69.014 70.4002 69.8976 70.4002H84.2976C85.1812 70.4002 85.8976 69.6838 85.8976 68.8002Z" fill="#313131"/>
<path d="M66.6978 20.8002C66.6978 19.9166 65.9814 19.2002 65.0978 19.2002H52.2978C51.4142 19.2002 50.6978 19.9166 50.6978 20.8002C50.6978 21.6838 51.4142 22.4002 52.2978 22.4002H65.0978C65.9814 22.4002 66.6978 21.6838 66.6978 20.8002Z" fill="#313131"/>
<path d="M85.8978 30.3998C85.8978 29.5162 85.1813 28.7998 84.2978 28.7998H60.2978C59.4142 28.7998 58.6978 29.5162 58.6978 30.3998C58.6978 31.2834 59.4142 31.9998 60.2978 31.9998H84.2978C85.1813 31.9998 85.8978 31.2834 85.8978 30.3998Z" fill="#313131"/>
<path d="M25.0976 39.9998H36.2976C37.1812 39.9998 37.8976 39.2834 37.8976 38.3998C37.8976 37.5162 37.1812 36.7998 36.2976 36.7998H25.0976C24.214 36.7998 23.4976 37.5162 23.4976 38.3998C23.4976 39.2834 24.214 39.9998 25.0976 39.9998Z" fill="#313131"/>
<path d="M44.2977 47.9999C44.2977 47.1163 43.5813 46.3999 42.6977 46.3999H18.6977C17.8141 46.3999 17.0977 47.1163 17.0977 47.9999C17.0977 48.8835 17.8141 49.5999 18.6977 49.5999H42.6977C43.5813 49.5999 44.2977 48.8835 44.2977 47.9999Z" fill="#313131"/>
<path d="M36.2976 56H25.0976C24.214 56 23.4976 56.7164 23.4976 57.6C23.4976 58.4836 24.214 59.2 25.0976 59.2H36.2976C37.1812 59.2 37.8976 58.4836 37.8976 57.6C37.8976 56.7164 37.1812 56 36.2976 56Z" fill="#313131"/>
<path d="M42.4225 68.64C46.3249 66.5619 49.5608 63.4228 51.7569 59.5861C51.8835 59.365 52.021 59.151 52.1397 58.9267C52.2014 58.8111 52.2499 58.6916 52.3092 58.576C52.5522 58.1088 52.7889 57.6416 52.9983 57.1635C53.2085 56.6853 53.3733 56.2306 53.5444 55.7603C53.5936 55.6244 53.6561 55.4916 53.7045 55.3541C57.7733 43.5221 52.0702 30.5486 40.6014 25.5478C29.1319 20.5471 15.7452 25.1971 9.84518 36.2306C7.98815 39.7064 7.02097 43.5885 7.03034 47.5299C7.0155 55.9861 11.4569 63.8244 18.7186 68.1572C25.9803 72.4908 34.9874 72.6775 42.4225 68.6494V68.64ZM21.0624 65.7892C19.321 64.84 17.7256 63.6447 16.3249 62.24C15.353 61.2689 14.4788 60.2056 13.7139 59.0642C13.3358 58.4986 12.9882 57.9181 12.6686 57.3221C7.853 48.2291 10.4046 36.9814 18.6725 30.8572C26.9405 24.733 38.4436 25.5705 45.7381 32.8275C52.1983 39.3486 53.6514 49.3205 49.3217 57.4142V57.4275C47.4139 60.9971 44.4889 63.9197 40.9186 65.826C34.7249 69.1908 27.246 69.1791 21.0624 65.7955V65.7892Z" fill="#313131"/>
<path d="M87.4976 76.7998C86.614 76.7998 85.8976 77.5162 85.8976 78.3998V84.7998C85.8976 85.6834 85.1812 86.3998 84.2976 86.3998H77.8976C77.014 86.3998 76.2976 87.1162 76.2976 87.9998C76.2976 88.8834 77.014 89.5998 77.8976 89.5998H84.2976C86.9492 89.5998 89.0976 87.4506 89.0976 84.7998V78.3998C89.0976 77.5162 88.3812 76.7998 87.4976 76.7998Z" fill="#313131"/>
</mask>
<g mask="url(#mask0)">
<path d="M95.4774 20.6992C95.4688 20.5594 95.4415 20.4203 95.3954 20.2883C95.3782 20.2367 95.3649 20.1875 95.3431 20.1375C95.2649 19.9633 95.1563 19.8047 95.0228 19.6688L75.8228 0.46875C75.6868 0.334375 75.5274 0.225781 75.3524 0.148438C75.3048 0.126562 75.2563 0.113281 75.2071 0.0960938C75.0712 0.0492188 74.9306 0.0210938 74.7876 0.0125C74.7603 0.0179688 74.7313 0 74.6978 0H26.6978C22.2821 0.00546876 18.7032 3.58359 18.6978 8V19.7758C7.69854 24.6266 0.600098 35.5141 0.600098 47.5359C0.600098 59.5578 7.69854 70.4453 18.6978 75.2961V88C18.7032 92.4164 22.2821 95.9945 26.6978 96H87.4978C91.9142 95.9945 95.4931 92.4164 95.4978 88V20.8C95.4978 20.7648 95.4806 20.7344 95.4774 20.6992ZM90.0353 19.2H77.8978C77.0142 19.2 76.2978 18.4836 76.2978 17.6V5.4625L90.0353 19.2ZM3.83369 47.5359C3.82432 40.3188 6.68682 33.3953 11.7899 28.2922C16.8931 23.1891 23.8173 20.3266 31.0337 20.3359C31.9431 20.3359 32.8454 20.3805 33.736 20.4672C46.1079 21.6898 56.0649 31.1664 57.8978 43.4625C58.1103 44.8102 58.222 46.1719 58.2321 47.5359C58.2438 52.6602 56.7954 57.6813 54.0579 62.0125C51.8868 65.4734 48.961 68.3984 45.4993 70.568C37.1173 75.832 26.5376 76.1273 17.8751 71.3383C9.2126 66.55 3.83525 57.4336 3.83369 47.5359V47.5359ZM49.6165 71.5711C49.8353 71.4016 50.0517 71.2336 50.2657 71.0594C51.0556 70.4234 51.8118 69.7477 52.5329 69.0352C53.2454 68.3141 53.9212 67.5586 54.5571 66.7695C54.7313 66.5555 54.8993 66.3375 55.0688 66.1188C55.2626 65.8656 55.4728 65.6258 55.6579 65.368L69.2978 79.0242C70.2009 79.9188 70.7095 81.1375 70.7095 82.4086C70.7095 83.6805 70.2009 84.8984 69.2978 85.7938C67.4087 87.6195 64.4126 87.6195 62.5235 85.7938L48.8657 72.1602C49.1235 71.9727 49.3649 71.7648 49.6165 71.5711V71.5711ZM87.4978 92.8H26.6978C24.047 92.8 21.8978 90.6508 21.8978 88V76.5453C21.997 76.5773 22.1009 76.5984 22.2017 76.6289C22.4579 76.707 22.7173 76.7695 22.9767 76.8414C23.5751 77.0016 24.1782 77.1617 24.7876 77.2813C25.0868 77.3438 25.386 77.4016 25.6884 77.4547C26.2978 77.5617 26.9126 77.6461 27.5298 77.7172C27.8056 77.7484 28.0774 77.7875 28.354 77.8109C29.2407 77.8867 30.1329 77.9359 31.0337 77.9359C36.3228 77.9398 41.5196 76.5555 46.1048 73.9203L60.2517 88.0531C62.2368 90.2258 65.2556 91.1336 68.1095 90.4148C70.9642 89.6969 73.1938 87.4695 73.9142 84.6156C74.6353 81.7617 73.7306 78.7422 71.5587 76.7555L57.4181 62.6063C60.0532 58.0211 61.4384 52.8242 61.4337 47.5359C61.4337 46.5227 61.3853 45.5172 61.2868 44.5203C60.604 37.5297 57.5095 30.9953 52.5345 26.0383C46.8446 20.318 39.1024 17.1125 31.0337 17.1359C30.1329 17.1359 29.2407 17.1859 28.354 17.2609C28.0774 17.2852 27.8032 17.3234 27.5282 17.3555C26.9126 17.4242 26.3009 17.5117 25.6915 17.618C25.3876 17.6711 25.0845 17.7289 24.7829 17.7922C24.1813 17.9172 23.5845 18.0641 22.9923 18.2273C22.7267 18.2992 22.461 18.3633 22.1923 18.443C22.0931 18.4734 21.9923 18.4945 21.8931 18.5266V8C21.8931 5.34922 24.0423 3.2 26.6931 3.2H73.0978V17.6C73.0978 20.2508 75.247 22.4 77.8978 22.4H92.2978V88C92.2978 90.6508 90.1493 92.8 87.4978 92.8V92.8Z" fill="#313131"/>
<path d="M66.6976 11.2001C66.6976 10.3165 65.9812 9.6001 65.0976 9.6001H29.8976C29.014 9.6001 28.2976 10.3165 28.2976 11.2001C28.2976 12.0837 29.014 12.8001 29.8976 12.8001H65.0976C65.9812 12.8001 66.6976 12.0837 66.6976 11.2001Z" fill="#313131"/>
<path d="M84.2976 38.3999H65.0976C64.214 38.3999 63.4976 39.1163 63.4976 39.9999C63.4976 40.8835 64.214 41.5999 65.0976 41.5999H84.2976C85.1811 41.5999 85.8976 40.8835 85.8976 39.9999C85.8976 39.1163 85.1811 38.3999 84.2976 38.3999Z" fill="#313131"/>
<path d="M84.2976 48H65.0976C64.214 48 63.4976 48.7164 63.4976 49.6C63.4976 50.4836 64.214 51.2 65.0976 51.2H84.2976C85.1811 51.2 85.8976 50.4836 85.8976 49.6C85.8976 48.7164 85.1811 48 84.2976 48Z" fill="#313131"/>
<path d="M85.8977 59.2001C85.8977 58.3165 85.1813 57.6001 84.2977 57.6001H63.4977C62.6141 57.6001 61.8977 58.3165 61.8977 59.2001C61.8977 60.0837 62.6141 60.8001 63.4977 60.8001H84.2977C85.1813 60.8001 85.8977 60.0837 85.8977 59.2001Z" fill="#313131"/>
<path d="M85.8976 68.8002C85.8976 67.9166 85.1812 67.2002 84.2976 67.2002H69.8976C69.014 67.2002 68.2976 67.9166 68.2976 68.8002C68.2976 69.6838 69.014 70.4002 69.8976 70.4002H84.2976C85.1812 70.4002 85.8976 69.6838 85.8976 68.8002Z" fill="#313131"/>
<path d="M66.6978 20.8002C66.6978 19.9166 65.9814 19.2002 65.0978 19.2002H52.2978C51.4142 19.2002 50.6978 19.9166 50.6978 20.8002C50.6978 21.6838 51.4142 22.4002 52.2978 22.4002H65.0978C65.9814 22.4002 66.6978 21.6838 66.6978 20.8002Z" fill="#313131"/>
<path d="M85.8978 30.3998C85.8978 29.5162 85.1813 28.7998 84.2978 28.7998H60.2978C59.4142 28.7998 58.6978 29.5162 58.6978 30.3998C58.6978 31.2834 59.4142 31.9998 60.2978 31.9998H84.2978C85.1813 31.9998 85.8978 31.2834 85.8978 30.3998Z" fill="#313131"/>
<path d="M25.0976 39.9998H36.2976C37.1812 39.9998 37.8976 39.2834 37.8976 38.3998C37.8976 37.5162 37.1812 36.7998 36.2976 36.7998H25.0976C24.214 36.7998 23.4976 37.5162 23.4976 38.3998C23.4976 39.2834 24.214 39.9998 25.0976 39.9998Z" fill="#313131"/>
<path d="M44.2977 47.9999C44.2977 47.1163 43.5813 46.3999 42.6977 46.3999H18.6977C17.8141 46.3999 17.0977 47.1163 17.0977 47.9999C17.0977 48.8835 17.8141 49.5999 18.6977 49.5999H42.6977C43.5813 49.5999 44.2977 48.8835 44.2977 47.9999Z" fill="#313131"/>
<path d="M36.2976 56H25.0976C24.214 56 23.4976 56.7164 23.4976 57.6C23.4976 58.4836 24.214 59.2 25.0976 59.2H36.2976C37.1812 59.2 37.8976 58.4836 37.8976 57.6C37.8976 56.7164 37.1812 56 36.2976 56Z" fill="#313131"/>
<path d="M42.4225 68.64C46.3249 66.5619 49.5608 63.4228 51.7569 59.5861C51.8835 59.365 52.021 59.151 52.1397 58.9267C52.2014 58.8111 52.2499 58.6916 52.3092 58.576C52.5522 58.1088 52.7889 57.6416 52.9983 57.1635C53.2085 56.6853 53.3733 56.2306 53.5444 55.7603C53.5936 55.6244 53.6561 55.4916 53.7045 55.3541C57.7733 43.5221 52.0702 30.5486 40.6014 25.5478C29.1319 20.5471 15.7452 25.1971 9.84518 36.2306C7.98815 39.7064 7.02097 43.5885 7.03034 47.5299C7.0155 55.9861 11.4569 63.8244 18.7186 68.1572C25.9803 72.4908 34.9874 72.6775 42.4225 68.6494V68.64ZM21.0624 65.7892C19.321 64.84 17.7256 63.6447 16.3249 62.24C15.353 61.2689 14.4788 60.2056 13.7139 59.0642C13.3358 58.4986 12.9882 57.9181 12.6686 57.3221C7.853 48.2291 10.4046 36.9814 18.6725 30.8572C26.9405 24.733 38.4436 25.5705 45.7381 32.8275C52.1983 39.3486 53.6514 49.3205 49.3217 57.4142V57.4275C47.4139 60.9971 44.4889 63.9197 40.9186 65.826C34.7249 69.1908 27.246 69.1791 21.0624 65.7955V65.7892Z" fill="#313131"/>
<path d="M87.4976 76.7998C86.614 76.7998 85.8976 77.5162 85.8976 78.3998V84.7998C85.8976 85.6834 85.1812 86.3998 84.2976 86.3998H77.8976C77.014 86.3998 76.2976 87.1162 76.2976 87.9998C76.2976 88.8834 77.014 89.5998 77.8976 89.5998H84.2976C86.9492 89.5998 89.0976 87.4506 89.0976 84.7998V78.3998C89.0976 77.5162 88.3812 76.7998 87.4976 76.7998Z" fill="#313131"/>
<rect x="-26.2151" y="-14" width="172.792" height="140.597" rx="25" fill="url(#paint0_linear)"/>
<path fill-rule="evenodd" clip-rule="evenodd" d="M-63.3984 75.2358C-63.3984 75.2358 -42.0384 -39.6096 7.51893 30.6039C47.73 87.5755 52.5074 94.3794 70.9962 83.0078C92.6775 69.6727 96.6765 30.6039 107.464 30.6039C118.251 30.6039 134.153 99.0056 142.911 87.5755C151.669 76.1454 158.468 41.8044 176.304 41.8044C194.141 41.8044 191.544 84.2166 191.544 84.2166L184.175 133.747L78.2244 126.671L-60.8351 143" fill="url(#paint1_linear)"/>
</g>
<mask id="mask1" mask-type="alpha" maskUnits="userSpaceOnUse" x="96" y="0" width="96" height="96">
<path d="M122.657 52.7998C118.239 52.7998 114.657 56.3816 114.657 60.7998C114.657 65.218 118.239 68.7998 122.657 68.7998C127.073 68.7946 130.652 65.2158 130.657 60.7998C130.657 56.3816 127.075 52.7998 122.657 52.7998ZM122.657 65.5998C120.006 65.5998 117.857 63.4508 117.857 60.7998C117.857 58.1488 120.006 55.9998 122.657 55.9998C125.308 55.9998 127.457 58.1488 127.457 60.7998C127.457 63.4508 125.308 65.5998 122.657 65.5998Z" fill="#313131"/>
<path d="M147.83 71.8014L140.004 60.619C138.571 58.5772 135.754 58.0838 133.712 59.517C131.707 60.9242 131.189 63.6732 132.545 65.7134L135.668 70.3998H109.646L112.769 65.7134C114.149 63.6356 113.584 60.8322 111.506 59.4518C109.466 58.0964 106.717 58.6142 105.31 60.619L97.4842 71.8014C95.8344 74.1596 96.4088 77.4088 98.767 79.0586C99.6424 79.671 100.685 79.9996 101.753 79.9998H113.057V94.3998C113.057 95.2834 113.773 95.9998 114.657 95.9998H130.657C131.541 95.9998 132.257 95.2834 132.257 94.3998V79.9998H143.561C146.439 79.9992 148.772 77.6654 148.771 74.7874C148.771 73.719 148.442 72.6768 147.83 71.8014ZM144.723 76.436C144.383 76.6744 143.977 76.8016 143.561 76.7998H130.657C129.773 76.7998 129.057 77.5162 129.057 78.3998V92.7998H116.257V78.3998C116.257 77.5162 115.541 76.7998 114.657 76.7998H101.753C100.642 76.8 99.7416 75.8998 99.7412 74.7892C99.741 74.3762 99.868 73.9734 100.105 73.635L107.937 62.4526C108.347 61.8522 109.167 61.6982 109.767 62.1086C110.368 62.519 110.522 63.3386 110.111 63.939L105.326 71.1118C104.835 71.8468 105.034 72.8404 105.769 73.3308C106.032 73.5062 106.341 73.5998 106.657 73.5998H138.657C139.541 73.6 140.257 72.8836 140.257 72C140.257 71.6838 140.164 71.3748 139.988 71.1118L135.207 63.939C134.797 63.3386 134.951 62.519 135.551 62.1086C136.152 61.6982 136.971 61.8522 137.382 62.4526L145.217 73.635C145.854 74.5448 145.633 75.799 144.723 76.436Z" fill="#313131"/>
<path d="M125.857 24H121.057C118.406 24 116.257 26.149 116.257 28.8H119.457C119.457 27.9164 120.173 27.2 121.057 27.2H125.857C126.741 27.2 127.457 27.9164 127.457 28.8C127.457 29.6836 126.741 30.4 125.857 30.4C123.206 30.4 121.057 32.549 121.057 35.2H124.257C124.257 34.3164 124.973 33.6 125.857 33.6C128.508 33.6 130.657 31.451 130.657 28.8C130.657 26.149 128.508 24 125.857 24Z" fill="#313131"/>
<path d="M124.257 36.7998H121.057V39.9998H124.257V36.7998Z" fill="#313131"/>
<path d="M122.657 17.6001C112.953 17.6001 105.057 24.0593 105.057 32.0001C105.057 38.4705 110.281 44.0897 117.836 45.8385L121.377 50.5601C121.907 51.2671 122.91 51.4103 123.617 50.8801C123.738 50.7891 123.846 50.6813 123.937 50.5601L127.478 45.8385C135.033 44.0897 140.257 38.4705 140.257 32.0001C140.257 24.0593 132.361 17.6001 122.657 17.6001ZM126.239 42.8337C125.856 42.9121 125.514 43.1285 125.279 43.4417L122.657 46.9329L120.038 43.4417C119.803 43.1283 119.461 42.9121 119.078 42.8337C112.705 41.5553 108.257 37.1009 108.257 32.0001C108.257 25.8257 114.716 20.8001 122.657 20.8001C130.598 20.8001 137.057 25.8257 137.057 32.0001C137.057 37.1009 132.609 41.5553 126.239 42.8337Z" fill="#313131"/>
<path d="M169.057 32C164.641 32.0052 161.062 35.584 161.057 40C161.057 44.4182 164.639 48 169.057 48C173.475 48 177.057 44.4182 177.057 40C177.057 35.5818 173.475 32 169.057 32ZM169.057 44.8C166.406 44.8 164.257 42.651 164.257 40C164.257 37.349 166.406 35.2 169.057 35.2C171.708 35.2 173.857 37.349 173.857 40C173.857 42.651 171.708 44.8 169.057 44.8Z" fill="#313131"/>
<path d="M178.657 0H159.457C155.041 0.0052 151.462 3.584 151.457 8V17.6C151.462 22.016 155.041 25.5948 159.457 25.6H163.595L167.926 29.9312C168.551 30.5558 169.563 30.5558 170.188 29.9312L174.519 25.6H178.657C183.073 25.5948 186.652 22.016 186.657 17.6V8C186.652 3.584 183.073 0.0052 178.657 0ZM183.457 17.6C183.457 20.251 181.308 22.4 178.657 22.4H173.857C173.433 22.4 173.026 22.5688 172.726 22.8688L169.057 26.5376L165.388 22.8688C165.088 22.5688 164.681 22.4 164.257 22.4H159.457C156.806 22.4 154.657 20.251 154.657 17.6V8C154.657 5.349 156.806 3.2 159.457 3.2H178.657C181.308 3.2 183.457 5.349 183.457 8V17.6Z" fill="#313131"/>
<path d="M187.457 43.2643C184.843 42.8225 182.366 44.5833 181.924 47.1971C181.879 47.4625 181.857 47.7311 181.857 48.0003V49.6003H156.257V41.7715C156.287 39.3833 154.602 37.3163 152.257 36.8643C149.643 36.4225 147.166 38.1833 146.724 40.7971C146.679 41.0625 146.657 41.3311 146.657 41.6003V49.6003C146.662 54.9001 150.957 59.1951 156.257 59.2003H159.457V67.0595L155.657 88.5955C155.068 92.0307 157.375 95.2929 160.811 95.8819C164.246 96.4709 167.508 94.1635 168.097 90.7283L169.057 84.9347L170.017 90.7299C170.606 94.1633 173.868 96.4689 177.301 95.8795C180.734 95.2901 183.04 92.0289 182.451 88.5955L178.657 67.0595V59.2003H181.857C187.157 59.1951 191.452 54.9001 191.457 49.6003V48.1715C191.487 45.7833 189.802 43.7163 187.457 43.2643ZM188.257 49.6003C188.257 53.1349 185.392 56.0003 181.857 56.0003H177.057C176.173 56.0003 175.457 56.7167 175.457 57.6003V67.2003C175.457 67.2937 175.465 67.3869 175.483 67.4787L179.307 89.1523C179.606 90.8429 178.478 92.4561 176.787 92.7555C175.097 93.0549 173.484 91.9269 173.184 90.2363C173.182 90.2255 173.18 90.2145 173.179 90.2035L170.635 74.9379C170.487 74.0667 169.661 73.4797 168.79 73.6271C168.119 73.7407 167.593 74.2665 167.479 74.9379L164.935 90.2019C164.664 91.8973 163.069 93.0513 161.374 92.7797C159.679 92.5081 158.525 90.9135 158.796 89.2183C158.8 89.1963 158.803 89.1743 158.807 89.1523L162.631 67.4787C162.649 67.3869 162.657 67.2937 162.657 67.2003V57.6003C162.657 56.7167 161.941 56.0003 161.057 56.0003H156.257C152.722 56.0003 149.857 53.1349 149.857 49.6003V41.6003C149.857 40.7167 150.573 39.9999 151.456 39.9997C151.551 39.9997 151.644 40.0079 151.737 40.0243C152.536 40.2197 153.087 40.9497 153.057 41.7715V49.6003C153.057 51.3677 154.49 52.8003 156.257 52.8003H181.857C183.624 52.8003 185.057 51.3677 185.057 49.6003V48.0003C185.057 47.5301 185.263 47.0837 185.622 46.7795C185.985 46.4695 186.467 46.3389 186.937 46.4243C187.736 46.6197 188.287 47.3497 188.257 48.1715V49.6003Z" fill="#313131"/>
<path d="M176.627 6.86881C176.013 6.23321 175.001 6.21561 174.365 6.82961C174.352 6.84241 174.339 6.85561 174.326 6.86881L165.857 15.3376L163.788 13.2688C163.153 12.6548 162.14 12.6724 161.526 13.308C160.927 13.928 160.927 14.9112 161.526 15.5312L164.726 18.7312C165.351 19.3558 166.363 19.3558 166.988 18.7312L176.588 9.13121C177.224 8.51721 177.241 7.50441 176.627 6.86881Z" fill="#313131"/>
</mask>
<g mask="url(#mask1)">
<path d="M122.657 52.7998C118.239 52.7998 114.657 56.3816 114.657 60.7998C114.657 65.218 118.239 68.7998 122.657 68.7998C127.073 68.7946 130.652 65.2158 130.657 60.7998C130.657 56.3816 127.075 52.7998 122.657 52.7998ZM122.657 65.5998C120.006 65.5998 117.857 63.4508 117.857 60.7998C117.857 58.1488 120.006 55.9998 122.657 55.9998C125.308 55.9998 127.457 58.1488 127.457 60.7998C127.457 63.4508 125.308 65.5998 122.657 65.5998Z" fill="#313131"/>
<path d="M147.83 71.8014L140.004 60.619C138.571 58.5772 135.754 58.0838 133.712 59.517C131.707 60.9242 131.189 63.6732 132.545 65.7134L135.668 70.3998H109.646L112.769 65.7134C114.149 63.6356 113.584 60.8322 111.506 59.4518C109.466 58.0964 106.717 58.6142 105.31 60.619L97.4842 71.8014C95.8344 74.1596 96.4088 77.4088 98.767 79.0586C99.6424 79.671 100.685 79.9996 101.753 79.9998H113.057V94.3998C113.057 95.2834 113.773 95.9998 114.657 95.9998H130.657C131.541 95.9998 132.257 95.2834 132.257 94.3998V79.9998H143.561C146.439 79.9992 148.772 77.6654 148.771 74.7874C148.771 73.719 148.442 72.6768 147.83 71.8014ZM144.723 76.436C144.383 76.6744 143.977 76.8016 143.561 76.7998H130.657C129.773 76.7998 129.057 77.5162 129.057 78.3998V92.7998H116.257V78.3998C116.257 77.5162 115.541 76.7998 114.657 76.7998H101.753C100.642 76.8 99.7416 75.8998 99.7412 74.7892C99.741 74.3762 99.868 73.9734 100.105 73.635L107.937 62.4526C108.347 61.8522 109.167 61.6982 109.767 62.1086C110.368 62.519 110.522 63.3386 110.111 63.939L105.326 71.1118C104.835 71.8468 105.034 72.8404 105.769 73.3308C106.032 73.5062 106.341 73.5998 106.657 73.5998H138.657C139.541 73.6 140.257 72.8836 140.257 72C140.257 71.6838 140.164 71.3748 139.988 71.1118L135.207 63.939C134.797 63.3386 134.951 62.519 135.551 62.1086C136.152 61.6982 136.971 61.8522 137.382 62.4526L145.217 73.635C145.854 74.5448 145.633 75.799 144.723 76.436Z" fill="#313131"/>
<path d="M125.857 24H121.057C118.406 24 116.257 26.149 116.257 28.8H119.457C119.457 27.9164 120.173 27.2 121.057 27.2H125.857C126.741 27.2 127.457 27.9164 127.457 28.8C127.457 29.6836 126.741 30.4 125.857 30.4C123.206 30.4 121.057 32.549 121.057 35.2H124.257C124.257 34.3164 124.973 33.6 125.857 33.6C128.508 33.6 130.657 31.451 130.657 28.8C130.657 26.149 128.508 24 125.857 24Z" fill="#313131"/>
<path d="M124.257 36.7998H121.057V39.9998H124.257V36.7998Z" fill="#313131"/>
<path d="M122.657 17.6001C112.953 17.6001 105.057 24.0593 105.057 32.0001C105.057 38.4705 110.281 44.0897 117.836 45.8385L121.377 50.5601C121.907 51.2671 122.91 51.4103 123.617 50.8801C123.738 50.7891 123.846 50.6813 123.937 50.5601L127.478 45.8385C135.033 44.0897 140.257 38.4705 140.257 32.0001C140.257 24.0593 132.361 17.6001 122.657 17.6001ZM126.239 42.8337C125.856 42.9121 125.514 43.1285 125.279 43.4417L122.657 46.9329L120.038 43.4417C119.803 43.1283 119.461 42.9121 119.078 42.8337C112.705 41.5553 108.257 37.1009 108.257 32.0001C108.257 25.8257 114.716 20.8001 122.657 20.8001C130.598 20.8001 137.057 25.8257 137.057 32.0001C137.057 37.1009 132.609 41.5553 126.239 42.8337Z" fill="#313131"/>
<path d="M169.057 32C164.641 32.0052 161.062 35.584 161.057 40C161.057 44.4182 164.639 48 169.057 48C173.475 48 177.057 44.4182 177.057 40C177.057 35.5818 173.475 32 169.057 32ZM169.057 44.8C166.406 44.8 164.257 42.651 164.257 40C164.257 37.349 166.406 35.2 169.057 35.2C171.708 35.2 173.857 37.349 173.857 40C173.857 42.651 171.708 44.8 169.057 44.8Z" fill="#313131"/>
<path d="M178.657 0H159.457C155.041 0.0052 151.462 3.584 151.457 8V17.6C151.462 22.016 155.041 25.5948 159.457 25.6H163.595L167.926 29.9312C168.551 30.5558 169.563 30.5558 170.188 29.9312L174.519 25.6H178.657C183.073 25.5948 186.652 22.016 186.657 17.6V8C186.652 3.584 183.073 0.0052 178.657 0ZM183.457 17.6C183.457 20.251 181.308 22.4 178.657 22.4H173.857C173.433 22.4 173.026 22.5688 172.726 22.8688L169.057 26.5376L165.388 22.8688C165.088 22.5688 164.681 22.4 164.257 22.4H159.457C156.806 22.4 154.657 20.251 154.657 17.6V8C154.657 5.349 156.806 3.2 159.457 3.2H178.657C181.308 3.2 183.457 5.349 183.457 8V17.6Z" fill="#313131"/>
<path d="M187.457 43.2643C184.843 42.8225 182.366 44.5833 181.924 47.1971C181.879 47.4625 181.857 47.7311 181.857 48.0003V49.6003H156.257V41.7715C156.287 39.3833 154.602 37.3163 152.257 36.8643C149.643 36.4225 147.166 38.1833 146.724 40.7971C146.679 41.0625 146.657 41.3311 146.657 41.6003V49.6003C146.662 54.9001 150.957 59.1951 156.257 59.2003H159.457V67.0595L155.657 88.5955C155.068 92.0307 157.375 95.2929 160.811 95.8819C164.246 96.4709 167.508 94.1635 168.097 90.7283L169.057 84.9347L170.017 90.7299C170.606 94.1633 173.868 96.4689 177.301 95.8795C180.734 95.2901 183.04 92.0289 182.451 88.5955L178.657 67.0595V59.2003H181.857C187.157 59.1951 191.452 54.9001 191.457 49.6003V48.1715C191.487 45.7833 189.802 43.7163 187.457 43.2643ZM188.257 49.6003C188.257 53.1349 185.392 56.0003 181.857 56.0003H177.057C176.173 56.0003 175.457 56.7167 175.457 57.6003V67.2003C175.457 67.2937 175.465 67.3869 175.483 67.4787L179.307 89.1523C179.606 90.8429 178.478 92.4561 176.787 92.7555C175.097 93.0549 173.484 91.9269 173.184 90.2363C173.182 90.2255 173.18 90.2145 173.179 90.2035L170.635 74.9379C170.487 74.0667 169.661 73.4797 168.79 73.6271C168.119 73.7407 167.593 74.2665 167.479 74.9379L164.935 90.2019C164.664 91.8973 163.069 93.0513 161.374 92.7797C159.679 92.5081 158.525 90.9135 158.796 89.2183C158.8 89.1963 158.803 89.1743 158.807 89.1523L162.631 67.4787C162.649 67.3869 162.657 67.2937 162.657 67.2003V57.6003C162.657 56.7167 161.941 56.0003 161.057 56.0003H156.257C152.722 56.0003 149.857 53.1349 149.857 49.6003V41.6003C149.857 40.7167 150.573 39.9999 151.456 39.9997C151.551 39.9997 151.644 40.0079 151.737 40.0243C152.536 40.2197 153.087 40.9497 153.057 41.7715V49.6003C153.057 51.3677 154.49 52.8003 156.257 52.8003H181.857C183.624 52.8003 185.057 51.3677 185.057 49.6003V48.0003C185.057 47.5301 185.263 47.0837 185.622 46.7795C185.985 46.4695 186.467 46.3389 186.937 46.4243C187.736 46.6197 188.287 47.3497 188.257 48.1715V49.6003Z" fill="#313131"/>
<path d="M176.627 6.86881C176.013 6.23321 175.001 6.21561 174.365 6.82961C174.352 6.84241 174.339 6.85561 174.326 6.86881L165.857 15.3376L163.788 13.2688C163.153 12.6548 162.14 12.6724 161.526 13.308C160.927 13.928 160.927 14.9112 161.526 15.5312L164.726 18.7312C165.351 19.3558 166.363 19.3558 166.988 18.7312L176.588 9.13121C177.224 8.51721 177.241 7.50441 176.627 6.86881Z" fill="#313131"/>
<rect x="79.7848" y="-14" width="172.792" height="140.597" rx="25" fill="url(#paint2_linear)"/>
<path fill-rule="evenodd" clip-rule="evenodd" d="M42.6016 75.2358C42.6016 75.2358 63.9616 -39.6096 113.519 30.6039C153.73 87.5755 158.507 94.3794 176.996 83.0078C198.678 69.6727 202.677 30.6039 213.464 30.6039C224.251 30.6039 240.153 99.0056 248.911 87.5755C257.669 76.1454 264.468 41.8044 282.304 41.8044C300.141 41.8044 297.544 84.2166 297.544 84.2166L290.175 133.747L184.224 126.671L45.1649 143" fill="url(#paint3_linear)"/>
</g>
<mask id="mask2" mask-type="alpha" maskUnits="userSpaceOnUse" x="192" y="0" width="96" height="96">
<path d="M224 92.7994H196.801C195.917 92.7994 195.201 92.083 195.201 91.1994V14.4001C195.201 13.5165 195.917 12.8001 196.801 12.8001H209.6C210.484 12.8001 211.2 12.0837 211.2 11.2001C211.2 10.3165 210.484 9.6001 209.6 9.6001H196.801C194.15 9.6001 192.001 11.7491 192.001 14.4001V91.1994C192.001 93.8504 194.15 95.9994 196.801 95.9994H224C224.884 95.9994 225.6 95.283 225.6 94.3994C225.6 93.5158 224.884 92.7994 224 92.7994Z" fill="#313131"/>
<path d="M267.2 68.7993C266.316 68.7993 265.6 69.5157 265.6 70.3993V91.1991C265.6 92.0827 264.884 92.7991 264 92.7991H240C239.117 92.7991 238.4 93.5155 238.4 94.3991C238.4 95.2827 239.117 95.9991 240 95.9991H264C266.651 95.9991 268.8 93.8501 268.8 91.1991V70.3993C268.8 69.5157 268.084 68.7993 267.2 68.7993Z" fill="#313131"/>
<path d="M264 9.6001H251.2C250.316 9.6001 249.6 10.3165 249.6 11.2001C249.6 12.0837 250.316 12.8001 251.2 12.8001H264C264.884 12.8001 265.6 13.5165 265.6 14.4001V44.7998C265.6 45.6834 266.316 46.3998 267.2 46.3998C268.084 46.3998 268.8 45.6834 268.8 44.7998V14.4001C268.8 11.7491 266.651 9.6001 264 9.6001Z" fill="#313131"/>
<path d="M244.8 5.66235H241.6V1.59999C241.6 0.716394 240.884 0 240 0H220.8C219.917 0 219.2 0.716394 219.2 1.59999V5.66235H216C215.117 5.66235 214.4 6.37875 214.4 7.26234V20.7998C214.4 21.6834 215.117 22.3998 216 22.3998H244.8C245.684 22.3998 246.4 21.6834 246.4 20.7998V7.26234C246.4 6.37875 245.684 5.66235 244.8 5.66235ZM243.2 19.1998H217.6V8.86233H220.8C221.684 8.86233 222.4 8.14593 222.4 7.26234V3.19997H238.4V7.26234C238.4 8.14593 239.117 8.86233 240 8.86233H243.2V19.1998Z" fill="#313131"/>
<path d="M235.2 25.5996H225.6C224.717 25.5996 224 26.316 224 27.1996V33.5995C224 34.4831 224.717 35.1995 225.6 35.1995H235.2C236.084 35.1995 236.8 34.4831 236.8 33.5995V27.1996C236.8 26.316 236.084 25.5996 235.2 25.5996ZM233.6 31.9996H227.2V28.7996H233.6V31.9996Z" fill="#313131"/>
<path d="M227.2 71.9995H217.6C216.717 71.9995 216 72.7159 216 73.5995V79.9994C216 80.883 216.717 81.5994 217.6 81.5994H227.2C228.084 81.5994 228.8 80.883 228.8 79.9994V73.5995C228.8 72.7159 228.084 71.9995 227.2 71.9995ZM225.6 78.3995H219.2V75.1995H225.6V78.3995Z" fill="#313131"/>
<path d="M235.2 49.5996H225.6C224.717 49.5996 224 50.316 224 51.1996V57.5995C224 58.4831 224.717 59.1995 225.6 59.1995H235.2C236.084 59.1995 236.8 58.4831 236.8 57.5995V51.1996C236.8 50.316 236.084 49.5996 235.2 49.5996ZM233.6 55.9996H227.2V52.7996H233.6V55.9996Z" fill="#313131"/>
<path d="M251.2 49.5996H241.6C240.717 49.5996 240 50.316 240 51.1996V57.5995C240 58.4831 240.717 59.1995 241.6 59.1995H251.2C252.084 59.1995 252.8 58.4831 252.8 57.5995V51.1996C252.8 50.316 252.084 49.5996 251.2 49.5996ZM249.6 55.9996H243.2V52.7996H249.6V55.9996Z" fill="#313131"/>
<path d="M219.2 49.5996H209.6C208.717 49.5996 208 50.316 208 51.1996V57.5995C208 58.4831 208.717 59.1995 209.6 59.1995H219.2C220.084 59.1995 220.8 58.4831 220.8 57.5995V51.1996C220.8 50.316 220.084 49.5996 219.2 49.5996ZM217.6 55.9996H211.2V52.7996H217.6V55.9996Z" fill="#313131"/>
<path d="M246.4 41.5999H232V39.9999C232 39.1163 231.284 38.3999 230.4 38.3999C229.517 38.3999 228.8 39.1163 228.8 39.9999V41.5999H214.401C213.517 41.5999 212.801 42.3163 212.801 43.1999V44.7998C212.801 45.6834 213.517 46.3998 214.401 46.3998C215.284 46.3998 216.001 45.6834 216.001 44.7998H228.8C228.8 45.6834 229.517 46.3998 230.4 46.3998C231.284 46.3998 232 45.6834 232 44.7998H244.8C244.8 45.6834 245.517 46.3998 246.4 46.3998C247.284 46.3998 248 45.6834 248 44.7998V43.1999C248 42.3163 247.284 41.5999 246.4 41.5999Z" fill="#313131"/>
<path d="M246.4 62.3994C245.517 62.3994 244.8 63.1158 244.8 63.9994H222.4C221.517 63.9994 220.8 64.7158 220.8 65.5994V67.1994C220.8 68.083 221.517 68.7994 222.4 68.7994C223.284 68.7994 224 68.083 224 67.1994H246.4C247.284 67.1994 248 66.483 248 65.5994V63.9994C248 63.1158 247.284 62.3994 246.4 62.3994Z" fill="#313131"/>
<path d="M276.331 53.2684L271.531 48.4684C270.906 47.8439 269.894 47.8439 269.269 48.4684L238.869 78.8682C238.834 78.9142 238.802 78.9622 238.773 79.0122C238.743 79.0506 238.696 79.0714 238.669 79.1114L229.069 93.5113C228.578 94.2461 228.776 95.2397 229.511 95.7305C230.049 96.0898 230.75 96.0898 231.288 95.7305L245.688 86.1305C245.728 86.1033 245.749 86.0569 245.787 86.0265C245.837 85.9971 245.885 85.9651 245.931 85.9305L276.331 55.5308C276.956 54.906 276.956 53.8932 276.331 53.2684ZM236.168 88.6393L240.248 82.5194L242.29 84.5593L236.168 88.6393ZM244.8 82.537L242.263 79.9994L270.4 51.862L272.938 54.3996L244.8 82.537Z" fill="#313131"/>
<path d="M279.531 50.0685L274.731 45.2686C274.096 44.6546 273.083 44.6722 272.469 45.3078C271.87 45.9278 271.87 46.9108 272.469 47.531L277.269 52.3309C277.569 52.6309 277.976 52.7997 278.4 52.7997C279.284 52.7995 280 52.0831 280 51.1993C280 50.7753 279.831 50.3685 279.531 50.0685Z" fill="#313131"/>
<path d="M287.531 42.0682L282.731 37.2683C282.106 36.6437 281.094 36.6437 280.469 37.2683L275.669 42.0682C275.044 42.693 275.044 43.7058 275.669 44.3306L280.469 49.1305C281.094 49.7551 282.106 49.7551 282.731 49.1305L287.531 44.3306C288.156 43.7058 288.156 42.693 287.531 42.0682ZM281.6 45.737L279.062 43.1994L281.6 40.6618L284.138 43.1994L281.6 45.737Z" fill="#313131"/>
</mask>
<g mask="url(#mask2)">
<path d="M224 92.7994H196.801C195.917 92.7994 195.201 92.083 195.201 91.1994V14.4001C195.201 13.5165 195.917 12.8001 196.801 12.8001H209.6C210.484 12.8001 211.2 12.0837 211.2 11.2001C211.2 10.3165 210.484 9.6001 209.6 9.6001H196.801C194.15 9.6001 192.001 11.7491 192.001 14.4001V91.1994C192.001 93.8504 194.15 95.9994 196.801 95.9994H224C224.884 95.9994 225.6 95.283 225.6 94.3994C225.6 93.5158 224.884 92.7994 224 92.7994Z" fill="#313131"/>
<path d="M267.2 68.7993C266.316 68.7993 265.6 69.5157 265.6 70.3993V91.1991C265.6 92.0827 264.884 92.7991 264 92.7991H240C239.117 92.7991 238.4 93.5155 238.4 94.3991C238.4 95.2827 239.117 95.9991 240 95.9991H264C266.651 95.9991 268.8 93.8501 268.8 91.1991V70.3993C268.8 69.5157 268.084 68.7993 267.2 68.7993Z" fill="#313131"/>
<path d="M264 9.6001H251.2C250.316 9.6001 249.6 10.3165 249.6 11.2001C249.6 12.0837 250.316 12.8001 251.2 12.8001H264C264.884 12.8001 265.6 13.5165 265.6 14.4001V44.7998C265.6 45.6834 266.316 46.3998 267.2 46.3998C268.084 46.3998 268.8 45.6834 268.8 44.7998V14.4001C268.8 11.7491 266.651 9.6001 264 9.6001Z" fill="#313131"/>
<path d="M244.8 5.66235H241.6V1.59999C241.6 0.716394 240.884 0 240 0H220.8C219.917 0 219.2 0.716394 219.2 1.59999V5.66235H216C215.117 5.66235 214.4 6.37875 214.4 7.26234V20.7998C214.4 21.6834 215.117 22.3998 216 22.3998H244.8C245.684 22.3998 246.4 21.6834 246.4 20.7998V7.26234C246.4 6.37875 245.684 5.66235 244.8 5.66235ZM243.2 19.1998H217.6V8.86233H220.8C221.684 8.86233 222.4 8.14593 222.4 7.26234V3.19997H238.4V7.26234C238.4 8.14593 239.117 8.86233 240 8.86233H243.2V19.1998Z" fill="#313131"/>
<path d="M235.2 25.5996H225.6C224.717 25.5996 224 26.316 224 27.1996V33.5995C224 34.4831 224.717 35.1995 225.6 35.1995H235.2C236.084 35.1995 236.8 34.4831 236.8 33.5995V27.1996C236.8 26.316 236.084 25.5996 235.2 25.5996ZM233.6 31.9996H227.2V28.7996H233.6V31.9996Z" fill="#313131"/>
<path d="M227.2 71.9995H217.6C216.717 71.9995 216 72.7159 216 73.5995V79.9994C216 80.883 216.717 81.5994 217.6 81.5994H227.2C228.084 81.5994 228.8 80.883 228.8 79.9994V73.5995C228.8 72.7159 228.084 71.9995 227.2 71.9995ZM225.6 78.3995H219.2V75.1995H225.6V78.3995Z" fill="#313131"/>
<path d="M235.2 49.5996H225.6C224.717 49.5996 224 50.316 224 51.1996V57.5995C224 58.4831 224.717 59.1995 225.6 59.1995H235.2C236.084 59.1995 236.8 58.4831 236.8 57.5995V51.1996C236.8 50.316 236.084 49.5996 235.2 49.5996ZM233.6 55.9996H227.2V52.7996H233.6V55.9996Z" fill="#313131"/>
<path d="M251.2 49.5996H241.6C240.717 49.5996 240 50.316 240 51.1996V57.5995C240 58.4831 240.717 59.1995 241.6 59.1995H251.2C252.084 59.1995 252.8 58.4831 252.8 57.5995V51.1996C252.8 50.316 252.084 49.5996 251.2 49.5996ZM249.6 55.9996H243.2V52.7996H249.6V55.9996Z" fill="#313131"/>
<path d="M219.2 49.5996H209.6C208.717 49.5996 208 50.316 208 51.1996V57.5995C208 58.4831 208.717 59.1995 209.6 59.1995H219.2C220.084 59.1995 220.8 58.4831 220.8 57.5995V51.1996C220.8 50.316 220.084 49.5996 219.2 49.5996ZM217.6 55.9996H211.2V52.7996H217.6V55.9996Z" fill="#313131"/>
<path d="M246.4 41.5999H232V39.9999C232 39.1163 231.284 38.3999 230.4 38.3999C229.517 38.3999 228.8 39.1163 228.8 39.9999V41.5999H214.401C213.517 41.5999 212.801 42.3163 212.801 43.1999V44.7998C212.801 45.6834 213.517 46.3998 214.401 46.3998C215.284 46.3998 216.001 45.6834 216.001 44.7998H228.8C228.8 45.6834 229.517 46.3998 230.4 46.3998C231.284 46.3998 232 45.6834 232 44.7998H244.8C244.8 45.6834 245.517 46.3998 246.4 46.3998C247.284 46.3998 248 45.6834 248 44.7998V43.1999C248 42.3163 247.284 41.5999 246.4 41.5999Z" fill="#313131"/>
<path d="M246.4 62.3994C245.517 62.3994 244.8 63.1158 244.8 63.9994H222.4C221.517 63.9994 220.8 64.7158 220.8 65.5994V67.1994C220.8 68.083 221.517 68.7994 222.4 68.7994C223.284 68.7994 224 68.083 224 67.1994H246.4C247.284 67.1994 248 66.483 248 65.5994V63.9994C248 63.1158 247.284 62.3994 246.4 62.3994Z" fill="#313131"/>
<path d="M276.331 53.2684L271.531 48.4684C270.906 47.8439 269.894 47.8439 269.269 48.4684L238.869 78.8682C238.834 78.9142 238.802 78.9622 238.773 79.0122C238.743 79.0506 238.696 79.0714 238.669 79.1114L229.069 93.5113C228.578 94.2461 228.776 95.2397 229.511 95.7305C230.049 96.0898 230.75 96.0898 231.288 95.7305L245.688 86.1305C245.728 86.1033 245.749 86.0569 245.787 86.0265C245.837 85.9971 245.885 85.9651 245.931 85.9305L276.331 55.5308C276.956 54.906 276.956 53.8932 276.331 53.2684ZM236.168 88.6393L240.248 82.5194L242.29 84.5593L236.168 88.6393ZM244.8 82.537L242.263 79.9994L270.4 51.862L272.938 54.3996L244.8 82.537Z" fill="#313131"/>
<path d="M279.531 50.0685L274.731 45.2686C274.096 44.6546 273.083 44.6722 272.469 45.3078C271.87 45.9278 271.87 46.9108 272.469 47.531L277.269 52.3309C277.569 52.6309 277.976 52.7997 278.4 52.7997C279.284 52.7995 280 52.0831 280 51.1993C280 50.7753 279.831 50.3685 279.531 50.0685Z" fill="#313131"/>
<path d="M287.531 42.0682L282.731 37.2683C282.106 36.6437 281.094 36.6437 280.469 37.2683L275.669 42.0682C275.044 42.693 275.044 43.7058 275.669 44.3306L280.469 49.1305C281.094 49.7551 282.106 49.7551 282.731 49.1305L287.531 44.3306C288.156 43.7058 288.156 42.693 287.531 42.0682ZM281.6 45.737L279.062 43.1994L281.6 40.6618L284.138 43.1994L281.6 45.737Z" fill="#313131"/>
<rect x="175.785" y="-14" width="172.792" height="140.597" rx="25" fill="url(#paint4_linear)"/>
<path fill-rule="evenodd" clip-rule="evenodd" d="M138.602 75.2358C138.602 75.2358 159.962 -39.6096 209.519 30.6039C249.73 87.5755 254.507 94.3794 272.996 83.0078C294.678 69.6727 298.677 30.6039 309.464 30.6039C320.251 30.6039 336.153 99.0056 344.911 87.5755C353.669 76.1454 360.468 41.8044 378.304 41.8044C396.141 41.8044 393.544 84.2166 393.544 84.2166L386.175 133.747L280.224 126.671L141.165 143" fill="url(#paint5_linear)"/>
</g>
<g clip-path="url(#clip0)">
<mask id="mask3" mask-type="alpha" maskUnits="userSpaceOnUse" x="287" y="6" width="97" height="84">
<path d="M383.531 45.2809L358.676 20.4304L369.17 9.10112C369.783 8.46394 369.762 7.45117 369.125 6.83899C368.488 6.2266 367.475 6.2468 366.863 6.88398C366.85 6.89758 366.837 6.91138 366.825 6.92538L355.305 19.3634L344.126 30.5407C343.501 31.1655 343.501 32.1783 344.126 32.8031L344.888 33.5663L340.478 37.755C340.18 38.0369 339.786 38.1939 339.376 38.1933H332.816C332.647 38.2005 332.479 38.2165 332.312 38.2413L326.986 32.0911L327.874 31.2031C328.498 30.5783 328.498 29.5656 327.874 28.9408L316.695 17.7731L306.775 6.94138C306.179 6.2892 305.166 6.2442 304.514 6.84058C303.862 7.43697 303.817 8.44914 304.413 9.10132L313.322 18.8323L288.468 43.681C287.844 44.3058 287.844 45.3185 288.468 45.9433L299.668 57.143C300.293 57.7676 301.306 57.7676 301.93 57.143L302.399 56.6742L309.485 63.7604L308.409 64.7812C306.319 66.7348 306.209 70.0121 308.163 72.1014C308.242 72.1862 308.324 72.2682 308.409 72.3474C309.455 73.3302 310.839 73.8738 312.274 73.8658H312.296C312.31 75.2809 312.902 76.6289 313.935 77.5969C314.981 78.5788 316.364 79.1216 317.799 79.1136H317.823C317.836 80.5282 318.427 81.876 319.459 82.8431C320.506 83.8251 321.889 84.3679 323.323 84.3599H323.346C323.359 85.7753 323.951 87.1234 324.984 88.091C327.163 90.1125 330.533 90.1125 332.712 88.091L334.088 86.7854L335.381 88.1086C336.421 89.0822 337.796 89.6187 339.221 89.6077C342.234 89.6131 344.739 87.2884 344.958 84.2831C346.422 84.2595 347.82 83.6701 348.859 82.6383C349.895 81.6678 350.487 80.3142 350.497 78.8944C351.987 78.8882 353.418 78.3117 354.497 77.2833C355.527 76.3175 356.118 74.9733 356.134 73.5618C356.148 73.5618 356.161 73.5618 356.175 73.5618C357.587 73.5714 358.948 73.0388 359.978 72.0738C361.009 71.1116 361.595 69.7655 361.598 68.3555C361.596 66.9136 360.997 65.537 359.942 64.554L359.908 64.5204L368.084 56.7574L370.069 58.743C370.694 59.3676 371.707 59.3676 372.332 58.743L383.531 47.5433C384.156 46.9185 384.156 45.9057 383.531 45.2809ZM300.799 53.7495L291.862 44.8122L315.541 21.1328L324.479 30.0718L300.799 53.7495ZM313.932 70.0307C312.995 70.8991 311.547 70.8985 310.612 70.0291C309.805 69.2947 309.746 68.0449 310.48 67.2378C310.522 67.1918 310.566 67.1478 310.612 67.106L317.056 60.9861C317.992 60.1153 319.442 60.1153 320.378 60.9861C321.185 61.7213 321.244 62.9721 320.509 63.7796C320.467 63.8254 320.424 63.8692 320.378 63.9108L313.932 70.0307ZM319.458 75.2753C318.515 76.1293 317.079 76.1293 316.136 75.2753C315.329 74.5402 315.27 73.2894 316.005 72.4818C316.047 72.436 316.091 72.3924 316.136 72.3506L322.581 66.2324C323.517 65.3616 324.967 65.3616 325.903 66.2324C326.71 66.9668 326.769 68.2165 326.034 69.0237C325.993 69.0697 325.949 69.1137 325.903 69.1555L319.458 75.2753ZM324.983 80.52C324.047 81.3908 322.597 81.3908 321.661 80.52C320.853 79.7848 320.795 78.534 321.53 77.7265C321.571 77.6807 321.615 77.6371 321.661 77.5953L328.106 71.4754C329.042 70.6053 330.492 70.6053 331.429 71.4754C332.236 72.2132 332.293 73.4662 331.555 74.2738C331.515 74.3178 331.473 74.36 331.429 74.4002L324.983 80.52ZM330.507 85.7711C329.572 86.6432 328.121 86.6432 327.186 85.7711C326.378 85.0367 326.319 83.7869 327.054 82.9797C327.096 82.9337 327.14 82.8897 327.186 82.8479L333.632 76.7249C334.574 75.8705 336.01 75.8705 336.952 76.7249C337.759 77.4601 337.818 78.7108 337.083 79.5184C337.041 79.5642 336.998 79.608 336.952 79.6496L330.507 85.7711ZM340.958 85.7247L340.961 85.7311C340.043 86.6232 338.595 86.6656 337.625 85.8287L336.406 84.5823L339.155 81.9728C339.382 81.7524 339.589 81.5124 339.774 81.256L341.297 82.7791C341.624 83.0807 341.806 83.5075 341.798 83.9519C341.767 84.6313 341.464 85.2699 340.958 85.7247ZM357.778 69.7587C356.845 70.6083 355.413 70.5895 354.502 69.7155L349.566 65.0308C348.925 64.421 347.911 64.4464 347.301 65.0876C346.691 65.7286 346.717 66.7426 347.358 67.3523L352.292 72.0386C352.698 72.4162 352.93 72.945 352.932 73.4994C352.915 74.108 352.638 74.68 352.171 75.0705C351.235 75.9427 349.784 75.9427 348.849 75.0705L344.328 70.7779C343.686 70.1695 342.674 70.1961 342.065 70.8371C341.457 71.478 341.483 72.491 342.124 73.0994L346.646 77.3921C347.052 77.7705 347.284 78.2997 347.286 78.8544C347.269 79.463 346.991 80.035 346.524 80.4256C345.733 81.2726 344.404 81.3174 343.557 80.5256C343.541 80.5106 343.526 80.4954 343.51 80.48L341.91 78.88L340.729 77.6993C340.618 76.4407 340.049 75.2669 339.129 74.4002C338.078 73.4126 336.685 72.8698 335.243 72.885C335.23 71.4698 334.639 70.1217 333.606 69.1539C332.554 68.1669 331.161 67.6241 329.718 67.6387C329.705 66.224 329.113 64.8762 328.08 63.9092C327.028 62.9225 325.636 62.3799 324.194 62.3941C324.18 60.9787 323.588 59.6306 322.555 58.663C320.376 56.6422 317.007 56.6422 314.828 58.663L311.788 61.5557L304.661 54.4119L324.714 34.3596L329.326 39.6923L323.272 45.4425C321.608 47.0057 321.526 49.622 323.089 51.2864C323.148 51.3494 323.209 51.4104 323.272 51.4696C324.937 53.0181 327.497 53.0773 329.232 51.6072L336.293 47.4473C336.917 47.0795 337.711 47.1773 338.227 47.6857L352.34 61.6053C352.419 61.7745 352.527 61.9285 352.66 62.0597L356.465 65.674L357.559 66.7524L357.58 66.7316L357.735 66.8756C358.151 67.256 358.39 67.7921 358.394 68.3555C358.393 68.8883 358.17 69.3967 357.778 69.7587ZM357.598 62.2949L340.478 45.4009C338.929 43.873 336.545 43.5788 334.67 44.6842L327.47 48.924L327.181 49.1432C326.695 49.5762 325.962 49.5762 325.477 49.1432C325.094 48.7941 325.066 48.2001 325.415 47.8165C325.435 47.7949 325.455 47.7741 325.477 47.7545L331.717 41.8346C332.013 41.551 332.407 41.3929 332.818 41.3931H339.377C340.608 41.3953 341.791 40.9237 342.683 40.0763L347.129 35.8524L365.709 54.5959L357.598 62.2949ZM371.197 55.3495L347.518 31.6701L356.457 22.7328L380.135 46.4121L371.197 55.3495Z" fill="#313131"/>
<path d="M300.799 48.0116C302.567 48.0116 303.999 46.579 303.999 44.8117C303.999 43.0445 302.567 41.6118 300.799 41.6118C299.032 41.6118 297.599 43.0445 297.599 44.8117C297.599 46.579 299.032 48.0116 300.799 48.0116Z" fill="#313131"/>
<path d="M371.197 49.6117C372.965 49.6117 374.397 48.1791 374.397 46.4118C374.397 44.6446 372.965 43.2119 371.197 43.2119C369.43 43.2119 367.997 44.6446 367.997 46.4118C367.997 48.1791 369.43 49.6117 371.197 49.6117Z" fill="#313131"/>
</mask>
<g mask="url(#mask3)">
<path d="M383.531 45.2809L358.676 20.4304L369.17 9.10112C369.783 8.46394 369.762 7.45117 369.125 6.83899C368.488 6.2266 367.475 6.2468 366.863 6.88398C366.85 6.89758 366.837 6.91138 366.825 6.92538L355.305 19.3634L344.126 30.5407C343.501 31.1655 343.501 32.1783 344.126 32.8031L344.888 33.5663L340.478 37.755C340.18 38.0369 339.786 38.1939 339.376 38.1933H332.816C332.647 38.2005 332.479 38.2165 332.312 38.2413L326.986 32.0911L327.874 31.2031C328.498 30.5783 328.498 29.5656 327.874 28.9408L316.695 17.7731L306.775 6.94138C306.179 6.2892 305.166 6.2442 304.514 6.84058C303.862 7.43697 303.817 8.44914 304.413 9.10132L313.322 18.8323L288.468 43.681C287.844 44.3058 287.844 45.3185 288.468 45.9433L299.668 57.143C300.293 57.7676 301.306 57.7676 301.93 57.143L302.399 56.6742L309.485 63.7604L308.409 64.7812C306.319 66.7348 306.209 70.0121 308.163 72.1014C308.242 72.1862 308.324 72.2682 308.409 72.3474C309.455 73.3302 310.839 73.8738 312.274 73.8658H312.296C312.31 75.2809 312.902 76.6289 313.935 77.5969C314.981 78.5788 316.364 79.1216 317.799 79.1136H317.823C317.836 80.5282 318.427 81.876 319.459 82.8431C320.506 83.8251 321.889 84.3679 323.323 84.3599H323.346C323.359 85.7753 323.951 87.1234 324.984 88.091C327.163 90.1125 330.533 90.1125 332.712 88.091L334.088 86.7854L335.381 88.1086C336.421 89.0822 337.796 89.6187 339.221 89.6077C342.234 89.6131 344.739 87.2884 344.958 84.2831C346.422 84.2595 347.82 83.6701 348.859 82.6383C349.895 81.6678 350.487 80.3142 350.497 78.8944C351.987 78.8882 353.418 78.3117 354.497 77.2833C355.527 76.3175 356.118 74.9733 356.134 73.5618C356.148 73.5618 356.161 73.5618 356.175 73.5618C357.587 73.5714 358.948 73.0388 359.978 72.0738C361.009 71.1116 361.595 69.7655 361.598 68.3555C361.596 66.9136 360.997 65.537 359.942 64.554L359.908 64.5204L368.084 56.7574L370.069 58.743C370.694 59.3676 371.707 59.3676 372.332 58.743L383.531 47.5433C384.156 46.9185 384.156 45.9057 383.531 45.2809ZM300.799 53.7495L291.862 44.8122L315.541 21.1328L324.479 30.0718L300.799 53.7495ZM313.932 70.0307C312.995 70.8991 311.547 70.8985 310.612 70.0291C309.805 69.2947 309.746 68.0449 310.48 67.2378C310.522 67.1918 310.566 67.1478 310.612 67.106L317.056 60.9861C317.992 60.1153 319.442 60.1153 320.378 60.9861C321.185 61.7213 321.244 62.9721 320.509 63.7796C320.467 63.8254 320.424 63.8692 320.378 63.9108L313.932 70.0307ZM319.458 75.2753C318.515 76.1293 317.079 76.1293 316.136 75.2753C315.329 74.5402 315.27 73.2894 316.005 72.4818C316.047 72.436 316.091 72.3924 316.136 72.3506L322.581 66.2324C323.517 65.3616 324.967 65.3616 325.903 66.2324C326.71 66.9668 326.769 68.2165 326.034 69.0237C325.993 69.0697 325.949 69.1137 325.903 69.1555L319.458 75.2753ZM324.983 80.52C324.047 81.3908 322.597 81.3908 321.661 80.52C320.853 79.7848 320.795 78.534 321.53 77.7265C321.571 77.6807 321.615 77.6371 321.661 77.5953L328.106 71.4754C329.042 70.6053 330.492 70.6053 331.429 71.4754C332.236 72.2132 332.293 73.4662 331.555 74.2738C331.515 74.3178 331.473 74.36 331.429 74.4002L324.983 80.52ZM330.507 85.7711C329.572 86.6432 328.121 86.6432 327.186 85.7711C326.378 85.0367 326.319 83.7869 327.054 82.9797C327.096 82.9337 327.14 82.8897 327.186 82.8479L333.632 76.7249C334.574 75.8705 336.01 75.8705 336.952 76.7249C337.759 77.4601 337.818 78.7108 337.083 79.5184C337.041 79.5642 336.998 79.608 336.952 79.6496L330.507 85.7711ZM340.958 85.7247L340.961 85.7311C340.043 86.6232 338.595 86.6656 337.625 85.8287L336.406 84.5823L339.155 81.9728C339.382 81.7524 339.589 81.5124 339.774 81.256L341.297 82.7791C341.624 83.0807 341.806 83.5075 341.798 83.9519C341.767 84.6313 341.464 85.2699 340.958 85.7247ZM357.778 69.7587C356.845 70.6083 355.413 70.5895 354.502 69.7155L349.566 65.0308C348.925 64.421 347.911 64.4464 347.301 65.0876C346.691 65.7286 346.717 66.7426 347.358 67.3523L352.292 72.0386C352.698 72.4162 352.93 72.945 352.932 73.4994C352.915 74.108 352.638 74.68 352.171 75.0705C351.235 75.9427 349.784 75.9427 348.849 75.0705L344.328 70.7779C343.686 70.1695 342.674 70.1961 342.065 70.8371C341.457 71.478 341.483 72.491 342.124 73.0994L346.646 77.3921C347.052 77.7705 347.284 78.2997 347.286 78.8544C347.269 79.463 346.991 80.035 346.524 80.4256C345.733 81.2726 344.404 81.3174 343.557 80.5256C343.541 80.5106 343.526 80.4954 343.51 80.48L341.91 78.88L340.729 77.6993C340.618 76.4407 340.049 75.2669 339.129 74.4002C338.078 73.4126 336.685 72.8698 335.243 72.885C335.23 71.4698 334.639 70.1217 333.606 69.1539C332.554 68.1669 331.161 67.6241 329.718 67.6387C329.705 66.224 329.113 64.8762 328.08 63.9092C327.028 62.9225 325.636 62.3799 324.194 62.3941C324.18 60.9787 323.588 59.6306 322.555 58.663C320.376 56.6422 317.007 56.6422 314.828 58.663L311.788 61.5557L304.661 54.4119L324.714 34.3596L329.326 39.6923L323.272 45.4425C321.608 47.0057 321.526 49.622 323.089 51.2864C323.148 51.3494 323.209 51.4104 323.272 51.4696C324.937 53.0181 327.497 53.0773 329.232 51.6072L336.293 47.4473C336.917 47.0795 337.711 47.1773 338.227 47.6857L352.34 61.6053C352.419 61.7745 352.527 61.9285 352.66 62.0597L356.465 65.674L357.559 66.7524L357.58 66.7316L357.735 66.8756C358.151 67.256 358.39 67.7921 358.394 68.3555C358.393 68.8883 358.17 69.3967 357.778 69.7587ZM357.598 62.2949L340.478 45.4009C338.929 43.873 336.545 43.5788 334.67 44.6842L327.47 48.924L327.181 49.1432C326.695 49.5762 325.962 49.5762 325.477 49.1432C325.094 48.7941 325.066 48.2001 325.415 47.8165C325.435 47.7949 325.455 47.7741 325.477 47.7545L331.717 41.8346C332.013 41.551 332.407 41.3929 332.818 41.3931H339.377C340.608 41.3953 341.791 40.9237 342.683 40.0763L347.129 35.8524L365.709 54.5959L357.598 62.2949ZM371.197 55.3495L347.518 31.6701L356.457 22.7328L380.135 46.4121L371.197 55.3495Z" fill="#313131"/>
<path d="M300.799 48.0116C302.567 48.0116 303.999 46.579 303.999 44.8117C303.999 43.0445 302.567 41.6118 300.799 41.6118C299.032 41.6118 297.599 43.0445 297.599 44.8117C297.599 46.579 299.032 48.0116 300.799 48.0116Z" fill="#313131"/>
<path d="M371.197 49.6117C372.965 49.6117 374.397 48.1791 374.397 46.4118C374.397 44.6446 372.965 43.2119 371.197 43.2119C369.43 43.2119 367.997 44.6446 367.997 46.4118C367.997 48.1791 369.43 49.6117 371.197 49.6117Z" fill="#313131"/>
<rect x="271.785" y="-14" width="172.792" height="140.597" rx="25" fill="url(#paint6_linear)"/>
<path fill-rule="evenodd" clip-rule="evenodd" d="M234.602 75.2358C234.602 75.2358 255.962 -39.6096 305.519 30.6039C345.73 87.5755 350.507 94.3794 368.996 83.0078C390.678 69.6727 394.677 30.6039 405.464 30.6039C416.251 30.6039 432.153 99.0056 440.911 87.5755C449.669 76.1454 456.468 41.8044 474.304 41.8044C492.141 41.8044 489.544 84.2166 489.544 84.2166L482.175 133.747L376.224 126.671L237.165 143" fill="url(#paint7_linear)"/>
</g>
</g>
<defs>
<linearGradient id="paint0_linear" x1="-26.2151" y1="56.2984" x2="145.596" y2="56.4545" gradientUnits="userSpaceOnUse">
<stop stop-color="#459622"/>
<stop offset="1" stop-color="#B0E94F"/>
</linearGradient>
<linearGradient id="paint1_linear" x1="182.461" y1="46.9252" x2="-47.0964" y2="48.2089" gradientUnits="userSpaceOnUse">
<stop stop-color="#5CA82C"/>
<stop offset="0.0001" stop-color="#68B231"/>
<stop offset="1" stop-color="#A6E24B"/>
</linearGradient>
<linearGradient id="paint2_linear" x1="79.7848" y1="56.2984" x2="251.595" y2="56.4545" gradientUnits="userSpaceOnUse">
<stop stop-color="#459622"/>
<stop offset="1" stop-color="#B0E94F"/>
</linearGradient>
<linearGradient id="paint3_linear" x1="288.461" y1="46.9252" x2="58.9036" y2="48.2089" gradientUnits="userSpaceOnUse">
<stop stop-color="#5CA82C"/>
<stop offset="0.0001" stop-color="#68B231"/>
<stop offset="1" stop-color="#A6E24B"/>
</linearGradient>
<linearGradient id="paint4_linear" x1="175.785" y1="56.2984" x2="347.595" y2="56.4545" gradientUnits="userSpaceOnUse">
<stop stop-color="#459622"/>
<stop offset="1" stop-color="#B0E94F"/>
</linearGradient>
<linearGradient id="paint5_linear" x1="384.461" y1="46.9252" x2="154.904" y2="48.2089" gradientUnits="userSpaceOnUse">
<stop stop-color="#5CA82C"/>
<stop offset="0.0001" stop-color="#68B231"/>
<stop offset="1" stop-color="#A6E24B"/>
</linearGradient>
<linearGradient id="paint6_linear" x1="271.785" y1="56.2984" x2="443.595" y2="56.4545" gradientUnits="userSpaceOnUse">
<stop stop-color="#459622"/>
<stop offset="1" stop-color="#B0E94F"/>
</linearGradient>
<linearGradient id="paint7_linear" x1="480.461" y1="46.9252" x2="250.904" y2="48.2089" gradientUnits="userSpaceOnUse">
<stop stop-color="#5CA82C"/>
<stop offset="0.0001" stop-color="#68B231"/>
<stop offset="1" stop-color="#A6E24B"/>
</linearGradient>
<clipPath id="clip0">
<rect width="96" height="96" fill="white" transform="translate(288)"/>
</clipPath>
</defs>
</svg>
