<svg width="234" height="234" viewBox="0 0 234 234" fill="none" xmlns="http://www.w3.org/2000/svg">
<g clip-path="url(#clip0)">
<mask id="mask0" mask-type="alpha" maskUnits="userSpaceOnUse" x="-1" y="0" width="235" height="234">
<path d="M231.896 137.808C227.519 130.335 217.947 127.772 210.418 132.055L176.874 151.406C176.146 149.672 175.095 148.088 173.778 146.741C170.838 143.784 166.837 142.124 162.667 142.132H103.714C103.046 142.132 102.388 142.303 101.805 142.627L75.8095 157.091L71.4283 145.056C70.6895 143.015 68.4346 141.959 66.3928 142.698L29.4494 156.139C28.4688 156.494 27.6685 157.225 27.2253 158.169C26.7839 159.115 26.734 160.198 27.0909 161.178L28.4362 164.868L2.59444 174.285C1.61381 174.64 0.813571 175.369 0.370274 176.316C-0.0711036 177.26 -0.120999 178.342 0.235942 179.323L19.0655 231.029C19.8043 233.071 22.0592 234.126 24.1011 233.388L49.9562 223.979L51.3015 227.673C52.0403 229.715 54.2952 230.77 56.3351 230.031L93.2784 216.585C95.3203 215.848 96.3777 213.593 95.6369 211.551L94.6755 208.945H139.086C139.775 208.945 140.454 208.763 141.051 208.419L226.139 159.292C231.029 156.505 234.034 151.297 233.999 145.669C233.996 142.911 233.27 140.201 231.896 137.808ZM25.1105 224.666L8.99634 180.33L31.1554 172.264L47.2888 216.581L25.1105 224.666ZM57.3388 221.302L35.836 162.176L65.3795 151.42L86.8881 210.517L57.3388 221.302ZM222.209 152.485L138.032 201.085H91.8142L78.5249 164.573L104.735 149.992H162.667C164.749 149.988 166.749 150.817 168.217 152.295C169.069 153.145 169.704 154.187 170.071 155.333C170.387 156.135 170.543 156.991 170.527 157.853C170.527 162.193 167.008 165.713 162.667 165.713H119.435V173.573H162.667C170.602 173.548 177.271 167.601 178.2 159.72L214.333 138.866C216.765 137.463 219.76 137.463 222.192 138.866C224.623 140.268 226.122 142.861 226.124 145.669C226.143 148.48 224.648 151.084 222.209 152.485Z" fill="black"/>
<path d="M85.8039 91.0392H99.7841C101.273 91.0412 102.636 90.1987 103.302 88.8669L105.345 84.7755L107.848 92.2809C108.383 93.8852 109.884 94.9675 111.575 94.9694H127.295C128.986 94.9675 130.487 93.8852 131.02 92.2809L133.525 84.7755L135.568 88.8669C136.234 90.1987 137.597 91.0412 139.086 91.0392H153.066C155.641 91.0392 158.054 89.7765 159.522 87.6598C160.99 85.5431 161.328 82.8411 160.428 80.4289L152.538 59.402C150.997 55.3241 147.338 52.4244 143.016 51.8564V28.8836C143.032 24.9496 141.851 21.1038 139.633 17.8549C127.858 0.64502 121.517 0.64502 119.435 0.64502C117.351 0.64502 111.012 0.64502 99.241 17.8511C97.0188 21.1 95.8367 24.9477 95.8539 28.8836V51.8564C91.5342 52.4244 87.8765 55.3183 86.3317 59.3905L78.4425 80.4289C77.5406 82.8411 77.8802 85.5431 79.3483 87.6598C80.8164 89.7765 83.2286 91.0392 85.8039 91.0392ZM114.409 87.1091L113.096 83.1789H125.774L124.461 87.1091H114.409ZM145.177 62.1482L153.066 83.1789H141.515L141.172 82.4957C142.304 81.8029 143.001 80.5767 143.016 79.2487V59.947C144.008 60.3539 144.789 61.1503 145.177 62.1482ZM103.714 28.8836C103.701 26.5328 104.403 24.2357 105.727 22.2937C113.187 11.3859 117.957 8.50539 119.435 8.50539C120.913 8.50539 125.683 11.3859 133.147 22.2975C134.469 24.2376 135.169 26.5347 135.156 28.8836V75.3185H123.365V51.7374H115.505V75.3185H103.714V28.8836ZM93.6931 62.1443C94.0807 61.1464 94.8618 60.3539 95.8539 59.947V79.2487C95.8693 80.5767 96.5659 81.8029 97.6962 82.4957L97.3546 83.1789H85.8039L93.6931 62.1443Z" fill="black"/>
<path d="M119.435 39.9471C125.946 39.9471 131.226 34.6678 131.226 28.1565C131.226 21.6452 125.946 16.366 119.435 16.366C112.924 16.366 107.645 21.6452 107.645 28.1565C107.645 34.6678 112.924 39.9471 119.435 39.9471ZM119.435 24.2263C121.606 24.2263 123.365 25.9861 123.365 28.1565C123.365 30.3269 121.606 32.0867 119.435 32.0867C117.265 32.0867 115.505 30.3269 115.505 28.1565C115.505 25.9861 117.265 24.2263 119.435 24.2263Z" fill="black"/>
<path d="M115.505 110.69H123.365V134.271H115.505V110.69Z" fill="black"/>
<path d="M131.226 102.83H139.086V126.411H131.226V102.83Z" fill="black"/>
<path d="M99.7842 102.83H107.645V126.411H99.7842V102.83Z" fill="black"/>
<path d="M154.807 98.8997H146.946C146.964 114.087 159.27 126.394 174.458 126.411V118.551C163.609 118.537 154.82 109.748 154.807 98.8997Z" fill="black"/>
<path d="M64.4126 118.551V126.411C79.5998 126.394 91.9066 114.087 91.9239 98.8997H84.0635C84.0501 109.748 75.2609 118.537 64.4126 118.551Z" fill="black"/>
<path d="M182.318 29.7836V79.2487H190.178V29.7836L199.19 38.7954L204.748 33.2379L189.027 17.5172C187.492 15.9839 185.005 15.9839 183.469 17.5172L167.749 33.2379L173.306 38.7954L182.318 29.7836Z" fill="black"/>
<path d="M208.678 78.0974L213.759 73.0158V94.9696H221.62V73.0158L226.701 78.0974L232.259 72.5399L220.468 60.7493C218.933 59.216 216.446 59.216 214.911 60.7493L203.12 72.5399L208.678 78.0974Z" fill="black"/>
<path d="M48.6916 29.7836V79.2487H56.552V29.7836L65.5638 38.7954L71.1213 33.2379L55.4006 17.5172C53.8653 15.9839 51.3783 15.9839 49.843 17.5172L34.1223 33.2379L39.6798 38.7954L48.6916 29.7836Z" fill="black"/>
<path d="M213.759 102.83H221.62V110.69H213.759V102.83Z" fill="black"/>
<path d="M17.2502 73.0158V94.9696H25.1106V73.0158L30.1922 78.0974L35.7497 72.5399L23.9592 60.7493C22.4239 59.216 19.9369 59.216 18.4016 60.7493L6.61108 72.5399L12.1686 78.0974L17.2502 73.0158Z" fill="black"/>
<path d="M17.2502 102.83H25.1106V110.69H17.2502V102.83Z" fill="black"/>
<path d="M182.318 87.1091H190.178V94.9695H182.318V87.1091Z" fill="black"/>
<path d="M48.6917 87.1091H56.552V94.9695H48.6917V87.1091Z" fill="black"/>
</mask>
<g mask="url(#mask0)">
<path d="M231.896 137.808C227.519 130.335 217.947 127.772 210.418 132.055L176.874 151.406C176.146 149.672 175.095 148.088 173.778 146.741C170.838 143.784 166.837 142.124 162.667 142.132H103.714C103.046 142.132 102.388 142.303 101.805 142.627L75.8095 157.091L71.4283 145.056C70.6895 143.015 68.4346 141.959 66.3928 142.698L29.4494 156.139C28.4688 156.494 27.6685 157.225 27.2253 158.169C26.7839 159.115 26.734 160.198 27.0909 161.178L28.4362 164.868L2.59444 174.285C1.61381 174.64 0.813571 175.369 0.370274 176.316C-0.0711036 177.26 -0.120999 178.342 0.235942 179.323L19.0655 231.029C19.8043 233.071 22.0592 234.126 24.1011 233.388L49.9562 223.979L51.3015 227.673C52.0403 229.715 54.2952 230.77 56.3351 230.031L93.2784 216.585C95.3203 215.848 96.3777 213.593 95.6369 211.551L94.6755 208.945H139.086C139.775 208.945 140.454 208.763 141.051 208.419L226.139 159.292C231.029 156.505 234.034 151.297 233.999 145.669C233.996 142.911 233.27 140.201 231.896 137.808ZM25.1105 224.666L8.99634 180.33L31.1554 172.264L47.2888 216.581L25.1105 224.666ZM57.3388 221.302L35.836 162.176L65.3795 151.42L86.8881 210.517L57.3388 221.302ZM222.209 152.485L138.032 201.085H91.8142L78.5249 164.573L104.735 149.992H162.667C164.749 149.988 166.749 150.817 168.217 152.295C169.069 153.145 169.704 154.187 170.071 155.333C170.387 156.135 170.543 156.991 170.527 157.853C170.527 162.193 167.008 165.713 162.667 165.713H119.435V173.573H162.667C170.602 173.548 177.271 167.601 178.2 159.72L214.333 138.866C216.765 137.463 219.76 137.463 222.192 138.866C224.623 140.268 226.122 142.861 226.124 145.669C226.143 148.48 224.648 151.084 222.209 152.485Z" fill="black"/>
<path d="M85.8039 91.0392H99.7841C101.273 91.0412 102.636 90.1987 103.302 88.8669L105.345 84.7755L107.848 92.2809C108.383 93.8852 109.884 94.9675 111.575 94.9694H127.295C128.986 94.9675 130.487 93.8852 131.02 92.2809L133.525 84.7755L135.568 88.8669C136.234 90.1987 137.597 91.0412 139.086 91.0392H153.066C155.641 91.0392 158.054 89.7765 159.522 87.6598C160.99 85.5431 161.328 82.8411 160.428 80.4289L152.538 59.402C150.997 55.3241 147.338 52.4244 143.016 51.8564V28.8836C143.032 24.9496 141.851 21.1038 139.633 17.8549C127.858 0.64502 121.517 0.64502 119.435 0.64502C117.351 0.64502 111.012 0.64502 99.241 17.8511C97.0188 21.1 95.8367 24.9477 95.8539 28.8836V51.8564C91.5342 52.4244 87.8765 55.3183 86.3317 59.3905L78.4425 80.4289C77.5406 82.8411 77.8802 85.5431 79.3483 87.6598C80.8164 89.7765 83.2286 91.0392 85.8039 91.0392ZM114.409 87.1091L113.096 83.1789H125.774L124.461 87.1091H114.409ZM145.177 62.1482L153.066 83.1789H141.515L141.172 82.4957C142.304 81.8029 143.001 80.5767 143.016 79.2487V59.947C144.008 60.3539 144.789 61.1503 145.177 62.1482ZM103.714 28.8836C103.701 26.5328 104.403 24.2357 105.727 22.2937C113.187 11.3859 117.957 8.50539 119.435 8.50539C120.913 8.50539 125.683 11.3859 133.147 22.2975C134.469 24.2376 135.169 26.5347 135.156 28.8836V75.3185H123.365V51.7374H115.505V75.3185H103.714V28.8836ZM93.6931 62.1443C94.0807 61.1464 94.8618 60.3539 95.8539 59.947V79.2487C95.8693 80.5767 96.5659 81.8029 97.6962 82.4957L97.3546 83.1789H85.8039L93.6931 62.1443Z" fill="black"/>
<path d="M119.435 39.9471C125.946 39.9471 131.226 34.6678 131.226 28.1565C131.226 21.6452 125.946 16.366 119.435 16.366C112.924 16.366 107.645 21.6452 107.645 28.1565C107.645 34.6678 112.924 39.9471 119.435 39.9471ZM119.435 24.2263C121.606 24.2263 123.365 25.9861 123.365 28.1565C123.365 30.3269 121.606 32.0867 119.435 32.0867C117.265 32.0867 115.505 30.3269 115.505 28.1565C115.505 25.9861 117.265 24.2263 119.435 24.2263Z" fill="black"/>
<path d="M115.505 110.69H123.365V134.271H115.505V110.69Z" fill="black"/>
<path d="M131.226 102.83H139.086V126.411H131.226V102.83Z" fill="black"/>
<path d="M99.7842 102.83H107.645V126.411H99.7842V102.83Z" fill="black"/>
<path d="M154.807 98.8997H146.946C146.964 114.087 159.27 126.394 174.458 126.411V118.551C163.609 118.537 154.82 109.748 154.807 98.8997Z" fill="black"/>
<path d="M64.4126 118.551V126.411C79.5998 126.394 91.9066 114.087 91.9239 98.8997H84.0635C84.0501 109.748 75.2609 118.537 64.4126 118.551Z" fill="black"/>
<path d="M182.318 29.7836V79.2487H190.178V29.7836L199.19 38.7954L204.748 33.2379L189.027 17.5172C187.492 15.9839 185.005 15.9839 183.469 17.5172L167.749 33.2379L173.306 38.7954L182.318 29.7836Z" fill="black"/>
<path d="M208.678 78.0974L213.759 73.0158V94.9696H221.62V73.0158L226.701 78.0974L232.259 72.5399L220.468 60.7493C218.933 59.216 216.446 59.216 214.911 60.7493L203.12 72.5399L208.678 78.0974Z" fill="black"/>
<path d="M48.6916 29.7836V79.2487H56.552V29.7836L65.5638 38.7954L71.1213 33.2379L55.4006 17.5172C53.8653 15.9839 51.3783 15.9839 49.843 17.5172L34.1223 33.2379L39.6798 38.7954L48.6916 29.7836Z" fill="black"/>
<path d="M213.759 102.83H221.62V110.69H213.759V102.83Z" fill="black"/>
<path d="M17.2502 73.0158V94.9696H25.1106V73.0158L30.1922 78.0974L35.7497 72.5399L23.9592 60.7493C22.4239 59.216 19.9369 59.216 18.4016 60.7493L6.61108 72.5399L12.1686 78.0974L17.2502 73.0158Z" fill="black"/>
<path d="M17.2502 102.83H25.1106V110.69H17.2502V102.83Z" fill="black"/>
<path d="M182.318 87.1091H190.178V94.9695H182.318V87.1091Z" fill="black"/>
<path d="M48.6917 87.1091H56.552V94.9695H48.6917V87.1091Z" fill="black"/>
<rect x="-52.4573" y="-30" width="323.168" height="262.954" rx="25" fill="url(#paint0_linear)"/>
<path fill-rule="evenodd" clip-rule="evenodd" d="M-92 138.895C-92 138.895 -52.051 -75.8968 40.6345 55.4214C115.84 161.974 124.775 174.699 159.354 153.431C199.904 128.49 207.383 55.4214 227.558 55.4214C247.733 55.4214 277.475 183.351 293.855 161.974C310.234 140.596 322.95 76.3694 356.309 76.3694C389.668 76.3694 384.811 155.691 384.811 155.691L371.028 248.327L172.873 235.093L-87.2059 265.632" fill="url(#paint1_linear)"/>
</g>
</g>
<defs>
<linearGradient id="paint0_linear" x1="-52.4573" y1="101.477" x2="268.875" y2="101.769" gradientUnits="userSpaceOnUse">
<stop stop-color="#459622"/>
<stop offset="1" stop-color="#B0E94F"/>
</linearGradient>
<linearGradient id="paint1_linear" x1="367.822" y1="85.9466" x2="-61.5109" y2="88.3475" gradientUnits="userSpaceOnUse">
<stop stop-color="#5CA82C"/>
<stop offset="0.0001" stop-color="#68B231"/>
<stop offset="1" stop-color="#A6E24B"/>
</linearGradient>
<clipPath id="clip0">
<rect width="234" height="234" fill="white"/>
</clipPath>
</defs>
</svg>
