<svg width="96" height="96" viewBox="0 0 96 96" fill="none" xmlns="http://www.w3.org/2000/svg">
<mask id="mask0" mask-type="alpha" maskUnits="userSpaceOnUse" x="0" y="0" width="96" height="96">
<path d="M32.0003 92.7994H4.80057C3.91698 92.7994 3.20058 92.083 3.20058 91.1994V14.4001C3.20058 13.5165 3.91698 12.8001 4.80057 12.8001H17.6005C18.4841 12.8001 19.2005 12.0837 19.2005 11.2001C19.2005 10.3165 18.4841 9.6001 17.6005 9.6001H4.80057C2.14959 9.6001 0.000610352 11.7491 0.000610352 14.4001V91.1994C0.000610352 93.8504 2.14959 95.9994 4.80057 95.9994H32.0003C32.8839 95.9994 33.6003 95.283 33.6003 94.3994C33.6003 93.5158 32.8839 92.7994 32.0003 92.7994Z" fill="#313131"/>
<path d="M75.2 68.7993C74.3164 68.7993 73.6 69.5157 73.6 70.3993V91.1991C73.6 92.0827 72.8836 92.7991 72 92.7991H48.0003C47.1167 92.7991 46.4003 93.5155 46.4003 94.3991C46.4003 95.2827 47.1167 95.9991 48.0003 95.9991H72C74.651 95.9991 76.8 93.8501 76.8 91.1991V70.3993C76.8 69.5157 76.0836 68.7993 75.2 68.7993Z" fill="#313131"/>
<path d="M72 9.6001H59.2001C58.3165 9.6001 57.6001 10.3165 57.6001 11.2001C57.6001 12.0837 58.3165 12.8001 59.2001 12.8001H72C72.8836 12.8001 73.6 13.5165 73.6 14.4001V44.7998C73.6 45.6834 74.3164 46.3998 75.2 46.3998C76.0836 46.3998 76.8 45.6834 76.8 44.7998V14.4001C76.8 11.7491 74.6508 9.6001 72 9.6001Z" fill="#313131"/>
<path d="M52.8001 5.66235H49.6002V1.59999C49.6002 0.716394 48.8838 0 48.0002 0H28.8003C27.9167 0 27.2004 0.716394 27.2004 1.59999V5.66235H24.0004C23.1168 5.66235 22.4004 6.37875 22.4004 7.26234V20.7998C22.4004 21.6834 23.1168 22.3998 24.0004 22.3998H52.8001C53.6837 22.3998 54.4001 21.6834 54.4001 20.7998V7.26234C54.4001 6.37875 53.6837 5.66235 52.8001 5.66235ZM51.2002 19.1998H25.6004V8.86233H28.8003C29.6839 8.86233 30.4003 8.14593 30.4003 7.26234V3.19997H46.4002V7.26234C46.4002 8.14593 47.1166 8.86233 48.0002 8.86233H51.2002V19.1998Z" fill="#313131"/>
<path d="M43.2003 25.5996H33.6004C32.7168 25.5996 32.0004 26.316 32.0004 27.1996V33.5995C32.0004 34.4831 32.7168 35.1995 33.6004 35.1995H43.2003C44.0838 35.1995 44.8002 34.4831 44.8002 33.5995V27.1996C44.8002 26.316 44.0838 25.5996 43.2003 25.5996ZM41.6003 31.9996H35.2003V28.7996H41.6003V31.9996Z" fill="#313131"/>
<path d="M35.2003 71.9995H25.6004C24.7168 71.9995 24.0004 72.7159 24.0004 73.5995V79.9994C24.0004 80.883 24.7168 81.5994 25.6004 81.5994H35.2003C36.0839 81.5994 36.8003 80.883 36.8003 79.9994V73.5995C36.8003 72.7159 36.0839 71.9995 35.2003 71.9995ZM33.6003 78.3995H27.2003V75.1995H33.6003V78.3995Z" fill="#313131"/>
<path d="M43.2003 49.5996H33.6004C32.7168 49.5996 32.0004 50.316 32.0004 51.1996V57.5995C32.0004 58.4831 32.7168 59.1995 33.6004 59.1995H43.2003C44.0838 59.1995 44.8002 58.4831 44.8002 57.5995V51.1996C44.8002 50.316 44.0838 49.5996 43.2003 49.5996ZM41.6003 55.9996H35.2003V52.7996H41.6003V55.9996Z" fill="#313131"/>
<path d="M59.2002 49.5996H49.6002C48.7166 49.5996 48.0002 50.316 48.0002 51.1996V57.5995C48.0002 58.4831 48.7166 59.1995 49.6002 59.1995H59.2002C60.0837 59.1995 60.8001 58.4831 60.8001 57.5995V51.1996C60.8001 50.316 60.0837 49.5996 59.2002 49.5996ZM57.6002 55.9996H51.2002V52.7996H57.6002V55.9996Z" fill="#313131"/>
<path d="M27.2003 49.5996H17.6004C16.7168 49.5996 16.0004 50.316 16.0004 51.1996V57.5995C16.0004 58.4831 16.7168 59.1995 17.6004 59.1995H27.2003C28.0839 59.1995 28.8003 58.4831 28.8003 57.5995V51.1996C28.8003 50.316 28.0839 49.5996 27.2003 49.5996ZM25.6003 55.9996H19.2003V52.7996H25.6003V55.9996Z" fill="#313131"/>
<path d="M54.4003 41.5999H40.0004V39.9999C40.0004 39.1163 39.284 38.3999 38.4004 38.3999C37.5168 38.3999 36.8004 39.1163 36.8004 39.9999V41.5999H22.4005C21.5169 41.5999 20.8005 42.3163 20.8005 43.1999V44.7998C20.8005 45.6834 21.5169 46.3998 22.4005 46.3998C23.2841 46.3998 24.0005 45.6834 24.0005 44.7998H36.8004C36.8004 45.6834 37.5168 46.3998 38.4004 46.3998C39.284 46.3998 40.0004 45.6834 40.0004 44.7998H52.8003C52.8003 45.6834 53.5167 46.3998 54.4003 46.3998C55.2839 46.3998 56.0002 45.6834 56.0002 44.7998V43.1999C56.0002 42.3163 55.2839 41.5999 54.4003 41.5999Z" fill="#313131"/>
<path d="M54.4002 62.3994C53.5166 62.3994 52.8002 63.1158 52.8002 63.9994H30.4004C29.5168 63.9994 28.8004 64.7158 28.8004 65.5994V67.1994C28.8004 68.083 29.5168 68.7994 30.4004 68.7994C31.284 68.7994 32.0004 68.083 32.0004 67.1994H54.4002C55.2838 67.1994 56.0002 66.483 56.0002 65.5994V63.9994C56.0002 63.1158 55.2838 62.3994 54.4002 62.3994Z" fill="#313131"/>
<path d="M84.3311 53.2684L79.5312 48.4684C78.9064 47.8439 77.8936 47.8439 77.2688 48.4684L46.869 78.8682C46.834 78.9142 46.802 78.9622 46.773 79.0122C46.7426 79.0506 46.6962 79.0714 46.669 79.1114L37.0691 93.5113C36.5783 94.2461 36.7761 95.2397 37.5109 95.7305C38.0489 96.0898 38.7503 96.0898 39.2883 95.7305L53.6882 86.1305C53.7282 86.1033 53.749 86.0569 53.7874 86.0265C53.837 85.9971 53.8852 85.9651 53.9314 85.9305L84.3311 55.5308C84.9557 54.906 84.9557 53.8932 84.3311 53.2684ZM44.1682 88.6393L48.2482 82.5194L50.2898 84.5593L44.1682 88.6393ZM52.8002 82.537L50.2626 79.9994L78.4 51.862L80.9376 54.3996L52.8002 82.537Z" fill="#313131"/>
<path d="M87.5311 50.0685L82.7311 45.2686C82.0955 44.6546 81.0827 44.6722 80.4688 45.3078C79.87 45.9278 79.87 46.9108 80.4688 47.531L85.2687 52.3309C85.5687 52.6309 85.9755 52.7997 86.3999 52.7997C87.2835 52.7995 87.9997 52.0831 87.9995 51.1993C87.9995 50.7753 87.8309 50.3685 87.5311 50.0685Z" fill="#313131"/>
<path d="M95.5311 42.0682L90.7311 37.2683C90.1063 36.6437 89.0935 36.6437 88.4687 37.2683L83.6688 42.0682C83.0442 42.693 83.0442 43.7058 83.6688 44.3306L88.4687 49.1305C89.0935 49.7551 90.1063 49.7551 90.7311 49.1305L95.5311 44.3306C96.1557 43.7058 96.1557 42.693 95.5311 42.0682ZM89.5999 45.737L87.0623 43.1994L89.5999 40.6618L92.1375 43.1994L89.5999 45.737Z" fill="#313131"/>
</mask>
<g mask="url(#mask0)">
<path d="M32.0003 92.7994H4.80057C3.91698 92.7994 3.20058 92.083 3.20058 91.1994V14.4001C3.20058 13.5165 3.91698 12.8001 4.80057 12.8001H17.6005C18.4841 12.8001 19.2005 12.0837 19.2005 11.2001C19.2005 10.3165 18.4841 9.6001 17.6005 9.6001H4.80057C2.14959 9.6001 0.000610352 11.7491 0.000610352 14.4001V91.1994C0.000610352 93.8504 2.14959 95.9994 4.80057 95.9994H32.0003C32.8839 95.9994 33.6003 95.283 33.6003 94.3994C33.6003 93.5158 32.8839 92.7994 32.0003 92.7994Z" fill="#313131"/>
<path d="M75.2 68.7993C74.3164 68.7993 73.6 69.5157 73.6 70.3993V91.1991C73.6 92.0827 72.8836 92.7991 72 92.7991H48.0003C47.1167 92.7991 46.4003 93.5155 46.4003 94.3991C46.4003 95.2827 47.1167 95.9991 48.0003 95.9991H72C74.651 95.9991 76.8 93.8501 76.8 91.1991V70.3993C76.8 69.5157 76.0836 68.7993 75.2 68.7993Z" fill="#313131"/>
<path d="M72 9.6001H59.2001C58.3165 9.6001 57.6001 10.3165 57.6001 11.2001C57.6001 12.0837 58.3165 12.8001 59.2001 12.8001H72C72.8836 12.8001 73.6 13.5165 73.6 14.4001V44.7998C73.6 45.6834 74.3164 46.3998 75.2 46.3998C76.0836 46.3998 76.8 45.6834 76.8 44.7998V14.4001C76.8 11.7491 74.6508 9.6001 72 9.6001Z" fill="#313131"/>
<path d="M52.8001 5.66235H49.6002V1.59999C49.6002 0.716394 48.8838 0 48.0002 0H28.8003C27.9167 0 27.2004 0.716394 27.2004 1.59999V5.66235H24.0004C23.1168 5.66235 22.4004 6.37875 22.4004 7.26234V20.7998C22.4004 21.6834 23.1168 22.3998 24.0004 22.3998H52.8001C53.6837 22.3998 54.4001 21.6834 54.4001 20.7998V7.26234C54.4001 6.37875 53.6837 5.66235 52.8001 5.66235ZM51.2002 19.1998H25.6004V8.86233H28.8003C29.6839 8.86233 30.4003 8.14593 30.4003 7.26234V3.19997H46.4002V7.26234C46.4002 8.14593 47.1166 8.86233 48.0002 8.86233H51.2002V19.1998Z" fill="#313131"/>
<path d="M43.2003 25.5996H33.6004C32.7168 25.5996 32.0004 26.316 32.0004 27.1996V33.5995C32.0004 34.4831 32.7168 35.1995 33.6004 35.1995H43.2003C44.0838 35.1995 44.8002 34.4831 44.8002 33.5995V27.1996C44.8002 26.316 44.0838 25.5996 43.2003 25.5996ZM41.6003 31.9996H35.2003V28.7996H41.6003V31.9996Z" fill="#313131"/>
<path d="M35.2003 71.9995H25.6004C24.7168 71.9995 24.0004 72.7159 24.0004 73.5995V79.9994C24.0004 80.883 24.7168 81.5994 25.6004 81.5994H35.2003C36.0839 81.5994 36.8003 80.883 36.8003 79.9994V73.5995C36.8003 72.7159 36.0839 71.9995 35.2003 71.9995ZM33.6003 78.3995H27.2003V75.1995H33.6003V78.3995Z" fill="#313131"/>
<path d="M43.2003 49.5996H33.6004C32.7168 49.5996 32.0004 50.316 32.0004 51.1996V57.5995C32.0004 58.4831 32.7168 59.1995 33.6004 59.1995H43.2003C44.0838 59.1995 44.8002 58.4831 44.8002 57.5995V51.1996C44.8002 50.316 44.0838 49.5996 43.2003 49.5996ZM41.6003 55.9996H35.2003V52.7996H41.6003V55.9996Z" fill="#313131"/>
<path d="M59.2002 49.5996H49.6002C48.7166 49.5996 48.0002 50.316 48.0002 51.1996V57.5995C48.0002 58.4831 48.7166 59.1995 49.6002 59.1995H59.2002C60.0837 59.1995 60.8001 58.4831 60.8001 57.5995V51.1996C60.8001 50.316 60.0837 49.5996 59.2002 49.5996ZM57.6002 55.9996H51.2002V52.7996H57.6002V55.9996Z" fill="#313131"/>
<path d="M27.2003 49.5996H17.6004C16.7168 49.5996 16.0004 50.316 16.0004 51.1996V57.5995C16.0004 58.4831 16.7168 59.1995 17.6004 59.1995H27.2003C28.0839 59.1995 28.8003 58.4831 28.8003 57.5995V51.1996C28.8003 50.316 28.0839 49.5996 27.2003 49.5996ZM25.6003 55.9996H19.2003V52.7996H25.6003V55.9996Z" fill="#313131"/>
<path d="M54.4003 41.5999H40.0004V39.9999C40.0004 39.1163 39.284 38.3999 38.4004 38.3999C37.5168 38.3999 36.8004 39.1163 36.8004 39.9999V41.5999H22.4005C21.5169 41.5999 20.8005 42.3163 20.8005 43.1999V44.7998C20.8005 45.6834 21.5169 46.3998 22.4005 46.3998C23.2841 46.3998 24.0005 45.6834 24.0005 44.7998H36.8004C36.8004 45.6834 37.5168 46.3998 38.4004 46.3998C39.284 46.3998 40.0004 45.6834 40.0004 44.7998H52.8003C52.8003 45.6834 53.5167 46.3998 54.4003 46.3998C55.2839 46.3998 56.0002 45.6834 56.0002 44.7998V43.1999C56.0002 42.3163 55.2839 41.5999 54.4003 41.5999Z" fill="#313131"/>
<path d="M54.4002 62.3994C53.5166 62.3994 52.8002 63.1158 52.8002 63.9994H30.4004C29.5168 63.9994 28.8004 64.7158 28.8004 65.5994V67.1994C28.8004 68.083 29.5168 68.7994 30.4004 68.7994C31.284 68.7994 32.0004 68.083 32.0004 67.1994H54.4002C55.2838 67.1994 56.0002 66.483 56.0002 65.5994V63.9994C56.0002 63.1158 55.2838 62.3994 54.4002 62.3994Z" fill="#313131"/>
<path d="M84.3311 53.2684L79.5312 48.4684C78.9064 47.8439 77.8936 47.8439 77.2688 48.4684L46.869 78.8682C46.834 78.9142 46.802 78.9622 46.773 79.0122C46.7426 79.0506 46.6962 79.0714 46.669 79.1114L37.0691 93.5113C36.5783 94.2461 36.7761 95.2397 37.5109 95.7305C38.0489 96.0898 38.7503 96.0898 39.2883 95.7305L53.6882 86.1305C53.7282 86.1033 53.749 86.0569 53.7874 86.0265C53.837 85.9971 53.8852 85.9651 53.9314 85.9305L84.3311 55.5308C84.9557 54.906 84.9557 53.8932 84.3311 53.2684ZM44.1682 88.6393L48.2482 82.5194L50.2898 84.5593L44.1682 88.6393ZM52.8002 82.537L50.2626 79.9994L78.4 51.862L80.9376 54.3996L52.8002 82.537Z" fill="#313131"/>
<path d="M87.5311 50.0685L82.7311 45.2686C82.0955 44.6546 81.0827 44.6722 80.4688 45.3078C79.87 45.9278 79.87 46.9108 80.4688 47.531L85.2687 52.3309C85.5687 52.6309 85.9755 52.7997 86.3999 52.7997C87.2835 52.7995 87.9997 52.0831 87.9995 51.1993C87.9995 50.7753 87.8309 50.3685 87.5311 50.0685Z" fill="#313131"/>
<path d="M95.5311 42.0682L90.7311 37.2683C90.1063 36.6437 89.0935 36.6437 88.4687 37.2683L83.6688 42.0682C83.0442 42.693 83.0442 43.7058 83.6688 44.3306L88.4687 49.1305C89.0935 49.7551 90.1063 49.7551 90.7311 49.1305L95.5311 44.3306C96.1557 43.7058 96.1557 42.693 95.5311 42.0682ZM89.5999 45.737L87.0623 43.1994L89.5999 40.6618L92.1375 43.1994L89.5999 45.737Z" fill="#313131"/>
<rect x="-16.2152" y="-14" width="172.792" height="140.597" rx="25" fill="url(#paint0_linear)"/>
<path fill-rule="evenodd" clip-rule="evenodd" d="M-53.3984 75.2358C-53.3984 75.2358 -32.0384 -39.6096 17.5189 30.6039C57.73 87.5755 62.5074 94.3794 80.9962 83.0078C102.678 69.6727 106.677 30.6039 117.464 30.6039C128.251 30.6039 144.153 99.0056 152.911 87.5755C161.669 76.1454 168.468 41.8044 186.304 41.8044C204.141 41.8044 201.544 84.2166 201.544 84.2166L194.175 133.747L88.2244 126.671L-50.8351 143" fill="url(#paint1_linear)"/>
</g>
<defs>
<linearGradient id="paint0_linear" x1="-16.2152" y1="56.2984" x2="155.595" y2="56.4545" gradientUnits="userSpaceOnUse">
<stop stop-color="#459622"/>
<stop offset="1" stop-color="#B0E94F"/>
</linearGradient>
<linearGradient id="paint1_linear" x1="192.461" y1="46.9252" x2="-37.0964" y2="48.2089" gradientUnits="userSpaceOnUse">
<stop stop-color="#5CA82C"/>
<stop offset="0.0001" stop-color="#68B231"/>
<stop offset="1" stop-color="#A6E24B"/>
</linearGradient>
</defs>
</svg>
