<svg width="96" height="96" viewBox="0 0 96 96" fill="none" xmlns="http://www.w3.org/2000/svg">
<mask id="mask0" mask-type="alpha" maskUnits="userSpaceOnUse" x="0" y="0" width="96" height="96">
<path d="M95.4774 20.6992C95.4688 20.5594 95.4415 20.4203 95.3954 20.2883C95.3782 20.2367 95.3649 20.1875 95.3431 20.1375C95.2649 19.9633 95.1563 19.8047 95.0228 19.6688L75.8228 0.46875C75.6868 0.334375 75.5274 0.225781 75.3524 0.148438C75.3048 0.126562 75.2563 0.113281 75.2071 0.0960938C75.0712 0.0492188 74.9306 0.0210938 74.7876 0.0125C74.7603 0.0179688 74.7313 0 74.6978 0H26.6978C22.2821 0.00546876 18.7032 3.58359 18.6978 8V19.7758C7.69854 24.6266 0.600098 35.5141 0.600098 47.5359C0.600098 59.5578 7.69854 70.4453 18.6978 75.2961V88C18.7032 92.4164 22.2821 95.9945 26.6978 96H87.4978C91.9142 95.9945 95.4931 92.4164 95.4978 88V20.8C95.4978 20.7648 95.4806 20.7344 95.4774 20.6992ZM90.0353 19.2H77.8978C77.0142 19.2 76.2978 18.4836 76.2978 17.6V5.4625L90.0353 19.2ZM3.83369 47.5359C3.82432 40.3188 6.68682 33.3953 11.7899 28.2922C16.8931 23.1891 23.8173 20.3266 31.0337 20.3359C31.9431 20.3359 32.8454 20.3805 33.736 20.4672C46.1079 21.6898 56.0649 31.1664 57.8978 43.4625C58.1103 44.8102 58.222 46.1719 58.2321 47.5359C58.2438 52.6602 56.7954 57.6813 54.0579 62.0125C51.8868 65.4734 48.961 68.3984 45.4993 70.568C37.1173 75.832 26.5376 76.1273 17.8751 71.3383C9.2126 66.55 3.83525 57.4336 3.83369 47.5359ZM49.6165 71.5711C49.8353 71.4016 50.0517 71.2336 50.2657 71.0594C51.0556 70.4234 51.8118 69.7477 52.5329 69.0352C53.2454 68.3141 53.9212 67.5586 54.5571 66.7695C54.7313 66.5555 54.8993 66.3375 55.0688 66.1188C55.2626 65.8656 55.4728 65.6258 55.6579 65.368L69.2978 79.0242C70.2009 79.9188 70.7095 81.1375 70.7095 82.4086C70.7095 83.6805 70.2009 84.8984 69.2978 85.7938C67.4087 87.6195 64.4126 87.6195 62.5235 85.7938L48.8657 72.1602C49.1235 71.9727 49.3649 71.7648 49.6165 71.5711ZM87.4978 92.8H26.6978C24.047 92.8 21.8978 90.6508 21.8978 88V76.5453C21.997 76.5773 22.1009 76.5984 22.2017 76.6289C22.4579 76.707 22.7173 76.7695 22.9767 76.8414C23.5751 77.0016 24.1782 77.1617 24.7876 77.2812C25.0868 77.3438 25.386 77.4016 25.6884 77.4547C26.2978 77.5617 26.9126 77.6461 27.5298 77.7172C27.8056 77.7484 28.0774 77.7875 28.354 77.8109C29.2407 77.8867 30.1329 77.9359 31.0337 77.9359C36.3228 77.9398 41.5196 76.5555 46.1048 73.9203L60.2517 88.0531C62.2368 90.2258 65.2556 91.1336 68.1095 90.4148C70.9642 89.6969 73.1938 87.4695 73.9142 84.6156C74.6353 81.7617 73.7306 78.7422 71.5587 76.7555L57.4181 62.6063C60.0532 58.0211 61.4384 52.8242 61.4337 47.5359C61.4337 46.5227 61.3853 45.5172 61.2868 44.5203C60.604 37.5297 57.5095 30.9953 52.5345 26.0383C46.8446 20.318 39.1024 17.1125 31.0337 17.1359C30.1329 17.1359 29.2407 17.1859 28.354 17.2609C28.0774 17.2852 27.8032 17.3234 27.5282 17.3555C26.9126 17.4242 26.3009 17.5117 25.6915 17.618C25.3876 17.6711 25.0845 17.7289 24.7829 17.7922C24.1813 17.9172 23.5845 18.0641 22.9923 18.2273C22.7267 18.2992 22.461 18.3633 22.1923 18.443C22.0931 18.4734 21.9923 18.4945 21.8931 18.5266V8C21.8931 5.34922 24.0423 3.2 26.6931 3.2H73.0978V17.6C73.0978 20.2508 75.247 22.4 77.8978 22.4H92.2978V88C92.2978 90.6508 90.1493 92.8 87.4978 92.8Z" fill="#313131"/>
<path d="M66.6976 11.2001C66.6976 10.3165 65.9812 9.6001 65.0976 9.6001H29.8976C29.014 9.6001 28.2976 10.3165 28.2976 11.2001C28.2976 12.0837 29.014 12.8001 29.8976 12.8001H65.0976C65.9812 12.8001 66.6976 12.0837 66.6976 11.2001Z" fill="#313131"/>
<path d="M84.2976 38.3999H65.0976C64.214 38.3999 63.4976 39.1163 63.4976 39.9999C63.4976 40.8835 64.214 41.5999 65.0976 41.5999H84.2976C85.1811 41.5999 85.8976 40.8835 85.8976 39.9999C85.8976 39.1163 85.1811 38.3999 84.2976 38.3999Z" fill="#313131"/>
<path d="M84.2976 48H65.0976C64.214 48 63.4976 48.7164 63.4976 49.6C63.4976 50.4836 64.214 51.2 65.0976 51.2H84.2976C85.1811 51.2 85.8976 50.4836 85.8976 49.6C85.8976 48.7164 85.1811 48 84.2976 48Z" fill="#313131"/>
<path d="M85.8977 59.2001C85.8977 58.3165 85.1813 57.6001 84.2977 57.6001H63.4977C62.6141 57.6001 61.8977 58.3165 61.8977 59.2001C61.8977 60.0837 62.6141 60.8001 63.4977 60.8001H84.2977C85.1813 60.8001 85.8977 60.0837 85.8977 59.2001Z" fill="#313131"/>
<path d="M85.8976 68.8002C85.8976 67.9166 85.1812 67.2002 84.2976 67.2002H69.8976C69.014 67.2002 68.2976 67.9166 68.2976 68.8002C68.2976 69.6838 69.014 70.4002 69.8976 70.4002H84.2976C85.1812 70.4002 85.8976 69.6838 85.8976 68.8002Z" fill="#313131"/>
<path d="M66.6978 20.8002C66.6978 19.9166 65.9814 19.2002 65.0978 19.2002H52.2978C51.4142 19.2002 50.6978 19.9166 50.6978 20.8002C50.6978 21.6838 51.4142 22.4002 52.2978 22.4002H65.0978C65.9814 22.4002 66.6978 21.6838 66.6978 20.8002Z" fill="#313131"/>
<path d="M85.8978 30.3998C85.8978 29.5162 85.1813 28.7998 84.2978 28.7998H60.2978C59.4142 28.7998 58.6978 29.5162 58.6978 30.3998C58.6978 31.2834 59.4142 31.9998 60.2978 31.9998H84.2978C85.1813 31.9998 85.8978 31.2834 85.8978 30.3998Z" fill="#313131"/>
<path d="M25.0976 39.9998H36.2976C37.1812 39.9998 37.8976 39.2834 37.8976 38.3998C37.8976 37.5162 37.1812 36.7998 36.2976 36.7998H25.0976C24.214 36.7998 23.4976 37.5162 23.4976 38.3998C23.4976 39.2834 24.214 39.9998 25.0976 39.9998Z" fill="#313131"/>
<path d="M44.2977 47.9999C44.2977 47.1163 43.5813 46.3999 42.6977 46.3999H18.6977C17.8141 46.3999 17.0977 47.1163 17.0977 47.9999C17.0977 48.8835 17.8141 49.5999 18.6977 49.5999H42.6977C43.5813 49.5999 44.2977 48.8835 44.2977 47.9999Z" fill="#313131"/>
<path d="M36.2976 56H25.0976C24.214 56 23.4976 56.7164 23.4976 57.6C23.4976 58.4836 24.214 59.2 25.0976 59.2H36.2976C37.1812 59.2 37.8976 58.4836 37.8976 57.6C37.8976 56.7164 37.1812 56 36.2976 56Z" fill="#313131"/>
<path d="M42.4225 68.64C46.3249 66.5619 49.5608 63.4228 51.7569 59.5861C51.8835 59.365 52.021 59.151 52.1397 58.9267C52.2014 58.8111 52.2499 58.6916 52.3092 58.576C52.5522 58.1088 52.7889 57.6416 52.9983 57.1635C53.2085 56.6853 53.3733 56.2306 53.5444 55.7603C53.5936 55.6244 53.6561 55.4916 53.7045 55.3541C57.7733 43.5221 52.0702 30.5486 40.6014 25.5478C29.1319 20.5471 15.7452 25.1971 9.84518 36.2306C7.98815 39.7064 7.02097 43.5885 7.03034 47.5299C7.0155 55.9861 11.4569 63.8244 18.7186 68.1572C25.9803 72.4908 34.9874 72.6775 42.4225 68.6494V68.64ZM21.0624 65.7892C19.321 64.84 17.7256 63.6447 16.3249 62.24C15.353 61.2689 14.4788 60.2056 13.7139 59.0642C13.3358 58.4986 12.9882 57.9181 12.6686 57.3221C7.853 48.2291 10.4046 36.9814 18.6725 30.8572C26.9405 24.733 38.4436 25.5705 45.7381 32.8275C52.1983 39.3486 53.6514 49.3205 49.3217 57.4142V57.4275C47.4139 60.9971 44.4889 63.9197 40.9186 65.826C34.7249 69.1908 27.246 69.1791 21.0624 65.7955V65.7892Z" fill="#313131"/>
<path d="M87.4976 76.7998C86.614 76.7998 85.8976 77.5162 85.8976 78.3998V84.7998C85.8976 85.6834 85.1812 86.3998 84.2976 86.3998H77.8976C77.014 86.3998 76.2976 87.1162 76.2976 87.9998C76.2976 88.8834 77.014 89.5998 77.8976 89.5998H84.2976C86.9492 89.5998 89.0976 87.4506 89.0976 84.7998V78.3998C89.0976 77.5162 88.3812 76.7998 87.4976 76.7998Z" fill="#313131"/>
</mask>
<g mask="url(#mask0)">
<path d="M95.4774 20.6992C95.4688 20.5594 95.4415 20.4203 95.3954 20.2883C95.3782 20.2367 95.3649 20.1875 95.3431 20.1375C95.2649 19.9633 95.1563 19.8047 95.0228 19.6688L75.8228 0.46875C75.6868 0.334375 75.5274 0.225781 75.3524 0.148438C75.3048 0.126562 75.2563 0.113281 75.2071 0.0960938C75.0712 0.0492188 74.9306 0.0210938 74.7876 0.0125C74.7603 0.0179688 74.7313 0 74.6978 0H26.6978C22.2821 0.00546876 18.7032 3.58359 18.6978 8V19.7758C7.69854 24.6266 0.600098 35.5141 0.600098 47.5359C0.600098 59.5578 7.69854 70.4453 18.6978 75.2961V88C18.7032 92.4164 22.2821 95.9945 26.6978 96H87.4978C91.9142 95.9945 95.4931 92.4164 95.4978 88V20.8C95.4978 20.7648 95.4806 20.7344 95.4774 20.6992ZM90.0353 19.2H77.8978C77.0142 19.2 76.2978 18.4836 76.2978 17.6V5.4625L90.0353 19.2ZM3.83369 47.5359C3.82432 40.3188 6.68682 33.3953 11.7899 28.2922C16.8931 23.1891 23.8173 20.3266 31.0337 20.3359C31.9431 20.3359 32.8454 20.3805 33.736 20.4672C46.1079 21.6898 56.0649 31.1664 57.8978 43.4625C58.1103 44.8102 58.222 46.1719 58.2321 47.5359C58.2438 52.6602 56.7954 57.6813 54.0579 62.0125C51.8868 65.4734 48.961 68.3984 45.4993 70.568C37.1173 75.832 26.5376 76.1273 17.8751 71.3383C9.2126 66.55 3.83525 57.4336 3.83369 47.5359ZM49.6165 71.5711C49.8353 71.4016 50.0517 71.2336 50.2657 71.0594C51.0556 70.4234 51.8118 69.7477 52.5329 69.0352C53.2454 68.3141 53.9212 67.5586 54.5571 66.7695C54.7313 66.5555 54.8993 66.3375 55.0688 66.1188C55.2626 65.8656 55.4728 65.6258 55.6579 65.368L69.2978 79.0242C70.2009 79.9188 70.7095 81.1375 70.7095 82.4086C70.7095 83.6805 70.2009 84.8984 69.2978 85.7938C67.4087 87.6195 64.4126 87.6195 62.5235 85.7938L48.8657 72.1602C49.1235 71.9727 49.3649 71.7648 49.6165 71.5711ZM87.4978 92.8H26.6978C24.047 92.8 21.8978 90.6508 21.8978 88V76.5453C21.997 76.5773 22.1009 76.5984 22.2017 76.6289C22.4579 76.707 22.7173 76.7695 22.9767 76.8414C23.5751 77.0016 24.1782 77.1617 24.7876 77.2812C25.0868 77.3438 25.386 77.4016 25.6884 77.4547C26.2978 77.5617 26.9126 77.6461 27.5298 77.7172C27.8056 77.7484 28.0774 77.7875 28.354 77.8109C29.2407 77.8867 30.1329 77.9359 31.0337 77.9359C36.3228 77.9398 41.5196 76.5555 46.1048 73.9203L60.2517 88.0531C62.2368 90.2258 65.2556 91.1336 68.1095 90.4148C70.9642 89.6969 73.1938 87.4695 73.9142 84.6156C74.6353 81.7617 73.7306 78.7422 71.5587 76.7555L57.4181 62.6063C60.0532 58.0211 61.4384 52.8242 61.4337 47.5359C61.4337 46.5227 61.3853 45.5172 61.2868 44.5203C60.604 37.5297 57.5095 30.9953 52.5345 26.0383C46.8446 20.318 39.1024 17.1125 31.0337 17.1359C30.1329 17.1359 29.2407 17.1859 28.354 17.2609C28.0774 17.2852 27.8032 17.3234 27.5282 17.3555C26.9126 17.4242 26.3009 17.5117 25.6915 17.618C25.3876 17.6711 25.0845 17.7289 24.7829 17.7922C24.1813 17.9172 23.5845 18.0641 22.9923 18.2273C22.7267 18.2992 22.461 18.3633 22.1923 18.443C22.0931 18.4734 21.9923 18.4945 21.8931 18.5266V8C21.8931 5.34922 24.0423 3.2 26.6931 3.2H73.0978V17.6C73.0978 20.2508 75.247 22.4 77.8978 22.4H92.2978V88C92.2978 90.6508 90.1493 92.8 87.4978 92.8Z" fill="#313131"/>
<path d="M66.6976 11.2001C66.6976 10.3165 65.9812 9.6001 65.0976 9.6001H29.8976C29.014 9.6001 28.2976 10.3165 28.2976 11.2001C28.2976 12.0837 29.014 12.8001 29.8976 12.8001H65.0976C65.9812 12.8001 66.6976 12.0837 66.6976 11.2001Z" fill="#313131"/>
<path d="M84.2976 38.3999H65.0976C64.214 38.3999 63.4976 39.1163 63.4976 39.9999C63.4976 40.8835 64.214 41.5999 65.0976 41.5999H84.2976C85.1811 41.5999 85.8976 40.8835 85.8976 39.9999C85.8976 39.1163 85.1811 38.3999 84.2976 38.3999Z" fill="#313131"/>
<path d="M84.2976 48H65.0976C64.214 48 63.4976 48.7164 63.4976 49.6C63.4976 50.4836 64.214 51.2 65.0976 51.2H84.2976C85.1811 51.2 85.8976 50.4836 85.8976 49.6C85.8976 48.7164 85.1811 48 84.2976 48Z" fill="#313131"/>
<path d="M85.8977 59.2001C85.8977 58.3165 85.1813 57.6001 84.2977 57.6001H63.4977C62.6141 57.6001 61.8977 58.3165 61.8977 59.2001C61.8977 60.0837 62.6141 60.8001 63.4977 60.8001H84.2977C85.1813 60.8001 85.8977 60.0837 85.8977 59.2001Z" fill="#313131"/>
<path d="M85.8976 68.8002C85.8976 67.9166 85.1812 67.2002 84.2976 67.2002H69.8976C69.014 67.2002 68.2976 67.9166 68.2976 68.8002C68.2976 69.6838 69.014 70.4002 69.8976 70.4002H84.2976C85.1812 70.4002 85.8976 69.6838 85.8976 68.8002Z" fill="#313131"/>
<path d="M66.6978 20.8002C66.6978 19.9166 65.9814 19.2002 65.0978 19.2002H52.2978C51.4142 19.2002 50.6978 19.9166 50.6978 20.8002C50.6978 21.6838 51.4142 22.4002 52.2978 22.4002H65.0978C65.9814 22.4002 66.6978 21.6838 66.6978 20.8002Z" fill="#313131"/>
<path d="M85.8978 30.3998C85.8978 29.5162 85.1813 28.7998 84.2978 28.7998H60.2978C59.4142 28.7998 58.6978 29.5162 58.6978 30.3998C58.6978 31.2834 59.4142 31.9998 60.2978 31.9998H84.2978C85.1813 31.9998 85.8978 31.2834 85.8978 30.3998Z" fill="#313131"/>
<path d="M25.0976 39.9998H36.2976C37.1812 39.9998 37.8976 39.2834 37.8976 38.3998C37.8976 37.5162 37.1812 36.7998 36.2976 36.7998H25.0976C24.214 36.7998 23.4976 37.5162 23.4976 38.3998C23.4976 39.2834 24.214 39.9998 25.0976 39.9998Z" fill="#313131"/>
<path d="M44.2977 47.9999C44.2977 47.1163 43.5813 46.3999 42.6977 46.3999H18.6977C17.8141 46.3999 17.0977 47.1163 17.0977 47.9999C17.0977 48.8835 17.8141 49.5999 18.6977 49.5999H42.6977C43.5813 49.5999 44.2977 48.8835 44.2977 47.9999Z" fill="#313131"/>
<path d="M36.2976 56H25.0976C24.214 56 23.4976 56.7164 23.4976 57.6C23.4976 58.4836 24.214 59.2 25.0976 59.2H36.2976C37.1812 59.2 37.8976 58.4836 37.8976 57.6C37.8976 56.7164 37.1812 56 36.2976 56Z" fill="#313131"/>
<path d="M42.4225 68.64C46.3249 66.5619 49.5608 63.4228 51.7569 59.5861C51.8835 59.365 52.021 59.151 52.1397 58.9267C52.2014 58.8111 52.2499 58.6916 52.3092 58.576C52.5522 58.1088 52.7889 57.6416 52.9983 57.1635C53.2085 56.6853 53.3733 56.2306 53.5444 55.7603C53.5936 55.6244 53.6561 55.4916 53.7045 55.3541C57.7733 43.5221 52.0702 30.5486 40.6014 25.5478C29.1319 20.5471 15.7452 25.1971 9.84518 36.2306C7.98815 39.7064 7.02097 43.5885 7.03034 47.5299C7.0155 55.9861 11.4569 63.8244 18.7186 68.1572C25.9803 72.4908 34.9874 72.6775 42.4225 68.6494V68.64ZM21.0624 65.7892C19.321 64.84 17.7256 63.6447 16.3249 62.24C15.353 61.2689 14.4788 60.2056 13.7139 59.0642C13.3358 58.4986 12.9882 57.9181 12.6686 57.3221C7.853 48.2291 10.4046 36.9814 18.6725 30.8572C26.9405 24.733 38.4436 25.5705 45.7381 32.8275C52.1983 39.3486 53.6514 49.3205 49.3217 57.4142V57.4275C47.4139 60.9971 44.4889 63.9197 40.9186 65.826C34.7249 69.1908 27.246 69.1791 21.0624 65.7955V65.7892Z" fill="#313131"/>
<path d="M87.4976 76.7998C86.614 76.7998 85.8976 77.5162 85.8976 78.3998V84.7998C85.8976 85.6834 85.1812 86.3998 84.2976 86.3998H77.8976C77.014 86.3998 76.2976 87.1162 76.2976 87.9998C76.2976 88.8834 77.014 89.5998 77.8976 89.5998H84.2976C86.9492 89.5998 89.0976 87.4506 89.0976 84.7998V78.3998C89.0976 77.5162 88.3812 76.7998 87.4976 76.7998Z" fill="#313131"/>
<rect x="-26.2151" y="-14" width="172.792" height="140.597" rx="25" fill="url(#paint0_linear)"/>
<path fill-rule="evenodd" clip-rule="evenodd" d="M-63.3984 75.2358C-63.3984 75.2358 -42.0384 -39.6096 7.51893 30.6039C47.73 87.5755 52.5074 94.3794 70.9962 83.0078C92.6775 69.6727 96.6765 30.6039 107.464 30.6039C118.251 30.6039 134.153 99.0056 142.911 87.5755C151.669 76.1454 158.468 41.8044 176.304 41.8044C194.141 41.8044 191.544 84.2166 191.544 84.2166L184.175 133.747L78.2244 126.671L-60.8351 143" fill="url(#paint1_linear)"/>
</g>
<defs>
<linearGradient id="paint0_linear" x1="-26.2151" y1="56.2984" x2="145.596" y2="56.4545" gradientUnits="userSpaceOnUse">
<stop stop-color="#459622"/>
<stop offset="1" stop-color="#B0E94F"/>
</linearGradient>
<linearGradient id="paint1_linear" x1="182.461" y1="46.9252" x2="-47.0964" y2="48.2089" gradientUnits="userSpaceOnUse">
<stop stop-color="#5CA82C"/>
<stop offset="0.0001" stop-color="#68B231"/>
<stop offset="1" stop-color="#A6E24B"/>
</linearGradient>
</defs>
</svg>
