<svg width="50" height="50" viewBox="0 0 50 50" fill="none" xmlns="http://www.w3.org/2000/svg">
<path d="M46.7119 6.68066H3.28809C1.4751 6.68066 0 8.15576 0 9.96875V40.0313C0 41.8444 1.4751 43.3194 3.28809 43.3194H46.7119C48.525 43.3194 50 41.8443 50 40.0313V9.96875C50 8.15576 48.5249 6.68066 46.7119 6.68066ZM11.691 41.7537H3.28809C2.33838 41.7537 1.56572 40.9811 1.56572 40.0313V9.96875C1.56572 9.01904 2.33838 8.24639 3.28809 8.24639H11.691V41.7537ZM48.4343 40.0314C48.4343 40.9811 47.6616 41.7538 46.7119 41.7538H13.2568V8.24648H46.7119C47.6616 8.24648 48.4343 9.01914 48.4343 9.96885V40.0314Z" fill="white"/>
<path d="M19.1545 10.021H15.8142C15.3818 10.021 15.0312 10.3715 15.0312 10.8039C15.0312 11.2363 15.3817 11.5868 15.8142 11.5868H19.1545C19.5868 11.5868 19.9374 11.2363 19.9374 10.8039C19.9374 10.3715 19.5868 10.021 19.1545 10.021Z" fill="white"/>
<path d="M9.13369 10.021H4.12324C3.69092 10.021 3.34033 10.3715 3.34033 10.8039C3.34033 11.2363 3.69082 11.5868 4.12324 11.5868H9.13369C9.56602 11.5868 9.9166 11.2363 9.9166 10.8039C9.9166 10.3715 9.56611 10.021 9.13369 10.021Z" fill="white"/>
<path d="M9.13369 18.3716H4.12324C3.69092 18.3716 3.34033 18.7221 3.34033 19.1545C3.34033 19.5869 3.69082 19.9374 4.12324 19.9374H9.13369C9.56602 19.9374 9.9166 19.5869 9.9166 19.1545C9.9166 18.7221 9.56611 18.3716 9.13369 18.3716Z" fill="white"/>
<path d="M9.13369 25.0522H4.12324C3.69092 25.0522 3.34033 25.4027 3.34033 25.8352C3.34033 26.2676 3.69082 26.6181 4.12324 26.6181H9.13369C9.56602 26.6181 9.9166 26.2676 9.9166 25.8352C9.9166 25.4027 9.56611 25.0522 9.13369 25.0522Z" fill="white"/>
<path d="M9.13369 31.7327H4.12324C3.69092 31.7327 3.34033 32.0832 3.34033 32.5156C3.34033 32.948 3.69082 33.2985 4.12324 33.2985H9.13369C9.56602 33.2985 9.9166 32.948 9.9166 32.5156C9.9166 32.0832 9.56611 31.7327 9.13369 31.7327Z" fill="white"/>
<path d="M9.13369 21.7119H4.12324C3.69092 21.7119 3.34033 22.0624 3.34033 22.4948C3.34033 22.9272 3.69082 23.2777 4.12324 23.2777H9.13369C9.56602 23.2777 9.9166 22.9272 9.9166 22.4948C9.9166 22.0624 9.56611 21.7119 9.13369 21.7119Z" fill="white"/>
<path d="M9.13369 28.3926H4.12324C3.69092 28.3926 3.34033 28.7431 3.34033 29.1755C3.34033 29.6079 3.69082 29.9584 4.12324 29.9584H9.13369C9.56602 29.9584 9.9166 29.6079 9.9166 29.1755C9.9166 28.7431 9.56611 28.3926 9.13369 28.3926Z" fill="white"/>
<path d="M7.46358 36.7434H4.12324C3.69092 36.7434 3.34033 37.0939 3.34033 37.5263C3.34033 37.9586 3.69082 38.3092 4.12324 38.3092H7.46358C7.8959 38.3092 8.24649 37.9587 8.24649 37.5263C8.24649 37.0939 7.8959 36.7434 7.46358 36.7434Z" fill="white"/>
<path d="M7.46358 13.3613H4.12324C3.69092 13.3613 3.34033 13.7118 3.34033 14.1442C3.34033 14.5767 3.69082 14.9271 4.12324 14.9271H7.46358C7.8959 14.9271 8.24649 14.5767 8.24649 14.1442C8.24649 13.7118 7.8959 13.3613 7.46358 13.3613Z" fill="white"/>
<path d="M25.8351 10.021H22.4948C22.0625 10.021 21.7119 10.3715 21.7119 10.8039C21.7119 11.2363 22.0624 11.5868 22.4948 11.5868H25.8351C26.2675 11.5868 26.6181 11.2363 26.6181 10.8039C26.6181 10.3715 26.2676 10.021 25.8351 10.021Z" fill="white"/>
<path d="M32.5156 10.021H29.1752C28.7429 10.021 28.3923 10.3715 28.3923 10.8039C28.3923 11.2363 28.7428 11.5868 29.1752 11.5868H32.5156C32.9479 11.5868 33.2985 11.2363 33.2985 10.8039C33.2985 10.3715 32.948 10.021 32.5156 10.021Z" fill="white"/>
<path d="M39.1962 10.021H35.8559C35.4236 10.021 35.073 10.3715 35.073 10.8039C35.073 11.2363 35.4235 11.5868 35.8559 11.5868H39.1962C39.6286 11.5868 39.9791 11.2363 39.9791 10.8039C39.9791 10.3715 39.6286 10.021 39.1962 10.021Z" fill="white"/>
<path d="M45.8769 10.021H42.5366C42.1042 10.021 41.7537 10.3715 41.7537 10.8039C41.7537 11.2363 42.1042 11.5868 42.5366 11.5868H45.8769C46.3092 11.5868 46.6598 11.2363 46.6598 10.8039C46.6598 10.3715 46.3092 10.021 45.8769 10.021Z" fill="white"/>
<path d="M24.6355 27.7146C24.2898 27.4549 23.799 27.5246 23.5394 27.8703C22.8914 28.7329 21.9019 29.2276 20.8248 29.2276C18.9542 29.2276 17.4323 27.7058 17.4323 25.8352C17.4323 23.9646 18.9542 22.4427 20.8248 22.4427C21.9027 22.4427 22.8927 22.9381 23.5406 23.8018C23.8001 24.1476 24.2908 24.2178 24.6366 23.9582C24.9824 23.6986 25.0524 23.208 24.793 22.8622C23.8464 21.6005 22.4002 20.877 20.8247 20.877C18.0908 20.877 15.8665 23.1013 15.8665 25.8352C15.8665 28.569 18.0908 30.7934 20.8247 30.7934C22.3989 30.7934 23.8446 30.0707 24.7912 28.8106C25.051 28.4649 24.9813 27.9742 24.6355 27.7146Z" fill="white"/>
<path d="M32.3584 27.3824C33.8474 27.069 34.9688 25.7457 34.9688 24.1648C34.9688 22.3517 33.4937 20.8767 31.6807 20.8767H27.5053C27.073 20.8767 26.7224 21.2272 26.7224 21.6596V30.0103C26.7224 30.4426 27.0729 30.7932 27.5053 30.7932C27.9377 30.7932 28.2882 30.4427 28.2882 30.0103V27.4529H30.4543L32.7246 30.48C32.8785 30.6851 33.1135 30.7932 33.3515 30.7932C33.515 30.7932 33.6798 30.7422 33.8207 30.6367C34.1665 30.3773 34.2367 29.8865 33.9772 29.5407L32.3584 27.3824ZM28.2881 25.8873V22.4426H31.6806C32.6303 22.4426 33.403 23.2153 33.403 24.165C33.403 25.1147 32.6303 25.8874 31.6806 25.8874H28.2881V25.8873Z" fill="white"/>
<path d="M45.8209 29.9323L44.9859 21.5818C44.9499 21.2229 44.6736 20.935 44.3164 20.8845C43.9597 20.8339 43.6139 21.034 43.48 21.369L40.8665 27.9024L38.2531 21.369C38.1191 21.0341 37.7738 20.8344 37.4166 20.8845C37.0595 20.935 36.7831 21.2229 36.7472 21.5818L35.9121 29.9324C35.8692 30.3627 36.183 30.7463 36.6133 30.7894C37.0431 30.8323 37.4271 30.5185 37.4702 30.0882L37.9871 24.9195L40.1398 30.3011C40.2587 30.5982 40.5464 30.7932 40.8666 30.7932C41.1868 30.7932 41.4746 30.5982 41.5935 30.3011L43.7461 24.9195L44.263 30.0882C44.3034 30.4919 44.6437 30.7932 45.0411 30.7932C45.0672 30.7932 45.0935 30.7919 45.1199 30.7892C45.55 30.7463 45.8639 30.3626 45.8209 29.9323Z" fill="white"/>
</svg>
