<svg width="128" height="128" viewBox="0 0 128 128" fill="none" xmlns="http://www.w3.org/2000/svg">
<path d="M57.9148 6.48662e-06C56.4845 0.135301 55.2717 1.47771 55.2779 2.91899V9.07621C55.0445 9.1254 54.8317 9.15574 54.596 9.21295C54.0866 9.33701 53.5861 9.50898 53.0957 9.66904L47.1854 3.73986C46.1065 2.6459 44.1271 2.6459 43.0482 3.73986L34.3192 12.4968C33.2288 13.5792 33.2288 15.5649 34.3192 16.6472L40.0022 22.3484C39.8503 22.6401 39.6163 22.8505 39.4566 23.1693C39.1852 23.7113 39.0079 24.2631 38.7747 24.8113H32.0006C30.4772 24.8114 29.0911 26.2019 29.0909 27.7302V39.4062C29.0911 40.9345 30.4772 42.325 32.0006 42.3251H38.8201C39.0472 42.8549 39.1942 43.3976 39.4566 43.9215C39.6147 44.2371 39.8518 44.4534 40.0022 44.7424L34.3192 50.4436C33.2288 51.5259 33.2288 53.5116 34.3192 54.594L43.0482 63.3509C44.1271 64.445 46.1065 64.445 47.1854 63.3509L53.0502 57.4674C53.5505 57.6317 54.0757 57.7967 54.596 57.9234C54.8326 57.9811 55.0435 58.0111 55.2779 58.0602V64.2175C55.2781 65.7457 56.6641 67.1363 58.1876 67.1365H69.8263C71.3497 67.1363 72.7358 65.7457 72.7359 64.2175V58.0602C72.9799 58.0093 73.2169 57.9834 73.4633 57.9234C73.9846 57.7965 74.4626 57.5865 74.9636 57.4217L80.8739 63.3509C81.9495 64.4178 83.89 64.4178 84.9656 63.3509L93.6946 54.594C94.7851 53.5116 94.7851 51.5259 93.6946 50.4436L88.0571 44.788C88.2135 44.4886 88.4384 44.2495 88.6027 43.9215C88.8662 43.3954 89.0114 42.8571 89.2392 42.3251H96.0133C97.5367 42.325 98.9228 40.9345 98.9229 39.4062C98.9229 35.8981 98.9229 31.7022 98.9229 27.7302C98.9228 26.2019 97.5367 24.8114 96.0133 24.8113H89.2392C89.007 24.2661 88.8727 23.7083 88.6027 23.1693C88.4368 22.8381 88.2151 22.6049 88.0571 22.3028L93.6946 16.6472C94.7851 15.5649 94.7851 13.5792 93.6946 12.4968L84.9656 3.73986C83.89 2.67305 81.9495 2.67305 80.8739 3.73986L74.9636 9.66904C74.4636 9.50478 73.9834 9.33963 73.4633 9.21295C73.2179 9.15311 72.9789 9.127 72.7359 9.07621V2.91899C72.7358 1.39065 71.3497 0.000152436 69.8263 6.48662e-06C65.8674 -8.10828e-06 61.8522 6.48662e-06 57.9148 6.48662e-06ZM61.0973 5.83797H66.9166V11.6759C66.9038 13.3338 68.5503 14.802 70.19 14.5949C70.8321 14.5505 71.525 14.7564 72.0994 14.8686C72.6162 14.9944 73.1354 15.1425 73.5088 15.279C73.9395 15.4602 73.9781 15.5188 74.1994 15.6318C75.2924 16.2422 76.7926 16.0741 77.6915 15.1878L82.9198 9.94279L87.557 14.5949L82.3287 19.7943C81.2533 20.8615 81.2317 22.8083 82.2833 23.8992C82.157 23.7653 82.8711 24.8099 83.3744 25.8147C83.8777 26.8196 84.3564 27.9801 84.4655 28.4145C84.7681 29.6732 85.9935 30.6448 87.2843 30.6493H93.1036V36.4873H87.2843C86.0054 36.4867 84.7853 37.4343 84.4655 38.6765C84.3564 39.1109 83.8777 40.317 83.3744 41.3218C82.8711 42.3266 82.1571 43.3712 82.2833 43.2374C81.2584 44.3244 81.2797 46.233 82.3287 47.2966L87.557 52.5417L82.9198 57.1482L77.6915 51.9031C76.7153 50.9347 75.0228 50.812 73.918 51.6295C73.8372 51.6755 73.6955 51.7438 73.5088 51.8119C73.1354 51.9485 72.6162 52.0965 72.0994 52.2224C71.5827 52.3482 71.0298 52.4446 70.6446 52.4961C70.2233 52.5595 70.1629 52.5441 69.8377 52.5441C68.3367 52.5823 66.9136 53.9283 66.9166 55.4607V61.2987H61.0973V55.4607C61.0959 53.925 59.6659 52.5752 58.1591 52.5507C58.0287 52.5565 58.0136 52.5404 57.3693 52.4961C56.9841 52.4446 56.4767 52.3484 55.9599 52.2225C55.4431 52.0967 54.9239 51.9485 54.5505 51.812C54.1179 51.6853 54.1198 51.5819 53.8235 51.4236C52.7216 50.8174 51.2142 51.0017 50.3224 51.9032L45.0941 57.1027L40.5478 52.5418L45.7306 47.2967C46.7796 46.2331 46.801 44.3245 45.7761 43.2375C45.9023 43.3713 45.1428 42.3267 44.6395 41.3219C44.1362 40.3171 43.6574 39.111 43.5484 38.6766C43.2285 37.4344 42.0085 36.4868 40.7296 36.4874H34.9103C34.9139 34.6143 34.9066 32.702 34.9103 30.6494H40.7296C42.0203 30.645 43.2457 29.6733 43.5484 28.4146C43.6574 27.9802 44.1362 26.8196 44.6395 25.8148C45.1428 24.81 45.9023 23.7654 45.7761 23.8993C46.8276 22.8084 46.806 20.8616 45.7306 19.7944L40.5478 14.595L45.0941 9.94287L50.3224 15.1879C51.292 16.1933 53.0193 16.3377 54.1413 15.5072C54.2221 15.4612 54.3638 15.3474 54.5505 15.2791C54.9239 15.1425 55.4431 14.9945 55.9599 14.8687C56.4766 14.7428 56.9841 14.6465 57.3693 14.595C57.5618 14.5692 57.7788 14.5892 57.8694 14.595C59.4951 14.7743 61.1069 13.3168 61.0973 11.676V5.83797ZM64.0069 20.4329C56.8109 20.4329 50.9134 26.3436 50.9134 33.5683C50.9134 40.793 56.8109 46.7037 64.0069 46.7037C71.203 46.7037 77.1004 40.7879 77.1004 33.5683C77.1004 26.3487 71.203 20.4329 64.0069 20.4329ZM64.0069 26.2708C68.0574 26.2708 71.2811 29.5031 71.2811 33.5683C71.2811 37.6335 68.0574 40.8657 64.0069 40.8657C59.9565 40.8657 56.7328 37.6284 56.7328 33.5683C56.7328 29.5082 59.9565 26.2708 64.0069 26.2708Z" fill="#B4EC51"/>
<path d="M28.7983 73.953C27.5337 74.0303 26.382 75.0316 26.1257 76.2763C25.8693 77.5209 26.5313 78.8979 27.6617 79.4718L40.7552 86.7692C42.0883 87.5095 43.9726 86.9662 44.7106 85.6289C45.4485 84.2916 44.907 82.4013 43.574 81.661L30.4805 74.3636C29.9781 74.061 29.3831 73.9158 28.7983 73.953ZM17.1142 79.7909C15.8632 79.9019 14.7463 80.9162 14.5117 82.1538C14.2772 83.3916 14.9454 84.7459 16.0685 85.3097L34.9814 95.5262C36.3306 96.3038 38.2715 95.7428 39.0012 94.364C39.731 92.9852 39.1071 91.0579 37.7092 90.3723L18.7963 80.1558C18.289 79.869 17.6944 79.74 17.1142 79.7909ZM100.358 85.6746C88.9859 85.6746 78.5691 89.8445 72.3069 91.5126H52.3484C50.0655 91.5126 47.8899 92.1599 46.029 93.2457C44.1681 94.3316 42.1646 95.9124 42.1646 98.81V103.189C42.1646 106.08 44.1709 107.62 46.029 108.707C47.8871 109.794 50.0654 110.486 52.3484 110.486H72.7161C74.2533 110.508 75.6672 109.109 75.6672 107.567C75.6672 106.025 74.2533 104.626 72.7161 104.648H52.3484C51.3841 104.648 49.9433 104.206 48.9841 103.645C48.2647 103.224 48.0404 102.809 47.9839 102.915V99.1292C48.0394 99.2226 48.2614 98.7306 48.9841 98.3082C49.9477 97.746 51.384 97.3505 52.3484 97.3505H72.7161C72.9611 97.351 73.2062 97.3199 73.4435 97.26C80.4441 95.4386 90.3106 91.5133 100.358 91.5133C108.858 91.5133 115.555 94.7933 123.908 98.5371C125.299 99.1493 127.12 98.4423 127.737 97.0492C128.354 95.6564 127.658 93.8265 126.272 93.2008C118.045 89.5127 110.354 85.6746 100.358 85.6746ZM7.56685 88.5024C6.99688 88.517 6.43358 88.6089 5.83923 88.8215C4.65053 89.2468 3.84284 90.0766 3.29327 90.7828C2.74371 91.4891 2.36429 92.1531 1.92937 92.8351C1.88156 92.8935 1.83605 92.9548 1.79298 93.0176C1.26438 93.9938 0.854214 94.728 0.474535 95.6174C0.0948572 96.5068 -0.249845 97.9352 0.247218 99.2661C0.744281 100.597 1.57981 101.303 2.42947 101.957C3.27913 102.611 4.31984 103.253 5.65738 104.146C13.2503 108.913 20.2798 114.033 26.707 118.103C30.8008 120.681 34.9164 123.095 38.7548 124.898C42.5933 126.702 46.1013 128 49.4388 128C70.1251 128 79.8986 126.54 103.268 126.54C114.638 126.54 118.141 127.954 122.18 127.954C124.042 127.954 125.329 127.076 126.272 126.084C127.215 125.092 128 123.953 128 122.162V107.567C128.021 106.025 126.627 104.606 125.09 104.606C123.553 104.606 122.159 106.025 122.18 107.567V122.116H122.135C119.799 122.102 115.063 120.702 103.268 120.702C79.665 120.702 69.8582 122.162 49.4388 122.162C47.7785 122.162 44.7367 121.243 41.2553 119.608C37.7739 117.972 33.7805 115.685 29.7985 113.177C22.5656 108.823 15.7683 103.57 8.74889 99.2204C7.50307 98.3881 6.60123 97.8009 6.06654 97.3961C6.26321 97.011 6.49493 96.604 6.93035 95.7998C7.303 95.2137 7.60112 94.7348 7.79416 94.4771C7.78616 94.4771 7.83963 94.4771 7.83963 94.4771C7.98275 94.5369 8.66202 94.6616 10.2492 95.5262C18.5619 99.7172 26.608 104.109 33.7084 107.293C35.0997 107.906 36.9203 107.198 37.5374 105.805C38.1544 104.413 37.4579 102.583 36.0725 101.957C28.0318 98.3751 20.0447 93.9718 12.977 90.3723C11.6432 89.6463 10.4446 89.0393 9.29446 88.7303C8.71346 88.5742 8.13682 88.4938 7.56685 88.5024Z" fill="#FFB321"/>
</svg>
