<svg width="50" height="50" viewBox="0 0 50 50" fill="none" xmlns="http://www.w3.org/2000/svg">
<path d="M17.2001 14.2188V5.07812C17.2001 4.60937 16.886 4.29688 16.4147 4.29688H5.89049C5.41926 4.29688 5.1051 4.60937 5.1051 5.07812V14.1406C5.1051 14.6094 5.41926 14.9219 5.89049 14.9219H16.4147C16.886 15 17.2001 14.6094 17.2001 14.2188ZM15.6293 13.4375H6.67588V5.85937H15.6293V13.4375Z" fill="white"/>
<path d="M6.59729 20.7815C6.59729 21.2502 6.91145 21.5627 7.38268 21.5627H24.5042C24.9754 21.5627 25.2896 21.2502 25.2896 20.7815C25.2896 20.3127 24.9754 20.0002 24.5042 20.0002H7.38268C6.91145 20.0002 6.59729 20.3909 6.59729 20.7815Z" fill="white"/>
<path d="M24.5042 27.0312H7.38268C6.91145 27.0312 6.59729 27.3437 6.59729 27.8125C6.59729 28.2812 6.91145 28.5938 7.38268 28.5938H24.5042C24.9754 28.5938 25.2896 28.2812 25.2896 27.8125C25.2896 27.4219 24.9754 27.0312 24.5042 27.0312Z" fill="white"/>
<path d="M28.5097 34.0625H7.38268C6.91145 34.0625 6.59729 34.375 6.59729 34.8438C6.59729 35.3125 6.91145 35.625 7.38268 35.625H28.5097C28.9809 35.625 29.2951 35.3125 29.2951 34.8438C29.2951 34.375 28.9024 34.0625 28.5097 34.0625Z" fill="white"/>
<path d="M28.5097 41.1716H7.38268C6.91145 41.1716 6.59729 41.4841 6.59729 41.9529C6.59729 42.4216 6.91145 42.7341 7.38268 42.7341H28.5097C28.9809 42.7341 29.2951 42.4216 29.2951 41.9529C29.2951 41.4841 28.9024 41.1716 28.5097 41.1716Z" fill="white"/>
<path d="M44.6102 25.7031C44.4531 26.0937 44.6887 26.5625 45.0814 26.7187C45.1599 26.7187 45.2385 26.7969 45.317 26.7969C45.6312 26.7969 45.9453 26.5625 46.0239 26.25L49.9508 15.5469C50.1079 15.1562 49.8723 14.6875 49.4796 14.5312L47.8302 13.8281L48.9298 10.8594C49.3225 9.76562 48.7727 8.59375 47.6732 8.125L43.6677 6.64062C42.5681 6.25 41.3115 6.79688 40.9188 7.89063L35.8138 21.7969V8.90625V8.82812C35.8138 8.51562 35.6567 8.28125 35.4211 8.125L25.9964 0.15625C25.9179 0.078125 25.8393 0.078125 25.7608 0H25.6823C25.6037 0 25.6037 0 25.5252 0C25.5252 0 25.5252 0 25.4466 0H0.78539C0.314156 0 0 0.3125 0 0.78125V49.2188C0 49.6875 0.314156 50 0.78539 50H35.1069C35.5782 50 35.8923 49.6875 35.8923 49.2188V41.875L38.7983 38.2031C38.9553 38.0469 38.327 39.5312 47.2805 15.3125L48.3015 15.7031L44.6102 25.7031ZM42.4896 8.51562C42.5681 8.28125 42.8823 8.125 43.1964 8.20312L47.2019 9.6875C47.5161 9.76562 47.5946 10.0781 47.5161 10.3906L46.338 13.3594L41.3115 11.5625L42.4896 8.51562ZM26.3891 2.57812L32.9078 8.125H26.3891V2.57812ZM34.3215 48.5156H1.57078V1.64062H24.8183V8.82812C24.8183 9.29688 25.1325 9.60938 25.6037 9.60938H34.3215V26.0156C32.8293 30.0781 30.9444 35.0781 30.9444 35.3125L30.5517 46.4062C30.5517 47.1875 31.4941 47.5 31.9654 46.9531L34.4001 43.9062V48.5156H34.3215ZM32.1225 44.0625L32.4366 36.4844L36.9133 38.125L32.1225 44.0625ZM37.6987 36.7188L32.6722 34.9219L40.7617 12.9688L45.7882 14.7656L37.6987 36.7188Z" fill="white"/>
</svg>
