<svg width="210" height="210" viewBox="0 0 210 210" fill="none" xmlns="http://www.w3.org/2000/svg">
<g clip-path="url(#clip0)">
<path d="M33.871 33.8711H40.6452V40.6453H33.871V33.8711Z" fill="#B4EC51"/>
<path d="M47.4193 33.8711H54.1935V40.6453H47.4193V33.8711Z" fill="#B4EC51"/>
<path d="M60.9678 33.8711H67.742V40.6453H60.9678V33.8711Z" fill="#B4EC51"/>
<path d="M194.897 35.8903L205.174 26.298C208.239 23.4318 210 19.3882 210 15.1907C210 6.81554 203.184 0 194.809 0H194.432C190.491 0 186.747 1.50335 183.909 4.23718L167.16 20.3226H166.957C148.893 7.06527 127.565 0 105 0C82.4662 0 61.0488 7.04543 42.9622 20.3226H20.3226V42.9688C7.04543 61.0554 0 82.4662 0 105C0 162.9 47.1002 210 105 210C162.9 210 210 162.9 210 105V61.9121C210 56.1038 207.876 50.5154 204.021 46.1757L194.897 35.8903ZM198.954 50.6708C201.713 53.7702 203.226 57.7642 203.226 61.9121V97.7115L184.319 86.9101C181.769 85.4498 178.863 84.6774 175.919 84.6774H121.935C118.199 84.6774 115.161 81.6393 115.161 77.9032C115.161 74.1672 118.199 71.129 121.935 71.129H150.468C154.773 71.129 158.874 69.5099 162.022 66.5727L189.942 40.5129L198.954 50.6708ZM88.0645 135.484C82.4629 135.484 77.9032 140.044 77.9032 145.645V182.903C77.9032 184.772 76.385 186.29 74.5161 186.29C72.6473 186.29 71.129 184.772 71.129 182.903V145.645C71.129 140.044 66.5694 135.484 60.9677 135.484H44.0323C42.1634 135.484 40.6452 133.966 40.6452 132.097C40.6452 130.228 42.1634 128.71 44.0323 128.71H67.7419V121.935H44.0323C38.4306 121.935 33.871 126.495 33.871 132.097C33.871 137.698 38.4306 142.258 44.0323 142.258H60.9677C62.8366 142.258 64.3548 143.776 64.3548 145.645V149.032H27.0968V54.1936H106.985L105.41 55.768C102.961 58.2174 101.613 61.4722 101.613 64.9337C101.613 69.7911 104.363 74.1473 108.526 76.3618L96.8002 88.091C96.7076 88.0877 96.6199 88.0645 96.5323 88.0645C92.4109 88.0645 88.3754 89.7349 85.463 92.6507L84.684 93.4296C82.6796 95.4341 81.2523 97.948 80.5692 100.698L73.2493 129.977L102.527 122.657C103.381 122.443 104.201 122.136 105 121.787V162.581C105 164.45 103.482 165.968 101.613 165.968C99.744 165.968 98.2258 164.45 98.2258 162.581V145.645C98.2258 140.044 93.6661 135.484 88.0645 135.484ZM150.675 27.0968H160.108L121.309 64.3681C117.065 64.5616 113.359 66.7463 111.008 69.978C109.409 68.8401 108.387 66.9795 108.387 64.9337C108.387 63.2815 109.03 61.7236 110.2 60.5543L138.699 32.055C141.902 28.8581 146.153 27.0968 150.675 27.0968ZM177.538 19.747L189.474 31.6829L157.399 61.621C155.512 63.3824 153.053 64.3548 150.468 64.3548H131.104L177.538 19.747ZM132.097 92.9583L133.774 91.4516H169.355V135.484H132.097V92.9583ZM96.5323 94.8387C98.8692 94.8387 101.16 95.7864 102.812 97.4402L105.789 100.417C107.466 102.094 108.387 104.322 108.387 106.694C108.387 109.03 107.439 111.318 105.786 112.973L105.007 113.752C103.869 114.89 102.443 115.697 100.885 116.086L82.5572 120.669L87.14 102.344C87.5287 100.783 88.3391 99.357 89.4703 98.2225L90.2526 97.4402C91.9048 95.7864 94.1954 94.8387 96.5323 94.8387ZM113.779 100.333C113.011 98.6078 111.954 97.0036 110.575 95.6276L107.598 92.6507C106.616 91.665 105.471 90.8827 104.269 90.198L110.097 84.3665C112.404 88.5656 116.817 91.4516 121.935 91.4516H123.646L113.779 100.333ZM111.774 116.296C113.565 114 114.68 111.25 114.996 108.349L125.323 99.056V142.258H176.129V91.4781C177.823 91.5161 179.49 91.9494 180.958 92.7896L182.903 93.901V149.032H111.774V116.296ZM188.597 9.12102C190.172 7.60774 192.244 6.77419 194.429 6.77419H194.806C199.448 6.77419 203.226 10.5516 203.226 15.1907C203.226 17.5143 202.25 19.757 200.55 21.3447L194.429 27.0587L182.425 15.0517L188.597 9.12102ZM105 6.77419C122.756 6.77419 139.68 11.4761 154.675 20.3226H55.3182C70.3302 11.4728 87.2889 6.77419 105 6.77419ZM134.098 27.0968C134.038 27.158 133.971 27.2092 133.913 27.2655L113.759 47.4194H27.0968V27.0968H134.098ZM20.3226 55.3215V154.692C11.7258 140.103 6.77419 123.125 6.77419 105C6.77419 87.2856 11.4728 70.3335 20.3226 55.3215ZM105 203.226C69.4223 203.226 38.1991 184.206 20.9659 155.806H64.3548V182.903C64.3548 188.505 68.9145 193.065 74.5161 193.065C80.1177 193.065 84.6774 188.505 84.6774 182.903V145.645C84.6774 143.776 86.1957 142.258 88.0645 142.258C89.9334 142.258 91.4516 143.776 91.4516 145.645V162.581C91.4516 168.182 96.0113 172.742 101.613 172.742C107.215 172.742 111.774 168.182 111.774 162.581V155.806H189.034C171.801 184.206 140.578 203.226 105 203.226ZM189.677 154.692V97.7727L202.324 105H203.226C203.226 123.125 198.274 140.103 189.677 154.692Z" fill="#FFB321"/>
<path d="M81.2903 60.9678H33.871V88.0645H81.2903V60.9678ZM74.5161 81.2904H40.6452V67.742H74.5161V81.2904Z" fill="#B4EC51"/>
<path d="M33.871 94.8389H67.7419V101.613H33.871V94.8389Z" fill="#B4EC51"/>
<path d="M33.871 108.387H67.7419V115.161H33.871V108.387Z" fill="#B4EC51"/>
</g>
<defs>
<clipPath id="clip0">
<rect width="210" height="210" fill="white"/>
</clipPath>
</defs>
</svg>
