<svg width="128" height="128" viewBox="0 0 128 128" fill="none" xmlns="http://www.w3.org/2000/svg"><mask id="a" maskUnits="userSpaceOnUse" x="0" y="0" width="128" height="128"><path d="M125.867 21.333h-51.2a2.133 2.133 0 0 0-2.134 2.134v19.2a2.134 2.134 0 0 0 2.808 2.022l2.681-.894a5.546 5.546 0 1 1 0 10.543l-2.681-.894a2.133 2.133 0 0 0-2.808 2.023v17.066H55.466a2.133 2.133 0 0 0-2.022 2.808l.894 2.681a5.546 5.546 0 1 1-10.543 0l.894-2.681a2.133 2.133 0 0 0-2.023-2.808h-19.2a2.133 2.133 0 0 0-2.133 2.133v51.2c0 1.179.956 2.134 2.134 2.134h102.4a2.133 2.133 0 0 0 2.133-2.134v-102.4a2.133 2.133 0 0 0-2.133-2.133zm-53.224 84.661a2.11 2.11 0 0 0-.11.673v17.066H25.6V76.8h14.108c-1.63 5.169 1.238 10.68 6.407 12.31 5.169 1.63 10.68-1.238 12.31-6.407a9.813 9.813 0 0 0 0-5.903h14.108v17.066a2.134 2.134 0 0 0 2.808 2.023l2.681-.894a5.546 5.546 0 1 1 0 10.543l-2.681-.894a2.133 2.133 0 0 0-2.698 1.35zm51.09 17.739H76.8v-14.107c5.169 1.63 10.68-1.239 12.31-6.408 1.63-5.169-1.238-10.68-6.407-12.31a9.813 9.813 0 0 0-5.903 0V76.8h17.066a2.133 2.133 0 0 0 2.023-2.807l-.894-2.682a5.547 5.547 0 1 1 10.543 0l-.894 2.682a2.134 2.134 0 0 0 2.022 2.807h17.067v46.933zm0-51.2h-14.107c1.63-5.168-1.239-10.68-6.408-12.31a9.814 9.814 0 1 0-12.31 12.31H76.8V58.427a9.72 9.72 0 0 0 8.723-1.393c4.412-3.147 5.438-9.276 2.29-13.688A9.814 9.814 0 0 0 76.8 39.708V25.6h46.933v46.933z" fill="#97D644"/><path d="M61.37 18.374a9.813 9.813 0 0 0-5.903 0V2.134A2.133 2.133 0 0 0 53.333 0h-51.2A2.133 2.133 0 0 0 0 2.133v51.2c0 1.178.955 2.134 2.133 2.134h16.241c-1.63 5.169 1.24 10.68 6.408 12.31a9.814 9.814 0 1 0 12.31-12.31h16.241a2.133 2.133 0 0 0 2.134-2.134V37.092c5.169 1.63 10.68-1.239 12.31-6.407 1.63-5.169-1.238-10.68-6.407-12.31zm-1.23 14.63a5.547 5.547 0 0 1-3.45 0l-2.682-.893a2.133 2.133 0 0 0-2.808 2.022V51.2H34.133a2.133 2.133 0 0 0-2.022 2.807l.894 2.682a5.546 5.546 0 1 1-10.543 0l.894-2.682a2.133 2.133 0 0 0-2.023-2.807H4.267V4.267H51.2v17.066a2.133 2.133 0 0 0 2.807 2.023l2.682-.894a5.547 5.547 0 1 1 3.451 10.543z" fill="#97D644"/></mask><g mask="url(#a)"><path d="M125.867 21.333h-51.2a2.133 2.133 0 0 0-2.134 2.134v19.2a2.134 2.134 0 0 0 2.808 2.022l2.681-.894a5.546 5.546 0 1 1 0 10.543l-2.681-.894a2.133 2.133 0 0 0-2.808 2.023v17.066H55.466a2.133 2.133 0 0 0-2.022 2.808l.894 2.681a5.546 5.546 0 1 1-10.543 0l.894-2.681a2.133 2.133 0 0 0-2.023-2.808h-19.2a2.133 2.133 0 0 0-2.133 2.133v51.2c0 1.179.956 2.134 2.134 2.134h102.4a2.133 2.133 0 0 0 2.133-2.134v-102.4a2.133 2.133 0 0 0-2.133-2.133zm-53.224 84.661a2.11 2.11 0 0 0-.11.673v17.066H25.6V76.8h14.108c-1.63 5.169 1.238 10.68 6.407 12.31 5.169 1.63 10.68-1.238 12.31-6.407a9.813 9.813 0 0 0 0-5.903h14.108v17.066a2.134 2.134 0 0 0 2.808 2.023l2.681-.894a5.546 5.546 0 1 1 0 10.543l-2.681-.894a2.133 2.133 0 0 0-2.698 1.35zm51.09 17.739H76.8v-14.107c5.169 1.63 10.68-1.239 12.31-6.408 1.63-5.169-1.238-10.68-6.407-12.31a9.813 9.813 0 0 0-5.903 0V76.8h17.066a2.133 2.133 0 0 0 2.023-2.807l-.894-2.682a5.547 5.547 0 1 1 10.543 0l-.894 2.682a2.134 2.134 0 0 0 2.022 2.807h17.067v46.933zm0-51.2h-14.107c1.63-5.168-1.239-10.68-6.408-12.31a9.814 9.814 0 1 0-12.31 12.31H76.8V58.427a9.72 9.72 0 0 0 8.723-1.393c4.412-3.147 5.438-9.276 2.29-13.688A9.814 9.814 0 0 0 76.8 39.708V25.6h46.933v46.933z" fill="#97D644"/><path d="M61.37 18.374a9.813 9.813 0 0 0-5.903 0V2.134A2.133 2.133 0 0 0 53.333 0h-51.2A2.133 2.133 0 0 0 0 2.133v51.2c0 1.178.955 2.134 2.133 2.134h16.241c-1.63 5.169 1.24 10.68 6.408 12.31a9.814 9.814 0 1 0 12.31-12.31h16.241a2.133 2.133 0 0 0 2.134-2.134V37.092c5.169 1.63 10.68-1.239 12.31-6.407 1.63-5.169-1.238-10.68-6.407-12.31zm-1.23 14.63a5.547 5.547 0 0 1-3.45 0l-2.682-.893a2.133 2.133 0 0 0-2.808 2.022V51.2H34.133a2.133 2.133 0 0 0-2.022 2.807l.894 2.682a5.546 5.546 0 1 1-10.543 0l.894-2.682a2.133 2.133 0 0 0-2.023-2.807H4.267V4.267H51.2v17.066a2.133 2.133 0 0 0 2.807 2.023l2.682-.894a5.547 5.547 0 1 1 3.451 10.543z" fill="#97D644"/><rect x="-19.215" y="-10" width="172.792" height="140.597" rx="25" fill="url(#paint0_linear)"/><path fill-rule="evenodd" clip-rule="evenodd" d="M-56.398 79.236s21.36-114.846 70.917-44.632C54.73 91.576 59.507 98.379 77.996 87.008c21.681-13.335 25.681-52.404 36.468-52.404 10.787 0 26.689 68.402 35.447 56.972 8.758-11.43 15.557-45.772 33.393-45.772 17.837 0 15.24 42.413 15.24 42.413l-7.369 49.53-105.95-7.076L-53.836 147" fill="url(#paint1_linear)"/></g><defs><linearGradient id="paint0_linear" x1="-19.215" y1="60.298" x2="152.596" y2="60.455" gradientUnits="userSpaceOnUse"><stop stop-color="#459622"/><stop offset="1" stop-color="#B0E94F"/></linearGradient><linearGradient id="paint1_linear" x1="189.461" y1="50.925" x2="-40.096" y2="52.209" gradientUnits="userSpaceOnUse"><stop stop-color="#5CA82C"/><stop offset="0" stop-color="#68B231"/><stop offset="1" stop-color="#A6E24B"/></linearGradient></defs></svg>