<svg width="179" height="235" viewBox="0 0 179 235" fill="none" xmlns="http://www.w3.org/2000/svg"><path d="M176.738 95.657a12.569 12.569 0 0 0-.001-13.134l-4.872-7.99a5.21 5.21 0 0 1-.698-3.52l1.452-9.227a12.563 12.563 0 0 0-5.041-12.163l-7.55-5.492a5.214 5.214 0 0 1-1.999-2.986l-2.199-9.088a12.563 12.563 0 0 0-9.293-9.294l-9.088-2.199c-1.2-.29-2.26-1-2.986-1.998l-5.493-7.553a12.56 12.56 0 0 0-12.161-5.041l-9.231 1.452a5.214 5.214 0 0 1-3.52-.698l-7.99-4.873a12.566 12.566 0 0 0-13.135 0l-7.99 4.872a5.213 5.213 0 0 1-3.52.698L62.195 5.97a12.563 12.563 0 0 0-12.162 5.04l-5.492 7.551a5.215 5.215 0 0 1-2.987 1.999l-9.087 2.199a12.565 12.565 0 0 0-9.294 9.293l-2.2 9.088c-.29 1.2-1 2.26-1.998 2.986l-7.553 5.493a12.561 12.561 0 0 0-5.04 12.161l1.452 9.231a5.213 5.213 0 0 1-.699 3.52l-4.873 7.991a12.568 12.568 0 0 0 0 13.134l4.873 7.99a5.214 5.214 0 0 1 .698 3.521l-1.452 9.227a12.56 12.56 0 0 0 5.04 12.162l7.551 5.492a5.214 5.214 0 0 1 1.999 2.987l2.199 9.087a12.563 12.563 0 0 0 9.293 9.294l3.795.918-25.683 57.288a3.702 3.702 0 0 0 3.82 5.192l20.664-2.47 11.904 17.07a3.705 3.705 0 0 0 6.417-.603L79.609 174.3l3.323 2.026a12.598 12.598 0 0 0 6.567 1.853 12.6 12.6 0 0 0 6.568-1.853l3.443-2.099 26.262 58.584a3.703 3.703 0 0 0 6.417.603l11.904-17.07 20.664 2.471a3.705 3.705 0 0 0 3.819-5.192l-25.695-57.32 3.652-.883a12.567 12.567 0 0 0 9.294-9.293l2.199-9.088a5.213 5.213 0 0 1 1.999-2.986l7.552-5.494a12.56 12.56 0 0 0 5.041-12.161l-1.452-9.23a5.219 5.219 0 0 1 .698-3.52l4.874-7.992zM49.297 223.814l-9.434-13.528a3.7 3.7 0 0 0-3.477-1.559l-16.377 1.958 23.4-52.197c.427.314.81.691 1.127 1.126l5.493 7.553a12.731 12.731 0 0 0 1.748 1.947L39.46 196.588a3.704 3.704 0 0 0 6.758 3.029l12.272-27.375a12.68 12.68 0 0 0 3.7-.034l9.23-1.452a5.19 5.19 0 0 1 1.654.011l-23.778 53.047zm109.846-13.13l-16.377-1.957a3.7 3.7 0 0 0-3.477 1.559l-9.434 13.528-23.789-53.068a5.213 5.213 0 0 1 1.512.011l9.227 1.453c1.298.204 2.592.197 3.846.011l12.281 27.397a3.705 3.705 0 0 0 4.894 1.865 3.703 3.703 0 0 0 1.864-4.894l-12.362-27.579a12.737 12.737 0 0 0 1.639-1.842l5.492-7.55c.346-.476.77-.884 1.246-1.214l23.438 52.28zm11.27-118.883l-4.873 7.991a12.629 12.629 0 0 0-1.69 8.527l1.452 9.23a5.19 5.19 0 0 1-2.081 5.021l-7.553 5.493a12.626 12.626 0 0 0-4.84 7.234l-2.2 9.088a5.19 5.19 0 0 1-3.836 3.837l-9.088 2.199a12.625 12.625 0 0 0-7.235 4.84l-5.492 7.551a5.184 5.184 0 0 1-5.021 2.08l-9.227-1.452a12.63 12.63 0 0 0-8.529 1.691l-7.99 4.872a5.19 5.19 0 0 1-5.42 0l-7.992-4.872a12.619 12.619 0 0 0-8.528-1.691l-9.23 1.452a5.186 5.186 0 0 1-5.02-2.081l-5.494-7.553a12.63 12.63 0 0 0-7.234-4.84l-9.088-2.199a5.187 5.187 0 0 1-3.837-3.837l-2.199-9.087a12.625 12.625 0 0 0-4.84-7.235l-7.55-5.493a5.186 5.186 0 0 1-2.08-5.021l1.451-9.227a12.629 12.629 0 0 0-1.69-8.528L8.585 91.8a5.188 5.188 0 0 1 0-5.422l4.873-7.992a12.63 12.63 0 0 0 1.691-8.527l-1.452-9.23a5.186 5.186 0 0 1 2.081-5.02l7.553-5.494a12.629 12.629 0 0 0 4.84-7.233l2.2-9.088a5.188 5.188 0 0 1 3.836-3.837l9.088-2.199a12.625 12.625 0 0 0 7.234-4.84l5.492-7.551a5.184 5.184 0 0 1 5.021-2.081l9.228 1.452c2.95.465 5.979-.136 8.528-1.69l7.99-4.873a5.19 5.19 0 0 1 5.421 0l7.992 4.873a12.622 12.622 0 0 0 8.527 1.69l9.231-1.451a5.189 5.189 0 0 1 5.02 2.08l5.494 7.553a12.627 12.627 0 0 0 7.233 4.84l9.088 2.2a5.188 5.188 0 0 1 3.837 3.836l2.199 9.088a12.627 12.627 0 0 0 4.84 7.235l7.551 5.492a5.187 5.187 0 0 1 2.081 5.02l-1.453 9.228a12.632 12.632 0 0 0 1.691 8.528l4.872 7.99a5.186 5.186 0 0 1 0 5.423z" fill="#FFB321"/></svg>