<svg width="234" height="234" viewBox="0 0 234 234" fill="none" xmlns="http://www.w3.org/2000/svg"><mask id="a" maskUnits="userSpaceOnUse" x="0" y="0" width="234" height="234"><path d="M218.4 31.2h-7.8V15.6C210.6 6.985 203.615 0 195 0H39c-8.615 0-15.6 6.985-15.6 15.6v15.6h-7.8C6.985 31.2 0 38.185 0 46.8v132.6c0 8.615 6.985 15.6 15.6 15.6h76.657l-9.36 31.2H74.1v7.8h85.8v-7.8h-8.798l-9.359-31.2H218.4c8.615 0 15.6-6.985 15.6-15.6V46.8c0-8.615-6.985-15.6-15.6-15.6zM7.8 46.8a7.8 7.8 0 0 1 7.8-7.8h7.8v117h7.8V15.6A7.8 7.8 0 0 1 39 7.8h156a7.8 7.8 0 0 1 7.8 7.8V156h7.8V39h7.8a7.8 7.8 0 0 1 7.8 7.8v117H7.8v-117zm135.157 179.4H91.043l9.359-31.2h33.196l9.359 31.2zm83.243-46.8a7.8 7.8 0 0 1-7.8 7.8H15.6a7.8 7.8 0 0 1-7.8-7.8v-7.8h218.4v7.8z" fill="#000"/><path d="M39 19.5a3.9 3.9 0 1 1 7.8 0 3.9 3.9 0 0 1-7.8 0zm15.6 0a3.9 3.9 0 1 1 7.8 0 3.9 3.9 0 0 1-7.8 0zm15.6 0a3.9 3.9 0 1 1 7.8 0 3.9 3.9 0 0 1-7.8 0zm98.363 52.044a3.9 3.9 0 0 1 2.956-4.656l12.553-2.802a3.9 3.9 0 1 1 1.699 7.613l-12.552 2.802a3.9 3.9 0 0 1-4.656-2.957zM159.9 35.1a3.9 3.9 0 0 1 0-5.515l6.184-6.186a3.901 3.901 0 0 1 5.517 5.517l-6.186 6.184a3.9 3.9 0 0 1-5.515 0zm17.346 75.435a3.9 3.9 0 1 1 3.489-6.977l8.622 4.311a3.9 3.9 0 0 1-3.489 6.977l-8.622-4.311zm-27.778-85.532c-1.466-6.556-7.967-10.685-14.524-9.22-6.556 1.464-10.685 7.967-9.22 14.524l1.201 5.381-49.058 30.947-19.5 4.353c-11.746 2.564-19.904 13.264-19.268 25.27.638 12.007 9.882 21.784 21.835 23.09l6.653 29.804a3.9 3.9 0 0 0 4.649 2.948l16.131-3.603a3.901 3.901 0 0 0 2.96-4.658L84.97 115.37l3.603-.804 57.561 7.141 1.169 5.214a12.171 12.171 0 0 0 11.845 9.52 12.175 12.175 0 0 0 9.502-4.555 12.173 12.173 0 0 0 2.392-10.264l-21.574-96.619zm-102.11 73.61C45.345 89.577 51.03 80.623 60.06 78.6l16.358-3.65 3.652 16.357 3.65 16.356-4.254.952-12.09 2.703c-9.032 2.009-17.984-3.678-20.007-12.706h-.011zm35.49 43.112l-8.521 1.905-5.504-24.653.208-.046 8.295-1.853 5.522 24.647zm8.724-34.639l-7.8-34.959 44.951-28.353 15.6 69.852-52.751-6.54zm68.64 21.427a4.363 4.363 0 0 1-5.295-3.292l-21.58-96.618a4.357 4.357 0 0 1 3.308-5.203 4.364 4.364 0 0 1 5.21 3.308l21.555 96.614a4.39 4.39 0 0 1-3.201 5.191h.003z" fill="#000"/></mask><g mask="url(#a)"><path d="M218.4 31.2h-7.8V15.6C210.6 6.985 203.615 0 195 0H39c-8.615 0-15.6 6.985-15.6 15.6v15.6h-7.8C6.985 31.2 0 38.185 0 46.8v132.6c0 8.615 6.985 15.6 15.6 15.6h76.657l-9.36 31.2H74.1v7.8h85.8v-7.8h-8.798l-9.359-31.2H218.4c8.615 0 15.6-6.985 15.6-15.6V46.8c0-8.615-6.985-15.6-15.6-15.6zM7.8 46.8a7.8 7.8 0 0 1 7.8-7.8h7.8v117h7.8V15.6A7.8 7.8 0 0 1 39 7.8h156a7.8 7.8 0 0 1 7.8 7.8V156h7.8V39h7.8a7.8 7.8 0 0 1 7.8 7.8v117H7.8v-117zm135.157 179.4H91.043l9.359-31.2h33.196l9.359 31.2zm83.243-46.8a7.8 7.8 0 0 1-7.8 7.8H15.6a7.8 7.8 0 0 1-7.8-7.8v-7.8h218.4v7.8z" fill="#000"/><path d="M39 19.5a3.9 3.9 0 1 1 7.8 0 3.9 3.9 0 0 1-7.8 0zm15.6 0a3.9 3.9 0 1 1 7.8 0 3.9 3.9 0 0 1-7.8 0zm15.6 0a3.9 3.9 0 1 1 7.8 0 3.9 3.9 0 0 1-7.8 0zm98.363 52.044a3.9 3.9 0 0 1 2.956-4.656l12.553-2.802a3.9 3.9 0 1 1 1.699 7.613l-12.552 2.802a3.9 3.9 0 0 1-4.656-2.957zM159.9 35.1a3.9 3.9 0 0 1 0-5.515l6.184-6.186a3.901 3.901 0 0 1 5.517 5.517l-6.186 6.184a3.9 3.9 0 0 1-5.515 0zm17.346 75.435a3.9 3.9 0 1 1 3.489-6.977l8.622 4.311a3.9 3.9 0 0 1-3.489 6.977l-8.622-4.311zm-27.778-85.532c-1.466-6.556-7.967-10.685-14.524-9.22-6.556 1.464-10.685 7.967-9.22 14.524l1.201 5.381-49.058 30.947-19.5 4.353c-11.746 2.564-19.904 13.264-19.268 25.27.638 12.007 9.882 21.784 21.835 23.09l6.653 29.804a3.9 3.9 0 0 0 4.649 2.948l16.131-3.603a3.901 3.901 0 0 0 2.96-4.658L84.97 115.37l3.603-.804 57.561 7.141 1.169 5.214a12.171 12.171 0 0 0 11.845 9.52 12.175 12.175 0 0 0 9.502-4.555 12.173 12.173 0 0 0 2.392-10.264l-21.574-96.619zm-102.11 73.61C45.345 89.577 51.03 80.623 60.06 78.6l16.358-3.65 3.652 16.357 3.65 16.356-4.254.952-12.09 2.703c-9.032 2.009-17.984-3.678-20.007-12.706h-.011zm35.49 43.112l-8.521 1.905-5.504-24.653.208-.046 8.295-1.853 5.522 24.647zm8.724-34.639l-7.8-34.959 44.951-28.353 15.6 69.852-52.751-6.54zm68.64 21.427a4.363 4.363 0 0 1-5.295-3.292l-21.58-96.618a4.357 4.357 0 0 1 3.308-5.203 4.364 4.364 0 0 1 5.21 3.308l21.555 96.614a4.39 4.39 0 0 1-3.201 5.191h.003z" fill="#000"/><rect x="-52.457" y="-30" width="323.168" height="262.954" rx="25" fill="url(#paint0_linear)"/><path fill-rule="evenodd" clip-rule="evenodd" d="M-122 137.895S-82.051-76.897 10.634 54.421c75.206 106.552 84.14 119.278 118.72 98.01 40.55-24.941 48.029-98.01 68.204-98.01 20.175 0 49.917 127.93 66.297 106.552 16.379-21.377 29.095-85.604 62.454-85.604 33.358 0 28.502 79.322 28.502 79.322l-13.783 92.636-198.155-13.234-260.079 30.539" fill="url(#paint1_linear)"/></g><defs><linearGradient id="paint0_linear" x1="-52.457" y1="101.477" x2="268.875" y2="101.769" gradientUnits="userSpaceOnUse"><stop stop-color="#459622"/><stop offset="1" stop-color="#B0E94F"/></linearGradient><linearGradient id="paint1_linear" x1="337.822" y1="84.947" x2="-91.511" y2="87.347" gradientUnits="userSpaceOnUse"><stop stop-color="#5CA82C"/><stop offset="0" stop-color="#68B231"/><stop offset="1" stop-color="#A6E24B"/></linearGradient></defs></svg>